<?xml version="1.0" encoding="UTF-8"?>
<svg id="Layer_1" xmlns="http://www.w3.org/2000/svg" version="1.1" viewBox="0 0 305.5 481.5">
  <!-- Generator: Adobe Illustrator 29.0.0, SVG Export Plug-In . SVG Version: 2.1.0 Build 186)  -->
  <defs>
    <style>
      .st0 {
        fill: none;
      }

      .st1 {
        fill: #486cb4;
      }

      .st2 {
        fill: #fff;
      }

      .st3 {
        fill: #476bb3;
      }
    </style>
  </defs>
  <path class="st0" d="M152.7,147.3h0s0,0,0,0h0ZM157,150.9s0,0,0,0c0,0,0,0,0,0h0ZM174.8,35.6c-.7,0-1.4,0-2,.3.6-.2,1.3-.3,2-.3.6,0,1.2,0,1.7.1.5,0,1.1.2,1.6.4-.5-.2-1-.4-1.6-.4-.6,0-1.2-.1-1.7-.1ZM184.3,30.7c-.5.2-.9.4-1.3.8-.2.2-.4.4-.5.6.2-.2.3-.4.5-.6.4-.3.8-.6,1.3-.8h0ZM100.7,172.6h0c.3,0,.6,0,1,.2-.3,0-.6-.1-1-.2ZM170.7,39.9h0c0-.6,0-1.1.2-1.7.1-.5.3-1,.7-1.4-.3.4-.5.9-.7,1.4-.1.6-.2,1.1-.2,1.7ZM148.8,165.7h0s0,0,0,0h0ZM182.5,41h6.5s-6.5,0-6.5,0h0ZM202.5,205.1c.6,2.1,1,4.3,1.3,6.5-.3-2.2-.7-4.4-1.3-6.5h0ZM208.5,48.6c-.2-.5-.4-1-.7-1.4.3.4.6.9.7,1.4h0ZM222.4,233.7s0,0,0,0c0,.1,0,.3,0,.4,0-.1,0-.2,0-.4h0ZM208.3,179.3c0,0,0-.1.1-.2,0,0,0,.1-.1.2h0ZM208.4,173.6c0,0-.1,0-.2-.1,0,0,.1,0,.2.1h0ZM189,32.1c-.2-.2-.3-.4-.5-.6-.4-.3-.8-.6-1.3-.8.5.2.9.4,1.3.8.2.2.4.4.5.6ZM202.7,46.2c-.5.2-1,.6-1.3,1-.4.4-.6.9-.8,1.4.2-.5.5-1,.8-1.4.4-.4.8-.8,1.3-1h0ZM152.6,31.1c-.2.1-.4.3-.6.5-.2.2-.4.4-.5.6.2-.2.3-.4.5-.6.2-.2.4-.3.6-.5ZM122.8,46.1c.9,0,1.7,0,2.5.2.8.2,1.5.3,2.1.5-.6-.1-1.3-.3-2.1-.5-.8-.2-1.7-.2-2.5-.2ZM113.5,64.1h6.5s-6.5,0-6.5,0h0ZM164.2,64.1h0v-24.3c-.1-2.6.8-5.2,2.5-7.1-1.7,1.9-2.7,4.5-2.5,7.1v24.3ZM235.9,336.3c.4-.4.8-.8,1.3-1,.6-.3,1.3-.4,1.9-.4.7,0,1.3.1,1.9.4.5.2.9.6,1.3,1h0c.4.4.6.9.8,1.4.2.5.2.9.3,1.4,0-.5-.1-1-.3-1.4-.1-.5-.4-1-.8-1.4-.3-.4-.8-.8-1.3-1-.6-.3-1.3-.4-1.9-.4-.7,0-1.3.1-1.9.4-.5.2-1,.6-1.3,1-.4.4-.7.9-.8,1.5-.2.5-.3,1.1-.4,1.6,0-.6.2-1.1.4-1.6.2-.5.5-1,.8-1.5h0ZM235.2,345.6c-.3-.5-.4-1.1-.5-1.6h0c0,.6.2,1.1.5,1.6h0ZM89.8,61.2c1.1,1.1,2.4,2,3.8,2.5,1.7.6,3.6,1,5.4.9-1.8,0-3.7-.3-5.4-.9-1.4-.6-2.7-1.4-3.8-2.5ZM120.1,46.4c.4-.1.9-.2,1.3-.2-.4,0-.9.1-1.3.2ZM247.6,347.2h0c-.9.4-1.9.7-2.9.8-.7.1-1.5.2-2.2.3.7,0,1.5-.1,2.2-.3,1-.2,2-.5,2.9-.8h0ZM243.3,330.1c1.4.5,2.6,1.3,3.6,2.4,1.9,2,2.9,5,2.9,9h0c0-3.9-1-6.9-2.9-9-1-1-2.3-1.9-3.6-2.4ZM204.6,45.8c-.3,0-.6,0-1,0,.3,0,.6,0,1,0ZM158,32.1c-.2-.2-.3-.4-.5-.6-.2-.2-.4-.3-.6-.5.2.1.4.3.6.5.2.2.4.4.5.6h0ZM151.5,41h6.5s-6.5,0-6.5,0h0ZM123,40.5c.4,0,.8,0,1.3,0-.5,0-.9,0-1.3,0ZM247.3,234.9c.2,1,.3,2,.3,3.1,0-1,0-2.1-.3-3.1l-16.2-70.6c0-.2-.1-.4-.2-.6,0,.2.1.4.2.6l16.2,70.6ZM113.5,42.2h0c1.4-.5,2.7-.8,4.1-1.2-1.4.3-2.8.7-4.1,1.2ZM133.7,61.8c.4.4.8.8,1.3,1.2-.5-.3-.9-.7-1.3-1.2h0c-.7-.9-1.2-2-1.5-3.1-.3-1.3-.4-2.7-.4-4.1h0c0,1.4.1,2.7.4,4.1.2,1.1.7,2.2,1.5,3.1h0ZM249.8,342.7h0c0,0,0-.1,0-.1,0,0,0,0,0,.1h0ZM123.8,282.8c-.5,0-1.1-.1-1.6-.4-2-1.1-2.8-3.6-1.7-5.6,0-.1.1-.2.2-.4,0,0,0-.2.1-.3,0,0,0,.2-.1.3,0,.1-.1.3-.2.4-1.1,2-.3,4.5,1.7,5.6.5.2,1,.4,1.6.4,1.7,0,3.2-1.1,3.9-2.6,0,0,0,0,0,0h0s0,0,0,0c-.7,1.5-2.2,2.5-3.9,2.6ZM127.9,279.9h0c.1-.3.2-.5.3-.7,0,.2-.2.4-.3.7h0ZM129.4,275.6c0,.3-.2.6-.2.8,0-.3.2-.6.2-.8.3-.8.6-1.6.8-2.3.3-1,.6-1.9,1.1-2.8-.5.9-.8,1.8-1.1,2.8-.3.8-.5,1.6-.8,2.3ZM100.5,233.5c.7,0,1.4.3,2,.7,0,0,.1,0,.2,0,0,0-.1,0-.2,0-.6-.4-1.3-.7-2-.7,0,0,0,0,0,0ZM133.7,267.8c.1,0,.2,0,.4,0h0s0,0,0,0c-.1,0-.2,0-.4,0ZM123.2,272.6c0,.1-.2.3-.3.4,0-.1.2-.3.3-.4h0ZM179.8,264.1s0,0,0,0h0s0,0,0,0c0,0,0,0,0,0ZM179.3,262.7c0-.1,0-.2-.1-.3h0c0,0,0,.2.1.3h0ZM201.8,233.9c.5,0,1.1.2,1.6.3-.3,0-1.1-.2-1.6-.3h0ZM93.7,235.4h0s0,0,0,0c2.2-.9,4.4-1.5,6.7-2h0c-2.3.4-4.6,1.1-6.7,2,0,0,0,0,0,0ZM177.9,278.9c0,0,0,.1,0,.2h0s0,0,0,0c0,0,0-.1,0-.2h0ZM180.6,282.3c0,0,.2,0,.2.1.5.2,1,.3,1.6.3-.5,0-1.1,0-1.6-.3,0,0-.2,0-.2-.1h0ZM179.8,264h0s0,0,0,0h0ZM135,266.1h0c11.7,4.5,24.6,4.5,36.3,0v.2c0,0,0-.1,0-.2-11.7,4.4-24.6,4.4-36.3,0h0ZM176.8,275.4c-.7-2.3-1.6-4.4-2.7-6.5-.4-.6-1-1-1.7-1.1,0,0-.2,0-.3,0h0s0,0,0,0c0,0-.1-.2-.2-.4,0,.2.2.3.2.4h0s0,0,0,0c0,0,.2,0,.3,0,.7.1,1.3.5,1.7,1.1,1.1,2.1,2,4.3,2.7,6.5h0c0,.3.1.5.2.7,0-.2-.1-.4-.2-.6h0ZM194.4,47.3h0c.4-1.1,1-2.1,1.7-3-.7.9-1.3,1.9-1.7,3ZM230.8,59.1c.6,0,1.1,0,1.6,0,.5,0,.9,0,1.2-.2-.3,0-.7.1-1.2.2-.5,0-1,0-1.6,0-1.6,0-3.1-.6-4-1.8-1-1.4-1.4-3.1-1.4-4.9,0-2.9.8-4.8,2.3-5.7-1.5.9-2.3,2.8-2.3,5.7,0,1.7.4,3.4,1.4,4.9,1,1.2,2.5,1.9,4,1.8h0ZM213.7,63.2h0s-.9-5.3-.9-5.3c-.6.2-1.2.4-1.9.6.6-.2,1.3-.3,1.9-.6l.9,5.3ZM102.7,234.3l1.7-.3-1.7.3Z"/>
  <path class="st0" d="M204.5,40.4c2.9-.1,5.7.9,7.8,3,1.9,2,2.8,4.9,2.9,8.8h0c0-3.9-.9-6.8-2.9-8.8-2-2.1-4.9-3.2-7.8-3-1.4,0-2.8.3-4.1.8-1.3.5-2.5,1.3-3.5,2.3h0c1-1,2.2-1.8,3.5-2.3,1.3-.5,2.7-.8,4.1-.8ZM233.6,47c-.5-.3-1-.5-1.6-.7-.7-.2-1.3-.3-2-.3.7,0,1.3,0,2,.3.6.1,1.1.4,1.6.7h0ZM202,57.9c1.3.9,2.9,1.3,4.5,1.2,1,0,2.1,0,3.1-.3-1,.2-2,.3-3.1.3-1.6,0-3.1-.3-4.5-1.2-1.1-.7-1.8-1.9-1.9-3.2h0c.1,1.3.8,2.5,1.9,3.2,0,0,0,0,0,0ZM89.4,237h0s0,0,0,0c.2,0,.5-.1.7-.2,0,0,0,0,0,0,0,0,0,0,0,0-.2,0-.5.1-.7.2ZM219,55.8c.1.6.3,1.3.5,1.9.2.7.6,1.3.9,2-.4-.6-.7-1.3-.9-2-.2-.6-.4-1.2-.5-1.9ZM89,237.1s0,0,0,0h0s0,0,0,0c0,0,0,0,0,0h0ZM221.4,43.8c.9-1,2-1.9,3.2-2.4,1.4-.6,2.9-.9,4.4-.8.8,0,1.6,0,2.4.3.7.2,1.5.4,2.2.7h0c-.7-.3-1.4-.6-2.2-.7-.8-.2-1.6-.3-2.4-.3-1.5,0-3,.3-4.4.8-1.2.5-2.4,1.4-3.2,2.4-.9,1.1-1.6,2.4-2,3.8h0c-.2.8-.4,1.6-.5,2.5.1-.8.3-1.7.5-2.5.4-1.4,1.1-2.7,2-3.8ZM240.2,30l-6.5,1.1,6.5-1.1ZM88.9,237.1h0s0,0,0,0h0s0,0,0,0h0s0,0,0,0ZM83.9,234.5h0s0,0,0,0c0,0,0,0,0,0h0ZM230.7,64.6c-.9,0-1.8,0-2.6-.2.9.1,1.7.2,2.6.2.8,0,1.6,0,2.5-.1.9,0,1.7-.2,2.5-.3-.8.1-1.7.2-2.5.3-.9,0-1.7.1-2.5.1ZM175.9,332.5h0c.8,1,1.4,2.1,1.6,3.4,0,0,0,.1,0,.2,0,0,0-.1,0-.2-.3-1.2-.9-2.4-1.6-3.4-.8-1-1.9-1.8-3.2-2.2,1.2.4,2.3,1.2,3.2,2.2h0ZM94.4,335.4c.7-.2,1.4-.3,2-.3-.7,0-1.4,0-2,.3ZM95.7,354c-.4,0-.8,0-1.2,0,.4,0,.8,0,1.2,0,1.8,0,3.5-.3,5.2-.8.4-.1.7-.3,1.1-.5-.3.2-.7.3-1.1.5-1.7.6-3.4.9-5.2.8ZM104.7,350.7c1.1-1.1,1.9-2.4,2.4-3.9.2-.5.3-1,.4-1.5-.1.5-.3,1-.4,1.5-.5,1.4-1.3,2.8-2.4,3.9ZM190.7,346.2c-.5-.7-.9-1.5-.9-2.3h0c0,.8.4,1.6.9,2.3h0ZM196.6,354c.4,0,.8,0,1.2-.1.2,0,.4,0,.6,0-.2,0-.4,0-.6,0-.4,0-.8,0-1.2.1h0ZM190,330.2c1.2-.5,2.6-.8,3.9-.8-1.3,0-2.7.3-3.9.8-1.3.5-2.5,1.3-3.6,2.4-1.1,1.1-1.9,2.4-2.5,3.8.6-1.4,1.4-2.7,2.5-3.8,1-1,2.2-1.8,3.6-2.4ZM111.9,341.9h0c0-.2,0-.4,0-.6,0,.2,0,.4,0,.6ZM183.4,345.8c0,.3.2.6.2.9,0,0,0,0,0,.1,0,0,0,0,0-.1,0-.3-.2-.6-.2-.9h0ZM194.3,334.9c-.2,0-.3,0-.5,0,.2,0,.3,0,.5,0h0ZM90.6,353.6c-.8-.1-1.6-.3-2.4-.4.8.1,1.6.3,2.4.4.9.1,1.7.2,2.6.3.4,0,.9,0,1.3,0-.4,0-.9,0-1.3,0-.9,0-1.7-.1-2.6-.3ZM101.5,64.5c.8,0,1.6-.2,2.3-.3.7-.1,1.3-.3,1.9-.5-.6.2-1.3.3-2,.5-.7.1-1.5.2-2.3.3ZM222.4,348.2s0,0-.1,0c0,0,0,0,.1,0h0ZM131.6,333.2c1.4,2,2.2,4.4,2.3,6.8,0-2.4-.8-4.8-2.3-6.8h0ZM204.9,342.7s0,0,0-.1c0,0,0,0,0,.1h0ZM197.5,336.3c.4.4.6.9.8,1.4.1.4.2.9.3,1.3,0-.4-.1-.9-.3-1.3-.1-.5-.4-1-.8-1.4-.3-.4-.8-.8-1.3-1-.4-.2-.9-.3-1.4-.4.5,0,1,.2,1.4.4.5.2.9.6,1.3,1h0ZM191,336.3c.4-.4.8-.8,1.3-1,.3-.1.6-.2.9-.3-.3,0-.6.2-.9.3-.5.2-1,.6-1.3,1-.4.4-.7.9-.8,1.5-.2.5-.3,1.1-.4,1.6,0-.6.2-1.1.4-1.6.2-.5.5-1,.8-1.5h0ZM205,341.4h0c.1-2.6-.5-5.1-1.7-7.4,1.2,2.3,1.8,4.8,1.7,7.4h0ZM168,329.5c.8,0,1.6,0,2.4.2-.8-.1-1.6-.2-2.4-.2ZM170.4,329.7c.8.1,1.6.3,2.3.6-.8-.3-1.5-.5-2.3-.6ZM203.8,234c0,0-.2.1-.2.2h0s0,0,0,0h0c0,0,.2-.1.2-.2.5-.4,1.1-.6,1.7-.7h0s0,0,0,0c-.6,0-1.2.2-1.7.7h0ZM153.2,335.7l1.1-5.2-1.1,5.2ZM126.4,336.3c.4.4.6.9.8,1.4.2.5.3,1.1.3,1.6,0-.6-.1-1.1-.3-1.6-.1-.5-.4-1-.8-1.4-.3-.4-.8-.8-1.3-1-.1,0-.3-.1-.5-.2.2,0,.3.1.5.2.5.2.9.6,1.3,1ZM167.8,329.5s0,0,0,0c0,0,0,0,0,0h0ZM118.9,344.7c0-.3-.1-.5-.2-.8h0c0,.3,0,.5.2.8,0,0,0,0,0,0ZM118.9,330.2c1.3-.5,2.8-.8,4.2-.8-1.4,0-2.9.3-4.2.8-1.3.5-2.5,1.3-3.6,2.4-1.1,1.1-2,2.5-2.5,3.9.6-1.5,1.4-2.8,2.5-3.9,1-1,2.2-1.8,3.6-2.4ZM118.6,353.1c0,0,0,0,.1,0,1.8.7,3.6,1,5.5.9-1.9,0-3.8-.3-5.5-.9,0,0,0,0-.1,0h0ZM183,341.9h0c0,0,0-.2,0-.3,0,0,0,.2,0,.3ZM131.6,333.2c-.2-.2-.4-.5-.6-.7-.3-.3-.5-.5-.8-.7.3.2.6.5.8.7.2.2.4.5.6.7h0Z"/>
  <path class="st0" d="M124.2,329.4c-.3,0-.7,0-1,0h0c.3,0,.7,0,1,0ZM167.4,335.1c-.5,0-1,0-1.5,0,.5,0,1,0,1.5,0,1.2-.1,2.4.4,3.2,1.3.2.4.3.7.4,1.1-.1-.4-.3-.7-.4-1.1-.7-1-1.9-1.5-3.2-1.3h0ZM178,340.2h0s0,0,0,0c0,0,0,0,0,0h0ZM111.9,342c0,1.6.2,3.2.7,4.7.3.8.6,1.6,1.1,2.3-.5-.7-.8-1.5-1.1-2.3-.5-1.5-.7-3.1-.7-4.7,0,0,0,0,0,0ZM86.1,352.7c.6.2,1.3.4,2,.5-.8-.2-1.5-.4-2-.5ZM227.8,341.9h0c0-.2,0-.4,0-.5,0,.2,0,.4,0,.5h0ZM102.2,50.2c0-.6-.1-1.1-.3-1.6.2.5.3,1.1.3,1.6ZM240.2,354.1c-.8,0-1.6,0-2.5-.2.8.1,1.6.2,2.5.2ZM237.4,353.8c-.8-.1-1.5-.3-2.3-.6.8.3,1.5.4,2.3.6h0ZM100.6,46.6c-.2-.2-.4-.3-.7-.4-.1,0-.3-.1-.5-.2.2,0,.3.1.5.2.2.1.5.3.7.4ZM86.8,52.7h0c0,.2,0,.4,0,.5,0-.2,0-.4,0-.5ZM96.1,46.2c-.5.2-1,.6-1.3,1-.4.4-.6.9-.8,1.4.2-.5.5-1,.8-1.4.4-.4.8-.8,1.3-1h0,0ZM95.4,57.9c-1.1-.7-1.8-1.9-1.9-3.2h0c.1,1.3.8,2.5,1.9,3.2Z"/>
  <path class="st0" d="M97.9,40.4c2.9-.1,5.7.9,7.8,3,1.9,2,2.8,4.9,2.8,8.8,0-3.9-.9-6.8-2.8-8.8-2-2.1-4.9-3.2-7.8-3-1.4,0-2.8.3-4.1.8-1.3.5-2.5,1.3-3.5,2.3,1-1,2.2-1.8,3.5-2.3,1.3-.5,2.7-.8,4.1-.8ZM241.5,354c.4,0,.8,0,1.2-.1.2,0,.4,0,.6,0-.2,0-.4,0-.6,0-.4,0-.8,0-1.2.1ZM246,353.4c.3,0,.7-.2,1-.3,0,0,0,0,0,0,0,0,0,0,0,0-.3,0-.7.2-1,.3h0ZM101.6,59c-.6,0-1.2,0-1.7,0-1.6,0-3.1-.3-4.5-1.2,1.3.9,2.9,1.3,4.5,1.2.6,0,1.2,0,1.7,0ZM234.9,330.2c1.2-.5,2.6-.8,3.9-.8-1.3,0-2.7.3-3.9.8-1.3.5-2.5,1.3-3.6,2.4-1,1.1-1.9,2.3-2.4,3.7.6-1.4,1.4-2.6,2.4-3.7,1-1,2.2-1.8,3.6-2.4ZM264.3,348.3c-.6.2-1.3.3-1.9.4.7,0,1.3-.1,1.9-.4.5-.3.8-.8.8-1.4,0-.6-.4-1.1-1-1.4-.9-.6-1.9-1-3-1.4,0,0,0,0,0,0,0,0,0,0,0,0,1,.4,2,.8,3,1.4.6.2.9.8,1,1.4,0,.6-.2,1.1-.8,1.4ZM228.3,345.8c0,.3.2.6.2.9.2.5.4,1.1.7,1.6-.3-.5-.5-1-.7-1.6,0-.3-.2-.6-.2-.9h0ZM270.6,330.6c-1-.4-2.1-.6-3.1-.8-1.3-.3-2.7-.4-4.1-.4,1.4,0,2.7.1,4.1.4,1.1.2,2.1.4,3.1.8ZM269,352.3h0s0,0,0,0c1.5-1,2.5-2.7,2.6-4.5-.1,1.8-1.1,3.5-2.6,4.5h0ZM261.6,354.1c1,0,1.9,0,2.9-.2-.9.1-1.9.2-2.9.2h0ZM66.3,342.3h0c0,.4,0,.8,0,1.2,0-.4,0-.8,0-1.2ZM71.8,348.3c.5,0,1-.1,1.4-.2-.4,0-.8.1-1.4.2ZM209.9,324.2l6.6-1.1-6.6,1.1v19.7c0,0,0,.2,0,.2,0,0,0-.2,0-.2v-19.7ZM222.4,348.2c.7-.1,1.4-.3,2.1-.6l.9,5.2-.9-5.2c-.7.3-1.4.4-2.1.6ZM119.1,337.7c.2-.5.5-1,.8-1.5.4-.4.8-.8,1.3-1,.3-.1.5-.2.8-.3-.3,0-.6.2-.8.3-.5.2-1,.6-1.3,1-.4.4-.7.9-.8,1.5-.2.5-.3,1.1-.4,1.6h0c0-.6.2-1.1.4-1.6ZM261.4,337.8c.1,0,.2.2.4.2-.1,0-.3-.2-.4-.2-.2-.2-.4-.3-.5-.6.1.2.3.4.5.6h0ZM68.6,354c.4,0,.8,0,1.3,0,1.9,0,3.8-.1,5.6-.4-1.9.3-3.7.5-5.6.4-.4,0-.8,0-1.3,0h0ZM259.4,329.9c-1,.3-1.9.8-2.8,1.4-.1.1-.3.2-.4.3.1-.1.3-.2.4-.3.9-.6,1.8-1.1,2.8-1.4h0ZM59.6,343.1c0,0,0,.1,0,.2,0,0,0-.1,0-.2h0ZM80.9,46.3c-.8-.2-1.6-.3-2.5-.3-1.6-.1-3.2.5-4.3,1.8-1,1.4-1.5,3-1.4,4.7,0-1.7.4-3.4,1.4-4.7,1.1-1.3,2.7-1.9,4.3-1.8.8,0,1.6,0,2.5.3.7.2,1.4.4,2,.6l1.4-5.2h0s-1.4,5.2-1.4,5.2c-.7-.2-1.3-.5-2-.6ZM68.8,61.2c-1-1.1-1.7-2.4-2.1-3.8-.5-1.6-.7-3.2-.7-4.8,0-1.6.3-3.2.8-4.7-.5,1.5-.8,3.1-.8,4.7,0,1.6.2,3.2.7,4.8.4,1.4,1.2,2.7,2.1,3.8ZM78.7,59.1c.9,0,1.7,0,2.5-.2.9-.1,1.7-.4,2.5-.7l.2.9-.2-.9c-.8.3-1.6.6-2.5.7-.8.1-1.7.2-2.5.2-2.2,0-3.8-.6-4.7-1.7-1-1.4-1.4-3.1-1.3-4.8-.1,1.7.4,3.4,1.3,4.8.9,1.1,2.4,1.7,4.7,1.7ZM262.8,338.6c0,0-.2,0-.3-.1,0,0,0,0-.1,0,0,0,0,0,.1,0,0,0,.2,0,.3.1ZM61.6,350.6c0,.1.1.2.2.3,0,0,.1.1.2.2,0,0-.1-.1-.2-.2,0-.1-.1-.2-.2-.3ZM175.3,172.3c1.9.9,3.8,2,5.6,3.2-1.8-1.2-3.7-2.2-5.6-3.2-5.6-2.7-11.6-4.4-17.8-5h0c0,0,0,0,0,0,6.2.6,12.2,2.2,17.8,5ZM135.1,228.8h0s0,0,0,0h0,0ZM156.5,156.6v.2s0-.2,0-.2c0-.4.1-.9.2-1.2.2-.8.3-1.7.3-2.5,0,.8-.2,1.7-.3,2.5,0,.4-.2.8-.2,1.2h0ZM156.1,163.7c.1.7.5,1.3,1.1,1.7-.6-.4-1-1-1.1-1.7,0-2.3,0-4.6.4-6.9-.4,2.3-.5,4.6-.4,6.9h0ZM138.9,233.6h0c0,0,0,0,0,0h0s0,0,0,0h0ZM149.1,151.8h0c0,0,0,0,0,0h0ZM157.1,152.1c0,.1,0,.3,0,.4,0-.1,0-.3,0-.4,0-.1,0-.3,0-.4,0,0,0,0,0,0,0,0,0,0,0,0v.4ZM157.4,165.7s0,0,0,0h0c0-.1,0-.1,0-.1h0s0,0,0,0ZM199.2,177.1h-.1c-1.5,1.7-3.1,3.2-4.8,4.5,1.7-1.3,3.3-2.8,4.8-4.4h.1ZM153.1,237.1s0,0-.1,0c-.5,0-.9.1-1.3.3.4-.2.9-.3,1.3-.3,0,0,0,0,.1,0ZM156.1,238.9h0s0,0,0,0c-.6-1.1-1.8-1.8-3-1.8,1.3,0,2.4.7,3,1.8h0ZM139.1,232.5c0,0,0-.2,0-.3,0,0,0,0,0,0,0,0,0,.2,0,.3h0ZM140.1,256.9h0l3.5-6.4-3.5,6.4ZM191.6,182.1h0,0s-1.5,1.1-1.5,1.1l1.5-1.1h0ZM201.9,174.3c.1-.1.3-.2.4-.3-.2.1-.3.2-.4.3-.6.6-1.2,1.2-1.8,1.8.5-.7,1.1-1.3,1.8-1.8ZM47,350c.2.3.4.6.6.9.6.9,1.2,1.8,1.6,2.5h0c-.5-.8-1-1.6-1.6-2.5-.2-.3-.4-.6-.6-.9h0ZM92.2,228.8c2.3-.2,4.7-.5,7-1.1.5-.3.9-.7,1.2-1.1-.3.4-.7.8-1.2,1.1-2.3.6-4.6,1-7,1.1h0c-.4,0-.8,0-1.2,0,.4,0,.8,0,1.2,0h0ZM98.5,179.9h0s0,0,0,0h0s0,0,0,0h0s0,0,0,0ZM149.7,156.6h0c0,0,0,0,0,0,.4,2.3.5,4.7.4,7.1,0-2.4,0-4.7-.4-7.1ZM181.5,189.2h0s-15.8,11.2-15.8,11.2l15.8-11.2ZM109.2,188.7s0,0,0,.1h0s0,0,0,0h0ZM158.1,177.9s0,0,0,0c0,0,0,0,0,0l1.2,20.6-1.2-20.5ZM134,215.7h0c-.1.1-.3.3-.4.4.2-.1.3-.3.4-.4h0ZM88.3,229.1c-.2,0-.5.1-.7.2h-.3c0,0,.2,0,.3,0,.2,0,.5-.1.7-.2h0ZM43.4,345.4c-.3-.4-.7-.8-1.1-1.1.4.4.7.7,1.1,1.1.8.9,1.5,1.8,2.2,2.7.2.3.4.5.6.8-.2-.3-.4-.5-.6-.8-.7-.9-1.4-1.9-2.2-2.7ZM159.9,200.3h0c-.1-.1-.2-.3-.3-.5,0,.2.2.3.3.5ZM135.7,228.8s0,0,0,0c0,0,0,0,0,0h0ZM114.2,182.2c0,0,.2,0,.3,0,0,0-.2,0-.3,0-.7.2-1.4,0-2-.3.6.4,1.3.4,2,.3ZM104.3,174.4c.6.6,1.2,1.2,1.7,1.8.3.3.5.6.8.9h0c-.3-.3-.6-.6-.8-.9-.5-.6-1.1-1.3-1.7-1.8-.2-.1-.4-.3-.6-.5h-.2c0-.1.2,0,.2,0,.2.2.5.4.6.5,0,0,0,0,0,0ZM87.2,229.3h0s0,0,0,0h0c-.2,0-.5,0-.7.2,0,0,0,0,0,0,.2,0,.5-.1.7-.2h0ZM61.3,245.5c-.3-.3-.5-.7-.7-1-1.8-2.8-2.5-6.3-1.7-9.6l16.2-70.6-16.2,70.6c-.8,3.3-.1,6.7,1.7,9.6.2.3.5.7.7,1,0,0,0,0,0,0ZM43.2,336.3c.7-.8,1.4-1.5,2-2.3.7-.8,1.3-1.5,1.8-2.2.6-.7,1.1-1.3,1.5-1.8h7.9s-7.9,0-7.9,0c-.4.5-.9,1.1-1.5,1.8-.6.7-1.2,1.4-1.8,2.2-.7.7-1.3,1.5-2,2.3-.7.8-1.3,1.5-2,2.2h0c.7-.7,1.3-1.5,2-2.2ZM192.5,208c.3,1.2.6,2.4.8,3.6-.2-1.2-.5-2.4-.8-3.6ZM193.3,211.7c.4,2.5.6,5,.6,7.4,0-2.5-.2-5-.6-7.4ZM207,227.5c2.3.6,4.6,1,7,1.1h0s0,0,0,0c-2.4-.2-4.7-.5-7-1.1-.7-.4-1.2-.9-1.6-1.5.4.6.9,1.2,1.6,1.5ZM34.6,320l6.6-1.1h0s-6.6,1.1-6.6,1.1v33.5h0s0-33.5,0-33.5ZM141.4,201.1h0s0,0,0,0c.2.1.3.2.5.3-.2,0-.4-.2-.5-.3h0ZM191.5,232.1c0,0,0,.2,0,.2,0,0,0-.2,0-.2l-20.4-3.5,20.4,3.5ZM143.3,201.8h0c-.2,0-.4,0-.6,0,.2,0,.4,0,.6,0ZM195.6,190c0,0,.1-.1.2-.2,0,0-.1.1-.2.2h0ZM187.8,197c.7,1.2,1.4,2.4,2,3.7-.6-1.3-1.3-2.5-2-3.7l-15.3,13.7,15.3-13.7ZM172.4,210.7h0c-.1.1-.3.2-.4.4.1-.1.2-.3.4-.4h0ZM213.7,235.9c-.4-.2-.8-.3-1.2-.5h-.1c-.2-.1-.3-.2-.5-.2.2,0,.3.1.5.2h.1c.4.2.8.4,1.2.5.8.4,1.5.6,2.4.9,0,0,0,0,0,0,0,0,0,0,0,0-.8-.2-1.6-.5-2.3-.9ZM218.9,229.2c0,0-.2,0-.3,0-.3,0-.5-.1-.7-.2.2,0,.5.1.7.2,0,0,.2,0,.3,0ZM171.4,212.4s0,0,0,0c0,0,0-.2,0-.3,0,0,0,.1,0,.2h0ZM217.2,237h0s0,0,0,0c0,0,0,0,0,0-.1,0-.2,0-.4,0h0s0,0,0,0c.1,0,.3,0,.4,0,0,0,0,0,0,0,0,0,0,0,0,0h0s0,0,0,0c.2,0,.5.1.7.2,0,0,0,0,0,0-.3,0-.5,0-.7-.2h0ZM196.8,188.9s0,0,.1-.1h0s0,0,0,0c0,0,0,0-.1.1h0ZM162.2,258.1c-1.3.3-2.7.5-4.1.7,1.4-.2,2.7-.4,4.1-.7,1.3-.3,2.7-.7,4-1.1-1.3.4-2.6.8-4,1.1h0ZM204.6,181.8s0,0,0,0c.7-.4,1.5-.8,2.1-1.3-.7.5-1.4.9-2.1,1.3,0,0,0,0,0,0h0ZM207.4,180l.3-.2h0s0,0,0,0l-.3.2ZM146.9,198.5h0s0,0,0,0h0ZM197.2,187.3c.1-.3.3-.5.5-.8.1,0,.2-.2.3-.3-.1,0-.2.2-.3.3-.2.2-.4.5-.5.8h0ZM150,238.9c0-.1.2-.2.3-.4,0,.1-.2.2-.3.4h0s0,0,0,0h0ZM110.5,190l-1.2-1.1,1.2,1.1c-6.9,10.4-9.8,23.1-8,35.5h-.4c0,.1.4,0,.4,0-1.8-12.4,1.1-25,8-35.5h0ZM167,231.9c0,0,0-.1,0-.2,0,0,0,.1,0,.2h0ZM170.3,228.7c-1.6,0-3,1.2-3.2,2.8.3-1.6,1.7-2.7,3.2-2.8h0ZM171,228.7h0c-.2,0-.4,0-.7,0,.2,0,.4,0,.7,0h0ZM197,188.7h0s0,0,0,0h0Z"/>
  <path class="st2" d="M243.4,339.2c0-.5-.1-1-.3-1.4-.1-.5-.4-1-.8-1.4h0c-.3-.4-.8-.8-1.3-1-.6-.3-1.3-.4-1.9-.4-.7,0-1.3.1-1.9.4-.5.2-1,.6-1.3,1-.4.4-.7.9-.8,1.5-.2.5-.3,1.1-.4,1.6h8.8c0,0,0-.1,0-.2h0ZM96.4,335.1c-.7,0-1.4,0-2,.3-.6.1-1.1.4-1.6.7v12.1c.3,0,.7.1,1.2.2.5,0,1.1,0,1.6,0,1.6.1,3.1-.6,4.1-1.9,1-1.5,1.5-3.2,1.4-4.9,0-4.3-1.6-6.4-4.7-6.4,0,0,0,0,0,0ZM198.5,339c0-.4-.1-.9-.3-1.3-.1-.5-.4-1-.8-1.4-.3-.4-.8-.8-1.3-1-.6-.3-1.3-.4-1.9-.4-.7,0-1.3.1-1.9.4-.5.2-1,.6-1.3,1-.4.4-.7.9-.8,1.5-.2.5-.3,1.1-.4,1.6h8.8c0-.1,0-.2,0-.4h0ZM120,336.3c-.4.4-.7.9-.8,1.5-.2.5-.3,1.1-.4,1.6h8.8c0-.6-.1-1.1-.3-1.6-.1-.5-.4-1-.8-1.4-.3-.4-.8-.8-1.3-1-.6-.3-1.3-.4-1.9-.4,0,0,0,0,0,0-.7,0-1.3.1-1.9.4-.5.2-1,.6-1.3,1,0,0,0,0,0,0Z"/>
  <path class="st2" d="M17.4,389.1h270.8V84.5H17.4v304.6ZM80.1,352.6c-1.4.4-2.9.7-4.4.9-1.9.3-3.7.5-5.6.4-.4,0-.8,0-1.3,0-1.3,0-2.5-.3-3.7-.8-1.1-.4-2.1-1.1-2.9-2,0,0-.1-.1-.2-.2,0-.1-.1-.2-.2-.3-.7-1-1.2-2-1.4-3.2-.3-1.4-.5-2.8-.5-4.2,0,0,0-.1,0-.2v-13h6.6v12.2c-.1,1.6.2,3.2.8,4.6.7,1,1.9,1.6,3.2,1.4.5,0,1,0,1.5,0,.5,0,1-.1,1.4-.2h0v-18.1h6.6v22.6s0,0,0,0ZM107.7,345.4c-.1.5-.3,1-.4,1.5-.5,1.4-1.3,2.8-2.4,3.9-1.1,1.1-2.4,1.9-3.8,2.5-1.7.6-3.4.9-5.2.8-.4,0-.8,0-1.2,0-.4,0-.9,0-1.3,0-.9,0-1.7-.1-2.6-.3-.8-.1-1.6-.3-2.4-.4-.8-.2-1.5-.4-2-.5v-32.7l6.6-1.1v11.7c.7-.3,1.5-.6,2.3-.8.8-.2,1.7-.3,2.6-.3,1.5,0,3,.3,4.4.9,1.3.5,2.4,1.4,3.2,2.4.9,1.1,1.6,2.5,2,3.9.5,1.6.7,3.3.7,5,0,1.2-.1,2.4-.4,3.6,0,0,0,0,0,0ZM134.1,342.7c0,.4,0,.8,0,1.2h-15.1c0,.3,0,.5.2.8,0,0,0,.1,0,.2,0,.2.2.4.3.6,0,0,0,.2.1.3.1.2.2.3.4.5,0,0,.1.2.2.3.2.2.5.5.7.6,1.4.9,2.9,1.3,4.5,1.2,1.2,0,2.4-.1,3.6-.3,1-.2,2-.5,2.9-.8l.9,5.4c-.2.1-.5.2-.7.3-.2,0-.5.2-.7.2-.7.2-1.3.3-2,.4-.7.1-1.5.3-2.3.4-.8,0-1.7.1-2.5.1-1.9,0-3.8-.3-5.5-.9,0,0,0,0-.1,0-1.4-.6-2.7-1.4-3.7-2.5-1-1.1-1.8-2.4-2.3-3.9-.5-1.5-.7-3.1-.7-4.7,0,0,0,0,0-.1h0c0-.2,0-.4,0-.6,0-.3,0-.5,0-.8,0-.2,0-.3,0-.5,0-.7.2-1.5.4-2.2.1-.4.3-.9.4-1.3.6-1.5,1.4-2.8,2.5-3.9,1-1,2.2-1.8,3.6-2.4,1.3-.5,2.8-.8,4.2-.8.3,0,.7,0,1,0,.3,0,.7,0,1,.1,2.2.3,4.2,1.4,5.8,3,.2.2.4.5.6.7,1.4,2,2.2,4.4,2.3,6.8,0,.5,0,.9,0,1.4,0,.4,0,.8,0,1.3h0ZM153.4,335.7v.2c-.6-.1-1.3-.3-2.1-.4-.8-.2-1.7-.3-2.6-.3-.5,0-1,0-1.5.1-.4,0-.9.1-1.3.2v17.9h-6.6v-22.2c1.4-.5,2.8-.9,4.2-1.2,1.8-.4,3.6-.6,5.4-.6.4,0,.9,0,1.3,0,.5,0,1,0,1.5.2h0c.5,0,1,.1,1.5.3.4,0,.9.2,1.3.4h0s0,0,0,0l-1.1,5.2ZM178.2,340.2v13.2h-6.6v-12.4c.1-1.6-.2-3.1-.8-4.5-.7-1-1.9-1.5-3.2-1.3-.5,0-1,0-1.5,0h0c-.5,0-1,0-1.4.1v18.1h-6.6v-22.6c1.4-.4,2.9-.7,4.4-.9,1.8-.3,3.7-.4,5.5-.4,0,0,0,0,0,0h0c0,0,.1,0,.2,0,.8,0,1.6,0,2.4.2.8.1,1.6.3,2.3.6,1.2.4,2.3,1.2,3.2,2.2.8,1,1.4,2.1,1.6,3.4,0,0,0,.1,0,.2.3,1.4.5,2.8.5,4.2,0,0,0,0,0,0h0ZM205.2,341.4h0s0,0,0,0c0,.3,0,.7,0,1.1,0,0,0,0,0,.1,0,.4,0,.8,0,1.2h-15.1c0,.8.4,1.6.9,2.3.1.2.3.3.4.5.2.2.3.3.5.4,1.4.9,2.9,1.3,4.5,1.2.6,0,1.2,0,1.8,0,.6,0,1.2-.1,1.8-.2,1-.2,2-.5,2.9-.8l.9,5.4c-.5.2-.9.4-1.4.5-.7.2-1.3.3-2,.4-.5.1-1.1.2-1.8.3-.2,0-.4,0-.6,0-.4,0-.8,0-1.2.1-.4,0-.8,0-1.2,0-1.9,0-3.8-.3-5.5-.9-1.5-.6-2.8-1.4-3.9-2.5-1-1.1-1.8-2.4-2.2-3.8,0,0,0,0,0-.1,0-.3-.2-.6-.2-.9,0,0,0-.2,0-.3,0-.1,0-.3,0-.4,0-.3-.1-.5-.2-.8,0-.1,0-.2,0-.4,0-.3,0-.6,0-.9,0-.2,0-.5,0-.7,0-.2,0-.4,0-.5h0c0,0,0-.2,0-.3,0-1.8.3-3.5.9-5.2,0,0,0,0,0-.1.6-1.4,1.4-2.7,2.5-3.8,1-1,2.2-1.8,3.6-2.4,1.2-.5,2.6-.8,3.9-.8,0,0,.2,0,.3,0h0s0,0,0,0c2.9-.2,5.8,1,7.9,3.1.2.3.5.5.7.8.2.2.4.5.5.8,1.2,2.3,1.8,4.8,1.7,7.4h0ZM222.9,353.6c-1.2.3-2.4.4-3.6.4-1.5,0-3.1-.2-4.5-.7-1.1-.4-2.1-1.1-2.9-2-.7-.9-1.3-2-1.5-3.2-.3-1.3-.4-2.6-.4-3.9,0,0,0-.2,0-.2v-19.7l6.6-1.1v6.9h8v5.5h-8v8.2c0,1.2.2,2.3.7,3.3.1.2.3.4.5.5.7.5,1.6.8,2.5.7.7,0,1.4,0,2-.2,0,0,0,0,.1,0,.7-.1,1.4-.3,2.1-.6l.9,5.2c-.9.3-1.8.6-2.7.8h0ZM264.3,345.6c-.9-.6-1.9-1-3-1.4,0,0,0,0,0,0-1-.4-2-.8-2.8-1.2-.8-.4-1.5-.9-2.1-1.5-.6-.6-1.1-1.3-1.4-2.1-.3-.9-.5-1.9-.5-2.9,0-1.8.7-3.6,2.1-4.9.1-.1.3-.2.4-.3,1.7-1.2,3.7-1.9,5.8-1.9.3,0,.6,0,.9,0h0c1.4,0,2.7.1,4.1.4,1.1.2,2.1.4,3.1.8h0s0,0,0,0l-1.2,5.2h0c-.1,0-.3,0-.4-.1-.4-.1-.7-.2-1.1-.3-.4,0-.7-.2-1.1-.3-1-.2-2-.3-3-.3-2.1,0-3.1.6-3.1,1.7,0,.2,0,.5.1.7,0,0,0,0,0,0,.1.2.3.4.5.6.1,0,.2.2.4.2.2,0,.4.2.6.3,0,0,0,0,.1,0,0,0,.2,0,.3.1.4.2.9.4,1.5.6,1.2.4,2.4,1,3.6,1.6.4.2.7.4,1,.6,0,0,.2.1.3.2.3.3.7.6.9.9h0s0,0,0,0c.5.6.9,1.3,1.2,2,.3.8.4,1.7.4,2.6.1,2.1-.9,4.1-2.6,5.3h0c-1.4.9-2.9,1.4-4.5,1.6-.9.1-1.9.2-2.9.2h0c-1.8,0-3.5-.1-5.2-.5-1-.2-1.9-.5-2.9-.9l1.1-5.4c1.1.4,2.3.8,3.5,1.1,1.2.2,2.3.4,3.5.4.2,0,.4,0,.7,0,.7,0,1.3-.1,1.9-.4.5-.3.8-.8.8-1.4,0-.6-.4-1.1-1-1.4h0ZM250.1,341.4h0c0,.1,0,.3,0,.4,0,.2,0,.5,0,.7,0,0,0,0,0,.1h0c0,.5,0,.8,0,1.2h-15.1c0,.6.2,1.1.5,1.6,0,0,0,.1,0,.2.3.4.6.8,1,1.1.1,0,.2.2.3.3,1.4.9,2.9,1.3,4.5,1.2.4,0,.9,0,1.3,0,.7,0,1.5-.1,2.2-.3,1-.2,2-.5,2.9-.8h0s0,0,0,0l.9,5.4c-.4.2-.9.4-1.3.5,0,0,0,0,0,0-.3,0-.7.2-1,.3-.3,0-.7.1-1,.2-.5.1-1.1.2-1.7.3-.2,0-.4,0-.6,0-.4,0-.8,0-1.2.1-.4,0-.8,0-1.2,0-.8,0-1.6,0-2.5-.2-.1,0-.2,0-.3,0-.8-.1-1.5-.3-2.3-.6-.1,0-.3,0-.4-.1-1.5-.6-2.8-1.4-3.9-2.5-1-1.1-1.8-2.4-2.3-3.9,0-.3-.2-.6-.2-.9,0,0,0-.2,0-.3,0-.1,0-.3,0-.4,0-.3-.1-.5-.2-.8,0-.1,0-.2,0-.4,0-.3,0-.6,0-.9,0-.2,0-.5,0-.7,0-.2,0-.4,0-.5h0c0-.2,0-.4,0-.5,0-.3,0-.6,0-.9,0-.4,0-.7.1-1.1,0-.1,0-.2,0-.3,0-.3.1-.6.2-.8,0-.3.2-.6.2-.9s.2-.6.3-.9c0,0,0-.1,0-.2.6-1.4,1.4-2.6,2.4-3.7,1-1,2.2-1.8,3.6-2.4,1.2-.5,2.6-.8,3.9-.8,0,0,.2,0,.3,0h0s0,0,0,0c2.9-.2,5.8,1,7.9,3.1,1.9,2,2.9,5,2.9,9h0ZM59.1,235l16.2-70.6c.9-3.7,3.4-6.8,6.8-8.5l65.8-31.4c3.5-1.6,7.5-1.6,10.9,0l65.8,31.4c3.2,1.5,5.6,4.4,6.6,7.8,0,.2.1.4.2.6l16.2,70.6c.2,1,.3,2,.3,3.1,0,.3,0,.7,0,1,0,.3,0,.6-.1.9-.2.9-.4,1.7-.7,2.5-.1.3-.2.5-.4.8-.4.8-.9,1.5-1.4,2.2l-45.5,56.6c-2.4,3-6,4.7-9.8,4.7h-73c-3.8,0-7.4-1.7-9.8-4.7l-45.5-56.6c-.3-.3-.5-.6-.7-1-1.8-2.8-2.5-6.3-1.7-9.6h0s0,0,0,0ZM34.8,320l6.6-1.1h0s0,0,0,0v19.6c.7-.7,1.3-1.5,2-2.2.7-.8,1.4-1.5,2-2.3.7-.8,1.3-1.5,1.8-2.2.6-.7,1.1-1.3,1.5-1.8h7.9,0s0,0,0,0c-1.6,1.8-3.1,3.5-4.6,5.2-1.5,1.6-3.1,3.3-4.9,5.1,1,.9,1.9,1.9,2.8,2.9.9,1.1,1.9,2.2,2.8,3.4h0c.9,1.2,1.7,2.4,2.5,3.6.7,1.2,1.4,2.3,1.9,3.2h-7.6s0,0,0,0c-.5-.8-1-1.6-1.6-2.5-.2-.3-.4-.6-.6-.9-.3-.4-.5-.8-.8-1.1-.2-.3-.4-.5-.6-.8-.7-.9-1.4-1.9-2.2-2.7-.3-.4-.7-.8-1.1-1.1-.4-.4-.8-.7-1.2-1v10.2h-6.6s0,0,0,0c0,0,0-33.5,0-33.5Z"/>
  <path class="st2" d="M120.1,46.4c.4-.1.9-.2,1.3-.2.5,0,1-.1,1.5-.1.9,0,1.7,0,2.5.2.8.2,1.5.3,2.1.5l1.1-5.4c-.2,0-.4-.2-.6-.2-.2,0-.4-.1-.6-.2-.5-.1-1-.2-1.5-.3-.5,0-1-.1-1.5-.2-.5,0-.9,0-1.3,0-1.8,0-3.6.2-5.3.5-1.4.3-2.8.7-4.1,1.2v21.8h6.5s0-17.6,0-17.6ZM132.2,58.7c.2,1.1.7,2.2,1.5,3.1h0c.8.9,1.7,1.6,2.8,2,1.4.5,2.9.8,4.4.7,1.2,0,2.4,0,3.6-.3.9-.2,1.8-.5,2.6-.8l-.9-5.1c-.7.2-1.3.4-2,.5-.7.1-1.4.2-2.2.2-.9,0-1.7-.2-2.5-.7-.2-.2-.3-.3-.5-.5-.5-1-.8-2.1-.7-3.3v-8.1h7.8v-5.4h-7.8v-6.8l-6.5,1.1v19.4c0,1.4.1,2.7.4,4.1h0ZM219,55.8c.1.6.3,1.3.5,1.9.5,1.4,1.3,2.7,2.3,3.8,1.1,1.1,2.4,1.9,3.8,2.4,1.6.6,3.4.9,5.1.8.8,0,1.6,0,2.5-.1s1.7-.2,2.5-.3c.8-.1,1.6-.3,2.4-.4.8-.2,1.4-.3,2-.5V30l-6.5,1.1v10.4c-.7-.3-1.4-.6-2.2-.7-.8-.2-1.6-.3-2.4-.3-1.5,0-3,.3-4.4.8-1.2.5-2.4,1.4-3.2,2.4-.9,1.1-1.6,2.4-2,3.8-.5,1.6-.7,3.4-.7,5.1,0,1,0,2.1.3,3.1,0,0,0,0,0,0ZM227.6,46.7c.4-.2.8-.4,1.3-.5.4,0,.7-.1,1.1,0h0c.7,0,1.3,0,2,.3.6.1,1.1.4,1.6.7v11.9c-.3,0-.7.1-1.2.2-.5,0-1,0-1.6,0-1.6.1-3.1-.6-4-1.8-1-1.4-1.4-3.1-1.4-4.9,0-2.9.8-4.8,2.3-5.7h0ZM182.5,41h6.5v23.1h-6.5v-23.1ZM66.7,57.3c.4,1.4,1.2,2.7,2.1,3.8,1,1.1,2.3,2,3.7,2.6,1.7.7,3.6,1,5.4.9,1.3,0,2.5-.1,3.8-.4,1-.2,1.9-.5,2.8-.8l-.8-4.4-.2-.9c-.8.3-1.6.6-2.5.7-.8.1-1.7.2-2.5.2-2.2,0-3.8-.6-4.7-1.7-1-1.4-1.4-3.1-1.3-4.8,0-1.7.4-3.4,1.4-4.7,1.1-1.3,2.7-1.9,4.3-1.8.8,0,1.6,0,2.5.3.7.2,1.4.4,2,.6l1.4-5.2c-1-.4-2-.7-3-.9-1.1-.2-2.2-.3-3.4-.3-1.7,0-3.4.3-5,1-2.8,1.2-5,3.6-6.1,6.5h0c-.5,1.5-.8,3.1-.8,4.7,0,1.6.2,3.2.7,4.8ZM188.5,37.2c.8-.7,1.2-1.8,1.2-2.8,0-1.1-.4-2.1-1.2-2.8-1.6-1.4-3.9-1.4-5.5,0-.8.7-1.2,1.8-1.2,2.8,0,1.1.4,2.1,1.2,2.8,1.6,1.4,3.9,1.4,5.5,0ZM157.5,37.2c.8-.7,1.2-1.8,1.2-2.8,0-1.1-.4-2.1-1.2-2.8-1.6-1.4-3.9-1.4-5.5,0-.8.7-1.2,1.8-1.2,2.8,0,1.1.4,2.1,1.2,2.8,1.6,1.4,3.9,1.4,5.5,0ZM164.2,39.8v24.3h6.5v-17.6h8.1v-5.4h-8.1v-1.1c0-.6,0-1.2.2-1.7.1-.5.3-1,.7-1.4.3-.4.8-.7,1.3-.9.6-.2,1.3-.3,2-.3.6,0,1.2,0,1.7.1.5,0,1.1.2,1.6.4l1.1-5.1c-.7-.3-1.3-.5-2-.7-1-.2-2-.3-3-.3-3.3,0-5.8.9-7.5,2.6-1.7,1.9-2.7,4.5-2.5,7.1,0,0,0,0,0,0ZM193.4,52.7c0,1.6.2,3.2.7,4.7.5,1.4,1.2,2.7,2.2,3.8,1.1,1.1,2.4,2,3.8,2.5,1.7.6,3.6,1,5.4.9.8,0,1.6,0,2.5-.1.8,0,1.6-.2,2.3-.3.7-.1,1.3-.3,2-.5.5-.1.9-.3,1.4-.5l-.9-5.3c-.6.2-1.2.4-1.9.6-.3,0-.6.2-1,.2-.2,0-.3,0-.5,0-1,.2-2,.3-3.1.3-1.6,0-3.1-.3-4.5-1.2-1.1-.7-1.8-1.9-1.9-3.2h0,0s14.8,0,14.8,0c0-.3,0-.8,0-1.2,0-.5,0-.9,0-1.2,0-3.9-1-6.8-2.9-8.8-2-2.1-4.9-3.2-7.8-3-1.4,0-2.8.3-4.1.8-1.3.5-2.5,1.3-3.5,2.3-.1.1-.2.2-.3.4-.2.2-.3.3-.4.5h0c-.7.9-1.3,1.9-1.7,3h0c-.7,1.7-1,3.5-.9,5.4,0,0,0,0,0,0ZM200.6,48.6c.2-.5.5-1,.8-1.4.4-.4.8-.8,1.3-1,.6-.3,1.2-.4,1.9-.4h0c.7,0,1.3.1,1.9.4.5.2.9.6,1.3,1,.3.4.6.9.7,1.4.2.5.3,1.1.3,1.6h-8.6c0-.6.2-1.1.4-1.6h0ZM86.9,53.9c0,.3,0,.6.1.9,0,0,0,.2,0,.3,0,.3.1.6.2.8,0,.1,0,.2,0,.3,0,.4.2.8.3,1.2.5,1.4,1.2,2.7,2.2,3.8,1.1,1.1,2.4,2,3.8,2.5,1.7.6,3.6,1,5.4.9.8,0,1.6,0,2.5-.1.8,0,1.6-.2,2.3-.3.7-.1,1.3-.3,2-.5.5-.1,1-.3,1.4-.5l-.9-5.3c-.9.4-1.9.6-2.8.8-.6.1-1.2.2-1.8.2-.6,0-1.2,0-1.7,0-1.6,0-3.1-.3-4.5-1.2-1.1-.7-1.8-1.9-1.9-3.2h0,0s14.8,0,14.8,0c0-.3,0-.8,0-1.2s0-.9,0-1.2c0-3.9-.9-6.8-2.8-8.8-2-2.1-4.9-3.2-7.8-3-1.4,0-2.8.3-4.1.8-1.3.5-2.5,1.3-3.5,2.3-1.1,1.1-1.9,2.4-2.5,3.8h0c-.7,1.7-1,3.5-.9,5.4,0,.2,0,.4,0,.5,0,.2,0,.4,0,.7ZM94,48.6c.2-.5.5-1,.8-1.4.4-.4.8-.8,1.3-1,.6-.3,1.2-.4,1.9-.4.7,0,1.3.1,1.9.4.5.2.9.6,1.3,1,.3.4.6.9.7,1.4.2.5.3,1.1.3,1.6h-8.6c0-.6.2-1.1.4-1.6ZM151.5,41h6.5v23.1h-6.5v-23.1Z"/>
  <path class="st2" d="M138.4,41h7.8s-7.8,0-7.8,0h0ZM106.3,57.9c-.9.4-1.9.6-2.8.8-.6.1-1.2.2-1.8.2.6,0,1.2-.1,1.8-.2,1-.2,1.9-.4,2.8-.8ZM182.5,64.1h6.5s-6.5,0-6.5,0h0ZM166.7,32.7c1.7-1.8,4.2-2.6,7.5-2.6-3.3,0-5.8.9-7.5,2.6ZM127.3,41c.2,0,.4,0,.6.2-.2,0-.4-.1-.6-.2-.5-.1-1-.2-1.5-.3-.5,0-1-.1-1.5-.2.5,0,1,.1,1.5.2.5,0,1,.2,1.5.3ZM221.9,61.4c-.5-.5-1-1.2-1.4-1.8.4.7.9,1.3,1.4,1.8,1.1,1.1,2.4,1.9,3.8,2.4.8.3,1.6.5,2.5.6-.8-.1-1.7-.4-2.5-.6-1.4-.5-2.7-1.3-3.8-2.4,0,0,0,0,0,0ZM93.5,54.7h0s14.8,0,14.8,0c0-.4,0-.8,0-1.2,0,.5,0,.9,0,1.2h-14.8ZM238.1,63.8c-.8.2-1.6.3-2.4.4.8-.1,1.6-.3,2.4-.4.8-.2,1.4-.3,2-.5V30h0v33.3c-.6.2-1.3.3-2,.5h0ZM178.8,41h0s-8.1,0-8.1,0h0s8.1,0,8.1,0ZM151.5,64.1h6.5s-6.5,0-6.5,0h0ZM215,54.7h-14.8,0s14.8,0,14.8,0c0-.4,0-.8,0-1.2,0-.5,0-.9,0-1.2h0c0,.4,0,.8,0,1.2,0,.5,0,.9,0,1.2h0ZM72.9,41.4c1.6-.7,3.3-1,5-1,1.1,0,2.3.1,3.4.3,1,.2,2,.5,3,.9h0c-1-.4-2-.7-3-.9-1.1-.2-2.2-.3-3.4-.3-1.7,0-3.4.3-5,1-2.8,1.2-5,3.6-6.1,6.5h0c1-2.9,3.2-5.3,6.1-6.5Z"/>
  <path class="st0" d="M87,55.1c0,0,0-.2,0-.3"/>
  <path class="st2" d="M158.3,36.1c.3-.5.4-1.1.3-1.7,0-.3,0-.5,0-.8,0,.3,0,.5,0,.8,0,.6,0,1.2-.3,1.7Z"/>
  <path class="st0" d="M158.6,33.5c0-.3-.1-.5-.2-.8M158,36.6c.1-.2.2-.3.3-.5"/>
  <path class="st2" d="M211,58.5c-.3,0-.6.2-1,.2-.2,0-.3,0-.5,0,.2,0,.3,0,.5,0,.3,0,.6-.1,1-.2h0Z"/>
  <path class="st0" d="M86.9,53.9c0-.2,0-.4,0-.7"/>
  <path class="st2" d="M81.8,64.3c-1.2.2-2.5.4-3.8.4-1.9,0-3.7-.3-5.4-.9-1.4-.6-2.7-1.4-3.7-2.6h0c1,1.1,2.3,2,3.7,2.6,1.7.7,3.6,1,5.4.9,1.3,0,2.5-.1,3.8-.3,1-.2,1.9-.5,2.8-.8l-.8-4.4.8,4.4c-.9.4-1.9.6-2.8.8ZM193.4,52.7c0,1.6.2,3.2.7,4.7.5,1.4,1.2,2.7,2.2,3.8h0c1.1,1.1,2.4,2,3.8,2.5,1.7.6,3.6,1,5.4.9.8,0,1.6,0,2.5-.1.8,0,1.6-.2,2.3-.3.7-.1,1.3-.3,1.9-.5.5-.1,1-.3,1.4-.5h0c-.5.2-.9.4-1.4.5-.6.2-1.3.3-2,.5-.7.1-1.5.2-2.3.3-.8,0-1.6.1-2.5.1-1.8,0-3.7-.3-5.4-.9-1.4-.6-2.7-1.4-3.8-2.5-1-1.1-1.8-2.4-2.2-3.8-.5-1.5-.7-3.1-.7-4.7,0-1.8.3-3.7.9-5.4h0s0,0,0,0c-.7,1.7-1,3.5-.9,5.4,0,0,0,0,0,0Z"/>
  <path class="st0" d="M87.2,56.3c0-.1,0-.2,0-.3M196.1,44.4h0"/>
  <path class="st2" d="M87.8,47.3c-.7,1.7-1,3.5-.9,5.4h0c0-1.8.3-3.7.9-5.4h0ZM136.5,63.9c1.4.5,2.9.8,4.4.7,1.2,0,2.4,0,3.6-.4-1.2.3-2.4.4-3.6.3-1.5,0-3-.2-4.4-.7h0ZM139.5,58.4c.7.5,1.6.8,2.5.7-.9,0-1.7-.2-2.5-.7h0ZM218.7,52.7c0-.9,0-1.7.2-2.6-.1.9-.2,1.7-.2,2.6,0,1,0,2.1.3,3.1-.2-1-.3-2.1-.3-3.1ZM152,37.2c1.6,1.4,3.9,1.4,5.5,0-1.6,1.4-3.9,1.4-5.5,0ZM196.9,43.5c-.1.1-.2.2-.3.4.1-.1.2-.2.3-.4h0ZM183,37.2c.8.7,1.7,1,2.7,1h0c1,0,2-.4,2.7-1,.8-.7,1.2-1.8,1.2-2.8,0,1.1-.4,2.1-1.2,2.8-1.6,1.4-3.9,1.4-5.5,0h0ZM138.4,34.2l-6.5,1.1h0s6.5-1.1,6.5-1.1h0ZM96.1,46.2c.6-.3,1.2-.4,1.9-.4-.6,0-1.3.1-1.9.4ZM200.2,50.2c0-.6.2-1.1.4-1.6-.2.5-.3,1.1-.4,1.6ZM94,48.6h0c-.2.5-.3,1.1-.4,1.6h0c0-.6.2-1.1.4-1.6ZM204.6,45.8c.3,0,.7,0,1,0-.3,0-.6,0-1,0Z"/>
  <path class="st0" d="M227.6,46.7c.4-.2.8-.4,1.3-.5"/>
  <path class="st0" d="M111.5,305.7c.7.3,1.5.6,2.3.8"/>
  <path class="st0" d="M115.2,306.7c-.5,0-.9-.1-1.4-.2M192.4,306.5c.9-.2,1.8-.5,2.6-.9M196.3,304.9c.8-.5,1.5-1.1,2.2-1.7"/>
  <path class="st0" d="M247.6,239.1c0,.3,0,.6-.1.9M246.7,242.4c-.1.3-.2.5-.4.8"/>
  <path class="st2" d="M83.7,233.8c0,.2,0,.5.2.7,0,0,0,0,0,0,.1.3.2.6.4.9,0,.1.2.3.3.4.3.3.7.7,1,.9.3.2.6.3.9.4h0c.2,0,.4,0,.5.1,0,0,.2,0,.2,0,.1,0,.3,0,.4,0,.1,0,.3,0,.4,0,.3,0,.5,0,.7-.2h0s0,0,0,0h0s0,0,0,0h0s0,0,0,0h.2c0,0,0,0,0,0,.2,0,.5-.1.7-.2,0,0,0,0,0,0,.8-.2,1.6-.5,2.3-.9.4-.2.8-.3,1.2-.5h0s0,0,0,0c2.2-.9,4.4-1.5,6.7-2h0c.7,0,1.4.3,2,.7,0,0,.1,0,.2,0h0s0,0,0,0l1.7-.3h0c3.9,11.9,11.9,22,22.7,28.3l-.7,1.7h0s0,0,0,0h0c.3.7.5,1.4.3,2.2-1,2.2-2.2,4.4-3.6,6.4h0s0,0,0,0c0,.1-.2.3-.3.4-.2.2-.3.4-.4.6-.5.7-1,1.4-1.4,2.1,0,.1-.1.3-.2.4,0,0,0,.2-.1.3,0,.1-.1.3-.2.4-1.1,2-.3,4.5,1.7,5.6.5.2,1,.4,1.6.4,1.7,0,3.2-1.1,3.9-2.6,0,0,0,0,0,0h0s.1-.3.1-.3h0c.1-.3.2-.5.3-.7h0c.3-.8.6-1.6.8-2.4,0-.1,0-.3.1-.4,0-.3.2-.6.2-.8.3-.8.6-1.6.8-2.3.5-1.7,1.2-3.3,2.2-4.7.5-.4,1.1-.7,1.7-.8h0s.9-1.6.9-1.6h0c11.7,4.5,24.6,4.5,36.3,0,0,0,0,.1,0,.2.1.2.2.4.3.6,0,.1.1.2.2.3,0,.2.2.3.2.4h0s0,0,0,0c0,0,.2,0,.3,0,.7.1,1.3.5,1.7,1.1,1.1,2.1,2,4.3,2.7,6.5h0c0,.3.1.5.2.7,0,.2.1.4.2.6.2.8.4,1.5.7,2.2,0,0,0,.1,0,.2h0c.1.2.2.5.3.7v.3c.6.9,1.3,1.7,2.3,2.2,0,0,.2,0,.2.1,1,.4,2.1.4,3.1,0,2-1.1,2.7-3.6,1.7-5.6l-.2-.3c-.1-.3-.2-.5-.4-.7-.4-.7-.9-1.4-1.4-2.1-.2-.3-.5-.7-.7-1-1.4-2-2.5-4.1-3.5-6.2-.2-.7-.1-1.4.2-2,0,0,0-.1,0-.2,0,0,0,0,0,0h0s0,0,0,0h0s0,0,0,0c-.2-.3-.3-.7-.4-1,0,0,0-.1,0-.2,0-.1,0-.2-.1-.3h0s0,0,0,0c10.8-6.4,18.9-16.6,22.7-28.5h0c.5,0,1.4.2,1.6.3h0s0,0,0,0h0c0,0,.2-.1.2-.2.5-.4,1.1-.6,1.7-.7h0c0,0,.1,0,.2,0,2.1.4,4.2,1,6.2,1.8.2,0,.3.1.5.2h.1c.4.2.8.4,1.2.5.8.4,1.5.6,2.4.9,0,0,0,0,0,0,.2,0,.4,0,.6.1h0c.1,0,.3,0,.4,0,0,0,0,0,0,0,0,0,0,0,0,0h0s0,0,0,0c.2,0,.5.1.7.2.2,0,.3,0,.5,0,.1,0,.2,0,.3,0,.1,0,.3,0,.4,0,.1,0,.2,0,.4,0,.1,0,.2,0,.3-.1.1,0,.3,0,.4-.2.1,0,.2-.1.3-.2.1,0,.2-.1.3-.2.1,0,.2-.2.3-.3,0,0,.2-.2.3-.2s.1-.2.2-.3c0-.1.2-.2.2-.3,0,0,0-.2.1-.3,0-.1.1-.3.2-.5,0-.1,0-.3,0-.4,0-.1,0-.3,0-.4,0-.2,0-.3,0-.5,0,0,0-.2,0-.3,0-.1,0-.3,0-.4,0-.1,0-.2,0-.3,0-.1,0-.2-.1-.3,0-.1,0-.3-.1-.4,0-.1-.1-.2-.2-.3,0-.1-.1-.2-.2-.3,0-.1-.2-.2-.3-.3,0,0-.2-.2-.2-.3,0,0-.2-.1-.3-.2-.1,0-.2-.2-.3-.2,0,0-.2,0-.3-.1-.1,0-.3-.1-.5-.2-.2,0-.5-.1-.7-.2,0,0,0,0-.1,0,0,0-.2,0-.3,0-.2,0-.5-.1-.7-.2h0c-.8-.1-1.7-.2-2.5-.2-.4,0-.8,0-1.3,0h0s0,0,0,0c-2.4-.2-4.7-.5-7-1.1-.7-.4-1.2-.9-1.6-1.5v-.2c-.1,0-.1,0-.1,0l-1.6-.5c.3-2.3.5-4.6.5-7,0,0,0,0,0,0,0-4.5-.6-8.9-1.8-13.2-.4-1.4-.8-2.8-1.3-4.2-.2-.5-.4-1-.6-1.4-.9-2.2-1.9-4.3-3-6.3-.6-1.1-1.2-2.1-1.9-3.1h0c0,0,.1-.1.2-.2.2-.2.4-.3.6-.5.2-.2.4-.3.5-.4,0,0,0,0,.1-.1h0s0,0,0,0c0,0,0-.2,0-.3,0,0,0-.1,0-.2,0-.1,0-.2,0-.3,0,0,0-.1,0-.2,0,0,0-.2,0-.3,0,0,0,0,0-.1.1-.3.3-.5.5-.8.1,0,.2-.2.3-.3,1.7-1.4,3.6-2.7,5.5-3.8.4-.2.7-.4,1.1-.6,0,0,0,0,0,0,.7-.4,1.5-.8,2.1-1.3.2-.1.4-.3.6-.5l.3-.2h0c.2-.2.4-.3.6-.5,0,0,0-.1.1-.2.1-.1.2-.3.4-.4,0,0,.1-.2.2-.3,0-.1.1-.2.2-.4,0-.1,0-.3.1-.4,0-.1,0-.2.1-.4,0-.1,0-.3,0-.4,0-.1,0-.3,0-.4,0-.1,0-.2,0-.4,0-.1,0-.3,0-.4,0-.1,0-.3-.1-.4,0-.1,0-.2-.1-.3,0-.2-.2-.3-.3-.5,0,0,0-.1-.1-.2,0-.1-.2-.2-.2-.3,0-.1-.2-.2-.3-.3,0,0-.1,0-.2-.1-.1-.1-.3-.3-.4-.4,0,0-.2-.1-.3-.2-.1,0-.2-.1-.4-.2-.1,0-.3,0-.4-.1-.1,0-.2,0-.4-.1-.1,0-.3,0-.4,0-.1,0-.3,0-.4,0-.1,0-.2,0-.4,0-.1,0-.3,0-.4,0-.1,0-.3,0-.4.1-.1,0-.2,0-.3,0-.2,0-.3.2-.5.3,0,0-.1,0-.2.1-.2.1-.4.3-.6.5h0s-.2.2-.2.2c0,0-.1.1-.2.2-.2.1-.3.2-.4.3-.6.6-1.2,1.2-1.8,1.8-.3.3-.5.6-.8.9h0s-.1.1-.1.1c-1.5,1.6-3.1,3.1-4.8,4.4-.1,0-.2.2-.3.3-.7.3-1.4.4-2.2.3,0,0-.1,0-.2,0h0s0,0,0,0l-1.5,1.1h0s0,0,0,0c-4.3-4.5-9.3-8.1-14.8-10.8-5.6-2.7-11.6-4.4-17.8-5,0,0,0,0,0-.1,0-.5,0-1.2,0-1.5,0,0,0,0,0,0h0s0,0,0,0c0,0-.1-.1-.2-.2-.6-.4-.9-1-1.1-1.7,0-2.3,0-4.6.4-6.9v-.2c0-.4.2-.8.2-1.2.2-.8.3-1.7.3-2.5,0-.1,0-.2,0-.4s0-.3,0-.4v-.4s0,0,0,0c0-.3,0-.5,0-.8,0,0,0,0,0,0,0-.3,0-.5-.2-.7,0-.1,0-.2-.1-.3,0-.1-.1-.3-.2-.4,0-.1-.1-.2-.2-.3,0,0-.1-.2-.2-.3,0,0-.2-.2-.3-.3,0,0-.2-.2-.3-.3,0,0-.2-.1-.3-.2-.1,0-.2-.2-.3-.2-.1,0-.3-.1-.4-.2-.1,0-.2,0-.3-.1-.2,0-.5-.1-.8-.2h0c-.1,0-.3,0-.4,0s-.3,0-.4,0h0c-.3,0-.5,0-.8.2-.1,0-.2,0-.3.1-.1,0-.3.1-.4.2-.1,0-.2.1-.3.2-.1,0-.2.1-.3.2,0,0-.2.2-.3.3,0,0-.2.2-.3.3,0,0-.1.2-.2.3,0,.1-.2.2-.2.3,0,.1-.1.3-.2.4,0,.1,0,.2-.1.3,0,.2-.1.5-.2.8,0,0,0,0,0,0,0,.3,0,.5,0,.8,0,0,0,0,0,0h0c0,0,0,0,0,.1v.3c0,.2,0,.5,0,.7,0,.8.2,1.7.3,2.5,0,.4.2.8.2,1.2h0s0,0,0,0c.4,2.3.5,4.7.4,7.1-.2.8-.7,1.5-1.3,2h0s0,0,0,0v1.6c-2.5.2-4.8.6-7.2,1.1-9.8,2.2-18.8,7.3-25.7,14.7-.2-.1-.5-.4-.8-.5s-.5-.4-.6-.5h0s0,0,0,0c0,0-.2,0-.3,0-.7.2-1.4,0-2-.3-1.9-1.4-3.6-3-5.2-4.7h0q0,0,0,0c-.3-.3-.6-.6-.8-.9-.5-.6-1.1-1.3-1.7-1.8-.2-.1-.4-.3-.6-.5h-.2c0-.1,0-.2,0-.2-.8-.6-1.8-1-2.8-1h0s0,0-.1,0c-1.2,0-2.3.5-3,1.4-.7.8-.9,1.9-.7,3,.2,1.1.8,2.1,1.7,2.9h0s0,0,0,0h0c0,0,.1.1.2.2h0c.1.1.2.2.3.3,0,0,.2.1.2.2.7.5,1.4.9,2.1,1.3.4.2.8.4,1.1.6.5.3,1,.6,1.5.9.6.4,1.3.8,1.9,1.3.7.5,1.3,1,1.9,1.5.2.1.4.3.5.4.4.6.7,1.3.8,2.1h0c0,0,0,.2,0,.2h0s0,0,0,0l1.2,1.1c-6.9,10.4-9.8,23.1-8,35.5h-.4c0,.1-1.2.5-1.2.5h0s0,0,0,0l-.2.2c-.4.6-.9,1.1-1.5,1.5-2.3.6-4.6,1-7,1.1h0c-.4,0-.8,0-1.2,0,0,0,0,0,0,0-.8,0-1.7,0-2.5.2h0c-.2,0-.5.1-.7.2-.1,0-.2,0-.3,0h0s0,0,0,0h0s0,0,0,0h0c-.3,0-.5.1-.7.2-.2,0-.3.1-.5.2,0,0-.2,0-.2.1-.2,0-.3.2-.4.3,0,0-.1,0-.2.1-.2.1-.3.3-.4.5,0,0,0,0,0,0-.5.6-.7,1.3-.8,2.1,0,0,0,0,0,0,0,.2,0,.4,0,.6,0,0,0,.1,0,.2,0,0,0,0,0,0ZM139.1,232.5c0,.4,0,.7-.2,1h0s0,0,0,0l-7.8,19c-2.8-1.8-5.4-3.9-7.7-6.4-.8-.8-1.5-1.6-2.2-2.5-2.1-2.6-3.8-5.4-5.2-8.4-.5-1-.9-2-1.3-3.1l20.3-3.4h0s0,0,0,0c.2,0,.4,0,.6,0,0,0,0,0,0,0h0c.4,0,.7,0,1,.2,0,0,.2,0,.3,0h0c.2,0,.4.2.5.3,0,0,0,0,0,0,.3.2.5.4.7.7,0,0,.1.1.2.2,0,0,0,.2.1.3,0,.1.1.2.2.3,0,.2.1.4.2.6,0,0,0,0,0,.1,0,.2,0,.4,0,.6,0,0,0,0,0,0,0,0,0,.2,0,.3h0ZM162.2,258.1c-7.4,1.6-15,1.2-22.2-1.1h0s0,0,0,0l3.5-6.4,6.4-11.6h0c0-.1.2-.3.3-.4.6-.9,1.6-1.4,2.6-1.4,0,0,0,0,.1,0,1.3,0,2.4.7,3,1.8h0s0,0,0,0l10,18c-1.3.4-2.6.8-4,1.1h0ZM191.4,232.4c-.2.4-.3.9-.5,1.3,0,.2-.2.4-.2.6-.1.3-.3.7-.4,1,0,.2-.2.4-.3.6-.1.3-.3.6-.4.9-.1.2-.2.4-.3.6-.1.3-.3.6-.5.8-.1.2-.2.4-.3.6-.2.3-.3.6-.5.8-.1.2-.3.4-.4.6-.2.3-.3.5-.5.8-.1.2-.3.4-.4.6-.2.3-.4.5-.6.8-.1.2-.3.4-.4.6-.2.2-.4.5-.6.7h0c-.2.2-.4.5-.6.7-2.7,3.2-5.8,6-9.4,8.3l-7.9-19.2h0s0,0,0,0c0-.2-.1-.4-.2-.5,0-.1,0-.2,0-.3,0,0,0-.1,0-.2,0-.2,0-.3,0-.5,0,0,0-.1,0-.2,0,0,0-.2,0-.3.3-1.6,1.6-2.7,3.2-2.8,0,0,0,0,0,0,.2,0,.4,0,.7,0h0s0,0,0,0l20.4,3.5c0,0,0,.2,0,.2h0ZM189.8,200.6c.6,1.2,1.1,2.5,1.6,3.8.4,1.2.8,2.4,1.1,3.6.3,1.2.6,2.4.8,3.6.4,2.5.6,5,.6,7.4,0,.6,0,1.1,0,1.7,0,.6,0,1.1-.1,1.7l-19.9-5.7h0c0,0,0,0,0,0-.4-.1-.9-.3-1.2-.6,0,0,0,0,0,0-.2-.1-.3-.3-.5-.4,0,0,0,0,0,0-.1-.2-.2-.3-.3-.5,0,0,0,0,0,0,0-.2-.2-.3-.2-.5,0,0,0,0,0-.1,0-.2,0-.3-.1-.5,0,0,0-.1,0-.2,0-.1,0-.3,0-.4,0,0,0-.2,0-.3,0-.1,0-.2,0-.3h0s0,0,0,0c0,0,0,0,0,0,0,0,0-.1,0-.2,0,0,0-.2,0-.2,0,0,0-.2.1-.2,0,0,0-.2.1-.2,0,0,.1-.1.2-.2,0,0,0-.1.1-.2.1-.1.2-.3.4-.4h0s0,0,0,0h0s15.3-13.8,15.3-13.8c.7,1.2,1.4,2.4,2,3.7h0ZM158.1,177.9c4.1.5,8.1,1.7,11.9,3.4.2.1.5.2.7.3h0c.1,0,.2.1.3.2.4.2.8.4,1.2.6.1,0,.3.2.4.2.3.2.7.4,1,.6.2,0,.3.2.5.3.3.2.6.4.9.6.2.1.4.3.6.4.3.2.5.3.8.5.2.2.5.4.7.5.2.1.4.3.6.4.3.2.6.5,1,.8.1,0,.2.2.3.3.9.7,1.7,1.5,2.5,2.2h0s0,0,0,0l-15.8,11.2-1,.7h0s0,0,0,0c-.2.1-.3.2-.5.3,0,0-.1,0-.2,0-.1,0-.3.1-.4.1,0,0-.1,0-.2,0-.2,0-.4,0-.6,0,0,0,0,0,0,0-.4,0-.8,0-1.2-.2,0,0,0,0,0,0-.2,0-.3-.1-.4-.2,0,0-.1,0-.2,0-.2-.1-.4-.3-.5-.4-.2-.2-.3-.3-.5-.5h0c-.1-.2-.2-.3-.3-.5,0,0,0-.1,0-.2,0-.1-.1-.3-.1-.4,0,0,0-.1,0-.2,0-.2,0-.4,0-.6,0,0,0,0,0,0h0s0,0,0,0l-1.2-20.6s0,0,0,0h0ZM149.9,211.8h6.3l3.9,4.9-1.4,6.1-5.7,2.7-5.7-2.7-1.4-6.1,3.9-4.9ZM124.5,189.2c5.4-5.3,12.1-8.9,19.5-10.6,1.4-.3,2.8-.5,4.2-.7l-1.2,20.6h0s0,0,0,0h0c0,.2,0,.4,0,.6,0,0,0,.1,0,.2,0,.1,0,.3-.1.4,0,0,0,.1,0,.2,0,.2-.2.3-.3.5h0c-.1.2-.3.4-.5.5,0,0-.2.1-.2.2,0,0-.2.1-.3.2,0,0-.2,0-.3.1-.1,0-.2.1-.3.1-.1,0-.2,0-.3,0-.1,0-.2,0-.3,0-.2,0-.4,0-.7,0h0c-.2,0-.4,0-.6,0,0,0-.1,0-.2,0-.1,0-.3,0-.4-.1,0,0-.1,0-.2,0-.2,0-.4-.2-.5-.3h0s0,0,0,0l-16.9-12s0,0,0,0ZM118.3,197l15.4,13.8h0c0,0,0,0,0,0,.2.1.3.3.4.5,0,0,0,.1.1.2,0,.1.2.2.2.4,0,0,0,.1,0,.2,0,.2.2.4.2.5h0c0,.3.1.7.1,1,0,.1,0,.2,0,.3,0,.1,0,.2,0,.4,0,0,0,.2,0,.3,0,.1-.1.2-.2.4,0,0,0,.2-.1.2-.1.2-.2.4-.4.6h0c-.1.1-.3.3-.4.4,0,0-.1,0-.2.1-.1,0-.2.2-.4.2,0,0-.1,0-.2,0-.2,0-.4.2-.6.2h0s0,0,0,0h0c0,0-19.8,5.8-19.8,5.8-1-8.9,1-17.9,5.7-25.6Z"/>
  <path class="st2" d="M172.4,210.7h0s0,0,0,0h0s0,0,0,0h0Z"/>
  <path class="st0" d="M136.5,228.8c-.2,0-.4,0-.7,0M171.6,211.8c0,0,0-.2.1-.2M171.9,211.3c0,0,0-.1.1-.2"/>
  <path class="st2" d="M173.8,216.7l19.9,5.7c0-.6,0-1.1.1-1.7,0,.6,0,1.1-.1,1.7l-19.9-5.7Z"/>
  <path class="st0" d="M193.8,220.8c0-.6,0-1.1,0-1.7"/>
  <path class="st2" d="M173.8,216.6c-.4-.1-.9-.3-1.2-.6.4.3.8.5,1.2.6h0s0,0,0,0h0c0,0,0,0,0,0Z"/>
  <path class="st0" d="M171.7,215c0-.2-.2-.3-.2-.5M171.2,213.2c0,.1,0,.3,0,.4"/>
  <path class="st2" d="M171.3,212.6h0c0,.1,0,.2,0,.3,0-.1,0-.3,0-.4,0,0,0,0,0,0Z"/>
  <path class="st0" d="M189.2,237.4c-.1.3-.3.6-.5.8M171.4,214.3c0-.2,0-.3-.1-.5M172.5,216c-.2-.1-.3-.3-.5-.4M172,215.5c-.1-.2-.2-.3-.3-.5M171.4,212.2c0,0,0-.2,0-.2M189.9,235.9c-.1.3-.3.6-.4.9M187.5,240.3c-.2.3-.3.5-.5.8M138.8,230.6c0,0,0-.2-.1-.3M186.6,241.6c-.2.3-.4.5-.6.8M188.4,238.8c-.2.3-.3.6-.5.8"/>
  <path class="st2" d="M185.1,243.7h0c.2-.2.4-.5.6-.7-.2.2-.4.5-.6.7h0ZM135.1,228.8c.2,0,.4,0,.6,0-.2,0-.4,0-.6,0h0s0,0,0,0h0ZM175.1,252.7c3.5-2.3,6.7-5,9.4-8.3-2.7,3.2-5.8,6-9.4,8.3ZM150,238.9l-6.4,11.6,6.4-11.6h0ZM140.1,256.9h0c5.8,2,12,2.6,18.1,1.8-6.1.8-12.3.1-18.1-1.8h0Z"/>
  <path class="st0" d="M138.9,230.9c0,.2.1.4.2.6"/>
  <path class="st2" d="M137.1,229c0,0-.2,0-.3,0,0,0,.2,0,.3,0h0Z"/>
  <path class="st0" d="M139.2,232.2c0-.2,0-.4,0-.6M190.7,234.3c-.1.3-.3.7-.4,1"/>
  <path class="st2" d="M167.2,233.5h0s0,0,0,0h0s0,0,0,0h0Z"/>
  <path class="st0" d="M167,232.4c0,0,0,.1,0,.2M170.3,228.7s0,0,0,0M167.2,233.5c0-.2-.1-.4-.2-.5M137.7,229.4s0,0,0,0M138.4,230.1c0-.1-.2-.2-.2-.3M191.4,232.4c-.2.4-.3.9-.5,1.3"/>
  <path class="st2" d="M148.1,177.9l-1.2,20.6h0l1.2-20.6c-1.4.2-2.8.4-4.2.7-7.4,1.7-14.1,5.3-19.5,10.6h0c5.4-5.3,12.1-8.9,19.5-10.6,1.4-.3,2.8-.5,4.2-.7ZM146.8,199.1c0-.2,0-.4,0-.6h0s0,0,0,0c0,.2,0,.4,0,.6h0Z"/>
  <path class="st0" d="M139.1,232.9c0-.1,0-.3,0-.4M145.5,201.1c0,0,.2-.1.2-.2"/>
  <path class="st2" d="M141.4,201.2h0s0,0,0,0Z"/>
  <path class="st0" d="M144.9,201.5c0,0,.2,0,.3-.1M141.9,201.5c0,0,.1,0,.2,0M143.3,201.8c.2,0,.5,0,.7,0M134.5,211.8c0-.1-.1-.3-.2-.4M142.5,201.7c0,0,.1,0,.2,0M134.1,211.3c-.1-.2-.3-.3-.4-.5M132.9,216.5c0,0,.1,0,.2,0"/>
  <path class="st2" d="M134.8,212.5c0-.2-.1-.4-.2-.5,0,.2.2.4.2.6h0ZM132.3,216.8h0s0,0,0,0h0s0,0,0,0ZM133.7,210.8h0s0,0,0,0h0c0,0,0,0,0,0Z"/>
  <path class="st0" d="M133.5,216.2c0,0,.1,0,.2-.1M134.9,213.9c0,.1,0,.2,0,.4M134,215.7c.1-.2.3-.4.4-.6M134.9,213.2c0,.1,0,.2,0,.3M134.5,214.9c0-.1.1-.2.2-.4M175.1,184.1c.2.1.4.3.6.4M177.8,185.9c.3.2.6.5,1,.8"/>
  <path class="st2" d="M146.2,200.4c.1-.2.2-.3.3-.5,0,.2-.2.3-.3.5h0ZM181.5,189.2c-.8-.8-1.6-1.5-2.5-2.2.9.7,1.7,1.4,2.5,2.2h0Z"/>
  <path class="st0" d="M163.6,201.6c.1,0,.3,0,.4-.1"/>
  <path class="st2" d="M162.8,201.7c.2,0,.4,0,.6,0-.2,0-.4,0-.6,0,0,0,0,0,0,0h0Z"/>
  <path class="st0" d="M164.2,201.4c.2,0,.4-.2.5-.3M173.7,183.2c.2,0,.3.2.5.3M172.2,182.4c.1,0,.3.2.4.2"/>
  <path class="st2" d="M170.8,181.6h0c.1,0,.2.1.3.2-.1,0-.2-.1-.3-.2Z"/>
  <path class="st0" d="M176.4,185c.2.2.5.4.7.5M161.6,201.6c.2,0,.5.1.8.2M161,201.3c.1,0,.3.2.4.2"/>
  <path class="st2" d="M156.2,211.8l3.9,4.9-3.9-4.9ZM160.4,200.8c-.2-.2-.3-.3-.5-.5.1.2.3.4.5.5ZM160.9,201.2c-.2-.1-.4-.3-.5-.4.2.2.3.3.5.4h0Z"/>
  <path class="st0" d="M146.7,199.3c0,.1,0,.3-.1.4"/>
  <path class="st2" d="M164.7,201.1h0s1-.7,1-.7l-1,.7h0Z"/>
  <path class="st0" d="M159.5,199.6c0,0,0,.1,0,.2"/>
  <path class="st2" d="M159.2,198.4h0s0,0,0,0h0s0,0,0,0c0,0,0,0,0,0h0Z"/>
  <path class="st0" d="M159.3,199.1c0,0,0,.1,0,.2"/>
  <path class="st2" d="M158.1,177.9c4.1.5,8.1,1.7,11.9,3.4-3.8-1.7-7.8-2.9-11.9-3.4Z"/>
  <path class="st0" d="M144.3,201.7c.1,0,.2,0,.3,0"/>
  <path class="st2" d="M103.5,173.7h0c-.5-.5-1.1-.8-1.8-.9.7.2,1.3.5,1.8.9h0ZM98.6,180c0,0,.1,0,.2.2h0s0,0,0,0c0,0-.1-.1-.2-.2ZM87.2,229.3h0s0,0,0,0h0s0,0,0,0h0s0,0,0,0ZM96.7,177c-.2-1.1,0-2.2.7-3,.7-.9,1.8-1.4,3-1.4,0,0,0,0,.1,0h-.1c-1.2,0-2.3.5-3,1.4-.7.8-.9,1.9-.7,3,.2,1.1.8,2.1,1.7,2.8-.9-.7-1.5-1.7-1.7-2.9Z"/>
  <path class="st0" d="M85.3,230.2c.1-.1.3-.2.4-.3M207.8,173.1c.2.1.3.2.4.4M87.2,237.2c-.2,0-.4,0-.5-.1"/>
  <path class="st2" d="M114.5,182.1c.1,0,.4.3.6.5-.3-.2-.5-.4-.6-.5h0s0,0,0,0h0s0,0,0,0ZM141.6,168.4c2.3-.5,4.7-.9,7.1-1.1-2.4.2-4.8.6-7.1,1.1-9.8,2.2-18.8,7.3-25.7,14.7-.2-.1-.5-.4-.8-.5.3.2.6.4.8.5,6.9-7.3,15.9-12.5,25.7-14.7h0ZM90.8,228.9s0,0,0,0c0,0,0,0,0,0-.8,0-1.7,0-2.5.2h0s0,0,0,0c.8-.1,1.7-.2,2.5-.2ZM99.3,180.6c0,0-.1-.1-.2-.2,0,0,.2.1.2.2.7.5,1.4.9,2.1,1.3.4.2.7.4,1.1.6-.4-.2-.7-.4-1.1-.6-.7-.4-1.5-.8-2.1-1.3ZM208.9,174.3h0c0,0,0,.1.1.2,0,0,0-.1-.1-.2h0ZM100.8,225.9h0s0,0,0,0l1.2-.4-1.2.4h0s0,0,0,0l-.2.2c0,.1-.2.3-.3.4.1-.1.2-.2.3-.4,0,0,.2-.2.2-.2Z"/>
  <path class="st0" d="M205.6,172.4c.1,0,.3,0,.4,0"/>
  <path class="st2" d="M108.4,186.6c-.2-.2-.4-.3-.5-.4.2.1.4.3.5.4.4.6.7,1.3.8,2.1h0c0,0,0,0,0,0,0-.7-.3-1.5-.8-2.1,0,0,0,0,0,0ZM107.9,186.1c-.6-.5-1.3-1-1.9-1.5.7.5,1.3,1,1.9,1.5h0Z"/>
  <path class="st0" d="M84.7,230.8c.1-.2.3-.3.4-.5"/>
  <path class="st2" d="M112.2,181.9c-1.9-1.4-3.6-3-5.2-4.7h0c0,0,0,0,0,0,1.6,1.7,3.3,3.3,5.2,4.7ZM191.8,182.1h-.2s0,0,0,0h0c0,0,.1,0,.2,0ZM194,181.8c.1,0,.2-.2.3-.3-.1,0-.2.2-.3.3-.7.3-1.4.4-2.2.3.7.1,1.5,0,2.2-.3ZM190.1,183.2c-2.8-2.9-5.9-5.5-9.2-7.7,3.4,2.2,6.5,4.8,9.2,7.7h0ZM149.1,151.8s0,0,0,0h0s0,0,0,0ZM200.1,176.1c-.3.3-.5.6-.8.9h0s0,0,0,0c.3-.3.6-.6.8-.9ZM202.7,173.6h0s0,0,0,0l-.2.2c0,0-.1.1-.2.2,0,0,.1-.1.2-.2l.2-.2Z"/>
  <path class="st0" d="M148.7,167.4v-1.6"/>
  <path class="st2" d="M149.4,155.3c-.2-.8-.3-1.7-.3-2.5,0,.8.2,1.7.3,2.5,0,.4.2.8.2,1.2h0s0,0,0,0c0-.4-.1-.8-.2-1.3Z"/>
  <path class="st0" d="M155,147.8c.1,0,.2.1.3.2"/>
  <path class="st2" d="M150.1,163.7c-.2.8-.7,1.5-1.3,2h0s0,0,0,0c.6-.5,1-1.2,1.3-2h0ZM109.2,188.9h0s0,0,0,0Z"/>
  <path class="st0" d="M207.5,173c-.1,0-.2-.1-.4-.2M86,229.7c.2,0,.3-.2.5-.2"/>
  <path class="st2" d="M149.1,152.1v-.3c0,0,0,.2,0,.3,0,.2,0,.5,0,.7,0-.2,0-.4,0-.7Z"/>
  <path class="st0" d="M206.4,172.5c.1,0,.2,0,.4.1M208.6,174c0-.1-.2-.2-.3-.3M222,234.9c0,0,0,.2-.1.3M200.5,199.4c.2.5.4,1,.6,1.4"/>
  <path class="st2" d="M83.7,232.9c0-.7.4-1.5.8-2.1-.5.6-.7,1.3-.8,2.1Z"/>
  <path class="st0" d="M221.7,235.5c0,0-.1.2-.2.3M221.2,236.1c0,0-.2.2-.3.3M197.2,187.3s0,0,0,.1M197,187.9c0,0,0-.1,0-.2M204.2,218.4s0,0,0,0M220.6,236.6c-.1,0-.2.1-.3.2M222.4,233.7c0-.2,0-.3,0-.5M221.6,230.8c0-.1-.2-.2-.3-.3M222,231.4c0-.1-.1-.2-.2-.3M221.1,230.2c0,0-.2-.1-.3-.2M222.4,232.9c0-.1,0-.3,0-.4M220.5,229.8c0,0-.2,0-.3-.1M222.3,232.1c0-.1,0-.2-.1-.3"/>
  <path class="st2" d="M222.3,234.4c0-.1,0-.2,0-.4,0,.1,0,.3,0,.4,0,0,0,0,0,0Z"/>
  <path class="st0" d="M209.3,177.6c0-.1,0-.2.1-.4M87.4,237.3c.1,0,.3,0,.4,0"/>
  <path class="st2" d="M88.2,237.2c.2,0,.5,0,.7-.2-.2,0-.5.1-.7.2,0,0,0,0,0,0ZM179.8,264h0s0,0,0,0Z"/>
  <path class="st0" d="M209.2,175c0,.1,0,.2.1.3M209.5,176.9c0-.1,0-.3,0-.4M209.5,175.7c0,.1,0,.3,0,.4M216.7,236.9c-.2,0-.4,0-.6-.1M218.8,237.2c.1,0,.3,0,.4,0M209,178.4c0-.1.1-.2.2-.4M219.9,236.9c-.1,0-.2,0-.3.1M218.5,237.2c-.2,0-.3,0-.5,0"/>
  <path class="st2" d="M207.4,180c-.2.2-.4.3-.6.5.2-.1.4-.3.6-.5Z"/>
  <path class="st0" d="M208.8,178.7c-.1.2-.2.3-.4.4M207.7,179.8c.2-.1.4-.3.6-.5"/>
  <path class="st2" d="M179.8,264h0s0,0,0,0c-.2-.3-.3-.7-.4-1v-.2c0,0,0,.1,0,.2.1.4.3.7.4,1h0Z"/>
  <path class="st0" d="M152.7,147.3c.1,0,.3,0,.4,0"/>
  <path class="st2" d="M171.4,266.3c.1.2.2.4.3.6l.2.3c0-.1-.1-.2-.2-.3-.1-.2-.2-.4-.3-.6Z"/>
  <path class="st0" d="M156.6,149.4c0,.1.1.3.2.4"/>
  <path class="st2" d="M134.1,267.7l.9-1.6-.9,1.6Z"/>
  <path class="st0" d="M156.2,148.7c0,0,.1.2.2.3M150.5,148.2c0,0,.2-.1.3-.2"/>
  <path class="st2" d="M128.2,279.2h0s0,0,0,0c.3-.8.6-1.6.8-2.4,0-.1,0-.3.1-.4,0,.1,0,.3-.1.4-.2.8-.5,1.6-.8,2.4ZM131.3,270.4c.3-.7.7-1.3,1.1-1.9.4-.3.8-.6,1.3-.7-.5.1-.9.4-1.3.7-.4.6-.8,1.2-1.1,1.9h0Z"/>
  <path class="st0" d="M151.2,147.8c.1,0,.3-.1.4-.2"/>
  <path class="st2" d="M179.5,266.3c1,2.2,2.1,4.3,3.5,6.2.2.4.5.7.7,1,.5.7,1,1.4,1.4,2.1.1.2.2.5.4.7l.2.3c1.1,2,.3,4.5-1.7,5.6-.5.2-1,.3-1.5.4.5,0,1.1-.1,1.5-.4,2-1.1,2.8-3.6,1.7-5.6,0-.1-.1-.2-.2-.3-.1-.3-.2-.5-.4-.7-.4-.7-.9-1.4-1.4-2.1-.3-.3-.5-.7-.7-1-1.4-2-2.5-4.1-3.5-6.2-.2-.7-.1-1.4.2-2,0,0,0-.1,0-.2,0,0,0,.1,0,.2-.3.6-.4,1.3-.2,2Z"/>
  <path class="st0" d="M151.9,147.5c.2,0,.5-.1.8-.2M157,151.7c0-.3,0-.5,0-.8M156.9,150.1c0,.2.1.5.2.7"/>
  <path class="st2" d="M178.4,280.1v-.3c-.3-.2-.4-.5-.5-.7,0,.2.2.5.3.7,0,.1,0,.2.1.3.5.9,1.2,1.7,2.2,2.2-.9-.5-1.7-1.2-2.2-2.2ZM177,276.1c0,.2.1.4.2.6.2.8.4,1.5.7,2.2-.3-.7-.5-1.5-.7-2.2,0-.2-.1-.4-.2-.6h0ZM92.5,236c-.8.3-1.5.6-2.3.9.8-.2,1.6-.5,2.3-.9.4-.2.8-.3,1.2-.5h0s0,0,0,0c-.4.2-.8.3-1.2.5h0ZM126.4,264l.7-1.7c-10.8-6.4-18.8-16.4-22.7-28.3h0c3.9,11.9,11.9,22,22.7,28.3l-.7,1.7h0s0,0,0,0h0s0,0,0,0ZM102.7,234.2h0s0,0,0,0h0,0s0,0,0,0Z"/>
  <path class="st0" d="M100.5,233.5h0"/>
  <path class="st2" d="M83.8,233.8c0,.2,0,.4.2.6,0-.2-.1-.5-.2-.7,0,0,0,0,0,0ZM89,237.1h0c0,0,.2,0,.2,0h-.2c0,0,0,0,0,0h0ZM84.3,235.4c-.2-.3-.3-.6-.4-.9.1.3.2.6.4.9ZM84.9,236.2c-.1-.1-.2-.2-.3-.3,0,.1.2.2.3.3h0ZM85.7,236.7c-.1,0-.2-.2-.3-.2.1,0,.2.2.3.2Z"/>
  <path class="st2" d="M84.7,235.8c-.1-.1-.2-.3-.3-.4,0,.1.2.3.3.4ZM86.6,237.1c-.3,0-.6-.2-.9-.4.3.2.6.3.9.4ZM85.4,236.5c-.2,0-.3-.2-.4-.3.1.1.3.2.4.3Z"/>
  <path class="st0" d="M155.6,148.2c0,0,.2.2.3.3M83.7,233c0,.2,0,.4,0,.6"/>
  <path class="st2" d="M127.8,280.2h0s0,0,0,0c0,0,0-.2.1-.2v.2c-.1,0-.1,0-.1,0ZM126.8,266.2c.1-.8,0-1.5-.3-2.2h0c.3.7.5,1.4.3,2.2-1,2.2-2.2,4.4-3.6,6.4h0s0,0,0,0c1.4-2,2.6-4.2,3.6-6.4h0ZM153.5,147.3h0s0,0,0,0c0,0,0,0,0,0h0Z"/>
  <path class="st0" d="M154.3,147.5c.1,0,.2,0,.3.1"/>
  <path class="st2" d="M122.5,273.6c.1-.2.3-.4.4-.6-.2.2-.3.4-.4.6-.5.7-1,1.4-1.4,2.1,0,.1-.1.3-.2.4,0-.1.1-.3.2-.4.4-.7.9-1.4,1.4-2.1Z"/>
  <path class="st0" d="M197.5,193.1c-.6-1.1-1.2-2.1-1.9-3.1M149.6,149.4c0-.1.1-.2.2-.3"/>
  <path class="st2" d="M203.4,173.1h0c0,0,.1,0,.2,0,0,0-.1,0-.2,0ZM149.1,150.9h0s0,0,0,0c0,0,0,0,0,0ZM215.4,228.8c.8,0,1.7,0,2.5.2h0s0,0,0,0c-.8-.1-1.7-.2-2.5-.2-.4,0-.9,0-1.3,0h0s0,0,0,0c.4,0,.9,0,1.3,0ZM205.5,226v-.2c-.1,0-.1,0-.1,0h0s.1.2.1.2ZM219.7,229.4s0,0,0,0c-.2,0-.5-.1-.7-.2,0,0,0,0-.1,0,0,0,0,0,.1,0,.3,0,.5,0,.7.2Z"/>
  <path class="st0" d="M149.3,150.1c0-.1,0-.2.1-.3"/>
  <path class="st2" d="M197,188.7c0,0,0-.2,0-.3,0,0,0-.1,0-.2,0,0,0,.1,0,.2,0,0,0,.2,0,.3Z"/>
  <path class="st0" d="M204.8,172.5c.1,0,.3,0,.4,0"/>
  <path class="st2" d="M205.3,225.8l-1.6-.5,1.6.5ZM195.8,189.8c.2-.2.4-.3.6-.5.2-.2.4-.3.5-.4-.1.1-.3.3-.5.4-.2.2-.4.4-.6.5h0ZM198,186.2c1.7-1.4,3.6-2.7,5.5-3.8.4-.2.7-.4,1.1-.6-.4.2-.7.4-1.1.6-1.9,1.1-3.8,2.4-5.5,3.8h0Z"/>
  <path class="st0" d="M204.1,172.7c.1,0,.2,0,.3,0"/>
  <path class="st2" d="M203.5,234.2h0s0,0,0,0h0s0,0,0,0h0Z"/>
  <path class="st0" d="M150,148.7c0-.1.2-.2.3-.3"/>
  <path class="st2" d="M205.5,233.4c0,0,.1,0,.2,0,2.1.4,4.2,1,6.2,1.8-2-.8-4.1-1.4-6.2-1.8,0,0-.1,0-.2,0ZM179.2,262.4h0c10.8-6.4,18.9-16.6,22.7-28.5h0c-3.8,12-11.9,22.1-22.7,28.5ZM157.3,165.6l-.2-.2c0,0,.1.1.2.2h0ZM157.4,165.7c0,.3,0,1.1,0,1.5,0-.5,0-1,0-1.5h0Z"/>
  <path class="st3" d="M133.8,343.9c0-.4,0-.8,0-1.2,0-.5,0-.9,0-1.3s0-1,0-1.4c0-2.4-.8-4.8-2.3-6.8-.2-.2-.4-.5-.6-.7-1.6-1.6-3.6-2.6-5.8-3-.3,0-.7,0-1-.1-.3,0-.7,0-1,0h0c-1.4,0-2.9.3-4.2.8-1.3.5-2.5,1.3-3.6,2.4-1.1,1.1-2,2.5-2.5,3.9-.2.4-.3.9-.4,1.3-.2.7-.3,1.5-.4,2.2,0,.2,0,.3,0,.5,0,.3,0,.5,0,.8,0,.2,0,.4,0,.6,0,0,0,0,0,.1,0,1.6.2,3.2.7,4.7.5,1.4,1.3,2.7,2.3,3.9,1.1,1.1,2.3,1.9,3.7,2.5,0,0,0,0,.1,0,1.8.7,3.6,1,5.5.9.8,0,1.7,0,2.5-.1.8,0,1.6-.2,2.3-.4.7-.1,1.3-.3,2-.4.2,0,.5-.1.7-.2.2,0,.5-.2.7-.3l-.9-5.4c-.9.4-1.9.7-2.9.8-1.2.2-2.4.3-3.6.3-1.6,0-3.2-.3-4.5-1.2-.3-.2-.5-.4-.7-.6,0,0-.1-.2-.2-.3-.1-.2-.3-.3-.4-.5,0,0,0-.2-.1-.3-.1-.2-.2-.4-.3-.6,0,0,0-.1,0-.2,0-.3-.1-.5-.2-.8h0,0s15.1,0,15.1,0ZM119.1,337.7c.2-.5.5-1,.8-1.5.4-.4.8-.8,1.3-1,.6-.3,1.2-.4,1.9-.4,0,0,0,0,0,0h0c.7,0,1.3.1,1.9.4.5.2.9.6,1.3,1,.4.4.6.9.8,1.4.2.5.3,1.1.3,1.6h0s-8.8,0-8.8,0c0-.6.2-1.1.4-1.6h0ZM177.9,338c0-.7-.2-1.3-.3-2,0,0,0-.1,0-.2-.3-1.2-.9-2.4-1.6-3.4h0c-.8-1-1.9-1.8-3.2-2.2-.8-.3-1.5-.5-2.3-.6-.8-.1-1.6-.2-2.4-.2,0,0-.1,0-.2,0,0,0,0,0,0,0-1.9,0-3.7.1-5.5.4-1.5.2-2.9.5-4.4.9v22.6h6.6v-18.1c.4,0,.9-.1,1.4-.1h0c.5,0,1,0,1.5,0,1.2-.1,2.4.4,3.2,1.3.7,1.4,1,3,.8,4.5v12.4h6.6v-13.2s0,0,0,0c0-.7,0-1.5-.1-2.2h0ZM264,345.6c.6.2.9.8,1,1.4,0,.6-.2,1.1-.8,1.4-.6.2-1.3.3-1.9.4-.2,0-.4,0-.7,0-1.2,0-2.4-.1-3.5-.4-1.2-.3-2.3-.6-3.5-1.1l-1.1,5.4c.9.4,1.9.7,2.8.9,1.7.4,3.5.6,5.2.5,1,0,1.9,0,2.9-.2,1.6-.2,3.1-.7,4.5-1.6h0s0,0,0,0c1.7-1.2,2.7-3.2,2.6-5.3,0-.9-.1-1.7-.4-2.6-.2-.8-.6-1.4-1.2-2-.3-.3-.6-.6-.9-.9,0,0-.2-.1-.3-.2-.3-.2-.7-.4-1-.6-1.2-.6-2.4-1.2-3.6-1.6-.6-.2-1.1-.4-1.5-.6,0,0-.2,0-.3-.1,0,0,0,0-.1,0-.2-.1-.4-.2-.6-.3-.1,0-.3-.2-.4-.2-.2-.2-.4-.3-.5-.6,0,0,0,0,0,0,0-.2-.1-.5-.1-.7,0-1.2,1-1.7,3.1-1.7,1,0,2,0,3,.3.4,0,.7.2,1.1.3.4,0,.7.2,1.1.3.1,0,.3,0,.4.1l1.2-5.2c-1-.4-2.1-.6-3.1-.8-1.3-.3-2.7-.4-4.1-.4h0c-.3,0-.6,0-.9,0-2.1,0-4.1.7-5.8,1.9-.1.1-.3.2-.4.3-1.4,1.2-2.1,3-2.1,4.9,0,1,.1,2,.5,2.9.3.8.8,1.5,1.4,2.1.6.6,1.4,1.1,2.1,1.5.8.4,1.8.8,2.8,1.2,0,0,0,0,0,0,1,.4,2,.8,3,1.4h0ZM202.7,333.3c-.2-.3-.4-.5-.7-.8-2.1-2.1-4.9-3.2-7.9-3.1,0,0-.2,0-.3,0-1.3,0-2.7.3-3.9.8-1.3.5-2.5,1.3-3.6,2.4-1.1,1.1-1.9,2.4-2.5,3.8,0,0,0,0,0,.1-.6,1.6-.9,3.4-.9,5.2,0,0,0,.2,0,.3,0,.2,0,.4,0,.5,0,.2,0,.5,0,.7,0,.3,0,.6,0,.9,0,.1,0,.2,0,.4,0,.3,0,.5.2.8,0,.1,0,.3,0,.4,0,0,0,.2,0,.3,0,.3.2.6.2.9,0,0,0,0,0,.1.5,1.4,1.2,2.7,2.2,3.8,1.1,1.1,2.4,2,3.9,2.5,1.8.7,3.6,1,5.5.9.4,0,.8,0,1.2,0,.4,0,.8,0,1.2-.1.2,0,.4,0,.6,0,.6,0,1.2-.2,1.8-.3.7-.1,1.3-.3,2-.4.5-.1,1-.3,1.4-.5l-.9-5.4c-.9.4-1.9.7-2.9.8-.6.1-1.2.2-1.8.2-.6,0-1.2,0-1.8,0-1.6,0-3.2-.3-4.5-1.2-.2-.1-.4-.3-.5-.4-.2-.2-.3-.3-.4-.5-.5-.7-.9-1.5-.9-2.3h0,0s15.1,0,15.1,0c0-.4,0-.8,0-1.2h0s0,0,0-.1c0-.4,0-.8,0-1.1h0c.1-2.6-.5-5.2-1.7-7.4-.2-.3-.3-.5-.5-.8h0ZM189.8,339.4c0-.6.2-1.1.4-1.6.2-.5.5-1,.8-1.5.4-.4.8-.8,1.3-1,.6-.3,1.3-.4,1.9-.4h0c.7,0,1.3.1,1.9.4.5.2.9.6,1.3,1,.4.4.6.9.8,1.4.1.4.2.9.3,1.3,0,.1,0,.2,0,.4h-8.8ZM153,330.1c-.5-.1-1-.2-1.5-.3-.5,0-1-.1-1.5-.2-.4,0-.9,0-1.3,0-1.8,0-3.7.2-5.4.6-1.4.3-2.8.7-4.2,1.2v22.2h6.6v-17.9c.4-.1.9-.2,1.3-.2.5,0,1-.1,1.5-.1.9,0,1.7,0,2.6.3.8.1,1.5.3,2.1.4v-.2c0,0,1.1-5.2,1.1-5.2-.4-.2-.8-.3-1.3-.4h0ZM107.2,336.7c-.4-1.4-1.1-2.7-2-3.9-.9-1.1-2-1.9-3.2-2.5-1.4-.6-2.9-.9-4.4-.9-.9,0-1.7,0-2.6.3-.8.2-1.6.4-2.3.8v-11.7l-6.6,1.1v32.7c.6.2,1.3.4,2,.5.8.1,1.6.3,2.4.4.9.1,1.7.2,2.6.3.4,0,.9,0,1.3,0,.4,0,.8,0,1.2,0,1.8,0,3.5-.3,5.2-.8,1.4-.5,2.7-1.4,3.8-2.5,1.1-1.1,1.9-2.4,2.4-3.9.6-1.6.9-3.3.8-5.1,0-1.7-.2-3.4-.7-5ZM99.8,346.5c-1,1.3-2.5,2-4.1,1.9-.6,0-1.1,0-1.6,0-.5,0-.9-.1-1.2-.2v-12.1c.5-.3,1-.5,1.6-.7.7-.2,1.4-.3,2-.3,3.1,0,4.7,2.1,4.7,6.4,0,1.8-.4,3.5-1.4,4.9ZM34.6,353.4h6.6v-10.2c.4.3.8.7,1.2,1,.4.4.7.7,1.1,1.1.8.9,1.5,1.8,2.2,2.7.2.3.4.5.6.8.3.4.5.8.8,1.1.2.3.4.6.6.9.6.9,1.2,1.8,1.6,2.5h7.6c-.5-1-1.1-2.1-1.9-3.2-.7-1.2-1.6-2.4-2.5-3.6-.9-1.2-1.8-2.3-2.8-3.4-.9-1-1.8-2-2.8-2.9,1.8-1.8,3.4-3.4,4.9-5.1,1.5-1.7,3.1-3.4,4.6-5.2h-7.9c-.4.5-.9,1.1-1.5,1.8-.6.7-1.2,1.4-1.8,2.2-.7.7-1.3,1.5-2,2.3-.7.8-1.4,1.5-2,2.2h0s0,0,0,0v-19.6l-6.6,1.1s0,33.5,0,33.5ZM222.4,348.2h0s0,0-.1,0c-.7.1-1.4.2-2,.2-.9,0-1.8-.2-2.5-.7-.2-.2-.3-.3-.5-.5-.5-1-.8-2.2-.7-3.3v-8.2h8v-5.5h-8v-6.9l-6.6,1.1v19.7c0,0,0,.2,0,.2,0,1.3.1,2.6.4,3.9.3,1.2.8,2.3,1.5,3.2.8.9,1.7,1.6,2.9,2,1.4.5,3,.8,4.5.7,1.2,0,2.4,0,3.6-.4.9-.2,1.8-.5,2.7-.8l-.9-5.2c-.7.3-1.4.4-2.1.6h0ZM243.3,330.1c-1.4-.5-2.8-.8-4.3-.7,0,0-.2,0-.3,0-1.3,0-2.7.3-3.9.8-1.3.5-2.5,1.3-3.6,2.4-1,1.1-1.9,2.3-2.4,3.7,0,0,0,.1,0,.2-.1.3-.2.6-.3.9s-.2.6-.2.9c0,.3-.1.6-.2.8,0,.1,0,.2,0,.3,0,.4-.1.7-.1,1.1,0,.3,0,.6,0,.9,0,.2,0,.4,0,.5,0,.2,0,.4,0,.5,0,.2,0,.5,0,.7,0,.3,0,.6,0,.9,0,.1,0,.2,0,.4,0,.3,0,.5.2.8,0,.1,0,.3,0,.4,0,0,0,.2,0,.3,0,.3.2.6.2.9.5,1.4,1.3,2.8,2.3,3.9,1.1,1.1,2.4,2,3.9,2.5.1,0,.3,0,.4.1.8.3,1.5.4,2.3.6.1,0,.2,0,.3,0,.8.1,1.6.2,2.5.2.4,0,.8,0,1.2,0,.4,0,.8,0,1.2-.1.2,0,.4,0,.6,0,.6,0,1.2-.2,1.7-.3.3,0,.7-.1,1-.2.3,0,.7-.2,1-.3,0,0,0,0,0,0,.5-.1.9-.3,1.3-.5l-.9-5.4c-.9.4-1.9.7-2.9.8-.7.1-1.5.2-2.2.3-.4,0-.9,0-1.3,0-1.6,0-3.2-.3-4.5-1.2-.1,0-.2-.2-.3-.3-.4-.3-.7-.7-1-1.1,0,0,0-.1,0-.2-.3-.5-.4-1.1-.5-1.6h0,0s15.1,0,15.1,0c0-.4,0-.7,0-1.2h0c0,0,0-.1,0-.1,0-.3,0-.5,0-.7,0-.1,0-.3,0-.4,0-3.9-1-6.9-2.9-9-1-1-2.3-1.9-3.6-2.4h0ZM234.7,339.4c0-.6.2-1.1.4-1.6.2-.5.5-1,.8-1.5.4-.4.8-.8,1.3-1,.6-.3,1.3-.4,1.9-.4.7,0,1.3.1,1.9.4.5.2.9.6,1.3,1,.4.4.6.9.8,1.4.2.5.2.9.3,1.4,0,0,0,.1,0,.2h-8.8ZM73.2,348.1h0s0,0,0,0c-.4,0-.8.1-1.4.2-.5,0-1,0-1.5,0-1.2.1-2.5-.4-3.2-1.4-.7-1.4-1-3-.8-4.6v-12.2h-6.6v13c0,0,0,.1,0,.2,0,1.4.2,2.8.5,4.2.3,1.1.8,2.2,1.4,3.2,0,.1.1.2.2.3,0,0,.1.1.2.2.8.9,1.8,1.6,2.9,2,1.2.4,2.4.7,3.7.8.4,0,.8,0,1.3,0,1.9,0,3.8-.1,5.6-.4,1.5-.2,2.9-.5,4.4-.9v-22.6h-6.6s0,18.1,0,18.1Z"/>
  <path class="st1" d="M198.5,339.4h-8.8s8.8,0,8.8,0c0-.1,0-.2,0-.4,0,.1,0,.2,0,.4ZM123.2,334.9s0,0,0,0c0,0,0,0,0,0h0ZM122.1,335c.3,0,.7-.1,1.1-.1-.4,0-.7,0-1.1.1h0ZM243.4,339.4h-8.8s8.8,0,8.8,0c0,0,0-.1,0-.2,0,0,0,.1,0,.2ZM92.8,348.1c.3,0,.7.1,1.2.2-.5,0-.9-.1-1.2-.2ZM95.7,348.4c-.6,0-1.1,0-1.6,0,.5,0,1.1,0,1.6,0,1.6.1,3.1-.6,4.1-1.9,1-1.5,1.5-3.2,1.4-4.9,0,1.8-.4,3.5-1.4,4.9-1,1.3-2.5,2-4.1,1.9Z"/>
  <path class="st0" d="M194.3,334.9c.2,0,.3,0,.5,0"/>
  <path class="st1" d="M41.2,338.5v-19.6h0v19.6h0ZM228.9,336.3c0,0,0,.1,0,.2-.1.3-.2.6-.3.9,0-.3.2-.6.3-.9,0,0,0-.1,0-.2h0Z"/>
  <path class="st0" d="M228.5,337.4c0,.3-.2.6-.2.9"/>
  <path class="st1" d="M46.9,340.3c1,.9,1.9,1.9,2.8,2.9,1,1.1,1.9,2.2,2.8,3.4s1.7,2.4,2.5,3.6c.7,1.2,1.4,2.3,1.9,3.2h-7.6s0,0,0,0h7.6c-.5-1-1.1-2.1-1.9-3.2s-1.6-2.4-2.5-3.6h0c-.9-1.2-1.8-2.3-2.8-3.4-.9-1-1.8-2-2.8-2.9,1.8-1.8,3.4-3.4,4.9-5.1,1.5-1.7,3.1-3.4,4.6-5.2h0c-1.6,1.8-3.1,3.5-4.6,5.2-1.5,1.6-3.1,3.3-4.9,5.1ZM241.1,348.4c.4,0,.9,0,1.3,0-.4,0-.9,0-1.3,0-1.6,0-3.2-.3-4.5-1.2-.1,0-.2-.2-.3-.3.1,0,.2.2.3.3,1.4.9,2.9,1.3,4.5,1.2ZM234.7,343.9h0s15.1,0,15.1,0c0-.4,0-.7,0-1.2,0,.4,0,.8,0,1.2h-15.1ZM41.2,353.4h-6.6s6.6,0,6.6,0v-10.2c.4.3.8.7,1.2,1-.4-.4-.8-.7-1.2-1v10.2h0ZM239.1,329.4c0,0-.2,0-.3,0,0,0,.2,0,.3,0h0Z"/>
  <path class="st0" d="M47,350c-.3-.4-.5-.8-.8-1.1"/>
  <path class="st1" d="M247.1,353.1c.5-.1.9-.3,1.3-.5l-.9-5.4h0s.9,5.4.9,5.4c-.4.2-.9.4-1.3.5ZM233.3,352.4c.5.3.9.5,1.4.7.1,0,.3,0,.4.1-.1,0-.3,0-.4-.1-.5-.2-1-.4-1.4-.7h0Z"/>
  <path class="st0" d="M119.3,345.8c0,0,0-.2-.1-.3M177.6,336c.2.7.3,1.3.3,2"/>
  <path class="st1" d="M167.7,329.5c-1.9,0-3.7.1-5.5.4-1.5.2-2.9.5-4.4.9,1.4-.4,2.9-.7,4.4-.9,1.8-.3,3.7-.4,5.5-.4h0ZM167.8,329.5h0c0,0,.1,0,.2,0,0,0-.1,0-.2,0h0ZM205,341.4h0s0,0,0,0h0ZM205,341.5c0,.3,0,.7,0,1.1,0-.4,0-.8,0-1.1h0ZM200.1,353.6c-.5.1-1.1.2-1.8.3.6,0,1.2-.2,1.8-.3Z"/>
  <path class="st0" d="M183.4,345.8c0,0,0-.2,0-.3"/>
  <path class="st1" d="M164.4,335.4v18.1h0v-18.1c.4,0,.9-.1,1.4-.1h0s0,0,0,0c-.5,0-1,0-1.4.1ZM151,335.5c.8.1,1.5.3,2.1.4v-.2c0,0,0,.2,0,.2-.6-.1-1.3-.3-2.1-.4ZM131.8,352.9c.2,0,.5-.2.7-.3l-.9-5.4.9,5.4c-.2.1-.5.2-.7.3h0ZM113.7,349c.3.6.7,1.1,1.2,1.6,1.1,1.1,2.3,1.9,3.7,2.5-1.4-.6-2.7-1.4-3.7-2.5-.4-.5-.8-1-1.2-1.6h0ZM146.9,335.3c.5,0,1-.1,1.5-.1.9,0,1.7,0,2.6.3-.8-.2-1.7-.3-2.6-.3-.5,0-1,0-1.5.1Z"/>
  <path class="st0" d="M125.2,329.5c.4,0,.8.1,1.2.2M119.9,346.5c0,0-.1-.2-.2-.3"/>
  <path class="st1" d="M148.6,329.5c.4,0,.9,0,1.3,0,.5,0,1,0,1.5.2.5,0,1,.1,1.5.3.4,0,.9.2,1.3.4h0c-.4-.2-.8-.3-1.3-.4-.5-.1-1-.2-1.5-.3h0c-.5,0-1-.1-1.5-.2-.4,0-.9,0-1.3,0-1.8,0-3.7.2-5.4.6-1.4.3-2.8.7-4.2,1.2h0c1.4-.5,2.8-.9,4.2-1.2,1.8-.4,3.6-.6,5.4-.6h0ZM133.9,341.4c0,.4,0,.8,0,1.3,0,.4,0,.8,0,1.2h-15.1,0s15.1,0,15.1,0c0-.4,0-.8,0-1.2,0-.5,0-.9,0-1.3,0-.5,0-1,0-1.4,0,.5,0,.9,0,1.4Z"/>
  <path class="st0" d="M183.3,345.1c0-.3-.1-.5-.2-.8"/>
  <path class="st1" d="M204.8,343.9h-15.1,0s15.1,0,15.1,0c0-.4,0-.8,0-1.2h0c0,.4,0,.8,0,1.2h0ZM222.2,348.2c-.7.1-1.4.2-2,.2-.9,0-1.8-.2-2.5-.7.7.5,1.6.8,2.5.7.7,0,1.4,0,2-.2h0ZM193.3,347.9c-.6-.2-1.1-.5-1.6-.8-.2-.1-.4-.3-.5-.4.2.2.3.3.5.4.5.3,1,.6,1.6.8Z"/>
  <path class="st0" d="M190.7,346.2c.1.2.3.3.4.5M193.3,347.9c.6.2,1.1.3,1.7.4"/>
  <path class="st1" d="M198,348.3c-.6,0-1.2,0-1.8,0-.4,0-.8,0-1.2,0,.4,0,.8,0,1.2,0,.6,0,1.2,0,1.8,0ZM209.9,344.1c0,1.3.1,2.6.4,3.9.3,1.2.8,2.3,1.5,3.2-.7-.9-1.3-2-1.5-3.2-.3-1.3-.4-2.6-.4-3.9h0ZM217.7,347.7c-.2-.2-.3-.3-.5-.5-.2-.4-.4-.8-.5-1.2.1.4.3.8.5,1.2.1.2.3.4.5.5h0Z"/>
  <path class="st0" d="M216.7,345.9c-.1-.4-.2-.8-.2-1.3"/>
  <path class="st0" d="M183.1,344c0-.3,0-.6,0-.9"/>
  <path class="st1" d="M183,341.9c0,.2,0,.4,0,.5,0-.2,0-.4,0-.5h0ZM202.7,347.2l.9,5.4c-.5.2-.9.4-1.4.5.5-.1,1-.3,1.4-.5l-.9-5.4c-.9.4-1.9.7-2.9.8-.6.1-1.2.2-1.8.2.6,0,1.2-.1,1.8-.2,1-.2,2-.5,2.9-.8h0Z"/>
  <path class="st0" d="M112,340c0-.7.2-1.5.4-2.2"/>
  <path class="st1" d="M194.2,329.4h0c0,0-.2,0-.3,0,0,0,.2,0,.3,0h0ZM183.7,346.8c.5,1.4,1.2,2.7,2.2,3.8,1.1,1.1,2.4,2,3.9,2.5-1.5-.6-2.8-1.4-3.9-2.5-1-1.1-1.8-2.4-2.2-3.8h0ZM184,336.3c0,0,0,0,0,.1-.6,1.6-.9,3.4-.9,5.2,0-1.8.3-3.5.9-5.2,0,0,0,0,0-.1h0ZM271.6,347c0,.3,0,.5,0,.8,0-.3,0-.5,0-.8,0-.9-.1-1.7-.4-2.6-.2-.8-.6-1.4-1.2-2h0s0,0,0,0c.5.6.9,1.3,1.2,2,.3.8.4,1.7.4,2.6ZM270.1,342.4c-.3-.3-.6-.6-.9-.9.3.3.7.6.9.9h0ZM256.1,341.5c-.6-.6-1.1-1.3-1.4-2.1-.3-.9-.5-1.9-.5-2.9,0-1.8.7-3.6,2.1-4.9-1.4,1.2-2.1,3-2.1,4.9,0,1,.1,2,.5,2.9.3.8.8,1.5,1.4,2.1.6.6,1.4,1.1,2.1,1.5.8.4,1.8.8,2.8,1.2-1-.4-2-.8-2.8-1.2-.8-.4-1.5-.9-2.1-1.5h0ZM264.5,353.9c1.6-.2,3.1-.7,4.5-1.6h0c-1.4.9-2.9,1.4-4.5,1.6h0ZM263.4,329.4h0c-.3,0-.6,0-.9,0,.3,0,.6,0,.9,0h0Z"/>
  <path class="st0" d="M235.2,345.6c0,0,0,.1,0,.2M228,339.5c0-.1,0-.2,0-.3"/>
  <path class="st1" d="M263.9,334.7c-2.1,0-3.1.6-3.1,1.7,0,.2,0,.5.1.7,0,0,0,0,0,0,0,0,0,0,0,0,0-.2-.1-.5-.1-.7,0-1.2,1-1.7,3.1-1.7,1,0,2,0,3,.3.4,0,.7.2,1.1.3-.4,0-.7-.2-1.1-.3-1-.2-2-.3-3-.3Z"/>
  <path class="st0" d="M268,335.3c.4,0,.7.2,1.1.3"/>
  <path class="st1" d="M267.9,340.8c.4.2.7.4,1,.6-.3-.2-.7-.4-1-.6-1.2-.6-2.4-1.2-3.6-1.6-.6-.2-1.1-.4-1.5-.6.4.2.9.4,1.5.6,1.2.4,2.4,1,3.6,1.6ZM249.8,341.4h0c0,.1,0,.3,0,.4,0-.1,0-.3,0-.4ZM249.8,341.8c0,.2,0,.5,0,.7,0-.3,0-.5,0-.7h0ZM227.8,341.9c0,.2,0,.4,0,.5,0-.2,0-.4,0-.5h0Z"/>
  <path class="st0" d="M227.9,340.5c0,.3,0,.6,0,.9M228,344c0-.3,0-.6,0-.9"/>
  <path class="st1" d="M245,353.6c-.5.1-1.1.2-1.7.3.6,0,1.2-.2,1.7-.3Z"/>
  <path class="st0" d="M228.3,345.8c0,0,0-.2,0-.3M228.2,345.1c0-.3-.1-.5-.2-.8"/>
  <path class="st1" d="M111.9,341.9s0,0,0,.1c0,0,0,0,0-.1h0ZM95.1,329.8c-.8.2-1.6.4-2.3.8h0c.7-.3,1.5-.6,2.3-.8ZM62,351.2c.8.9,1.8,1.6,2.9,2,1.2.4,2.4.7,3.7.8-1.3,0-2.5-.3-3.7-.8-1.1-.4-2.1-1.1-2.9-2h0ZM102.1,330.4c1.3.5,2.4,1.4,3.2,2.5.9,1.1,1.6,2.5,2,3.9-.4-1.4-1.1-2.7-2-3.9-.9-1.1-2-1.9-3.2-2.4-1.4-.6-2.9-.9-4.4-.9-.9,0-1.7,0-2.6.3.8-.2,1.7-.3,2.6-.3,1.5,0,3,.3,4.4.9ZM107.9,341.7c0,1.2-.1,2.4-.4,3.6.3-1.2.4-2.4.4-3.6,0-1.7-.2-3.4-.7-5,.5,1.6.7,3.3.7,5Z"/>
  <path class="st0" d="M111.9,341.3c0-.3,0-.5,0-.8M124,348.3c-.8,0-1.6-.3-2.3-.6M118.9,344.9c0,0,0-.1,0-.2M262.4,338.4c-.2-.1-.4-.2-.6-.3"/>
  <path class="st0" d="M66.3,343.5c0,.8.2,1.6.4,2.3"/>
  <path class="st1" d="M73.2,348.1h0s0,0,0,0h0ZM269.4,335.8l1.2-5.2-1.2,5.2Z"/>
  <path class="st0" d="M120.1,46.4c.4-.1.9-.2,1.3-.2.5,0,1-.1,1.5-.1.9,0,1.7,0,2.5.2.8.2,1.5.3,2.1.5l1.1-5.4c-.2,0-.4-.2-.6-.2-.2,0-.4-.1-.6-.2-.5-.1-1-.2-1.5-.3-.5,0-1-.1-1.5-.2-.5,0-.9,0-1.3,0-1.8,0-3.6.2-5.3.5-1.4.3-2.8.7-4.1,1.2v21.8h6.5v-17.6h0,0Z"/>
  <path class="st0" d="M157.5,37.2c.8-.7,1.2-1.8,1.2-2.8,0-1.1-.4-2.1-1.2-2.8-1.6-1.4-3.9-1.4-5.5,0-.8.7-1.2,1.8-1.2,2.8,0,1.1.4,2.1,1.2,2.8,1.6,1.4,3.9,1.4,5.5,0Z"/>
  <rect class="st0" x="151.5" y="41" width="6.5" height="23.1"/>
  <path class="st0" d="M133.7,61.8c.8.9,1.7,1.6,2.8,2,1.4.5,2.9.8,4.4.7,1.2,0,2.4,0,3.6-.4.9-.2,1.8-.5,2.6-.8l-.9-5.1c-.7.2-1.3.4-2,.5-.7.1-1.4.2-2.2.2-.9,0-1.7-.2-2.5-.7-.2-.2-.3-.3-.5-.5-.5-1-.8-2.1-.7-3.3v-8.1h7.8v-5.4h-7.8v-6.8l-6.5,1.1h0s0,19.4,0,19.4c0,1.4.1,2.7.4,4.1.2,1.1.7,2.2,1.5,3.1Z"/>
  <path class="st0" d="M86.9,53.9c0,.3,0,.6.1.9,0,0,0,.2,0,.3,0,.3.1.6.2.8,0,.1,0,.2,0,.3,0,.4.2.8.3,1.2.5,1.4,1.2,2.7,2.2,3.8,1.1,1.1,2.4,2,3.8,2.5,1.7.6,3.6,1,5.4.9.8,0,1.6,0,2.5-.1.8,0,1.6-.2,2.3-.3.7-.1,1.3-.3,1.9-.5.5-.1,1-.3,1.4-.5l-.9-5.3c-.9.4-1.9.6-2.8.8-.6.1-1.2.2-1.8.2-.6,0-1.2,0-1.7,0-1.6,0-3.1-.3-4.5-1.2-1.1-.7-1.8-1.9-1.9-3.2h14.8c0-.4,0-.8,0-1.2,0-.5,0-.9,0-1.2,0-3.9-.9-6.8-2.8-8.8-2-2.1-4.9-3.2-7.8-3-1.4,0-2.8.3-4.1.8-1.3.5-2.5,1.3-3.5,2.3-1.1,1.1-1.9,2.4-2.5,3.8-.7,1.7-1,3.5-.9,5.4h0s0,0,0,0c0,.2,0,.4,0,.5,0,.2,0,.4,0,.7ZM94,48.6h0c.2-.5.5-1,.8-1.4.4-.4.8-.8,1.3-1,.6-.3,1.2-.4,1.9-.4.7,0,1.3.1,1.9.4.5.2.9.6,1.3,1,.3.4.6.9.7,1.4.2.5.3,1.1.3,1.6h-8.6c0-.6.2-1.1.4-1.6Z"/>
  <path class="st0" d="M68.8,61.2h0c1,1.1,2.3,2,3.7,2.6,1.7.7,3.6,1,5.4.9,1.3,0,2.5-.1,3.8-.3,1-.2,1.9-.5,2.8-.8l-.8-4.4-.2-.9c-.8.3-1.6.6-2.5.7-.8.1-1.7.2-2.5.2-2.2,0-3.8-.6-4.7-1.7-1-1.4-1.4-3.1-1.3-4.8,0-1.7.4-3.4,1.4-4.7,1.1-1.3,2.7-1.9,4.3-1.8.8,0,1.6,0,2.5.3.7.2,1.4.4,2,.6l1.4-5.2h0s0,0,0,0c-1-.4-2-.7-3-.9-1.1-.2-2.2-.3-3.4-.3-1.7,0-3.4.3-5,1-2.8,1.2-5,3.6-6.1,6.5-.5,1.5-.8,3.1-.8,4.7,0,1.6.2,3.2.7,4.8.4,1.4,1.2,2.7,2.1,3.8Z"/>
  <path class="st0" d="M164.2,64.1h6.5v-17.6h8.1v-5.4h-8.1v-1.1c0-.6,0-1.2.2-1.7.1-.5.3-1,.7-1.4.3-.4.8-.7,1.3-.9.6-.2,1.3-.3,2-.3.6,0,1.2,0,1.7.1.5,0,1.1.2,1.6.4l1.1-5.1c-.7-.3-1.3-.5-2-.7-1-.2-2-.3-3-.3-3.3,0-5.8.9-7.5,2.6-1.7,1.9-2.7,4.5-2.5,7.1,0,0,0,24.3,0,24.3Z"/>
  <path class="st0" d="M221.9,61.4c1.1,1.1,2.4,1.9,3.8,2.4,1.6.6,3.4.9,5.1.8.8,0,1.6,0,2.5-.1.9,0,1.7-.2,2.5-.3.8-.1,1.6-.3,2.4-.4.8-.2,1.4-.3,2-.5V30h0s0,0,0,0l-6.5,1.1v10.4c-.7-.3-1.4-.6-2.2-.7-.8-.2-1.6-.3-2.4-.3-1.5,0-3,.3-4.4.8-1.2.5-2.4,1.4-3.2,2.4-.9,1.1-1.6,2.4-2,3.8h0c-.5,1.6-.7,3.4-.7,5.1,0,1.7.3,3.4.8,5,.5,1.4,1.3,2.7,2.3,3.8ZM227.6,46.7c.4-.2.8-.4,1.3-.5.4,0,.7-.1,1.1,0,.7,0,1.3,0,2,.3.6.1,1.1.4,1.6.7v11.9c-.3,0-.7.1-1.2.2-.5,0-1,0-1.6,0-1.6,0-3.1-.6-4-1.8-1-1.4-1.4-3.1-1.4-4.9,0-2.9.8-4.8,2.3-5.7h0Z"/>
  <path class="st0" d="M193.4,52.7c0,1.6.2,3.2.7,4.7.5,1.4,1.2,2.7,2.2,3.8h0c1.1,1.1,2.4,2,3.8,2.5,1.7.6,3.6,1,5.4.9.8,0,1.6,0,2.5-.1.8,0,1.6-.2,2.3-.3.7-.1,1.3-.3,1.9-.5.5-.1,1-.3,1.4-.5h0s0,0,0,0l-.9-5.3c-.6.2-1.2.4-1.9.6-.3,0-.6.2-1,.2-.2,0-.3,0-.5,0-1,.2-2,.3-3.1.3-1.6,0-3.1-.3-4.5-1.2-1.1-.7-1.8-1.9-1.9-3.2h14.8c0-.4,0-.8,0-1.2,0-.5,0-.9,0-1.2h0c0-3.9-.9-6.8-2.9-8.8-2-2.1-4.9-3.2-7.8-3-1.4,0-2.8.3-4.1.8-1.3.5-2.5,1.3-3.5,2.3h0s0,0,0,0c-.1.1-.2.2-.3.4-.2.2-.3.3-.4.5h0c-.7.9-1.3,1.9-1.7,3h0s0,0,0,0c-.7,1.7-1,3.5-.9,5.4ZM200.6,48.6c.2-.5.5-1,.8-1.4.4-.4.8-.8,1.3-1,.6-.3,1.2-.4,1.9-.4.7,0,1.3.1,1.9.4.5.2.9.6,1.3,1,.3.4.6.9.7,1.4h0c.2.5.3,1.1.3,1.6h-8.6c0-.6.2-1.1.4-1.6h0Z"/>
  <path class="st0" d="M185.8,38.2h0c1,0,2-.4,2.7-1,.8-.7,1.2-1.8,1.2-2.8,0-1.1-.4-2.1-1.2-2.8-1.6-1.4-3.9-1.4-5.5,0-.8.7-1.2,1.8-1.2,2.8,0,1.1.4,2.1,1.2,2.8.8.7,1.7,1,2.7,1Z"/>
  <rect class="st0" x="182.5" y="41" width="6.5" height="23.1"/>
  <path class="st0" d="M224.3,155.9h0s0,0,0,0l-65.8-31.4,65.8,31.4s0,0,0,0h0Z"/>
  <path class="st0" d="M83.7,233.8s0,0,0,0c0,.2,0,.4.2.6,0,0,0,0,0,0h0c.1.3.2.6.4.9,0,.1.2.3.3.4,0,.1.2.2.3.3.1.1.3.2.4.3.3.3.8.5,1.2.6h0c.2,0,.4,0,.5.1,0,0,.2,0,.2,0,.1,0,.3,0,.4,0,.1,0,.3,0,.4,0,0,0,0,0,0,0,.2,0,.5,0,.7-.2h0s0,0,0,0h0s0,0,0,0h0s0,0,0,0c0,0,.2,0,.2,0h0c.2,0,.5-.1.7-.2,0,0,0,0,0,0,.8-.2,1.6-.5,2.3-.9.4-.2.8-.3,1.2-.5h0s0,0,0,0c2.2-.9,4.4-1.5,6.7-2h0c.7,0,1.4.3,2,.7,0,0,.1,0,.2,0h0s0,0,0,0h0s0,0,0,0l1.7-.3c3.9,11.9,11.9,22,22.7,28.3l-.7,1.7h0s0,0,0,0c.3.7.5,1.4.3,2.2-1,2.2-2.2,4.4-3.6,6.4,0,.1-.2.3-.3.4-.2.2-.3.4-.4.6-.5.7-1,1.4-1.4,2.1,0,.1-.1.3-.2.4,0,0,0,.2-.1.3,0,.1-.1.3-.2.4-1.1,2-.3,4.5,1.7,5.6.5.2,1,.4,1.6.4,1.7,0,3.2-1.1,3.9-2.6,0,0,0,0,0,0h0s0,0,0,0h0c0,0,0-.2.1-.3h0c.1-.3.2-.5.3-.7h0c.3-.8.6-1.6.8-2.4,0-.1,0-.3.1-.4,0-.3.2-.6.2-.8.3-.8.6-1.6.8-2.3.5-1.7,1.2-3.3,2.2-4.7.5-.4,1.1-.7,1.7-.8h0s0,0,0,0l.9-1.6c11.7,4.5,24.6,4.5,36.3,0v.2c.2.2.3.4.4.6l.2.3c0,.2.2.3.2.4h0s0,0,0,0c0,0,.2,0,.3,0,.7.1,1.3.5,1.7,1.1,1.1,2.1,2,4.3,2.7,6.5h0c0,.3.1.5.2.7,0,.2.1.4.2.6.2.8.4,1.5.7,2.2,0,0,0,.1,0,.2h0c0,.2.2.5.3.7,0,.1,0,.2.1.3.5.9,1.2,1.7,2.2,2.2,0,0,.2,0,.2.1,1,.4,2.1.4,3.1,0,2-1.1,2.8-3.6,1.7-5.6,0-.1-.1-.2-.2-.3-.1-.3-.2-.5-.4-.7-.4-.7-.9-1.4-1.4-2.1-.3-.3-.5-.7-.7-1-1.4-2-2.5-4.1-3.5-6.2-.2-.7-.1-1.4.2-2,0,0,0-.1,0-.2,0,0,0,0,0,0h0s0,0,0,0h0s0,0,0,0h0s0,0,0,0c-.2-.3-.3-.7-.4-1v-.2c-.1-.1-.2-.2-.2-.3,10.8-6.4,18.9-16.6,22.7-28.5.5,0,1.1.2,1.6.3h0s0,0,0,0h0s0,0,0,0h0c0,0,.2-.1.2-.2.5-.4,1.1-.6,1.7-.7h0c0,0,.1,0,.2,0,2.1.4,4.2,1,6.2,1.8.2,0,.3.1.5.2h.1c.4.2.8.4,1.2.5.8.4,1.5.6,2.4.9,0,0,0,0,0,0,.2,0,.4,0,.6.1h0c.1,0,.3,0,.4,0,0,0,0,0,0,0,0,0,0,0,0,0h0s0,0,0,0c.2,0,.5.1.7.2,0,0,0,0,0,0,.2,0,.3,0,.5,0,.1,0,.2,0,.3,0,.1,0,.3,0,.4,0,.1,0,.2,0,.4,0,.1,0,.2,0,.3-.1.1,0,.3,0,.4-.2.1,0,.2-.1.3-.2.1,0,.2-.1.3-.2.1,0,.2-.2.3-.3,0,0,.2-.2.3-.2,0,0,.1-.2.2-.3,0-.1.2-.2.2-.3,0,0,0-.2.1-.3,0-.1.1-.3.2-.5,0,0,0,0,0,0,0-.1,0-.2,0-.4,0-.1,0-.2,0-.3,0,0,0,0,0,0,0-.2,0-.3,0-.5,0,0,0-.2,0-.3,0-.1,0-.3,0-.4,0-.1,0-.2,0-.3,0-.1,0-.2-.1-.3,0-.1,0-.3-.1-.4,0-.1-.1-.2-.2-.3,0-.1-.1-.2-.2-.3,0-.1-.2-.2-.3-.3,0,0-.2-.2-.2-.3,0,0-.2-.1-.3-.2-.1,0-.2-.2-.3-.2,0,0-.2,0-.3-.1-.1,0-.3-.1-.5-.2,0,0,0,0,0,0-.2,0-.5-.1-.7-.2,0,0,0,0-.1,0,0,0-.2,0-.3,0-.3,0-.5-.1-.7-.2h0c-.8-.1-1.7-.2-2.5-.2-.4,0-.9,0-1.3,0h0s0,0,0,0c-2.4-.2-4.7-.5-7-1.1-.7-.4-1.2-.9-1.6-1.5v-.2c-.1,0-.1,0-.1,0l-1.6-.5c.3-2.3.5-4.6.5-7,0,0,0,0,0,0,0-4.5-.6-8.9-1.8-13.2-.4-1.4-.8-2.8-1.3-4.2-.2-.5-.4-1-.6-1.4-.9-2.2-1.9-4.3-3-6.3-.6-1.1-1.2-2.1-1.9-3.1,0,0,.1-.1.2-.2.2-.2.4-.3.6-.5.2-.2.4-.3.5-.4,0,0,0,0,.1-.1h0s0,0,0,0c0,0,0-.2,0-.3,0,0,0-.1,0-.2,0-.1,0-.2,0-.3,0,0,0-.1,0-.2,0,0,0-.2,0-.3,0,0,0,0,0-.1.1-.3.3-.5.5-.8.1,0,.2-.2.3-.3,1.7-1.4,3.6-2.7,5.5-3.8.4-.2.7-.4,1.1-.6,0,0,0,0,0,0,.7-.4,1.5-.8,2.1-1.3.2-.1.4-.3.6-.5l.3-.2h0c.2-.2.4-.3.6-.5h0c0,0,0-.1.1-.2.1-.1.2-.3.4-.4,0,0,.1-.2.2-.3,0-.1.1-.2.2-.4,0-.1,0-.3.1-.4,0-.1,0-.2.1-.4,0-.1,0-.3,0-.4,0-.1,0-.3,0-.4,0-.1,0-.2,0-.4,0-.3,0-.5-.1-.8,0-.1,0-.2-.1-.3,0-.2-.2-.3-.3-.5,0,0,0-.1-.1-.2h0c0-.1-.2-.2-.2-.3,0-.1-.2-.2-.3-.3h0c0,0-.1,0-.2-.1-.1-.1-.3-.3-.4-.4,0,0-.2-.1-.3-.2-.1,0-.2-.1-.4-.2-.1,0-.3,0-.4-.1-.1,0-.2,0-.4-.1-.1,0-.3,0-.4,0-.1,0-.3,0-.4,0-.1,0-.2,0-.4,0-.1,0-.3,0-.4,0-.1,0-.3,0-.4.1-.1,0-.2,0-.3,0-.2,0-.3.2-.5.3,0,0-.1,0-.2,0h0c-.2.2-.4.3-.6.5h0s-.2.2-.2.2c0,0-.1.1-.2.2-.2.1-.3.2-.4.3-.6.6-1.2,1.2-1.8,1.8-.3.3-.5.6-.8.9h0s-.1.1-.1.1c-1.5,1.6-3.1,3.1-4.8,4.4-.1,0-.2.2-.3.3-.7.3-1.4.4-2.2.3h-.2s0,0,0,0h0s-1.5,1.1-1.5,1.1c-4.3-4.5-9.3-8.1-14.8-10.8-5.6-2.7-11.6-4.4-17.8-5h0c0-.6,0-1.1,0-1.6h0c0-.1,0-.1,0-.1h0s-.2-.2-.2-.2c-.6-.4-1-1-1.1-1.7,0-2.3,0-4.6.4-6.9v-.2c0-.4.2-.9.2-1.2.2-.8.3-1.7.3-2.5,0-.1,0-.2,0-.4s0-.3,0-.4c0-.1,0-.3,0-.4,0,0,0,0,0,0,0-.3,0-.5,0-.8h0s0,0,0,0c0-.3,0-.5-.2-.7,0-.1,0-.2-.1-.3,0-.1-.1-.3-.2-.4,0-.1-.1-.2-.2-.3,0,0-.1-.2-.2-.3,0,0-.2-.2-.3-.3,0,0-.2-.2-.3-.3,0,0-.2-.1-.3-.2-.1,0-.2-.2-.3-.2-.1,0-.3-.1-.4-.2-.1,0-.2,0-.3-.1-.2,0-.5-.1-.8-.2,0,0,0,0,0,0h0c-.1,0-.3,0-.4,0s-.3,0-.4,0h0c-.3,0-.5,0-.8.2-.1,0-.2,0-.3.1-.1,0-.3.1-.4.2-.1,0-.2.1-.3.2-.1,0-.2.1-.3.2,0,0-.2.2-.3.3,0,0-.2.2-.3.3,0,0-.1.2-.2.3,0,.1-.2.2-.2.3,0,.1-.1.3-.2.4,0,.1,0,.2-.1.3,0,.2-.1.5-.2.8,0,0,0,0,0,0h0c0,.3,0,.5,0,.8,0,0,0,0,0,0,0,0,0,0,0,0h0c0,.2,0,.2,0,.3,0,.2,0,.5,0,.7,0,.8.2,1.7.3,2.5,0,.4.2.8.2,1.2h0s0,0,0,0c.4,2.3.5,4.7.4,7.1-.2.8-.7,1.5-1.3,2h0s0,0,0,0h0s0,1.7,0,1.7c-2.4.2-4.8.6-7.1,1.1-9.8,2.2-18.8,7.3-25.7,14.7-.2-.1-.5-.4-.8-.5-.3-.2-.5-.4-.6-.5h0s0,0,0,0c0,0-.2,0-.3,0-.7.2-1.4,0-2-.3-1.9-1.4-3.6-3-5.2-4.7h0c-.3-.4-.6-.7-.8-1-.5-.6-1.1-1.3-1.7-1.8-.2-.1-.4-.3-.6-.5h-.2c0-.1,0-.2,0-.2-.8-.6-1.8-1-2.8-1h-.1c-1.2,0-2.3.5-3,1.4-.7.8-.9,1.9-.7,3,.2,1.1.8,2.1,1.7,2.8h0s0,0,0,0h0c0,0,.1.1.2.2h0c.1.1.2.2.3.3,0,0,.2.1.2.2.7.5,1.4.9,2.1,1.3.4.2.7.4,1.1.6.5.3,1,.6,1.5.9.6.4,1.3.8,1.9,1.3.7.5,1.3,1,1.9,1.5.2.1.4.3.5.4.4.6.7,1.3.8,2.1h0c0,.1,0,.1,0,.2h0s0,0,0,0h0s1.2,1.1,1.2,1.1c-6.9,10.4-9.8,23.1-8,35.5h-.4c0,.1-1.2.5-1.2.5h0s0,0,0,0l-.2.2c-.4.6-.9,1.1-1.5,1.5-2.3.6-4.6,1-7,1.1h0c-.4,0-.8,0-1.2,0,0,0,0,0,0,0-.8,0-1.7,0-2.5.2h0c-.2,0-.5.1-.7.2h-.3c0,0,0,0,0,0h0s0,0,0,0h0s0,0,0,0c-.2,0-.5,0-.7.2,0,0,0,0,0,0-.2,0-.3.1-.5.2,0,0-.2,0-.2.1-.2,0-.3.2-.4.3,0,0-.1,0-.2.1-.2.1-.3.3-.4.5,0,0,0,0,0,0-.5.6-.7,1.3-.8,2.1h0s0,0,0,0c0,.2,0,.4,0,.6,0,0,0,.1,0,.2ZM139.1,232.5c0,.4,0,.7-.2,1h0s0,0,0,0l-7.8,19c-2.8-1.8-5.4-3.9-7.7-6.4-.8-.8-1.5-1.6-2.2-2.5-2.1-2.6-3.8-5.4-5.2-8.4-.5-1-.9-2-1.3-3.1l20.3-3.4h0s0,0,0,0h0s0,0,0,0c.2,0,.4,0,.6,0,0,0,0,0,0,0h0c.4,0,.7,0,1,.2,0,0,.2,0,.3,0,.2,0,.4.2.5.3,0,0,0,0,0,0,.2.1.3.3.5.4,0,0,.2.2.2.3,0,0,.1.1.2.2,0,0,0,.2.1.3,0,.1.1.2.2.3,0,.2.1.4.2.6,0,0,0,0,0,.1h0c0,.2,0,.4,0,.6,0,0,0,.2,0,.3h0ZM162.2,258.1h0c-7.4,1.6-15,1.2-22.2-1.1l3.5-6.4,6.4-11.6h0c0-.1.2-.3.3-.4.6-.9,1.6-1.4,2.6-1.4,0,0,0,0,.1,0,1.3,0,2.4.7,3,1.8h0s0,0,0,0l10,18c-1.3.4-2.6.8-4,1.1ZM191.4,232.4c-.2.4-.3.9-.5,1.3,0,.2-.2.4-.2.6-.1.3-.3.7-.4,1,0,.2-.2.4-.3.6-.1.3-.3.6-.4.9-.1.2-.2.4-.3.6-.1.3-.3.6-.5.8-.1.2-.2.4-.3.6-.2.3-.3.6-.5.8-.1.2-.3.4-.4.6-.2.3-.3.5-.5.8-.1.2-.3.4-.4.6-.2.3-.4.5-.6.8-.1.2-.3.4-.4.6-.2.2-.4.5-.6.7-.2.2-.4.4-.6.7-2.7,3.2-5.8,6-9.4,8.3l-7.9-19.2h0s0,0,0,0c0-.2-.1-.4-.2-.5,0-.1,0-.2,0-.3,0,0,0-.1,0-.2,0-.2,0-.3,0-.5,0,0,0-.1,0-.2,0,0,0-.2,0-.3.3-1.6,1.7-2.7,3.2-2.8,0,0,0,0,0,0,.2,0,.4,0,.7,0h0s0,0,0,0l20.4,3.5c0,0,0,.2,0,.2h0ZM191.4,204.5c.4,1.2.8,2.4,1.1,3.6.3,1.2.6,2.4.8,3.6.4,2.5.6,5,.6,7.4,0,.6,0,1.1,0,1.7,0,.6,0,1.1-.1,1.7l-19.9-5.7h0c0,0,0,0,0,0-.4-.1-.9-.3-1.2-.6,0,0,0,0,0,0-.2-.1-.3-.3-.5-.4,0,0,0,0,0,0-.1-.2-.2-.3-.3-.5,0,0,0,0,0,0,0-.2-.2-.3-.2-.5,0,0,0,0,0-.1,0-.2,0-.3-.1-.5,0,0,0-.1,0-.2,0-.1,0-.3,0-.4,0,0,0-.2,0-.3,0-.1,0-.3,0-.4,0,0,0-.2,0-.3,0,0,0-.2,0-.2,0,0,0-.2.1-.2,0,0,0-.2.1-.2,0,0,.1-.1.2-.2,0,0,0-.1.1-.2.1-.1.2-.3.4-.4h0s0,0,0,0h0s15.3-13.8,15.3-13.8c1.5,2.4,2.7,4.9,3.6,7.5h0ZM158.1,177.9c4.1.5,8.1,1.7,11.9,3.4.2.1.5.2.7.3.1,0,.2.1.3.2.4.2.8.4,1.2.6.1,0,.3.2.4.2.3.2.7.4,1,.6.2,0,.3.2.5.3.3.2.6.4.9.6.2.1.4.3.6.4.3.2.5.3.8.5.2.2.5.4.7.5.2.1.4.3.6.4.3.2.6.5,1,.8.1,0,.2.2.3.3.9.7,1.7,1.4,2.5,2.2l-15.8,11.2-1,.7h0s0,0,0,0c-.2.1-.3.2-.5.3,0,0-.1,0-.2,0-.1,0-.3.1-.4.1,0,0-.1,0-.2,0-.6.1-1.2.1-1.8-.1,0,0,0,0,0,0-.2,0-.3-.1-.4-.2,0,0-.1,0-.2,0-.6-.3-1-.8-1.3-1.4,0,0,0-.1,0-.2,0-.1-.1-.3-.1-.4,0,0,0-.1,0-.2,0-.2,0-.4,0-.6,0,0,0,0,0,0h0s0,0,0,0l-1.2-20.6s0,0,0,0ZM149.9,211.8h6.3l3.9,4.9-1.4,6.1-5.7,2.7-5.7-2.7h0s-1.4-6.1-1.4-6.1l3.9-4.9ZM144,178.6c1.4-.3,2.8-.5,4.2-.7l-1.2,20.6h0c0,0,0,0,0,0,0,.2,0,.4,0,.6,0,0,0,.1,0,.2,0,.1,0,.3-.1.4,0,0,0,.1,0,.2-.2.4-.4.7-.8,1,0,0-.2.1-.2.2,0,0-.2.1-.3.2,0,0-.2,0-.3.1-.1,0-.2.1-.3.1-.1,0-.2,0-.3,0-.1,0-.2,0-.3,0-.4,0-.8,0-1.3,0,0,0-.1,0-.2,0-.1,0-.3,0-.4-.1,0,0-.1,0-.2,0-.2,0-.4-.2-.5-.3h0s0,0,0,0h0s0,0,0,0l-16.9-12c5.4-5.3,12.1-8.9,19.5-10.6h0ZM118.3,197l15.4,13.8h0c0,0,0,0,0,0,.2.1.3.3.4.5,0,0,0,.1.1.2,0,.1.2.2.2.4,0,0,0,.1,0,.2.2.5.3,1,.3,1.6,0,.1,0,.2,0,.3,0,.1,0,.2,0,.4,0,0,0,.2,0,.3,0,.1-.1.2-.2.4,0,0,0,.2-.1.2-.2.4-.5.7-.8,1,0,0-.1,0-.2.1-.1,0-.2.2-.4.2,0,0-.1,0-.2,0-.2,0-.4.2-.6.2h0s0,0,0,0h0c0,0-19.8,5.8-19.8,5.8-1-8.9,1-17.9,5.7-25.6h0s0,0,0,0Z"/>
  <path class="st0" d="M17.1,389.1h270.8V84.5H17.1v304.6ZM58.8,235l16.2-70.6c.9-3.7,3.4-6.8,6.8-8.5l65.8-31.4c3.5-1.6,7.5-1.6,10.9,0l65.8,31.4s0,0,0,0c.3.1.6.3.8.4-.3-.2-.5-.3-.8-.4.3.2.7.3,1,.5.1,0,.2.1.3.2.2.1.4.3.7.5.1,0,.2.2.3.3.3.2.5.4.8.7,1.7,1.5,2.9,3.5,3.5,5.7,0-.1-.1-.3-.1-.4,0,.1.1.3.1.4h0s0,0,0,0c0,.2.1.4.2.6l16.2,70.6c.2,1,.3,2,.3,3.1,0,.3,0,.7,0,1,0,.3,0,.6-.1.9-.2.9-.4,1.7-.7,2.5-.1.3-.2.5-.4.8-.4.8-.9,1.5-1.4,2.2.3-.3.5-.7.7-1-.2.3-.5.7-.7,1l-45.5,56.6c-2.4,3-6,4.7-9.8,4.7h-73c-3.8,0-7.4-1.7-9.8-4.7l-45.5-56.6c-.3-.3-.5-.7-.7-1-1.8-2.8-2.5-6.3-1.7-9.6Z"/>
  <path class="st3" d="M296.4,80.7v-25.8c0-25.1-20.4-45.5-45.6-45.6H55.3c-25.1,0-45.5,20.4-45.6,45.6v341.7h286.7V80.7h0ZM218.9,50.1c.1-.8.3-1.7.5-2.5h0c.4-1.4,1.1-2.7,2-3.8.9-1,2-1.9,3.2-2.4,1.4-.6,2.9-.9,4.4-.8.8,0,1.6,0,2.4.3.7.2,1.5.4,2.2.7v-10.4l6.5-1.1h0s0,0,0,0v33.3c-.6.2-1.3.3-2,.5-.8.2-1.6.3-2.4.4-.8.1-1.7.2-2.5.3-.9,0-1.7.1-2.5.1-1.7,0-3.5-.3-5.1-.8-1.4-.5-2.7-1.3-3.8-2.4-1-1.1-1.8-2.4-2.3-3.8-.5-1.6-.8-3.3-.8-5,0-.9,0-1.7.2-2.6ZM194.4,47.3c.4-1.1,1-2.1,1.7-3h0c.1-.2.3-.4.4-.5.1-.1.2-.2.3-.4h0s0,0,0,0c1-1,2.2-1.8,3.5-2.3,1.3-.5,2.7-.8,4.1-.8,2.9-.1,5.7.9,7.8,3,1.9,2,2.9,4.9,2.9,8.8h0c0,.4,0,.8,0,1.3,0,.5,0,.9,0,1.2h-14.8c.1,1.3.8,2.5,1.9,3.2,1.3.9,2.9,1.3,4.5,1.2,1,0,2.1,0,3.1-.3.2,0,.3,0,.5,0,.3,0,.6-.1,1-.2.6-.2,1.3-.3,1.9-.6l.9,5.3h0s0,0,0,0c-.5.2-.9.4-1.4.5-.6.2-1.3.3-1.9.5-.7.1-1.5.2-2.3.3-.8,0-1.6.1-2.5.1-1.8,0-3.7-.3-5.4-.9-1.4-.6-2.7-1.4-3.8-2.5h0c-1-1.1-1.8-2.4-2.2-3.8-.5-1.5-.7-3.1-.7-4.7,0-1.8.3-3.7.9-5.4h0s0,0,0,0ZM182.5,32.1c.2-.2.3-.4.5-.6,1.6-1.4,3.9-1.4,5.5,0,.8.7,1.2,1.8,1.2,2.8,0,1.1-.4,2.1-1.2,2.8-.8.7-1.7,1-2.7,1h0c-1,0-2-.4-2.7-1-.8-.7-1.2-1.8-1.2-2.8,0-.8.2-1.6.6-2.2ZM189.1,41v23.1h-6.5v-23.1s6.5,0,6.5,0ZM166.7,32.7c1.7-1.8,4.2-2.6,7.5-2.6,1,0,2,0,3,.3.7.2,1.4.4,2,.7l-1.1,5.1c-.5-.2-1-.4-1.6-.4-.6,0-1.2-.1-1.7-.1-.7,0-1.4,0-2,.3-.5.2-.9.5-1.3.9-.3.4-.5.9-.7,1.4-.1.6-.2,1.1-.2,1.7v1.1h8.1v5.4h-8.1v17.6h-6.5v-24.3c-.1-2.6.8-5.2,2.5-7.1h0ZM151.1,32.8c.2-.5.5-.9.9-1.3,1.6-1.4,3.9-1.4,5.5,0,.8.7,1.2,1.8,1.2,2.8,0,1.1-.4,2.1-1.2,2.8-1.6,1.4-3.9,1.4-5.5,0-.8-.7-1.2-1.8-1.2-2.8,0-.5,0-1.1.3-1.5,0,0,0,0,0,0ZM158,41v23.1h-6.5v-23.1s6.5,0,6.5,0ZM131.8,35.3h0s6.5-1.1,6.5-1.1v6.8h7.8v5.4h-7.8v8.1c0,1.1.2,2.3.7,3.3.1.2.3.4.5.5.7.5,1.6.8,2.5.7.7,0,1.5,0,2.2-.2.7-.1,1.4-.3,2-.5l.9,5.1c-.9.3-1.7.6-2.6.8-1.2.3-2.4.4-3.6.4-1.5,0-3-.2-4.4-.7-1.1-.4-2.1-1.1-2.8-2-.7-.9-1.2-2-1.5-3.1-.3-1.3-.4-2.7-.4-4.1v-19.4ZM113.5,64.1v-21.8c1.4-.5,2.7-.8,4.1-1.2,1.7-.4,3.5-.6,5.3-.5.4,0,.8,0,1.3,0,.5,0,1,.1,1.5.2.5,0,1,.2,1.5.3.2,0,.4,0,.6.2.2,0,.4.1.6.2l-1.1,5.4c-.6-.1-1.3-.3-2.1-.5-.8-.2-1.7-.2-2.5-.2-.5,0-1,0-1.5.1-.4,0-.9.1-1.3.2v17.6h-6.5s0,0,0,0ZM86.8,52.7h0c0-1.8.3-3.7.9-5.4.6-1.4,1.4-2.7,2.5-3.8,1-1,2.2-1.8,3.5-2.3,1.3-.5,2.7-.8,4.1-.8,2.9-.1,5.7.9,7.8,3,1.9,2,2.8,4.9,2.8,8.8s0,.8,0,1.2c0,.5,0,.9,0,1.2h-14.8c.1,1.3.8,2.5,1.9,3.2,1.3.9,2.9,1.3,4.5,1.2.6,0,1.2,0,1.7,0,.6,0,1.2-.1,1.8-.2,1-.2,1.9-.4,2.8-.8l.9,5.3c-.5.2-.9.4-1.4.5-.6.2-1.3.3-1.9.5-.7.1-1.5.2-2.3.3-.8,0-1.6.1-2.5.1-1.8,0-3.7-.3-5.4-.9-1.4-.6-2.7-1.4-3.8-2.5-1-1.1-1.8-2.4-2.2-3.8-.1-.4-.2-.8-.3-1.2,0-.1,0-.2,0-.3,0-.3-.1-.6-.2-.8,0,0,0-.2,0-.3,0-.3,0-.6-.1-.9,0-.2,0-.4,0-.7,0-.2,0-.4,0-.5,0,0,0,0,0,0ZM66.8,47.8c1-2.9,3.2-5.3,6.1-6.5,1.6-.7,3.3-1,5-1,1.1,0,2.3.1,3.4.3,1,.2,2,.5,3,.9h0s0,0,0,0l-1.4,5.2c-.7-.2-1.3-.5-2-.6-.8-.2-1.6-.3-2.5-.3-1.6-.1-3.2.5-4.3,1.8-1,1.4-1.5,3-1.4,4.7-.1,1.7.4,3.4,1.3,4.8.9,1.1,2.4,1.7,4.7,1.7.9,0,1.7,0,2.5-.2.9-.1,1.7-.4,2.5-.7l.2.9.8,4.4c-.9.4-1.9.6-2.8.8-1.2.2-2.5.4-3.8.3-1.9,0-3.7-.3-5.4-.9-1.4-.6-2.7-1.4-3.7-2.6h0c-1-1.1-1.7-2.4-2.1-3.8-.5-1.6-.7-3.2-.7-4.8,0-1.6.3-3.2.8-4.7ZM287.9,389.1H17.1V84.5h270.8v304.6h0Z"/>
  <path class="st3" d="M230.8,59.1c.6,0,1.1,0,1.6,0,.5,0,.9,0,1.2-.2v-11.9c-.5-.3-1-.5-1.6-.7-.7-.2-1.3-.3-2-.3-.4,0-.7,0-1.1,0-.5,0-.9.3-1.3.5-1.5.9-2.3,2.8-2.3,5.7,0,1.7.4,3.4,1.4,4.9,1,1.2,2.5,1.9,4,1.8Z"/>
  <path class="st3" d="M208.5,48.6h0c-.2-.5-.4-1-.7-1.4-.3-.4-.8-.8-1.3-1-.6-.3-1.2-.4-1.9-.4-.6,0-1.3.1-1.9.4-.5.2-1,.6-1.3,1-.4.4-.6.9-.8,1.4-.2.5-.3,1.1-.4,1.6h8.6c0-.6-.1-1.1-.3-1.6Z"/>
  <path class="st3" d="M101.9,48.6c-.2-.5-.4-1-.7-1.4-.4-.4-.8-.8-1.3-1-.6-.3-1.2-.4-1.9-.4-.6,0-1.3.1-1.9.4-.5.2-1,.6-1.3,1-.4.4-.6.9-.8,1.4h0c-.2.5-.3,1.1-.4,1.6h8.6c0-.6-.1-1.1-.3-1.6Z"/>
  <path class="st3" d="M141.4,201.1h0s0,0,0,0h0c.2.1.3.2.5.3,0,0,.1,0,.2,0,.1,0,.3.1.4.1,0,0,.1,0,.2,0,.4,0,.8.1,1.3,0,.1,0,.2,0,.3,0,.1,0,.2,0,.3,0,.1,0,.2,0,.3-.1,0,0,.2,0,.3-.1.1,0,.2-.1.3-.2,0,0,.2-.1.2-.2.3-.3.6-.6.8-1,0,0,0-.1,0-.2,0-.1.1-.3.1-.4,0,0,0-.1,0-.2,0-.2,0-.4,0-.6h0s0,0,0,0l1.2-20.6c-1.4.2-2.8.4-4.2.7-7.4,1.7-14.1,5.3-19.5,10.6l16.9,12h0Z"/>
  <path class="st3" d="M156.1,238.9h0c-.6-1.1-1.8-1.8-3-1.8,0,0,0,0-.1,0-1.1,0-2,.6-2.6,1.4,0,.1-.2.2-.3.4h0s0,0,0,0l-6.4,11.6-3.5,6.4c7.1,2.4,14.8,2.8,22.2,1.1h0c1.3-.3,2.7-.7,4-1.1l-10-18h0Z"/>
  <path class="st3" d="M132.3,216.8h0c0,0,0,0,0,0h0c.2,0,.4-.1.6-.2,0,0,.1,0,.2,0,.1,0,.2-.1.4-.2,0,0,.1,0,.2-.1.3-.3.6-.6.8-1,0,0,0-.2.1-.2,0-.1.1-.2.2-.4,0,0,0-.2,0-.3,0-.1,0-.2,0-.4,0-.1,0-.2,0-.3,0-.5,0-1.1-.3-1.6,0,0,0-.1,0-.2,0-.1-.1-.3-.2-.4,0,0,0-.1-.1-.2-.1-.2-.3-.3-.4-.5h0s0,0,0,0l-15.4-13.8c-4.7,7.7-6.7,16.6-5.7,25.6l19.8-5.7Z"/>
  <path class="st3" d="M171,228.7h0c-.2,0-.4,0-.7,0,0,0,0,0,0,0-1.6,0-2.9,1.2-3.2,2.8,0,0,0,.2,0,.3,0,0,0,.1,0,.2,0,.2,0,.3,0,.5,0,0,0,.1,0,.2,0,.1,0,.2,0,.3,0,.2.1.4.2.5h0s0,0,0,0l7.9,19.2c3.5-2.3,6.7-5,9.4-8.3.2-.2.4-.4.6-.7.2-.2.4-.5.6-.7.1-.2.3-.4.4-.6.2-.3.4-.5.6-.8.1-.2.3-.4.4-.6.2-.3.3-.5.5-.8.1-.2.3-.4.4-.6.2-.3.3-.6.5-.8.1-.2.2-.4.3-.6.2-.3.3-.6.5-.8.1-.2.2-.4.3-.6.1-.3.3-.6.4-.9,0-.2.2-.4.3-.6.1-.3.3-.7.4-1,0-.2.2-.4.2-.6.2-.4.3-.9.5-1.3,0,0,0-.2,0-.2l-20.4-3.5h0Z"/>
  <path class="st3" d="M139.1,231.6s0,0,0-.1c0-.2-.1-.4-.2-.6,0-.1-.1-.2-.2-.3,0,0,0-.2-.1-.3,0,0-.1-.1-.2-.2,0-.1-.2-.2-.2-.3-.2-.2-.3-.3-.5-.4,0,0,0,0,0,0-.2-.1-.3-.2-.5-.3,0,0-.2,0-.3,0-.3-.1-.7-.2-1-.2h0s0,0,0,0c-.2,0-.4,0-.6,0h0s0,0,0,0h0s0,0,0,0l-20.3,3.4c.4,1.1.8,2.1,1.3,3.1,1.4,3,3.1,5.9,5.2,8.4.7.9,1.4,1.7,2.2,2.5,2.3,2.4,4.9,4.6,7.7,6.4l7.8-19h0c0,0,0,0,0,0,.1-.3.2-.7.2-1,0,0,0-.2,0-.3,0-.2,0-.4,0-.6h0Z"/>
  <path class="st3" d="M159.2,198.4h0s0,0,0,0c0,.2,0,.4,0,.6,0,0,0,.1,0,.2,0,.1,0,.3.1.4,0,0,0,.1,0,.2.3.6.7,1.1,1.3,1.4,0,0,.1,0,.2,0,.1,0,.3.2.4.2,0,0,0,0,0,0,.6.2,1.2.2,1.8.1,0,0,.1,0,.2,0,.1,0,.3,0,.4-.1,0,0,.1,0,.2,0,.2,0,.4-.2.5-.3h0s0,0,0,0l1-.7,15.8-11.2c-.8-.8-1.6-1.5-2.5-2.2-.1,0-.2-.2-.3-.3-.3-.3-.6-.5-1-.8-.2-.1-.4-.3-.6-.4-.2-.2-.5-.4-.7-.5-.3-.2-.5-.3-.8-.5-.2-.1-.4-.3-.6-.4-.3-.2-.6-.4-.9-.6-.2-.1-.3-.2-.5-.3-.3-.2-.7-.4-1-.6-.1,0-.3-.2-.4-.2-.4-.2-.8-.4-1.2-.6-.1,0-.2-.1-.3-.2-.2-.1-.5-.2-.7-.3-3.8-1.7-7.8-2.9-11.9-3.4,0,0,0,0,0,0l1.2,20.6h0Z"/>
  <polygon class="st3" points="147.4 222.8 147.4 222.8 153.1 225.6 158.7 222.8 160.1 216.7 156.2 211.8 149.9 211.8 146 216.7 147.4 222.8"/>
  <path class="st3" d="M172.4,210.7h0s0,0,0,0c-.1.1-.3.2-.4.4,0,0,0,.1-.1.2,0,0-.1.1-.2.2,0,0,0,.2-.1.2,0,0,0,.2-.1.2,0,0,0,.2,0,.2,0,0,0,.2,0,.3,0,.1,0,.3,0,.4,0,0,0,.2,0,.3,0,.1,0,.3,0,.4,0,0,0,.1,0,.2,0,.2,0,.3.1.5,0,0,0,.1,0,.1,0,.2.1.3.2.5,0,0,0,0,0,0,0,.2.2.3.3.5,0,0,0,0,0,0,.1.2.3.3.5.4,0,0,0,0,0,0,.4.3.8.5,1.2.6h0s0,0,0,0l19.9,5.7c0-.6,0-1.1.1-1.7,0-.6,0-1.1,0-1.7,0-2.5-.2-5-.6-7.4-.2-1.2-.5-2.4-.8-3.6-.3-1.2-.7-2.4-1.1-3.6-.9-2.6-2.2-5.1-3.6-7.5l-15.3,13.7h0Z"/>
  <path class="st3" d="M224.3,155.9s0,0,0,0l-65.8-31.4,65.8,31.4s0,0,0,0h0Z"/>
  <path class="st3" d="M230.8,163.3c0,.1.1.3.1.4h0c0-.1-.1-.3-.1-.4Z"/>
  <path class="st3" d="M61.3,245.5l45.5,56.6c2.4,3,6,4.7,9.8,4.7h73c3.8,0,7.4-1.7,9.8-4.7l45.5-56.6c.3-.3.5-.7.7-1-.2.3-.5.7-.7,1,.5-.7,1-1.4,1.4-2.2.1-.3.3-.5.4-.8.3-.8.6-1.7.7-2.5,0-.3,0-.6.1-.9,0-.3,0-.7,0-1,0-1,0-2.1-.3-3.1l-16.2-70.6c0-.2-.1-.4-.2-.6h0c-.6-2.2-1.8-4.1-3.5-5.7-.2-.2-.5-.5-.8-.7-.1,0-.2-.2-.3-.3-.2-.2-.4-.3-.7-.5-.1,0-.2-.1-.3-.2-.3-.2-.6-.4-1-.5,0,0,0,0,0,0l-65.8-31.4c-3.5-1.6-7.5-1.6-10.9,0l-65.8,31.4c-3.4,1.6-5.9,4.8-6.8,8.5l-16.2,70.6c-.8,3.3-.1,6.7,1.7,9.6.2.3.5.7.7,1ZM83.7,232.9h0c0-.7.4-1.5.8-2.1,0,0,0,0,0,0,.1-.2.3-.3.4-.5,0,0,.1,0,.2-.1.1-.1.3-.2.4-.3,0,0,.2,0,.2-.1.2,0,.3-.2.5-.2,0,0,0,0,0,0,.2,0,.5-.1.7-.2h0s0,0,0,0h0s0,0,0,0h0s.3,0,.3,0c.2,0,.5-.1.7-.2h0c.8-.2,1.7-.2,2.5-.2,0,0,0,0,0,0,.4,0,.8,0,1.2,0h0c2.3-.2,4.7-.6,7-1.2.6-.4,1.1-.9,1.5-1.5l.2-.2h0s0,0,0,0l1.2-.4h.4c-1.8-12.5,1.1-25.2,8-35.6l-1.2-1.1h0s0,0,0,0h0s0,0,0-.1h0c0-.8-.3-1.5-.8-2.1-.2-.2-.4-.3-.5-.4-.6-.5-1.3-1-1.9-1.5-.6-.4-1.2-.9-1.9-1.3-.5-.3-1-.6-1.5-.9-.4-.2-.8-.4-1.1-.6-.7-.4-1.5-.8-2.1-1.3,0,0-.1-.1-.2-.2-.1,0-.2-.2-.3-.3h0c0,0-.1-.1-.2-.2h0s0,0,0,0h0c-.9-.7-1.5-1.7-1.7-2.9-.2-1.1,0-2.2.7-3,.7-.9,1.8-1.4,3-1.4h.1s0,0,0,0c1,0,2,.4,2.8,1h0s.2.2.2.2c.2.2.5.4.6.5.6.6,1.2,1.2,1.7,1.8.3.3.5.6.8.9h0c1.6,1.8,3.3,3.4,5.2,4.8.6.4,1.3.4,2,.3,0,0,.2,0,.3,0h0s0,0,0,0c.1,0,.4.3.6.5.3.2.6.4.8.5,6.9-7.3,15.9-12.5,25.7-14.7,2.3-.5,4.7-.9,7.1-1.1v-1.6c0,0,0,0,0,0h0s0,0,0,0c.6-.5,1-1.2,1.3-2,0-2.4,0-4.7-.4-7.1h0c0,0,0,0,0,0,0-.4-.1-.9-.2-1.2-.2-.8-.3-1.7-.3-2.5,0-.2,0-.4,0-.7,0,0,0-.2,0-.3h0c0,0,0-.1,0-.1,0,0,0,0,0,0,0-.3,0-.5,0-.8h0s0,0,0,0c0-.3,0-.5.2-.8,0-.1,0-.2.1-.3,0-.1.1-.3.2-.4,0-.1.1-.2.2-.3,0,0,.1-.2.2-.3,0-.1.2-.2.3-.3,0,0,.2-.2.3-.3,0,0,.2-.1.3-.2.1,0,.2-.2.3-.2.1,0,.3-.1.4-.2.1,0,.2,0,.3-.1.2,0,.5-.1.8-.2h0s0,0,0,0c.1,0,.3,0,.4,0s.3,0,.4,0h0s0,0,0,0c.3,0,.5,0,.8.2.1,0,.2,0,.3.1.1,0,.3.1.4.2.1,0,.2.1.3.2,0,0,.2.1.3.2,0,0,.2.2.3.3,0,0,.2.2.3.3,0,0,.1.2.2.3,0,.1.2.2.2.3,0,.1.1.3.2.4,0,.1,0,.2.1.3,0,.2.1.5.2.7,0,0,0,0,0,0h0c0,.3,0,.5,0,.8,0,0,0,0,0,0,0,.1,0,.2,0,.4,0,.1,0,.3,0,.4s0,.2,0,.4c0,.8-.2,1.7-.3,2.5,0,.4-.2.8-.2,1.2v.2c-.4,2.3-.5,4.6-.4,6.9.1.7.5,1.3,1.1,1.7l.2.2h0s0,0,0,0h0s0,.1,0,.1c0,.5,0,1,0,1.5h0c6.2.7,12.2,2.3,17.8,5.1,5.5,2.7,10.6,6.4,14.8,10.8l1.5-1.1h0s0,0,0,0h.2c.7.1,1.5,0,2.2-.3.1,0,.2-.2.3-.3,1.7-1.3,3.3-2.8,4.8-4.4h.1c0-.1,0-.1,0-.1.3-.3.6-.6.8-.9.5-.7,1.1-1.3,1.8-1.8.1-.1.3-.2.4-.3,0,0,.1-.1.2-.2l.2-.2h0c.2-.2.4-.4.6-.5h0c0,0,.1,0,.2-.1.2,0,.3-.2.5-.3.1,0,.2,0,.3,0,.1,0,.3,0,.4-.1.1,0,.3,0,.4,0,.1,0,.2,0,.4,0,.1,0,.3,0,.4,0,.1,0,.3,0,.4,0,.1,0,.2,0,.4.1.1,0,.3,0,.4.1.1,0,.2.1.4.2.1,0,.2.1.3.2.2.1.3.2.4.4,0,0,.1,0,.2.1h0c0,.1.2.2.3.3,0,.1.2.2.2.3h0c0,0,0,.1.1.2,0,.2.2.3.3.5,0,.1,0,.2.1.3,0,.3.1.5.1.8,0,.1,0,.2,0,.4,0,.1,0,.3,0,.4,0,.1,0,.3,0,.4,0,.1,0,.2-.1.4,0,.1,0,.3-.1.4,0,.1-.1.2-.2.4,0,.1-.1.2-.2.3-.1.2-.2.3-.4.4,0,0,0,.1-.1.2h0c-.2.2-.4.4-.6.5h0s-.3.2-.3.2c-.2.2-.4.3-.6.5-.7.5-1.4.9-2.1,1.3,0,0,0,0,0,0-.3.2-.7.4-1.1.6-1.9,1.1-3.8,2.4-5.5,3.8-.1,0-.2.2-.3.3-.2.2-.4.5-.5.8,0,0,0,0,0,.1,0,0,0,.2,0,.3,0,0,0,.1,0,.2,0,0,0,.2,0,.3,0,0,0,.1,0,.2,0,0,0,.2,0,.3h0s0,0,0,0c0,0,0,0-.1.1-.1.1-.3.3-.5.4-.2.2-.4.4-.6.5,0,0-.1.1-.2.2.7,1,1.3,2.1,1.9,3.1,1.2,2,2.2,4.1,3,6.3.2.5.4,1,.6,1.4.5,1.4,1,2.8,1.3,4.2,1.2,4.3,1.8,8.8,1.8,13.2,0,0,0,0,0,0,0,2.3-.2,4.7-.5,7l1.6.5h0s.1.2.1.2c.4.6.9,1.2,1.6,1.5,2.3.6,4.6,1,7,1.1h0s0,0,0,0c.4,0,.9,0,1.3,0,.8,0,1.7,0,2.5.2h0c.2,0,.5.1.7.2.1,0,.2,0,.3,0,0,0,0,0,.1,0,.2,0,.5,0,.7.2,0,0,0,0,0,0,.2,0,.3.1.5.2,0,0,.2,0,.3.1.1,0,.2.2.3.2,0,0,.2.1.3.2,0,0,.2.2.2.3,0,0,.2.2.3.3,0,0,.1.2.2.3,0,.1.1.2.2.3,0,.1.1.2.1.4,0,.1,0,.2.1.3,0,.1,0,.2,0,.3,0,.1,0,.3,0,.4,0,0,0,.2,0,.3,0,.2,0,.3,0,.5,0,0,0,0,0,0,0,.1,0,.2,0,.3,0,.1,0,.2,0,.4,0,0,0,0,0,0,0,.2-.1.3-.2.5,0,0,0,.2-.1.3,0,.1-.2.2-.2.3,0,0-.1.2-.2.3,0,0-.2.2-.3.2,0,0-.2.2-.3.3-.1,0-.2.1-.3.2-.1,0-.2.1-.3.2-.1,0-.3.1-.4.2-.1,0-.2,0-.3.1-.1,0-.2,0-.4,0-.1,0-.3,0-.4,0,0,0-.2,0-.3,0-.2,0-.3,0-.5,0,0,0,0,0,0,0-.2,0-.5,0-.7-.2h0s0,0,0,0c0,0,0,0,0,0,0,0,0,0,0,0-.1,0-.3,0-.4,0h0c-.2,0-.4,0-.6-.1,0,0,0,0,0,0-.8-.2-1.6-.5-2.4-.9-.4-.2-.8-.3-1.2-.5h-.1c-.2-.1-.3-.2-.5-.2-2-.8-4.1-1.4-6.2-1.8,0,0-.1,0-.2,0h0c-.6,0-1.2.2-1.7.7,0,0-.2.1-.2.2h0s0,0,0,0h0s0,0,0,0h0c-.5-.1-1.1-.2-1.6-.3-3.8,12-11.9,22.1-22.7,28.5,0,0,0,.2.1.3v.2c.2.4.3.7.5,1h0s0,0,0,0h0s0,0,0,0h0s0,0,0,0c0,0,0,0,0,0,0,0,0,.1,0,.2-.3.6-.4,1.3-.2,2,1,2.2,2.1,4.3,3.5,6.2.2.4.5.7.7,1,.5.7,1,1.4,1.4,2.1.1.2.2.5.4.7,0,.1.1.2.2.3,1.1,2,.3,4.5-1.7,5.6-1,.5-2.1.5-3.1,0,0,0-.2,0-.2-.1-.9-.5-1.7-1.2-2.2-2.2,0,0,0-.2-.1-.3-.1-.3-.3-.5-.3-.7h0c0,0,0-.1,0-.2-.3-.7-.5-1.5-.7-2.2,0-.2-.1-.4-.2-.6,0-.2-.1-.4-.2-.6h0c-.7-2.3-1.6-4.5-2.7-6.6-.4-.6-1-1-1.7-1.1,0,0-.2,0-.3,0h0s0,0,0,0c0,0-.1-.2-.2-.4l-.2-.3c-.1-.2-.2-.4-.3-.6v-.2c-11.8,4.4-24.7,4.4-36.4,0l-.9,1.6h0s0,0,0,0c-.6.1-1.2.4-1.7.8-1,1.4-1.7,3-2.2,4.7-.3.8-.5,1.6-.8,2.3,0,.3-.2.6-.2.8,0,.1,0,.3-.1.4-.2.8-.5,1.6-.8,2.4h0c0,.2-.2.4-.3.7h0c0,.2,0,.2-.1.3h0s0,0,0,0h0s0,0,0,0c-.7,1.5-2.2,2.5-3.9,2.6-.5,0-1.1-.1-1.6-.4-2-1.1-2.8-3.6-1.7-5.6,0-.1.1-.2.2-.4,0,0,0-.2.1-.3,0-.1.1-.3.2-.4.4-.7.9-1.4,1.4-2.1.1-.2.3-.4.4-.6,0-.1.2-.3.3-.4,1.4-2,2.6-4.2,3.6-6.4.1-.8,0-1.5-.3-2.2h0s0,0,0,0l.7-1.7c-10.8-6.4-18.8-16.4-22.7-28.3l-1.7.3h0s0,0,0,0h0s0,0,0,0c0,0-.1,0-.2,0-.6-.4-1.3-.7-2-.7h0c-2.3.4-4.6,1.1-6.7,2h0s0,0,0,0c-.4.2-.8.3-1.2.5-.8.3-1.5.6-2.3.9,0,0,0,0,0,0-.2,0-.5.1-.7.2h0c0,0-.2,0-.2,0h0s0,0,0,0c0,0,0,0,0,0h0s0,0,0,0h0c-.2,0-.5.1-.7.2,0,0,0,0,0,0-.1,0-.3,0-.4,0-.1,0-.3,0-.4,0,0,0-.2,0-.2,0-.2,0-.4,0-.5-.1h0c-.4-.1-.9-.3-1.2-.6-.2,0-.3-.2-.4-.3-.1-.1-.2-.2-.3-.3-.1-.1-.2-.3-.3-.4-.2-.3-.3-.6-.4-.9h0s0,0,0,0c0-.2-.1-.4-.2-.6,0,0,0,0,0,0,0,0,0-.1,0-.2,0-.2,0-.4,0-.6,0,0,0,0,0,0h0Z"/>
  <path class="st3" d="M225.2,156.4c-.3-.2-.5-.3-.8-.4h0c.3.1.6.3.8.4Z"/>
  <path class="st3" d="M9.8,438c0,18.9,15.3,34.3,34.3,34.3h218.1c18.9,0,34.3-15.3,34.3-34.3h0v-32.9H9.8v32.9Z"/>
  <g>
    <path class="st2" d="M106.4,428.2c1-.4,2-.9,3.1-1.4s2.1-1.1,3.1-1.7c1-.6,2-1.3,2.9-2,.9-.7,1.8-1.4,2.5-2.2h5.3v35.2h-7.6v-25.3c-1,.7-2.2,1.3-3.4,1.9-1.3.6-2.5,1-3.7,1.4l-2.3-5.8Z"/>
    <path class="st2" d="M142.7,452.1c0,1.5-.5,2.7-1.4,3.5s-2.1,1.2-3.3,1.2-2.3-.4-3.3-1.2-1.4-2-1.4-3.5.5-2.7,1.4-3.5c1-.8,2.1-1.2,3.3-1.2s2.3.4,3.3,1.2c1,.8,1.4,2,1.4,3.5Z"/>
    <path class="st2" d="M169.4,430.1c0,1.3-.3,2.5-.8,3.7-.5,1.2-1.2,2.3-2,3.4-.8,1.1-1.7,2.2-2.7,3.2s-2,2-3,2.9c-.5.5-1.1,1-1.7,1.6-.6.6-1.2,1.2-1.7,1.8-.5.6-1,1.2-1.4,1.7-.4.5-.7,1-.8,1.3h15.1v6.3h-23.5c0-.4-.1-.8-.1-1.4v-1.2c0-1.6.3-3.1.8-4.5.5-1.4,1.2-2.6,2.1-3.8.8-1.2,1.8-2.3,2.9-3.3s2.1-2,3.2-3c.8-.8,1.6-1.5,2.3-2.2.7-.7,1.3-1.4,1.9-2,.5-.7,1-1.3,1.3-2s.5-1.3.5-2c0-1.5-.4-2.5-1.3-3.1-.8-.6-1.9-.9-3.1-.9s-1.8.1-2.6.4c-.8.3-1.5.6-2.2,1-.7.4-1.2.8-1.7,1.2-.5.4-.8.7-1.1.9l-3.8-5.3c1.5-1.4,3.2-2.5,5.2-3.4,2-.9,4.1-1.3,6.4-1.3s3.8.2,5.3.7c1.5.5,2.7,1.1,3.7,2s1.7,1.9,2.1,3.1.7,2.6.7,4.2Z"/>
    <path class="st2" d="M191.4,442.1c-.7.3-1.5.6-2.4.7s-1.6.2-2.2.2c-2.2,0-4.1-.3-5.6-.8-1.6-.5-2.8-1.3-3.8-2.2-1-1-1.7-2.1-2.2-3.5-.5-1.4-.7-2.8-.7-4.5s.2-2.7.7-4.2c.5-1.4,1.2-2.7,2.2-3.9,1-1.2,2.2-2.1,3.7-2.9,1.5-.8,3.3-1.1,5.5-1.1,4.4,0,7.7,1.3,9.9,4,2.2,2.7,3.3,6.6,3.3,11.6s-.4,6.2-1.3,8.8c-.9,2.5-2.2,4.7-4,6.4-1.8,1.7-4.1,3-6.9,3.9-2.8.9-6.1,1.4-10,1.4,0-1.1,0-2.1-.2-3.1,0-1-.1-2.1-.2-3.1,1.9,0,3.7-.2,5.2-.4,1.6-.3,2.9-.7,4.1-1.3,1.2-.6,2.2-1.4,3-2.4.8-1,1.5-2.2,2-3.7ZM187.7,437.2c.8,0,1.6,0,2.4-.2.8-.2,1.5-.4,1.9-.6v-.5c0-.1,0-.3,0-.4,0-.1,0-.3,0-.4,0-1.2-.1-2.4-.3-3.4-.2-1.1-.5-2-.9-2.8-.4-.8-1-1.4-1.7-1.9-.7-.5-1.5-.7-2.6-.7s-1.5.2-2.1.5-1.1.8-1.5,1.3c-.4.5-.7,1.1-.8,1.8-.2.6-.3,1.3-.3,1.9,0,1.8.4,3.2,1.3,4.1.9.9,2.4,1.3,4.4,1.3Z"/>
  </g>
</svg>