<?xml version="1.0" encoding="UTF-8"?><svg id="Layer_1" xmlns="http://www.w3.org/2000/svg" viewBox="0 0 305.5 481.5"><defs><style>.cls-1{fill:none;}.cls-2{fill:#fff;}.cls-3{fill:#476bb3;}</style></defs><polygon class="cls-2" points="287.89999 84.49992 17.4 84.49992 17.4 389.09992 287.89999 389.09992 288.20001 389.09992 288.20001 84.49992 287.89999 84.49992"/><path id="path3003" class="cls-3" d="M261.70001,348.99992c.89999,0,1.79999,0,2.60001-.39999.5-.20001.79999-.79999.70001-1.39999,0-.60001-.39999-1.20001-1-1.39999-.89999-.60001-2-1-3-1.39999s-2-.79999-2.79999-1.20001c-.79999-.39999-1.5-.89999-2.10001-1.5s-1-1.29999-1.39999-2.10001c-.39999-.89999-.5-1.89999-.5-2.89999,0-2,.89999-4,2.5-5.20001,1.70001-1.29999,3.89999-1.89999,6.70001-1.89999s2.79999.10001,4.10001.39999c1,.20001,2.10001.39999,3.10001.79999l-1.20001,5.20001c-.89999-.29999-1.70001-.5-2.5-.70001-1-.20001-2-.29999-3-.29999-2.10001,0-3.10001.60001-3.10001,1.70001s0,.5.10001.70001.29999.39999.60001.60001.60001.39999,1,.60001,1,.5,1.79999.70001c1.20001.39999,2.5,1,3.60001,1.60001.89999.39999,1.60001,1,2.20001,1.70001.60001.60001.89999,1.20001,1.20001,2,.20001.89999.39999,1.70001.39999,2.60001.10001,2.10001-.89999,4.10001-2.60001,5.29999-1.70001,1.20001-4.20001,1.79999-7.39999,1.79999-1.79999,0-3.5-.10001-5.20001-.60001-1-.20001-1.89999-.60001-2.8-.89999l1.10001-5.39999c1.10001.39999,2.3.79999,3.40001,1,1.20001,0,2.39999.20001,3.60001.20001M227.89999,342.19993c0-1.79999.3-3.70001.89999-5.39999.60001-1.5,1.39999-2.79999,2.5-3.89999,1-1,2.2-1.79999,3.60001-2.29999,1.39999-.60001,2.8-.79999,4.2-.79999,3.3,0,6,1,7.89999,3.10001,1.89999,2,2.89999,5,2.89999,9s0,.79999,0,1.29999v1.20001h-15c.10001,1.29999.8,2.5,1.89999,3.29999,1.39999.89999,2.89999,1.29999,4.5,1.20001,1.2,0,2.39999-.10001,3.60001-.29999,1-.20001,2-.5,2.89999-.89999l.89999,5.39999c-.39999.20001-.89999.39999-1.39999.60001-.7.20001-1.39999.39999-2,.39999-.7.10001-1.5.20001-2.3.39999-.8,0-1.7.10001-2.5.10001-1.89999,0-3.7-.20001-5.5-.89999-1.5-.60001-2.8-1.39999-3.89999-2.5-1-1.10001-1.8-2.5-2.3-3.89999-.39999-1.70001-.7-3.29999-.7-4.89999M243.39999,339.69993c0-.60001-.10001-1.10001-.3-1.70001-.10001-.60001-.39999-1-.7-1.39999-.39999-.39999-.8-.79999-1.3-1-.60001-.29999-1.2-.39999-1.89999-.39999s-1.3.10001-1.89999.39999c-.5.20001-1,.60001-1.39999,1s-.7.89999-.89999,1.5-.3,1.10001-.39999,1.70001h8.7M209.89999,324.49992l6.60001-1v6.89999h8v5.5h-8v8.20001c0,1.20001.2,2.29999.7,3.29999.5.79999,1.5,1.20001,3,1.20001s1.5,0,2.10001-.20001c.7-.10001,1.39999-.29999,2.10001-.60001l.89999,5.20001c-.89999.39999-1.8.60001-2.7.89999-1.2.20001-2.39999.39999-3.60001.39999-1.5,0-3.10001-.20001-4.5-.70001-1.10001-.39999-2.10001-1.20001-2.8-2-.7-.89999-1.2-2-1.5-3.20001-.3-1.39999-.39999-2.79999-.39999-4.10001v-19.70001M183.10001,342.19993c0-1.79999.3-3.70001.89999-5.39999.60001-1.5,1.39999-2.79999,2.5-3.89999,1-1,2.2-1.79999,3.60001-2.29999,1.39999-.60001,2.8-.79999,4.2-.79999,3.3,0,6,1,7.89999,3.10001,1.89999,2,2.89999,5,2.89999,9s0,.79999,0,1.29999v1.20001h-15c.10001,1.29999.8,2.5,1.89999,3.29999,1.39999.89999,2.89999,1.29999,4.5,1.20001,1.2,0,2.39999-.10001,3.60001-.29999,1-.20001,2-.5,2.89999-.89999l.89999,5.39999c-.39999.20001-.89999.39999-1.39999.60001-.7.20001-1.39999.39999-2,.39999-.7.10001-1.5.20001-2.3.39999-.8,0-1.7.10001-2.5.10001-1.89999,0-3.7-.20001-5.5-.89999-1.5-.60001-2.8-1.39999-3.89999-2.5-1-1.10001-1.8-2.5-2.3-3.89999-.5-1.70001-.7-3.29999-.7-4.89999M198.60001,339.69993c0-.60001-.10001-1.10001-.3-1.70001-.10001-.60001-.39999-1-.7-1.39999-.39999-.39999-.8-.79999-1.3-1-.60001-.29999-1.2-.39999-1.89999-.39999s-1.3.10001-1.89999.39999c-.5.20001-.89999.60001-1.3,1-.39999.39999-.7.89999-.89999,1.5s-.3,1.10001-.39999,1.70001h8.7M157.89999,331.09992c1.39999-.39999,2.89999-.70001,4.39999-.89999,1.8-.29999,3.7-.39999,5.60001-.39999,1.7,0,3.3.20001,4.89999.79999,1.2.39999,2.3,1.20001,3.10001,2.10001.8,1,1.39999,2.10001,1.7,3.39999.39999,1.39999.5,2.89999.5,4.39999v13.20001h-6.60001v-12.29999c0-2.10001-.3-3.60001-.89999-4.5-.60001-.89999-1.60001-1.39999-3.10001-1.39999h-1.5c-.60001,0-1,0-1.39999.10001v18h-6.60001v-22.5M153.2,336.19993c-.60001-.10001-1.3-.29999-2.10001-.39999-.89999-.20001-1.7-.20001-2.60001-.20001s-1,0-1.5.10001c-.39999,0-.89999.10001-1.3.20001v17.89999h-6.60001v-22.20001c1.39999-.5,2.8-.89999,4.2-1.20001,1.8-.39999,3.60001-.60001,5.39999-.60001h1.3c.40001,0,1,0,1.5.20001.5,0,1,.10001,1.5.20001.39999,0,.89999.20001,1.3.39999l-1.10001,5.5M112,342.19993c0-1.79999.3-3.70001.9-5.39999.6-1.5,1.4-2.79999,2.5-3.89999,1-1,2.2-1.79999,3.6-2.29999,1.4-.60001,2.8-.79999,4.2-.79999,3.3,0,6,1,7.89999,3.10001,1.89999,2,2.89999,5,2.89999,8.89999s0,.79999,0,1.29999v1.20001h-15c.1,1.29999.8,2.5,1.9,3.29999,1.4.89999,2.9,1.29999,4.5,1.20001,1.2,0,2.4-.10001,3.6-.29999,1-.20001,2-.5,2.89999-.89999l.89999,5.39999c-.39999.20001-.89999.39999-1.39999.60001-.7.20001-1.39999.39999-2,.39999-.7.10001-1.5.20001-2.3.39999-.8,0-1.7.10001-2.5.10001-1.9,0-3.7-.20001-5.5-.89999-1.5-.60001-2.8-1.39999-3.9-2.5-1-1.10001-1.8-2.5-2.3-3.89999-.4-1.70001-.6-3.29999-.6-4.89999M127.6,339.69993c0-.60001-.1-1.10001-.3-1.70001-.1-.60001-.4-1-.7-1.39999-.4-.39999-.8-.79999-1.3-1-.6-.29999-1.2-.39999-1.9-.39999s-1.3.10001-1.9.39999-1,.60001-1.4,1-.7.89999-.9,1.5c-.2.60001-.3,1.10001-.4,1.70001h8.7M101.3,341.89991c0-4.29999-1.6-6.39999-4.7-6.39999s-1.4,0-2,.20001c-.6.10001-1.1.39999-1.6.70001v12c.3,0,.7.10001,1.2.20001s1,0,1.7,0c1.6.10001,3.1-.60001,4.1-1.79999.9-1.5,1.4-3.20001,1.4-5M108.1,342.09992c0,1.70001-.2,3.39999-.9,5.10001-.5,1.5-1.3,2.79999-2.3,3.89999-1.1,1.10001-2.4,2-3.8,2.5-1.7.60001-3.4.89999-5.2.89999s-1.7,0-2.5-.10001c-.9,0-1.7-.20001-2.6-.20001-.8-.10001-1.6-.20001-2.4-.39999-.8-.10001-1.5-.29999-2-.60001v-32.79999l6.6-1v11.70001c.7-.29999,1.5-.60001,2.3-.70001.9-.20001,1.7-.20001,2.6-.20001,1.5,0,3,.20001,4.4.89999,1.2.60001,2.3,1.39999,3.2,2.5.9,1.20001,1.6,2.5,2,3.89999.4,1.5.6,3.29999.6,5M80.1,352.89991c-1.4.39999-2.9.70001-4.4.89999-1.8.29999-3.7.39999-5.6.39999-1.7,0-3.4-.20001-5-.79999-1.2-.5-2.3-1.20001-3.1-2.20001s-1.4-2.20001-1.7-3.5c-.4-1.39999-.5-2.89999-.5-4.39999v-13h6.6v12.20001c0,2.10001.3,3.70001.9,4.60001s1.6,1.39999,3.1,1.39999h1.5c.5,0,1,0,1.4-.20001v-18h6.6v22.60001M41.4,338.7999c.7-.70001,1.3-1.5,2-2.20001.7-.79999,1.4-1.5,2-2.29999.7-.79999,1.3-1.5,1.8-2.10001s1.1-1.29999,1.5-1.79999h7.9c-1.6,1.79999-3.1,3.60001-4.6,5.20001-1.5,1.70001-3.1,3.39999-4.9,5.10001,1,.89999,1.9,1.79999,2.8,2.89999.9,1.10001,1.8,2.20001,2.8,3.39999.9,1.20001,1.7,2.39999,2.5,3.60001.7,1.20001,1.4,2.29999,1.8,3.29999h-7.6c-.5-.79999-1-1.60001-1.7-2.5s-1.3-1.79999-1.9-2.79999c-.7-.89999-1.4-1.79999-2.2-2.70001-.7-.79999-1.4-1.5-2.2-2.10001v10.29999h-6.6v-33.60001l6.6-1v19.60001"/><path class="cls-2" d="M120.1,46.39992c.4,0,.9-.2,1.3-.2h1.5c.9,0,1.7,0,2.5.2s1.5.3,2.1.5l1.10001-5.4c-.2,0-.39999-.2-.60001-.2s-.4,0-.6-.2c-.5,0-1-.2-1.5-.3-.5,0-1,0-1.5-.2h-1.3c-1.8,0-3.6.2-5.3.5-1.4.3-2.8.7-4.1,1.2v21.8h6.5v-17.6h0l-.1-.1ZM132.2,58.69992c.2,1.1.7,2.2,1.5,3.1h0c.8.9,1.7,1.6,2.8,2,1.39999.5,2.89999.8,4.39999.7,1.2,0,2.39999,0,3.60001-.3.89999-.2,1.8-.5,2.60001-.8l-.89999-5.1c-.7.2-1.3.4-2,.5s-1.39999.2-2.2.2-1.7-.2-2.5-.7c-.2-.2-.3-.3-.5-.5-.5-1-.8-2.1-.7-3.3v-8.1h7.8v-5.4h-7.8v-6.8l-6.5,1.1v19.4c0,1.4.10001,2.7.39999,4.1h0l-.00002-.09999ZM219,55.79991c.10001.6.3,1.3.5,1.9.5,1.4,1.3,2.7,2.3,3.8,1.10001,1.1,2.39999,1.9,3.8,2.4,1.60001.6,3.39999.9,5.10001.8h2.5c.89999,0,1.7-.2,2.5-.3.8,0,1.60001-.3,2.39999-.4.8-.2,1.39999-.3,2-.5V29.99992l-6.5,1.1v10.4c-.7-.3-1.39999-.6-2.2-.7-.8-.2-1.60001-.3-2.39999-.3-1.5,0-3,.3-4.39999.8-1.2.5-2.39999,1.4-3.2,2.4-.89999,1.1-1.60001,2.4-2,3.8-.5,1.6-.7,3.4-.7,5.1s0,2.1.3,3.1h0l-.00003.1ZM227.60001,46.69992c.39999-.2.8-.4,1.3-.5h1.10001c.7,0,1.3,0,2,.3.60001,0,1.10001.4,1.60001.7v11.9c-.3,0-.7,0-1.2.2h-1.60001c-1.60001,0-3.10001-.6-4-1.8-1-1.4-1.39999-3.1-1.39999-4.9,0-2.9.8-4.8,2.3-5.7h0v-.2h-.10002ZM182.5,40.99992h6.5v23.1h-6.5v-23.1ZM66.7,57.29991c.4,1.4,1.2,2.7,2.1,3.8,1,1.1,2.3,2,3.7,2.6,1.7.7,3.6,1,5.4.9,1.3,0,2.5,0,3.8-.4,1-.2,1.9-.5,2.8-.8l-.8-4.4-.2-.9c-.8.3-1.6.6-2.5.7-.8,0-1.7.2-2.5.2-2.2,0-3.8-.6-4.7-1.7-1-1.4-1.4-3.1-1.3-4.8,0-1.7.4-3.4,1.4-4.7,1.1-1.3,2.7-1.9,4.3-1.8.8,0,1.6,0,2.5.3.7.2,1.4.4,2,.6l1.4-5.2c-1-.4-2-.7-3-.9-1.1-.2-2.2-.3-3.4-.3-1.7,0-3.4.3-5,1-2.8,1.2-5,3.6-6.1,6.5h0c-.5,1.5-.8,3.1-.8,4.7s.2,3.2.7,4.8c0,0,.2-.2.2-.19999ZM188.5,37.19992c.8-.7,1.2-1.8,1.2-2.8s-.39999-2.1-1.2-2.8c-1.60001-1.4-3.89999-1.4-5.5,0-.8.7-1.2,1.8-1.2,2.8s.39999,2.1,1.2,2.8c1.60001,1.4,3.89999,1.4,5.5,0ZM157.5,37.19992c.8-.7,1.2-1.8,1.2-2.8s-.39999-2.1-1.2-2.8c-1.60001-1.4-3.89999-1.4-5.5,0-.8.7-1.2,1.8-1.2,2.8s.39999,2.1,1.2,2.8c1.60001,1.4,3.89999,1.4,5.5,0ZM164.2,39.79991v24.3h6.5v-17.6h8.10001v-5.4h-8.10001v-1.1c0-.6,0-1.2.2-1.7.10001-.5.3-1,.7-1.4.3-.4.8-.7,1.3-.9.60001-.2,1.3-.3,2-.3h1.7c.5,0,1.10001.2,1.60001.4l1.10001-5.1c-.7-.3-1.3-.5-2-.7-1-.2-2-.3-3-.3-3.3,0-5.8.9-7.5,2.6-1.7,1.9-2.7,4.5-2.5,7.1h-.10001v.1ZM193.39999,52.69992c0,1.6.2,3.2.7,4.7.5,1.4,1.2,2.7,2.2,3.8,1.10001,1.1,2.39999,2,3.8,2.5,1.7.6,3.60001,1,5.39999.9h2.5c.8,0,1.60001-.2,2.3-.3.7,0,1.3-.3,2-.5.5,0,.89999-.3,1.39999-.5l-.89999-5.3c-.60001.2-1.2.4-1.89999.6-.3,0-.60001.2-1,.2h-.5c-1,.2-2,.3-3.10001.3-1.60001,0-3.10001-.3-4.5-1.2-1.10001-.7-1.8-1.9-1.89999-3.2h14.8v-2.4c0-3.9-1-6.8-2.89999-8.8-2-2.1-4.89999-3.2-7.8-3-1.39999,0-2.8.3-4.10001.8s-2.5,1.3-3.5,2.3c-.10001,0-.2.2-.3.4-.2.2-.3.3-.39999.5h0c-.7.9-1.3,1.9-1.7,3h0c-.7,1.7-1,3.5-.89999,5.4h.3v-.2h-.00002ZM200.60001,48.59991c.2-.5.5-1,.8-1.4.39999-.4.8-.8,1.3-1,.60001-.3,1.2-.4,1.89999-.4h0c.7,0,1.3,0,1.89999.4.5.2.89999.6,1.3,1,.3.4.60001.9.7,1.4.2.5.3,1.1.3,1.6h-8.60001c0-.6.2-1.1.39999-1.6h.00002ZM86.9,53.89992v1.2c0,.3,0,.6.2.8v.3c0,.4.2.8.3,1.2.5,1.4,1.2,2.7,2.2,3.8,1.1,1.1,2.4,2,3.8,2.5,1.7.6,3.6,1,5.4.9h2.5c.8,0,1.6-.2,2.3-.3.7,0,1.3-.3,2-.5.5,0,1-.3,1.4-.5l-.9-5.3c-.9.4-1.9.6-2.8.8-.6,0-1.2.2-1.8.2h-1.7c-1.6,0-3.1-.3-4.5-1.2-1.1-.7-1.8-1.9-1.9-3.2h14.8v-2.4c0-3.9-.9-6.8-2.8-8.8-2-2.1-4.9-3.2-7.8-3-1.4,0-2.8.3-4.1.8-1.3.5-2.5,1.3-3.5,2.3s-1.9,2.4-2.5,3.8h0c-.7,1.7-1,3.5-.9,5.4v1.2s.3,0,.3,0ZM94,48.59991c.2-.5.5-1,.8-1.4.4-.4.8-.8,1.3-1,.6-.3,1.2-.4,1.9-.4s1.3,0,1.9.4c.5.2.9.6,1.3,1,.3.4.6.9.7,1.4.2.5.3,1.1.3,1.6h-8.6c0-.6.2-1.1.4-1.6h-.00002ZM151.5,40.99992h6.5v23.1h-6.5v-23.1Z"/><path class="cls-2" d="M138.39999,40.99992h7.8-7.8ZM106.3,57.89992c-.9.4-1.9.6-2.8.8-.6,0-1.2.2-1.8.2.6,0,1.2,0,1.8-.2,1-.2,1.9-.4,2.8-.8ZM182.5,64.09991h6.5-6.5ZM166.7,32.69992c1.7-1.8,4.2-2.6,7.5-2.6-3.3,0-5.8.9-7.5,2.6ZM127.3,40.99992c.2,0,.4,0,.6.2-.2,0-.4,0-.6-.2-.5,0-1-.2-1.5-.3-.5,0-1,0-1.5-.2.5,0,1,0,1.5.2.5,0,1,.2,1.5.3ZM221.89999,61.39992c-.5-.5-1-1.2-1.39999-1.8.39999.7.89999,1.3,1.39999,1.8,1.10001,1.1,2.39999,1.9,3.8,2.4.8.3,1.60001.5,2.5.6-.8,0-1.7-.4-2.5-.6-1.39999-.5-2.7-1.3-3.8-2.4h0ZM93.5,54.69992h14.8v-1.2,1.2h-14.8ZM238.10001,63.79991c-.8.2-1.60001.3-2.39999.4.8,0,1.60001-.3,2.39999-.4.8-.2,1.39999-.3,2-.5V29.99992h0v33.3c-.60001.2-1.3.3-2,.5h0ZM178.8,40.99992h-8.10001,8.10001ZM151.5,64.09991h6.5-6.5ZM215,54.69992h-14.8,14.8v-2.4h0v2.4h0ZM72.9,41.39992c1.6-.7,3.3-1,5-1s2.3,0,3.4.3c1,.2,2,.5,3,.9h0c-1-.4-2-.7-3-.9-1.1-.2-2.2-.3-3.4-.3-1.7,0-3.4.3-5,1-2.8,1.2-5,3.6-6.1,6.5h0c1-2.9,3.2-5.3,6.1-6.5Z"/><path class="cls-2" d="M158.3,36.09991c.3-.5.39999-1.1.3-1.7v-.8.8c0,.6,0,1.2-.3,1.7Z"/><path class="cls-1" d="M158.60001,33.49992c0-.3-.10001-.5-.2-.8M158,36.59991c.10001-.2.2-.3.3-.5"/><path class="cls-2" d="M211,58.49992c-.3,0-.60001.2-1,.2h-.5.5c.3,0,.60001,0,1-.2h0Z"/><path class="cls-2" d="M81.8,64.29992c-1.2.2-2.5.4-3.8.4-1.9,0-3.7-.3-5.4-.9-1.4-.6-2.7-1.4-3.7-2.6h0c1,1.1,2.3,2,3.7,2.6,1.7.7,3.6,1,5.4.9,1.3,0,2.5,0,3.8-.3,1-.2,1.9-.5,2.8-.8l-.8-4.4.8,4.4c-.9.4-1.9.6-2.8.8h0v-.1ZM193.39999,52.69992c0,1.6.2,3.2.7,4.7.5,1.4,1.2,2.7,2.2,3.8h0c1.10001,1.1,2.39999,2,3.8,2.5,1.7.6,3.60001,1,5.39999.9h2.5c.8,0,1.60001-.2,2.3-.3.7,0,1.3-.3,1.89999-.5.5,0,1-.3,1.39999-.5h0c-.5.2-.89999.4-1.39999.5-.60001.2-1.3.3-2,.5-.7,0-1.5.2-2.3.3h-2.5c-1.8,0-3.7-.3-5.39999-.9-1.39999-.6-2.7-1.4-3.8-2.5-1-1.1-1.8-2.4-2.2-3.8-.5-1.5-.7-3.1-.7-4.7s.3-3.7.89999-5.4h0c-.7,1.7-1,3.5-.89999,5.4,0,0,.10001,0,.10001,0Z"/><path class="cls-1" d="M87.2,56.29991v-.3M196.10001,44.39992h0"/><path class="cls-2" d="M87.8,47.29991c-.7,1.7-1,3.5-.9,5.4h0c0-1.8.3-3.7.9-5.4h0ZM136.5,63.89992c1.39999.5,2.89999.8,4.39999.7,1.2,0,2.39999,0,3.60001-.4-1.2.3-2.39999.4-3.60001.3-1.5,0-3-.2-4.39999-.7h0v.1ZM139.5,58.39992c.7.5,1.60001.8,2.5.7-.89999,0-1.7-.2-2.5-.7h0ZM218.7,52.69992c0-.9,0-1.7.2-2.6-.10001.9-.2,1.7-.2,2.6s0,2.1.3,3.1c-.2-1-.3-2.1-.3-3.1ZM152,37.19992c1.60001,1.4,3.89999,1.4,5.5,0-1.60001,1.4-3.89999,1.4-5.5,0ZM196.89999,43.49992c-.10001,0-.2.2-.3.4.10001,0,.2-.2.3-.4h0ZM183,37.19992c.8.7,1.7,1,2.7,1h0c1,0,2-.4,2.7-1,.8-.7,1.2-1.8,1.2-2.8,0,1.1-.39999,2.1-1.2,2.8-1.60001,1.4-3.89999,1.4-5.5,0h.10001ZM138.39999,34.19992l-6.5,1.1h0l6.5-1.1h0ZM96.1,46.19992c.6-.3,1.2-.4,1.9-.4-.6,0-1.3,0-1.9.4ZM200.2,50.19992c0-.6.2-1.1.39999-1.6-.2.5-.3,1.1-.39999,1.6ZM94,48.59991h0c-.2.5-.3,1.1-.4,1.6h0c0-.6.2-1.1.4-1.6ZM204.60001,45.79991h1-1Z"/><path class="cls-1" d="M227.60001,46.69992c.39999-.2.8-.4,1.3-.5"/><path class="cls-1" d="M111.5,305.69993c.7.29999,1.5.60001,2.3.79999"/><path class="cls-1" d="M115.2,306.69993c-.5,0-.9-.10001-1.4-.20001M192.39999,306.49992c.89999-.20001,1.8-.5,2.60001-.89999M196.3,304.89991c.8-.5,1.5-1.10001,2.2-1.70001"/><path class="cls-1" d="M247.60001,239.09992c0,.3,0,.60001-.10001.89999M246.7,242.39991c-.10001.3-.2.5-.39999.8"/><path class="cls-2" d="M83.7,233.79992c0,.2,0,.5.2.7h0c0,.3.2.60001.4.89999,0,.10001.2.3.3.39999.3.3.7.7,1,.89999s.6.3.9.39999h0c.2,0,.4,0,.5.10001h1c.3,0,.5,0,.7-.2h.2c.2,0,.5-.10001.7-.2h0c.8-.2,1.6-.5,2.3-.89999.4-.2.8-.3,1.2-.5h0c2.2-.89999,4.4-1.5,6.7-2h0c.7,0,1.4.3,2,.7h.2l1.7-.3h0c3.9,11.89999,11.9,22,22.7,28.29999l-.7,1.70001h0c.3.70001.5,1.39999.3,2.20001-1,2.20001-2.2,4.39999-3.6,6.39999h0c0,.10001-.2.29999-.3.39999-.2.20001-.3.39999-.4.60001-.5.70001-1,1.39999-1.4,2.10001,0,.10001,0,.29999-.2.39999v.29999c0,.10001,0,.29999-.2.39999-1.1,2-.3,4.5,1.7,5.60001.5.20001,1,.39999,1.6.39999,1.7,0,3.2-1.10001,3.9-2.60001h0v-.29999h0c0-.29999.2-.5.3-.70001h0c.3-.79999.6-1.60001.8-2.39999,0-.10001,0-.29999.10001-.39999,0-.29999.2-.60001.2-.79999.3-.79999.60001-1.60001.8-2.29999.5-1.70001,1.2-3.29999,2.2-4.70001.5-.39999,1.10001-.70001,1.7-.79999h0l.89999-1.60001h0c11.7,4.5,24.60001,4.5,36.3,0v.20001l.3.60001c0,.10001.10001.20001.2.29999,0,.20001.2.29999.2.39999h.3c.7.10001,1.3.5,1.7,1.10001,1.10001,2.10001,2,4.29999,2.7,6.5h0c0,.29999.10001.5.2.70001,0,.20001.10001.39999.2.60001.2.79999.39999,1.5.7,2.20001v.20001h0c.10001.20001.2.5.3.70001v.29999c.60001.89999,1.3,1.70001,2.3,2.20001,0,0,.2,0,.2.10001,1,.39999,2.10001.39999,3.10001,0,2-1.10001,2.7-3.60001,1.7-5.60001l-.2-.29999c-.10001-.29999-.2-.5-.39999-.70001-.39999-.70001-.89999-1.39999-1.39999-2.10001-.2-.29999-.5-.70001-.7-1-1.39999-2-2.5-4.10001-3.5-6.20001-.2-.70001-.10001-1.39999.2-2v-.20001h0c-.2-.29999-.3-.70001-.39999-1v-.20001c0-.10001,0-.20001-.10001-.29999h0c10.8-6.39999,18.89999-16.60001,22.7-28.5h0c.5,0,1.39999.2,1.60001.3h0s.2-.10001.2-.2c.5-.39999,1.10001-.60001,1.7-.7h.2c2.10001.39999,4.2,1,6.2,1.8.2,0,.3.10001.5.2h.10001c.39999.2.8.39999,1.2.5.8.39999,1.5.60001,2.39999.89999h0c.2,0,.39999,0,.60001.10001h.39999c.2,0,.5.10001.7.2h1.60001c.10001,0,.2,0,.3-.10001.10001,0,.3,0,.39999-.2.10001,0,.2-.10001.3-.2.10001,0,.2-.10001.3-.2.10001,0,.2-.2.3-.3,0,0,.2-.2.3-.2s.10001-.2.2-.3c0-.10001.2-.2.2-.3,0,0,0-.2.10001-.3,0-.10001.10001-.3.2-.5v-2.3c0-.10001,0-.2-.10001-.3,0-.10001,0-.3-.10001-.39999,0-.10001-.10001-.2-.2-.3,0-.10001-.10001-.2-.2-.3,0-.10001-.2-.2-.3-.3,0,0-.2-.2-.2-.3,0,0-.2-.10001-.3-.2-.10001,0-.2-.2-.3-.2,0,0-.2,0-.3-.10001-.10001,0-.3-.10001-.5-.2-.2,0-.5-.10001-.7-.2h-.39999c-.2,0-.5-.10001-.7-.2h0c-.8-.10001-1.7-.2-2.5-.2h-1.3c-2.39999-.2-4.7-.5-7-1.10001-.7-.39999-1.2-.89999-1.60001-1.5v-.2h-.10001l-1.60001-.5c.3-2.3.5-4.60001.5-7h0c0-4.5-.60001-8.89999-1.8-13.2-.39999-1.39999-.8-2.8-1.3-4.2-.2-.5-.39999-1-.60001-1.39999-.89999-2.2-1.89999-4.3-3-6.3-.60001-1.10001-1.2-2.10001-1.89999-3.10001h0l.2-.2c.2-.2.39999-.3.60001-.5.2-.2.39999-.3.5-.39999h.10001v-1.39999h0c.10001-.39999.3-.60001.5-.89999.10001,0,.2-.2.3-.3,1.7-1.39999,3.60001-2.7,5.5-3.8.39999-.2.7-.39999,1.10001-.60001h0c.7-.39999,1.5-.8,2.10001-1.3.2-.10001.39999-.3.60001-.5l.3-.2h0c.2-.2.39999-.3.60001-.5,0,0,0-.10001.10001-.2.10001-.10001.2-.3.39999-.39999,0,0,.10001-.2.2-.3,0-.10001.10001-.2.2-.39999,0-.10001,0-.3.10001-.39999,0-.10001,0-.2.10001-.39999v-1.60001c0-.10001,0-.3-.10001-.39999,0-.10001,0-.2-.10001-.3,0-.2-.2-.3-.3-.5,0,0,0-.10001-.10001-.2,0-.10001-.2-.2-.2-.3s-.2-.2-.3-.3c0,0-.10001,0-.2-.10001l-.39999-.39999s-.2-.10001-.3-.2c-.10001,0-.2-.10001-.39999-.2-.10001,0-.3,0-.39999-.10001-.10001,0-.2,0-.39999-.10001h-1.60001c-.10001,0-.3,0-.39999.10001h-.3c-.2,0-.3.2-.5.3,0,0-.10001,0-.2.10001-.2.10001-.39999.3-.60001.5h0l-.2.2-.2.2c-.2.10001-.3.2-.39999.3l-1.8,1.8c-.3.3-.5.60001-.8.89999h-.10001c-1.5,1.7-3.10001,3.2-4.8,4.5-.10001,0-.2.2-.3.3-.7.3-1.39999.39999-2.2.3h-.2l-1.5,1.10001h0c-4.3-4.5-9.3-8.10001-14.8-10.8-5.60001-2.7-11.60001-4.39999-17.8-5h0v-1.60001h0l-.2-.2c-.60001-.39999-.89999-1-1.10001-1.7,0-2.3,0-4.60001.39999-6.89999v-.2c0-.39999.2-.8.2-1.2.2-.8.3-1.7.3-2.5v-1.2h0v-.8h0c0-.3,0-.5-.2-.7,0-.10001,0-.2-.10001-.3,0-.10001-.10001-.3-.2-.39999,0-.10001-.10001-.2-.2-.3,0,0-.10001-.2-.2-.3l-.3-.3-.3-.3s-.2-.10001-.3-.2c-.10001,0-.2-.2-.3-.2s-.3-.10001-.39999-.2c-.10001,0-.2,0-.3-.10001-.2,0-.5-.10001-.8-.2h-.8c-.3,0-.5,0-.8.2-.10001,0-.2,0-.3.10001-.10001,0-.3.10001-.39999.2-.10001,0-.2.10001-.3.2-.10001,0-.2.10001-.3.2l-.3.3-.3.3s-.10001.2-.2.3c0,.10001-.2.2-.2.3s-.10001.3-.2.39999c0,.10001,0,.2-.10001.3,0,.2-.10001.5-.2.8h0v.8h0v1.10001c0,.8.2,1.7.3,2.5,0,.39999.2.8.2,1.2h0c.39999,2.3.5,4.7.39999,7.10001-.2.8-.7,1.5-1.3,2h0v1.60001c-2.5.2-4.8.60001-7.2,1.10001-9.8,2.2-18.8,7.3-25.7,14.7-.2-.10001-.5-.39999-.8-.5s-.5-.39999-.6-.5h-.3c-.7.2-1.4,0-2-.3-1.9-1.39999-3.6-3-5.2-4.7h0c-.3-.3-.6-.60001-.8-.89999-.5-.60001-1.1-1.3-1.7-1.8-.2-.10001-.4-.3-.6-.5h-.2v-.2c-.8-.60001-1.8-1-2.8-1h0c-1.2,0-2.3.5-3,1.39999-.7.8-.9,1.89999-.7,3,.2,1.10001.8,2.10001,1.7,2.89999h0s0,.10001.2.2h0c0,.10001.2.2.3.3,0,0,.2.10001.2.2.7.5,1.4.89999,2.1,1.3.4.2.8.39999,1.1.60001.5.3,1,.60001,1.5.89999.6.39999,1.3.8,1.9,1.3.7.5,1.3,1,1.9,1.5.2.10001.4.3.5.39999.4.60001.7,1.3.8,2.10001h0v.2h0l1.2,1.10001c-6.9,10.39999-9.8,23.10001-8,35.5h-.4c0,.10001-1.2.5-1.2.5h0l-.2.2c-.4.60001-.9,1.10001-1.5,1.5-2.3.60001-4.6,1-7,1.10001h-1.2c-.8,0-1.7,0-2.5.2h0c-.2,0-.5.10001-.7.2h-.3c-.3,0-.5.10001-.7.2-.2,0-.3.10001-.5.2,0,0-.2,0-.2.10001-.2,0-.3.2-.4.3h-.2c-.2.2-.3.39999-.4.60001h0c-.5.60001-.7,1.3-.8,2.10001h0v.8h0l1.2-.5h0l-.09997-.00012ZM139.10001,232.49992c0,.39999,0,.7-.2,1h0l-7.8,19c-2.8-1.8-5.4-3.89999-7.7-6.39999-.8-.8-1.5-1.60001-2.2-2.5-2.1-2.60001-3.8-5.39999-5.2-8.39999-.5-1-.9-2-1.3-3.10001l20.3-3.39999h.60001c.39999,0,.7,0,1,.2h.3c.2,0,.39999.2.5.3h0c.3.2.5.39999.7.7l.2.2s0,.2.10001.3c0,.10001.10001.2.2.3,0,.2.10001.39999.2.60001h0v.7h0v.3h0l.3.2h0l-.00002-.00002ZM162.2,258.09992c-7.39999,1.60001-15,1.20001-22.2-1.10001h0l3.5-6.39999,6.39999-11.60001h0c0-.10001.2-.3.3-.39999.60001-.89999,1.60001-1.39999,2.60001-1.39999h.10001c1.3,0,2.39999.7,3,1.8h0l10,17.99998c-1.3.39999-2.60001.79999-4,1.10001h.3-.00002ZM191.39999,232.39991c-.2.39999-.3.89999-.5,1.3,0,.2-.2.39999-.2.60001-.10001.3-.3.7-.39999,1,0,.2-.2.39999-.3.60001-.10001.3-.3.60001-.39999.89999-.10001.2-.2.39999-.3.60001-.10001.3-.3.60001-.5.8-.10001.2-.2.39999-.3.60001-.2.3-.3.60001-.5.8-.10001.2-.3.39999-.39999.60001-.2.3-.3.5-.5.8-.10001.2-.3.39999-.39999.60001-.2.3-.39999.5-.60001.8-.10001.2-.3.39999-.39999.60001-.2.2-.39999.5-.60001.7h0c-.2.2-.39999.5-.60001.7-2.7,3.2-5.8,6-9.39999,8.3l-7.89999-19.2h0c0-.2-.10001-.39999-.2-.5v-1.5c.3-1.60001,1.60001-2.7,3.2-2.8h.7l20.39999,3.5v.2h0l.09999-.00005ZM189.8,200.59992c.60001,1.2,1.10001,2.5,1.60001,3.8.39999,1.2.8,2.39999,1.10001,3.60001.3,1.2.60001,2.39999.8,3.60001.39999,2.5.60001,5,.60001,7.39999v1.7c0,.60001,0,1.10001-.10001,1.7l-19.89999-5.7h0c-.39999-.10001-.89999-.3-1.2-.60001h0c-.2-.10001-.3-.3-.5-.39999h0c-.10001-.2-.2-.3-.3-.5h0c0-.2-.2-.3-.2-.5h0c0-.3,0-.39999-.10001-.60001v-1.2h0v-.39999s0-.2.10001-.2c0,0,0-.2.10001-.2l.2-.2s0-.10001.10001-.2c.10001-.10001.2-.3.39999-.39999h0l15.3-13.8c.7,1.2,1.39999,2.39999,2,3.7h0v-.60001h0l-.00003-.00002ZM158.10001,177.89991c4.10001.5,8.10001,1.7,11.89999,3.39999.2.10001.5.2.7.3h0c.10001,0,.2.10001.3.2.39999.2.8.39999,1.2.60001.10001,0,.3.2.39999.2.3.2.7.39999,1,.60001.2,0,.3.2.5.3.3.2.60001.39999.89999.60001.2.10001.39999.3.60001.39999.3.2.5.3.8.5.2.2.5.39999.7.5s.39999.3.60001.39999c.3.2.60001.5,1,.8.10001,0,.2.2.3.3.89999.7,1.7,1.5,2.5,2.2h0l-15.8,11.2-1,.7h0c-.2.10001-.3.2-.5.3h-.2c-.10001,0-.3.10001-.39999.10001h-.8c-.39999,0-.8,0-1.2-.2h0c-.2,0-.3-.10001-.39999-.2h-.2c-.2-.10001-.39999-.3-.5-.39999l-.5-.5h0c-.10001-.2-.2-.3-.3-.5v-.2c0-.10001-.10001-.3-.10001-.39999v-.8h0l-1.2-20.60001h0l-.3.2h0v-.00002ZM149.89999,211.79992h6.3l3.89999,4.89999-1.39999,6.10001-5.7,2.7-5.7-2.7-1.39999-6.10001,3.89999-4.89999h.09999ZM124.5,189.19991c5.39999-5.3,12.10001-8.89999,19.5-10.60001,1.39999-.3,2.8-.5,4.2-.7l-1.2,20.60001h0v.8c0,.10001,0,.3-.10001.39999v.2c0,.2-.2.3-.3.5h0c-.10001.2-.3.39999-.5.5,0,0-.2.10001-.2.2,0,0-.2.10001-.3.2,0,0-.2,0-.3.10001-.10001,0-.2.10001-.3.10001h-2.10001c-.10001,0-.3,0-.39999-.10001h-.2c-.2,0-.39999-.2-.5-.3h0l-16.9-12h-.4l.00002.10001ZM118.3,196.99992l15.39999,13.8h0c.2.10001.3.3.39999.5,0,0,0,.10001.10001.2,0,.10001.2.2.2.39999v.2c0,.2.2.39999.2.5h0c0,.3.10001.7.10001,1v1c0,.10001-.10001.2-.2.39999,0,0,0,.2-.10001.2-.10001.2-.2.39999-.39999.60001h0l-.39999.39999s-.10001,0-.2.10001c-.10001,0-.2.2-.39999.2h-.2c-.2,0-.39999.2-.60001.2h0l-19.8,5.8c-1-8.89999,1-17.89999,5.7-25.60001h.2v.10002Z"/><path class="cls-1" d="M136.5,228.79992h-.7M171.60001,211.79992s0-.2.10001-.2M171.89999,211.29992s0-.10001.10001-.2"/><path class="cls-2" d="M173.8,216.69991l19.89999,5.7c0-.60001,0-1.10001.10001-1.7,0,.60001,0,1.10001-.10001,1.7l-19.89999-5.7Z"/><path class="cls-2" d="M173.8,216.59992c-.39999-.10001-.89999-.3-1.2-.60001.39999.3.8.5,1.2.60001h0Z"/><path class="cls-1" d="M171.7,214.99992c0-.2-.2-.3-.2-.5M171.2,213.19991v.39999"/><path class="cls-1" d="M189.2,237.39991c-.10001.3-.3.60001-.5.8M171.39999,214.29992c0-.2,0-.3-.10001-.5M172.5,215.99992c-.2-.10001-.3-.3-.5-.39999M172,215.49992c-.10001-.2-.2-.3-.3-.5M171.39999,212.19991v-.2M189.89999,235.89991c-.10001.3-.3.60001-.39999.89999M187.5,240.29992c-.2.3-.3.5-.5.8M138.8,230.59992s0-.2-.10001-.3M186.60001,241.59992c-.2.3-.39999.5-.60001.8M188.39999,238.79992c-.2.3-.3.60001-.5.8"/><path class="cls-2" d="M185.10001,243.69991h0c.2-.2.39999-.5.60001-.7-.2.2-.39999.5-.60001.7h0ZM135.10001,228.79992h.60001-.60001ZM175.10001,252.69991c3.5-2.3,6.7-5,9.39999-8.3-2.7,3.2-5.8,6-9.39999,8.3ZM150,238.89991l-6.39999,11.60001,6.39999-11.60001h0ZM140.10001,256.89991h0c5.8,2,12,2.60001,18.10001,1.79999-6.10001.79999-12.3.10001-18.10001-1.79999h0Z"/><path class="cls-1" d="M138.89999,230.89991c0,.2.10001.39999.2.60001"/><path class="cls-1" d="M139.2,232.19991v-.60001M190.7,234.29992c-.10001.3-.3.7-.39999,1"/><path class="cls-1" d="M167,232.39991v.2M170.3,228.69991h0M167.2,233.49992c0-.2-.10001-.39999-.2-.5M137.7,229.39991h0M138.39999,230.09992c0-.10001-.2-.2-.2-.3M191.39999,232.39991c-.2.39999-.3.89999-.5,1.3"/><path class="cls-2" d="M148.10001,177.89991l-1.2,20.60001h0l1.2-20.60001c-1.39999.2-2.8.39999-4.2.7-7.39999,1.7-14.10001,5.3-19.5,10.60001h0c5.39999-5.3,12.10001-8.89999,19.5-10.60001,1.39999-.3,2.8-.5,4.2-.7ZM146.8,199.09992v-.60001h0v.60001h0Z"/><path class="cls-1" d="M139.10001,232.89991v-.39999M145.5,201.09992s.2-.10001.2-.2"/><path class="cls-1" d="M144.89999,201.49992s.2,0,.3-.10001M141.89999,201.49992h.2M143.3,201.79992h.7M134.5,211.79992c0-.10001-.10001-.3-.2-.39999M142.5,201.69991h.2M134.10001,211.29992c-.10001-.2-.3-.3-.39999-.5M132.89999,216.49992h.2"/><path class="cls-2" d="M134.8,212.49992c0-.2-.10001-.39999-.2-.5,0,.2.2.39999.2.60001h0v-.10001ZM132.3,216.79992h0ZM133.7,210.79992h0Z"/><path class="cls-1" d="M133.5,216.19991s.10001,0,.2-.10001M134.89999,213.89991v.39999M134,215.69991c.10001-.2.3-.39999.39999-.60001M134.89999,213.19991v.3M134.5,214.89991c0-.10001.10001-.2.2-.39999M175.10001,184.09992c.2.10001.39999.3.60001.39999M177.8,185.89991c.3.2.60001.5,1,.8"/><path class="cls-2" d="M146.2,200.39991c.10001-.2.2-.3.3-.5,0,.2-.2.3-.3.5h0ZM181.5,189.19991c-.8-.8-1.60001-1.5-2.5-2.2.89999.7,1.7,1.39999,2.5,2.2h0Z"/><path class="cls-1" d="M163.60001,201.59992c.10001,0,.3,0,.39999-.10001"/><path class="cls-1" d="M164.2,201.39991c.2,0,.39999-.2.5-.3M173.7,183.19991c.2,0,.3.2.5.3M172.2,182.39991c.10001,0,.3.2.39999.2"/><path class="cls-2" d="M170.8,181.59992h0c.10001,0,.2.10001.3.2-.10001,0-.2-.10001-.3-.2Z"/><path class="cls-1" d="M176.39999,184.99992c.2.2.5.39999.7.5M161.60001,201.59992c.2,0,.5.10001.8.2M161,201.29992c.10001,0,.3.2.39999.2"/><path class="cls-2" d="M156.2,211.79992l3.89999,4.89999-3.89999-4.89999ZM160.39999,200.79992l-.5-.5c.10001.2.3.39999.5.5ZM160.89999,201.19991c-.2-.10001-.39999-.3-.5-.39999.2.2.3.3.5.39999h0Z"/><path class="cls-1" d="M146.7,199.29992c0,.10001,0,.3-.10001.39999"/><path class="cls-2" d="M164.7,201.09992h0l1-.7-1,.7h0Z"/><path class="cls-2" d="M158.10001,177.89991c4.10001.5,8.10001,1.7,11.89999,3.39999-3.8-1.7-7.8-2.89999-11.89999-3.39999Z"/><path class="cls-2" d="M103.5,173.69991h0c-.5-.5-1.1-.8-1.8-.89999.7.2,1.3.5,1.8.89999h0ZM98.6,179.99992l.2.2h0s0-.10001-.2-.2ZM87.2,229.29992h0ZM96.7,176.99992c-.2-1.10001,0-2.2.7-3,.7-.89999,1.8-1.39999,3-1.39999h0c-1.2,0-2.3.5-3,1.39999-.7.8-.9,1.89999-.7,3,.2,1.10001.8,2.10001,1.7,2.8-.9-.7-1.5-1.7-1.7-2.89999h0v.09999Z"/><path class="cls-1" d="M85.3,230.19991c0-.10001.3-.2.4-.3M207.8,173.09992c.2.10001.3.2.39999.39999M87.2,237.19991c-.2,0-.4,0-.5-.10001"/><path class="cls-2" d="M114.5,182.09992s.4.3.6.5c-.3-.2-.5-.39999-.6-.5h0ZM141.60001,168.39991c2.3-.5,4.7-.89999,7.10001-1.10001-2.39999.2-4.8.60001-7.10001,1.10001-9.8,2.2-18.8,7.3-25.7,14.7-.2-.10001-.5-.39999-.8-.5.3.2.6.39999.8.5,6.9-7.3,15.89999-12.5,25.7-14.7h0ZM90.8,228.89991h0c-.8,0-1.7,0-2.5.2h0c.8-.10001,1.7-.2,2.5-.2ZM99.3,180.59992s0-.10001-.2-.2c0,0,.2.10001.2.2.7.5,1.4.89999,2.1,1.3.4.2.7.39999,1.1.60001-.4-.2-.7-.39999-1.1-.60001-.7-.39999-1.5-.8-2.1-1.3ZM208.89999,174.29992h0s0,.10001.10001.2c0,0,0-.10001-.10001-.2h0ZM100.8,225.89991h0l1.2-.39999-1.2.39999h0l-.2.2c0,.10001-.2.3-.3.39999,0-.10001.2-.2.3-.39999l.2-.2Z"/><path class="cls-2" d="M108.4,186.59992c-.2-.2-.4-.3-.5-.39999.2.10001.4.3.5.39999.4.60001.7,1.3.8,2.10001h0c0-.7-.3-1.5-.8-2.10001h0ZM107.9,186.09992c-.6-.5-1.3-1-1.9-1.5.7.5,1.3,1,1.9,1.5h0Z"/><path class="cls-1" d="M84.7,230.79992c0-.2.3-.3.4-.5"/><path class="cls-2" d="M112.2,181.89991c-1.9-1.39999-3.6-3-5.2-4.7h0c1.6,1.7,3.3,3.3,5.2,4.7ZM191.8,182.09992h-.2.2ZM194,181.79992c.10001,0,.2-.2.3-.3-.10001,0-.2.2-.3.3-.7.3-1.39999.39999-2.2.3.7.10001,1.5,0,2.2-.3ZM190.10001,183.19991c-2.8-2.89999-5.89999-5.5-9.2-7.7,3.39999,2.2,6.5,4.8,9.2,7.7h0ZM149.10001,151.79992h0ZM200.10001,176.09992c-.3.3-.5.60001-.8.89999h0c.3-.3.60001-.60001.8-.89999ZM202.7,173.59992h0l-.2.2-.2.2.2-.2.2-.2Z"/><path class="cls-2" d="M149.39999,155.29992c-.2-.8-.3-1.7-.3-2.5,0,.8.2,1.7.3,2.5,0,.39999.2.8.2,1.2h0c0-.39999-.10001-.8-.2-1.3h0v.10001Z"/><path class="cls-1" d="M155,147.79992c.10001,0,.2.10001.3.2"/><path class="cls-2" d="M150.10001,163.69991c-.2.8-.7,1.5-1.3,2h0c.60001-.5,1-1.2,1.3-2h0ZM109.2,188.89991h0Z"/><path class="cls-1" d="M207.5,172.99992c-.10001,0-.2-.10001-.39999-.2M86,229.69991c.2,0,.3-.2.5-.2"/><path class="cls-1" d="M206.39999,172.49992c.10001,0,.2,0,.39999.10001M208.60001,173.99992c0-.10001-.2-.2-.3-.3M222,234.89991s0,.2-.10001.3M200.5,199.39991c.2.5.39999,1,.60001,1.39999"/><path class="cls-2" d="M83.7,232.89991c0-.7.4-1.5.8-2.10001-.5.60001-.7,1.3-.8,2.10001Z"/><path class="cls-1" d="M221.7,235.49992s-.10001.2-.2.3M221.2,236.09992l-.3.3M197.2,187.29992h0M197,187.89991v-.2M204.2,218.39991h0M220.60001,236.59992c-.10001,0-.2.10001-.3.2M222.39999,233.69991v-.5M221.60001,230.79992c0-.10001-.2-.2-.3-.3M222,231.39991c0-.10001-.10001-.2-.2-.3M221.10001,230.19991s-.2-.10001-.3-.2M222.39999,232.89991v-.39999M220.5,229.79992s-.2,0-.3-.10001M222.3,232.09992c0-.10001,0-.2-.10001-.3"/><path class="cls-1" d="M209.3,177.59992c0-.10001,0-.2.10001-.39999M87.4,237.29992h.4"/><path class="cls-2" d="M88.2,237.19991c.2,0,.5,0,.7-.2-.2,0-.5.10001-.7.2h0ZM179.8,263.99992h0Z"/><path class="cls-1" d="M209.2,174.99992c0,.10001,0,.2.10001.3M209.5,176.89991v-.39999M209.5,175.69991v.39999M216.7,236.89991c-.2,0-.39999,0-.60001-.10001M218.8,237.19991h.39999M209,178.39991c0-.10001.10001-.2.2-.39999M219.89999,236.89991c-.10001,0-.2,0-.3.10001M218.5,237.19991h-.5"/><path class="cls-2" d="M207.39999,179.99992c-.2.2-.39999.3-.60001.5.2-.10001.39999-.3.60001-.5Z"/><path class="cls-1" d="M208.8,178.69991c-.10001.2-.2.3-.39999.39999M207.7,179.79992c.2-.10001.39999-.3.60001-.5"/><path class="cls-2" d="M179.8,263.99992h0c-.2-.29999-.3-.70001-.39999-1v-.20001.20001c.10001.39999.3.70001.39999,1h0Z"/><path class="cls-2" d="M171.39999,266.2999l.3.60001.2.29999c0-.10001-.10001-.20001-.2-.29999l-.3-.60001Z"/><path class="cls-1" d="M156.60001,149.39991c0,.10001.10001.3.2.39999"/><path class="cls-2" d="M134.10001,267.69993l.89999-1.60001-.89999,1.60001Z"/><path class="cls-1" d="M156.2,148.69991s.10001.2.2.3M150.5,148.19991s.2-.10001.3-.2"/><path class="cls-2" d="M128.2,279.19993h0c.3-.79999.60001-1.60001.8-2.39999,0-.10001,0-.29999.10001-.39999,0,.10001,0,.29999-.10001.39999-.2.79999-.5,1.60001-.8,2.39999ZM131.3,270.39991c.3-.70001.7-1.29999,1.10001-1.89999.39999-.29999.8-.60001,1.3-.70001-.5.10001-.89999.39999-1.3.70001-.39999.60001-.8,1.20001-1.10001,1.89999h0Z"/><path class="cls-1" d="M151.2,147.79992c.10001,0,.3-.10001.39999-.2"/><path class="cls-2" d="M179.5,266.2999c1,2.20001,2.10001,4.29999,3.5,6.20001.2.39999.5.70001.7,1,.5.70001,1,1.39999,1.39999,2.10001.10001.20001.2.5.39999.70001l.2.29999c1.10001,2,.3,4.5-1.7,5.60001-.5.20001-1,.29999-1.5.39999.5,0,1.10001-.10001,1.5-.39999,2-1.10001,2.8-3.60001,1.7-5.60001,0-.10001-.10001-.20001-.2-.29999-.10001-.29999-.2-.5-.39999-.70001-.39999-.70001-.89999-1.39999-1.39999-2.10001-.3-.29999-.5-.70001-.7-1-1.39999-2-2.5-4.10001-3.5-6.20001-.2-.70001-.10001-1.39999.2-2v-.20001.20001c-.3.60001-.39999,1.29999-.2,2Z"/><path class="cls-1" d="M151.89999,147.49992c.2,0,.5-.10001.8-.2M157,151.69991v-.8M156.89999,150.09992c0,.2.10001.5.2.7"/><path class="cls-2" d="M178.39999,280.09992v-.29999c-.3-.20001-.39999-.5-.5-.70001,0,.20001.2.5.3.70001,0,.10001,0,.20001.10001.29999.5.89999,1.2,1.70001,2.2,2.20001-.89999-.5-1.7-1.20001-2.2-2.20001h.09999ZM177,276.09992c0,.20001.10001.39999.2.60001.2.79999.39999,1.5.7,2.20001-.3-.70001-.5-1.5-.7-2.20001,0-.20001-.10001-.39999-.2-.60001h0ZM92.5,235.99992c-.8.3-1.5.60001-2.3.89999.8-.2,1.6-.5,2.3-.89999.4-.2.8-.3,1.2-.5h0c-.4.2-.8.3-1.2.5h0ZM126.4,263.99992l.7-1.70001c-10.8-6.39999-18.8-16.39999-22.7-28.3h0c3.9,11.89999,11.9,22,22.7,28.3l-.7,1.70001h0ZM102.7,234.19991h0Z"/><path class="cls-2" d="M83.8,233.79992c0,.2,0,.39999.2.60001,0-.2,0-.5-.2-.7h0v.09999ZM89,237.09992h.2-.2ZM84.3,235.39991c-.2-.3-.3-.60001-.4-.89999,0,.3.2.60001.4.89999ZM84.9,236.19991c0-.10001-.2-.2-.3-.3,0,.10001.2.2.3.3h0ZM85.7,236.69991s-.2-.2-.3-.2c0,0,.2.2.3.2Z"/><path class="cls-2" d="M84.7,235.79992c0-.10001-.2-.3-.3-.39999,0,.10001.2.3.3.39999ZM86.6,237.09992c-.3,0-.6-.2-.9-.39999.3.2.6.3.9.39999ZM85.4,236.49992c-.2,0-.3-.2-.4-.3,0,.10001.3.2.4.3Z"/><path class="cls-1" d="M155.60001,148.19991l.3.3M83.7,232.99992v.60001"/><path class="cls-2" d="M127.8,280.19993h0v-.20001.20001h0ZM126.8,266.19993c0-.79999,0-1.5-.3-2.20001h0c.3.70001.5,1.39999.3,2.20001-1,2.20001-2.2,4.39999-3.6,6.39999h0c1.4-2,2.6-4.20001,3.6-6.39999h0ZM153.5,147.29992h0Z"/><path class="cls-1" d="M154.3,147.49992c.10001,0,.2,0,.3.10001"/><path class="cls-2" d="M122.5,273.59992c0-.20001.3-.39999.4-.60001-.2.20001-.3.39999-.4.60001-.5.70001-1,1.39999-1.4,2.10001,0,.10001,0,.29999-.2.39999,0-.10001,0-.29999.2-.39999.4-.70001.9-1.39999,1.4-2.10001Z"/><path class="cls-1" d="M197.5,193.09992c-.60001-1.10001-1.2-2.10001-1.89999-3.10001M149.60001,149.39991c0-.10001.10001-.2.2-.3"/><path class="cls-2" d="M203.39999,173.09992h.2-.2ZM149.10001,150.89991h0ZM215.39999,228.79992c.8,0,1.7,0,2.5.2h0c-.8-.10001-1.7-.2-2.5-.2h-1.3,1.3ZM205.5,225.99992v-.2h-.10001v.2h.10001ZM219.7,229.39991h0c-.2,0-.5-.10001-.7-.2h-.10001.10001c.3,0,.5,0,.7.2Z"/><path class="cls-1" d="M149.3,150.09992c0-.10001,0-.2.10001-.3"/><path class="cls-2" d="M205.3,225.79992l-1.60001-.5,1.60001.5ZM195.8,189.79992c.2-.2.39999-.3.60001-.5.2-.2.39999-.3.5-.39999-.10001.10001-.3.3-.5.39999-.2.2-.39999.39999-.60001.5h0ZM198,186.19991c1.7-1.39999,3.60001-2.7,5.5-3.8.39999-.2.7-.39999,1.10001-.60001-.39999.2-.7.39999-1.10001.60001-1.89999,1.10001-3.8,2.39999-5.5,3.8h0Z"/><path class="cls-1" d="M150,148.69991c0-.10001.2-.2.3-.3"/><path class="cls-2" d="M205.5,233.39991h.2c2.10001.39999,4.2,1,6.2,1.8-2-.8-4.10001-1.39999-6.2-1.8h-.2ZM179.2,262.39991h0c10.8-6.39999,18.89999-16.60001,22.7-28.5h0c-3.8,12-11.89999,22.10001-22.7,28.5ZM157.3,165.59992l-.2-.2.2.2h0ZM157.39999,165.69991v1.5-1.5h0Z"/><path class="cls-1" d="M120.1,46.39992c.4,0,.9-.2,1.3-.2h1.5c.9,0,1.7,0,2.5.2s1.5.3,2.1.5l1.10001-5.4c-.2,0-.39999-.2-.60001-.2s-.4,0-.6-.2c-.5,0-1-.2-1.5-.3-.5,0-1,0-1.5-.2h-1.3c-1.8,0-3.6.2-5.3.5-1.4.3-2.8.7-4.1,1.2v21.8h6.5v-17.6h0l-.1-.1Z"/><path class="cls-1" d="M157.5,37.19992c.8-.7,1.2-1.8,1.2-2.8s-.39999-2.1-1.2-2.8c-1.60001-1.4-3.89999-1.4-5.5,0-.8.7-1.2,1.8-1.2,2.8s.39999,2.1,1.2,2.8c1.60001,1.4,3.89999,1.4,5.5,0Z"/><rect class="cls-1" x="151.5" y="40.99992" width="6.5" height="23.1"/><path class="cls-1" d="M133.7,61.79991c.8.9,1.7,1.6,2.8,2,1.39999.5,2.89999.8,4.39999.7,1.2,0,2.39999,0,3.60001-.4.89999-.2,1.8-.5,2.60001-.8l-.89999-5.1c-.7.2-1.3.4-2,.5s-1.39999.2-2.2.2-1.7-.2-2.5-.7c-.2-.2-.3-.3-.5-.5-.5-1-.8-2.1-.7-3.3v-8.1h7.8v-5.4h-7.8v-6.8l-6.5,1.1h0v19.4c0,1.4.10001,2.7.39999,4.1.2,1.1.7,2.2,1.5,3.1h-.00002Z"/><path class="cls-1" d="M86.9,53.89992v1.2c0,.3,0,.6.2.8v.3c0,.4.2.8.3,1.2.5,1.4,1.2,2.7,2.2,3.8,1.1,1.1,2.4,2,3.8,2.5,1.7.6,3.6,1,5.4.9h2.5c.8,0,1.6-.2,2.3-.3.7,0,1.3-.3,1.9-.5.5,0,1-.3,1.4-.5l-.9-5.3c-.9.4-1.9.6-2.8.8-.6,0-1.2.2-1.8.2h-1.7c-1.6,0-3.1-.3-4.5-1.2-1.1-.7-1.8-1.9-1.9-3.2h14.8v-2.4c0-3.9-.9-6.8-2.8-8.8-2-2.1-4.9-3.2-7.8-3-1.4,0-2.8.3-4.1.8-1.3.5-2.5,1.3-3.5,2.3s-1.9,2.4-2.5,3.8c-.7,1.7-1,3.5-.9,5.4h0v1.2s.4,0,.4,0ZM94,48.59991h0c.2-.5.5-1,.8-1.4.4-.4.8-.8,1.3-1,.6-.3,1.2-.4,1.9-.4s1.3,0,1.9.4c.5.2.9.6,1.3,1,.3.4.6.9.7,1.4.2.5.3,1.1.3,1.6h-8.6c0-.6.2-1.1.4-1.6h-.00002Z"/><path class="cls-1" d="M68.8,61.19992h0c1,1.1,2.3,2,3.7,2.6,1.7.7,3.6,1,5.4.9,1.3,0,2.5,0,3.8-.3,1-.2,1.9-.5,2.8-.8l-.8-4.4-.2-.9c-.8.3-1.6.6-2.5.7-.8,0-1.7.2-2.5.2-2.2,0-3.8-.6-4.7-1.7-1-1.4-1.4-3.1-1.3-4.8,0-1.7.4-3.4,1.4-4.7,1.1-1.3,2.7-1.9,4.3-1.8.8,0,1.6,0,2.5.3.7.2,1.4.4,2,.6l1.4-5.2h0c-1-.4-2-.7-3-.9-1.1-.2-2.2-.3-3.4-.3-1.7,0-3.4.3-5,1-2.8,1.2-5,3.6-6.1,6.5-.5,1.5-.8,3.1-.8,4.7s.2,3.2.7,4.8c.4,1.4,1.2,2.7,2.1,3.8l.2-.3h0Z"/><path class="cls-1" d="M164.2,64.09991h6.5v-17.6h8.10001v-5.4h-8.10001v-1.1c0-.6,0-1.2.2-1.7.10001-.5.3-1,.7-1.4.3-.4.8-.7,1.3-.9.60001-.2,1.3-.3,2-.3h1.7c.5,0,1.10001.2,1.60001.4l1.10001-5.1c-.7-.3-1.3-.5-2-.7-1-.2-2-.3-3-.3-3.3,0-5.8.9-7.5,2.6-1.7,1.9-2.7,4.5-2.5,7.1v24.3h-.10001v.1Z"/><path class="cls-1" d="M221.89999,61.39992c1.10001,1.1,2.39999,1.9,3.8,2.4,1.60001.6,3.39999.9,5.10001.8h2.5c.89999,0,1.7-.2,2.5-.3.8,0,1.60001-.3,2.39999-.4.8-.2,1.39999-.3,2-.5V29.99992h0l-6.5,1.1v10.4c-.7-.3-1.39999-.6-2.2-.7-.8-.2-1.60001-.3-2.39999-.3-1.5,0-3,.3-4.39999.8-1.2.5-2.39999,1.4-3.2,2.4-.89999,1.1-1.60001,2.4-2,3.8h0c-.5,1.6-.7,3.4-.7,5.1s.3,3.4.8,5c.5,1.4,1.3,2.7,2.3,3.8h-.00003ZM227.60001,46.69992c.39999-.2.8-.4,1.3-.5h1.10001c.7,0,1.3,0,2,.3.60001,0,1.10001.4,1.60001.7v11.9c-.3,0-.7,0-1.2.2h-1.60001c-1.60001,0-3.10001-.6-4-1.8-1-1.4-1.39999-3.1-1.39999-4.9,0-2.9.8-4.8,2.3-5.7h0v-.2h-.10002Z"/><path class="cls-1" d="M193.39999,52.69992c0,1.6.2,3.2.7,4.7.5,1.4,1.2,2.7,2.2,3.8h0c1.10001,1.1,2.39999,2,3.8,2.5,1.7.6,3.60001,1,5.39999.9h2.5c.8,0,1.60001-.2,2.3-.3.7,0,1.3-.3,1.89999-.5.5,0,1-.3,1.39999-.5h0l-.89999-5.3c-.60001.2-1.2.4-1.89999.6-.3,0-.60001.2-1,.2h-.5c-1,.2-2,.3-3.10001.3-1.60001,0-3.10001-.3-4.5-1.2-1.10001-.7-1.8-1.9-1.89999-3.2h14.8v-2.4h0c0-3.9-.89999-6.8-2.89999-8.8-2-2.1-4.89999-3.2-7.8-3-1.39999,0-2.8.3-4.10001.8s-2.5,1.3-3.5,2.3h0c-.10001,0-.2.2-.3.4-.2.2-.3.3-.39999.5h0c-.7.9-1.3,1.9-1.7,3h0c-.7,1.7-1,3.5-.89999,5.4h.39999s0-.2,0-.19999ZM200.60001,48.59991c.2-.5.5-1,.8-1.4.39999-.4.8-.8,1.3-1,.60001-.3,1.2-.4,1.89999-.4s1.3,0,1.89999.4c.5.2.89999.6,1.3,1,.3.4.60001.9.7,1.4h0c.2.5.3,1.1.3,1.6h-8.60001c0-.6.2-1.1.39999-1.6h.00002Z"/><path class="cls-1" d="M185.8,38.19992h0c1,0,2-.4,2.7-1,.8-.7,1.2-1.8,1.2-2.8s-.39999-2.1-1.2-2.8c-1.60001-1.4-3.89999-1.4-5.5,0-.8.7-1.2,1.8-1.2,2.8s.39999,2.1,1.2,2.8,1.7,1,2.7,1h.10001Z"/><rect class="cls-1" x="182.5" y="40.99992" width="6.5" height="23.1"/><path class="cls-1" d="M224.3,155.89991h0l-65.8-31.4,65.8,31.4h0Z"/><path class="cls-1" d="M83.7,233.79992h0c0,.2,0,.39999.2.60001h0c0,.3.2.60001.4.89999,0,.10001.2.3.3.39999,0,.10001.2.2.3.3,0,.10001.3.2.4.3.3.3.8.5,1.2.60001h0c.2,0,.4,0,.5.10001h1c.2,0,.5,0,.7-.2h.2c.2,0,.5-.10001.7-.2h0c.8-.2,1.6-.5,2.3-.89999.4-.2.8-.3,1.2-.5h0c2.2-.89999,4.4-1.5,6.7-2h0c.7,0,1.4.3,2,.7h.2l1.7-.3c3.9,11.89999,11.9,22,22.7,28.3l-.7,1.70001h0c.3.70001.5,1.39999.3,2.20001-1,2.20001-2.2,4.39999-3.6,6.39999,0,.10001-.2.29999-.3.39999-.2.20001-.3.39999-.4.60001-.5.70001-1,1.39999-1.4,2.10001,0,.10001,0,.29999-.2.39999v.29999c0,.10001,0,.29999-.2.39999-1.1,2-.3,4.5,1.7,5.60001.5.20001,1,.39999,1.6.39999,1.7,0,3.2-1.10001,3.9-2.60001h0v-.29999h0c0-.29999.2-.5.3-.70001h0c.3-.79999.6-1.60001.8-2.39999,0-.10001,0-.29999.10001-.39999,0-.29999.2-.60001.2-.79999.3-.79999.60001-1.60001.8-2.29999.5-1.70001,1.2-3.29999,2.2-4.70001.5-.39999,1.10001-.70001,1.7-.79999h0l.89999-1.60001c11.7,4.5,24.60001,4.5,36.3,0v.20001c.2.20001.3.39999.39999.60001l.2.29999c0,.20001.2.29999.2.39999h.3c.7.10001,1.3.5,1.7,1.10001,1.10001,2.10001,2,4.29999,2.7,6.5h0c0,.29999.10001.5.2.70001,0,.20001.10001.39999.2.60001.2.79999.39999,1.5.7,2.20001v.20001h0c0,.20001.2.5.3.70001,0,.10001,0,.20001.10001.29999.5.89999,1.2,1.70001,2.2,2.20001,0,0,.2,0,.2.10001,1,.39999,2.10001.39999,3.10001,0,2-1.10001,2.8-3.60001,1.7-5.60001,0-.10001-.10001-.20001-.2-.29999-.10001-.29999-.2-.5-.39999-.70001-.39999-.70001-.89999-1.39999-1.39999-2.10001-.3-.29999-.5-.70001-.7-1-1.39999-2-2.5-4.10001-3.5-6.20001-.2-.70001-.10001-1.39999.2-2v-.20001h0c-.2-.29999-.3-.70001-.39999-1v-.20001c-.10001-.10001-.2-.20001-.2-.29999,10.8-6.39999,18.89999-16.60001,22.7-28.5.5,0,1.10001.2,1.60001.3h0s.2-.10001.2-.2c.5-.39999,1.10001-.60001,1.7-.7h.2c2.10001.39999,4.2,1,6.2,1.8.2,0,.3.10001.5.2h.10001c.39999.2.8.39999,1.2.5.8.39999,1.5.60001,2.39999.89999h0c.2,0,.39999,0,.60001.10001h.39999c.2,0,.5.10001.7.2h1.60001c.10001,0,.2,0,.3-.10001.10001,0,.3,0,.39999-.2.10001,0,.2-.10001.3-.2.10001,0,.2-.10001.3-.2.10001,0,.2-.2.3-.3,0,0,.2-.2.3-.2,0,0,.10001-.2.2-.3,0-.10001.2-.2.2-.3,0,0,0-.2.10001-.3,0-.10001.10001-.3.2-.5h0v-.7h0v-1.5c0-.10001,0-.2-.10001-.3,0-.10001,0-.3-.10001-.39999,0-.10001-.10001-.2-.2-.3,0-.10001-.10001-.2-.2-.3,0-.10001-.2-.2-.3-.3,0,0-.2-.2-.2-.3,0,0-.2-.10001-.3-.2-.10001,0-.2-.2-.3-.2,0,0-.2,0-.3-.10001-.10001,0-.3-.10001-.5-.2h0c-.2,0-.5-.10001-.7-.2h-.39999c-.3,0-.5-.10001-.7-.2h0c-.8-.10001-1.7-.2-2.5-.2h-1.3c-2.39999-.2-4.7-.5-7-1.10001-.7-.39999-1.2-.89999-1.60001-1.5v-.2h-.10001l-1.60001-.5c.3-2.3.5-4.60001.5-7h0c0-4.5-.60001-8.89999-1.8-13.2-.39999-1.39999-.8-2.8-1.3-4.2-.2-.5-.39999-1-.60001-1.39999-.89999-2.2-1.89999-4.3-3-6.3-.60001-1.10001-1.2-2.10001-1.89999-3.10001l.2-.2c.2-.2.39999-.3.60001-.5.2-.2.39999-.3.5-.39999h.10001v-1.39999h0c.10001-.39999.3-.60001.5-.89999.10001,0,.2-.2.3-.3,1.7-1.39999,3.60001-2.7,5.5-3.8.39999-.2.7-.39999,1.10001-.60001h0c.7-.39999,1.5-.8,2.10001-1.3.2-.10001.39999-.3.60001-.5l.3-.2h0c.2-.2.39999-.3.60001-.5h0s0-.10001.10001-.2c.10001-.10001.2-.3.39999-.39999,0,0,.10001-.2.2-.3,0-.10001.10001-.2.2-.39999,0-.10001,0-.3.10001-.39999,0-.10001,0-.2.10001-.39999v-1.2c0-.3,0-.5-.10001-.8,0-.10001,0-.2-.10001-.3,0-.2-.2-.3-.3-.5,0,0,0-.10001-.10001-.2h0c0-.10001-.2-.2-.2-.3s-.2-.2-.3-.3h0s-.10001,0-.2-.10001l-.39999-.39999s-.2-.10001-.3-.2c-.10001,0-.2-.10001-.39999-.2-.10001,0-.3,0-.39999-.10001-.10001,0-.2,0-.39999-.10001h-1.60001c-.10001,0-.3,0-.39999.10001h-.3c-.2,0-.3.2-.5.3h-.2c-.2.2-.39999.3-.60001.5h0l-.2.2-.2.2c-.2.10001-.3.2-.39999.3l-1.8,1.8c-.3.3-.5.60001-.8.89999h-.10001c-1.5,1.7-3.10001,3.2-4.8,4.5-.10001,0-.2.2-.3.3-.7.3-1.39999.39999-2.2.3h-.2l-1.5,1.10001c-4.3-4.5-9.3-8.10001-14.8-10.8-5.60001-2.7-11.60001-4.39999-17.8-5h0v-1.60001h0c0-.10001-.2-.3-.2-.3-.60001-.39999-1-1-1.10001-1.7,0-2.3,0-4.60001.39999-6.89999v-.2c0-.39999.2-.89999.2-1.2.2-.8.3-1.7.3-2.5v-1.2h0v-.8h0c0-.3,0-.5-.2-.7,0-.10001,0-.2-.10001-.3,0-.10001-.10001-.3-.2-.39999,0-.10001-.10001-.2-.2-.3,0,0-.10001-.2-.2-.3l-.3-.3-.3-.3s-.2-.10001-.3-.2c-.10001,0-.2-.2-.3-.2s-.3-.10001-.39999-.2c-.10001,0-.2,0-.3-.10001-.2,0-.5-.10001-.8-.2h-.8c-.3,0-.5,0-.8.2-.10001,0-.2,0-.3.10001-.10001,0-.3.10001-.39999.2-.10001,0-.2.10001-.3.2-.10001,0-.2.10001-.3.2l-.3.3-.3.3s-.10001.2-.2.3c0,.10001-.2.2-.2.3s-.10001.3-.2.39999c0,.10001,0,.2-.10001.3,0,.2-.10001.5-.2.8h0v.8h0v1c0,.8.2,1.7.3,2.5,0,.39999.2.8.2,1.2h0c.39999,2.3.5,4.7.39999,7.10001-.2.8-.7,1.5-1.3,2h0v1.7c-2.39999.2-4.8.60001-7.10001,1.10001-9.8,2.2-18.8,7.3-25.7,14.7-.2-.10001-.5-.39999-.8-.5-.3-.2-.5-.39999-.6-.5h-.3c-.7.2-1.4,0-2-.3-1.9-1.39999-3.6-3-5.2-4.7h0c-.3-.39999-.6-.7-.8-1-.5-.60001-1.1-1.3-1.7-1.8-.2-.10001-.4-.3-.6-.5h-.2v-.2c-.8-.60001-1.8-1-2.8-1h0c-1.2,0-2.3.5-3,1.39999-.7.8-.9,1.89999-.7,3,.2,1.10001.8,2.10001,1.7,2.8h0s0,.10001.2.2h0c0,.10001.2.2.3.3,0,0,.2.10001.2.2.7.5,1.4.89999,2.1,1.3.4.2.7.39999,1.1.60001.5.3,1,.60001,1.5.89999.6.39999,1.3.8,1.9,1.3.7.5,1.3,1,1.9,1.5.2.10001.4.3.5.39999.4.60001.7,1.3.8,2.10001h0v.2h0l1.2,1.10001c-6.9,10.39999-9.8,23.10001-8,35.5h-.4c0,.10001-1.2.5-1.2.5h0l-.2.2c-.4.60001-.9,1.10001-1.5,1.5-2.3.60001-4.6,1-7,1.10001h-1.2c-.8,0-1.7,0-2.5.2h0c-.2,0-.5.10001-.7.2h-.3c-.2,0-.5,0-.7.2h0c-.2,0-.3.10001-.5.2,0,0-.2,0-.2.10001-.2,0-.3.2-.4.3h-.2c-.2.2-.3.39999-.4.60001h0c-.5.60001-.7,1.3-.8,2.10001h0v.8h1.1l-.09996-.00015ZM139.10001,232.49992c0,.39999,0,.7-.2,1h0l-7.8,19c-2.8-1.8-5.4-3.89999-7.7-6.39999-.8-.8-1.5-1.60001-2.2-2.5-2.1-2.60001-3.8-5.39999-5.2-8.39999-.5-1-.9-2-1.3-3.10001l20.3-3.39999h.60001c.39999,0,.7,0,1,.2h.3c.2,0,.39999.2.5.3h0c.2.10001.3.3.5.39999,0,0,.2.2.2.3l.2.2s0,.2.10001.3c0,.10001.10001.2.2.3,0,.2.10001.39999.2.60001h0v1h0l.3.2h0l-.00002-.00002ZM162.2,258.09992h0c-7.39999,1.60001-15,1.20001-22.2-1.10001l3.5-6.39999,6.39999-11.60001h0c0-.10001.2-.3.3-.39999.60001-.89999,1.60001-1.39999,2.60001-1.39999h.10001c1.3,0,2.39999.7,3,1.8h0l10,17.99998c-1.3.39999-2.60001.79999-4,1.10001h.3-.00002ZM191.39999,232.39991c-.2.39999-.3.89999-.5,1.3,0,.2-.2.39999-.2.60001-.10001.3-.3.7-.39999,1,0,.2-.2.39999-.3.60001-.10001.3-.3.60001-.39999.89999-.10001.2-.2.39999-.3.60001-.10001.3-.3.60001-.5.8-.10001.2-.2.39999-.3.60001-.2.3-.3.60001-.5.8-.10001.2-.3.39999-.39999.60001-.2.3-.3.5-.5.8-.10001.2-.3.39999-.39999.60001-.2.3-.39999.5-.60001.8-.10001.2-.3.39999-.39999.60001-.2.2-.39999.5-.60001.7-.2.2-.39999.39999-.60001.7-2.7,3.2-5.8,6-9.39999,8.3l-7.89999-19.2h0c0-.2-.10001-.39999-.2-.5v-1.5c.3-1.60001,1.7-2.7,3.2-2.8h.7l20.39999,3.5v.2h0l.09999-.00005ZM191.39999,204.49992c.39999,1.2.8,2.39999,1.10001,3.60001.3,1.2.60001,2.39999.8,3.60001.39999,2.5.60001,5,.60001,7.39999v1.7c0,.60001,0,1.10001-.10001,1.7l-19.89999-5.7h0c-.39999-.10001-.89999-.3-1.2-.60001h0c-.2-.10001-.3-.3-.5-.39999h0c-.10001-.2-.2-.3-.3-.5h0c0-.2-.2-.3-.2-.5h0c0-.3,0-.39999-.10001-.60001v-1.8s0-.2.10001-.2c0,0,0-.2.10001-.2l.2-.2s0-.10001.10001-.2c.10001-.10001.2-.3.39999-.39999h0l15.3-13.8c1.5,2.39999,2.7,4.89999,3.60001,7.5h0v-.39999h0l-.00003-.00002ZM158.10001,177.89991c4.10001.5,8.10001,1.7,11.89999,3.39999.2.10001.5.2.7.3.10001,0,.2.10001.3.2.39999.2.8.39999,1.2.60001.10001,0,.3.2.39999.2.3.2.7.39999,1,.60001.2,0,.3.2.5.3.3.2.60001.39999.89999.60001.2.10001.39999.3.60001.39999.3.2.5.3.8.5.2.2.5.39999.7.5s.39999.3.60001.39999c.3.2.60001.5,1,.8.10001,0,.2.2.3.3.89999.7,1.7,1.39999,2.5,2.2l-15.8,11.2-1,.7h0c-.2.10001-.3.2-.5.3h-.2c-.10001,0-.3.10001-.39999.10001h-.2c-.60001.10001-1.2.10001-1.8-.10001h0c-.2,0-.3-.10001-.39999-.2h-.2c-.60001-.3-1-.8-1.3-1.39999v-.2c0-.10001-.10001-.3-.10001-.39999v-.8h0l-1.2-20.60001h-.3v.09999ZM149.89999,211.79992h6.3l3.89999,4.89999-1.39999,6.10001-5.7,2.7-5.7-2.7h0l-1.39999-6.10001,3.89999-4.89999h.09999ZM144,178.59992c1.39999-.3,2.8-.5,4.2-.7l-1.2,20.60001h0v.8c0,.10001,0,.3-.10001.39999v.2c-.2.39999-.39999.7-.8,1,0,0-.2.10001-.2.2,0,0-.2.10001-.3.2,0,0-.2,0-.3.10001-.10001,0-.2.10001-.3.10001h-2.10001c-.10001,0-.3,0-.39999-.10001h-.2c-.2,0-.39999-.2-.5-.3h0l-16.9-12c5.4-5.3,12.1-8.89999,19.50001-10.60001h-.39999v.10001ZM118.3,196.99992l15.39999,13.8h0c.2.10001.3.3.39999.5,0,0,0,.10001.10001.2,0,.10001.2.2.2.39999v.2c.2.5.3,1,.3,1.60001v1c0,.10001-.10001.2-.2.39999,0,0,0,.2-.10001.2-.2.39999-.5.7-.8,1,0,0-.10001,0-.2.10001-.10001,0-.2.2-.39999.2h-.2c-.2,0-.39999.2-.60001.2h0l-19.8,5.8c-1-8.89999,1-17.89999,5.7-25.60001h.2l.00002.00002Z"/><path class="cls-3" d="M296.39999,80.69991v-25.8c0-25.1-20.39999-45.5-45.60001-45.6H55.3c-25.1,0-45.5,20.4-45.6,45.6v341.70001h286.70002V80.69991h-.00003ZM218.89999,50.09991c.10001-.8.3-1.7.5-2.5h0c.39999-1.4,1.10001-2.7,2-3.8.89999-1,2-1.9,3.2-2.4,1.39999-.6,2.89999-.9,4.39999-.8.8,0,1.60001,0,2.39999.3.7.2,1.5.4,2.2.7v-10.4l6.5-1.1h0v33.3c-.60001.2-1.3.3-2,.5-.8.2-1.60001.3-2.39999.4-.8,0-1.7.2-2.5.3h-2.5c-1.7,0-3.5-.3-5.10001-.8-1.39999-.5-2.7-1.3-3.8-2.4-1-1.1-1.8-2.4-2.3-3.8-.5-1.6-.8-3.3-.8-5s0-1.7.2-2.6h0l.00003.1ZM194.39999,47.29991c.39999-1.1,1-2.1,1.7-3h0c.10001-.2.3-.4.39999-.5.10001,0,.2-.2.3-.4h0c1-1,2.2-1.8,3.5-2.3s2.7-.8,4.10001-.8c2.89999,0,5.7.9,7.8,3,1.89999,2,2.89999,4.9,2.89999,8.8h0v2.5h-14.8c.10001,1.3.8,2.5,1.89999,3.2,1.3.9,2.89999,1.3,4.5,1.2,1,0,2.10001,0,3.10001-.3h.5c.3,0,.60001,0,1-.2.60001-.2,1.3-.3,1.89999-.6l.89999,5.3h0c-.5.2-.89999.4-1.39999.5-.60001.2-1.3.3-1.89999.5-.7,0-1.5.2-2.3.3h-2.5c-1.8,0-3.7-.3-5.39999-.9-1.39999-.6-2.7-1.4-3.8-2.5h0c-1-1.1-1.8-2.4-2.2-3.8-.5-1.5-.7-3.1-.7-4.7s.3-3.7.89999-5.4h-.39999v.1ZM182.5,32.09991c.2-.2.3-.4.5-.6,1.60001-1.4,3.89999-1.4,5.5,0,.8.7,1.2,1.8,1.2,2.8s-.39999,2.1-1.2,2.8-1.7,1-2.7,1h0c-1,0-2-.4-2.7-1-.8-.7-1.2-1.8-1.2-2.8s.2-1.6.60001-2.2h-.00002ZM189.10001,40.99992v23.1h-6.5v-23.1h6.5ZM166.7,32.69992c1.7-1.8,4.2-2.6,7.5-2.6s2,0,3,.3c.7.2,1.39999.4,2,.7l-1.10001,5.1c-.5-.2-1-.4-1.60001-.4h-1.7c-.5,0-1.39999,0-2,.3-.5.2-.89999.5-1.3.9-.3.4-.5.9-.7,1.4-.10001.6-.2,1.1-.2,1.7v1.1h8.10001v5.4h-8.10001v17.6h-6.5v-24.3c-.10001-2.6.8-5.2,2.5-7.1h.10001v-.10001ZM151.10001,32.79991c.2-.5.5-.9.89999-1.3,1.60001-1.4,3.89999-1.4,5.5,0,.8.7,1.2,1.8,1.2,2.8s-.39999,2.1-1.2,2.8c-1.60001,1.4-3.89999,1.4-5.5,0s-1.2-1.8-1.2-2.8,0-1.1.3-1.5h0ZM158,40.99992v23.1h-6.5v-23.1h6.5ZM131.8,35.29991h0l6.5-1.1v6.8h7.8v5.4h-7.8v8.1c0,1.1.2,2.3.7,3.3.10001.2.3.4.5.5.7.5,1.60001.8,2.5.7.7,0,1.5,0,2.2-.2.7,0,1.39999-.3,2-.5l.89999,5.1c-.89999.3-1.7.6-2.60001.8-1.2.3-2.39999.4-3.60001.4s-3-.2-4.39999-.7c-1.10001-.4-2.10001-1.1-2.8-2s-1.2-2-1.5-3.1c-.3-1.3-.39999-2.7-.39999-4.1v-19.4h.00002ZM113.5,64.09991v-21.8c1.4-.5,2.7-.8,4.1-1.2,1.7-.4,3.5-.6,5.3-.5h1.3c.5,0,1,0,1.5.2.5,0,1,.2,1.5.3.2,0,.4,0,.6.2.2,0,.39999,0,.60001.2l-1.1,5.4c-.6,0-1.3-.3-2.1-.5-.8-.2-1.7-.2-2.5-.2h-1.5c-.4,0-.9,0-1.3.2v17.6h-6.5l.09999.1ZM86.8,52.69992h0c0-1.8.3-3.7.9-5.4.6-1.4,1.4-2.7,2.5-3.8s2.2-1.8,3.5-2.3,2.7-.8,4.1-.8c2.9,0,5.7.9,7.8,3,1.9,2,2.8,4.9,2.8,8.8s0,.8,0,1.2v1.2h-14.8c0,1.3.8,2.5,1.9,3.2,1.3.9,2.9,1.3,4.5,1.2h1.7c.6,0,1.2,0,1.8-.2,1-.2,1.9-.4,2.8-.8l.9,5.3c-.5.2-.9.4-1.4.5-.6.2-1.3.3-1.9.5-.7,0-1.5.2-2.3.3h-2.5c-1.8,0-3.7-.3-5.4-.9-1.4-.6-2.7-1.4-3.8-2.5-1-1.1-1.8-2.4-2.2-3.8,0-.4-.2-.8-.3-1.2v-.3c0-.3,0-.6-.2-.8v-2.4s-.4,0-.4,0ZM66.8,47.79991c1-2.9,3.2-5.3,6.1-6.5,1.6-.7,3.3-1,5-1s2.3,0,3.4.3c1,.2,2,.5,3,.9h0l-1.4,5.2c-.7-.2-1.3-.5-2-.6-.8-.2-1.6-.3-2.5-.3-1.6,0-3.2.5-4.3,1.8-1,1.4-1.5,3-1.4,4.7,0,1.7.4,3.4,1.3,4.8.9,1.1,2.4,1.7,4.7,1.7s1.7,0,2.5-.2c.9,0,1.7-.4,2.5-.7l.2.9.8,4.4c-.9.4-1.9.6-2.8.8-1.2.2-2.5.4-3.8.3-1.9,0-3.7-.3-5.4-.9-1.4-.6-2.7-1.4-3.7-2.6h0c-1-1.1-1.7-2.4-2.1-3.8-.5-1.6-.7-3.2-.7-4.8s.3-3.2.8-4.7l-.2.3h0ZM287.89999,389.09992H17.1V84.49992h270.79999v304.60001h0Z"/><path class="cls-3" d="M230.8,59.09991h1.60001c.5,0,.89999,0,1.2-.2v-11.9c-.5-.3-1-.5-1.60001-.7-.7-.2-1.3-.3-2-.3h-1.10001c-.5,0-.89999.3-1.3.5-1.5.9-2.3,2.8-2.3,5.7s.39999,3.4,1.39999,4.9c1,1.2,2.5,1.9,4,1.8v.2h.10002Z"/><path class="cls-3" d="M208.5,48.59991h0c-.2-.5-.39999-1-.7-1.4s-.8-.8-1.3-1c-.60001-.3-1.2-.4-1.89999-.4s-1.3,0-1.89999.4c-.5.2-1,.6-1.3,1-.39999.4-.60001.9-.8,1.4s-.3,1.1-.39999,1.6h8.60001c0-.6-.10001-1.1-.3-1.6h-.00002Z"/><path class="cls-3" d="M101.9,48.59991c-.2-.5-.4-1-.7-1.4-.4-.4-.8-.8-1.3-1-.6-.3-1.2-.4-1.9-.4s-1.3,0-1.9.4c-.5.2-1,.6-1.3,1-.4.4-.6.9-.8,1.4h0c-.2.5-.3,1.1-.4,1.6h8.6c0-.6,0-1.1-.3-1.6h.00002Z"/><path class="cls-3" d="M141.39999,201.09992h0c.2.10001.3.2.5.3h.2c.10001,0,.3.10001.39999.10001h.2c.39999,0,.8.10001,1.3,0h.60001c.10001,0,.2,0,.3-.10001,0,0,.2,0,.3-.10001.10001,0,.2-.10001.3-.2,0,0,.2-.10001.2-.2.3-.3.60001-.60001.8-1v-.2c0-.10001.10001-.3.10001-.39999v-.8h0l1.2-20.60001c-1.39999.2-2.8.39999-4.2.7-7.39999,1.7-14.10001,5.3-19.5,10.60001l16.89999,12h.39999v-.10001Z"/><path class="cls-3" d="M156.10001,238.89991h0c-.60001-1.10001-1.8-1.8-3-1.8h-.10001c-1.10001,0-2,.60001-2.60001,1.39999,0,.10001-.2.2-.3.39999h0l-6.39999,11.60001-3.5,6.40001c7.10001,2.39999,14.8,2.79999,22.2,1.10001h0c1.3-.29999,2.7-.70001,4-1.10001l-10-18h-.3.00002Z"/><path class="cls-3" d="M132.3,216.79992h0c.2,0,.39999-.10001.60001-.2h.2c.10001,0,.2-.10001.39999-.2,0,0,.10001,0,.2-.10001.3-.3.60001-.60001.8-1,0,0,0-.2.10001-.2,0-.10001.10001-.2.2-.39999v-1c0-.5,0-1.10001-.3-1.60001v-.2c0-.10001-.10001-.3-.2-.39999,0,0,0-.10001-.10001-.2-.10001-.2-.3-.3-.39999-.5h0l-15.4-13.8c-4.7,7.7-6.7,16.60001-5.7,25.60001l19.8-5.7h-.2v-.10002Z"/><path class="cls-3" d="M171,228.69991h-.7c-1.60001,0-2.89999,1.2-3.2,2.8v1.5c0,.2.10001.39999.2.5h0l7.89999,19.2c3.5-2.3,6.7-5,9.39999-8.3.2-.2.39999-.39999.60001-.7.2-.2.39999-.5.60001-.7.10001-.2.3-.39999.39999-.60001.2-.3.39999-.5.60001-.8.10001-.2.3-.39999.39999-.60001.2-.3.3-.5.5-.8.10001-.2.3-.39999.39999-.60001.2-.3.3-.60001.5-.8.10001-.2.2-.39999.3-.60001.2-.3.3-.60001.5-.8.10001-.2.2-.39999.3-.60001.10001-.3.3-.60001.39999-.89999,0-.2.2-.39999.3-.60001.10001-.3.3-.7.39999-1,0-.2.2-.39999.2-.60001.2-.39999.3-.89999.5-1.3v-.2l-20.39999-3.5h0l-.09999.00005Z"/><path class="cls-3" d="M139.10001,231.59992h0c0-.3-.10001-.5-.2-.7,0-.10001-.10001-.2-.2-.3,0,0,0-.2-.10001-.3l-.2-.2c0-.10001-.2-.2-.2-.3-.2-.2-.3-.3-.5-.39999h0c-.2-.10001-.3-.2-.5-.3h-.3c-.3-.10001-.7-.2-1-.2h-.60001l-20.3,3.39999c.4,1.10001.8,2.10001,1.3,3.10001,1.4,3,3.1,5.89999,5.2,8.39999.7.89999,1.4,1.7,2.2,2.5,2.3,2.39999,4.89999,4.60001,7.7,6.39999l7.8-19h0c.10001-.3.2-.7.2-1v-.89999h0l-.3-.2h.00002Z"/><path class="cls-3" d="M159.2,198.39991h0v.8c0,.10001,0,.3.10001.39999v.2c.3.60001.7,1.10001,1.3,1.39999h.2c.10001,0,.3.2.39999.2h0c.60001.2,1.2.2,1.8.10001h.2c.10001,0,.3,0,.39999-.10001h.2c.2,0,.39999-.2.5-.3h0l1-.7,15.8-11.2c-.8-.8-1.60001-1.5-2.5-2.2-.10001,0-.2-.2-.3-.3-.3-.3-.60001-.5-1-.8-.2-.10001-.39999-.3-.60001-.39999-.2-.2-.5-.39999-.7-.5-.3-.2-.5-.3-.8-.5-.2-.10001-.39999-.3-.60001-.39999-.3-.2-.60001-.39999-.89999-.60001-.2-.10001-.3-.2-.5-.3-.3-.2-.7-.39999-1-.60001-.10001,0-.3-.2-.39999-.2-.39999-.2-.8-.39999-1.2-.60001-.10001,0-.2-.10001-.3-.2-.2-.10001-.5-.2-.7-.3-3.8-1.7-7.8-2.89999-11.89999-3.39999h0l1.2,20.60001h.3v-.09999Z"/><polygon class="cls-3" points="147.39999 222.79992 147.39999 222.79992 153.10001 225.59992 158.7 222.79992 160.10001 216.69991 156.2 211.79992 149.89999 211.79992 146 216.69991 147.39999 222.79992"/><path class="cls-3" d="M172.39999,210.69991h0c-.10001.10001-.3.2-.39999.39999,0,0,0,.10001-.10001.2l-.2.2s0,.2-.10001.2c0,0,0,.2-.10001.2v1.8c0,.2,0,.3.10001.5h0c0,.3.10001.39999.2.60001h0c0,.2.2.3.3.5h0c.10001.2.3.3.5.39999h0c.39999.3.8.5,1.2.60001h0l19.89999,5.7c0-.60001,0-1.10001.10001-1.7v-1.7c0-2.5-.2-5-.60001-7.39999-.2-1.2-.5-2.39999-.8-3.60001-.3-1.2-.7-2.39999-1.10001-3.60001-.89999-2.60001-2.2-5.10001-3.60001-7.5l-15.3,13.7h0v.5h0l.00003.00002Z"/><path class="cls-3" d="M224.3,155.89991h0l-65.8-31.4,65.8,31.4h0Z"/><path class="cls-3" d="M230.8,163.29992c0,.10001.10001.3.10001.39999h0c0-.10001-.10001-.3-.10001-.39999Z"/><path class="cls-3" d="M61.3,245.49992l45.5,56.60001c2.4,3,6,4.70001,9.8,4.70001h73c3.8,0,7.39999-1.70001,9.8-4.70001l45.5-56.60001c.3-.3.5-.7.7-1-.2.3-.5.7-.7,1,.5-.7,1-1.39999,1.39999-2.2.10001-.3.3-.5.39999-.8.3-.8.60001-1.7.7-2.5,0-.3,0-.60001.10001-.89999v-1c0-1,0-2.10001-.3-3.10001l-16.2-70.60001c0-.2-.10001-.39999-.2-.60001h0c-.60001-2.2-1.8-4.10001-3.5-5.7-.2-.2-.5-.5-.8-.7-.10001,0-.2-.2-.3-.3-.2-.2-.39999-.3-.7-.5-.10001,0-.2-.10001-.3-.2-.3-.2-.60001-.39999-1-.5h0l-65.8-31.4c-3.5-1.6-7.5-1.6-10.89999,0l-65.8,31.4c-3.4,1.60001-5.9,4.8-6.8,8.5l-16.2,70.60001c-.8,3.3,0,6.7,1.7,9.60001.2.3.5.7.7,1h.2v-.10001ZM83.7,232.89991h0c0-.7.4-1.5.8-2.10001h0c0-.2.3-.3.4-.5h.2c.2-.2.3-.3.4-.39999,0,0,.2,0,.2-.10001.2,0,.3-.2.5-.2h0c.2,0,.5-.10001.7-.2h.3c.2,0,.5-.10001.7-.2h0c.8-.2,1.7-.2,2.5-.2h1.2c2.3-.2,4.7-.60001,7-1.2.6-.39999,1.1-.89999,1.5-1.5l.2-.2h0l1.2-.39999h.4c-1.8-12.5,1.1-25.2,8-35.60001l-1.2-1.10001h0c0-.89999-.3-1.60001-.8-2.2-.2-.2-.4-.3-.5-.39999-.6-.5-1.3-1-1.9-1.5-.6-.39999-1.2-.89999-1.9-1.3-.5-.3-1-.60001-1.5-.89999-.4-.2-.8-.39999-1.1-.60001-.7-.39999-1.5-.8-2.1-1.3,0,0,0-.10001-.2-.2l-.3-.3h0s0-.10001-.2-.2h0c-.9-.7-1.5-1.7-1.7-2.89999-.2-1.10001,0-2.2.7-3,.7-.89999,1.8-1.39999,3-1.39999h0c1,0,2,.39999,2.8,1h0l.2.2c.2.2.5.39999.6.5.6.60001,1.2,1.2,1.7,1.8.3.3.5.60001.8.89999h0c1.6,1.8,3.3,3.39999,5.2,4.8.6.39999,1.3.39999,2,.3h.3s.4.3.6.5c.3.2.6.39999.8.5,6.9-7.3,15.9-12.5,25.7-14.7,2.3-.5,4.7-.89999,7.10001-1.10001v-1.60001h0c.60001-.5,1-1.2,1.3-2,0-2.39999,0-4.7-.39999-7.10001h0c0-.39999-.10001-.89999-.2-1.2-.2-.8-.3-1.7-.3-2.5v-1h0v-.89999h0c0-.3,0-.5.2-.8,0-.10001,0-.2.10001-.3,0-.10001.10001-.3.2-.39999,0-.10001.10001-.2.2-.3,0,0,.10001-.2.2-.3,0-.10001.2-.2.3-.3l.3-.3s.2-.10001.3-.2c.10001,0,.2-.2.3-.2s.3-.10001.39999-.2c.10001,0,.2,0,.3-.10001.2,0,.5-.10001.8-.2h.8c.3,0,.5,0,.8.2.10001,0,.2,0,.3.10001.10001,0,.3.10001.39999.2.10001,0,.2.10001.3.2,0,0,.2.10001.3.2l.3.3.3.3s.10001.2.2.3c0,.10001.2.2.2.3s.10001.3.2.39999c0,.10001,0,.2.10001.3,0,.2.10001.5.2.7h0v.8h0v1.2c0,.8-.2,1.7-.3,2.5,0,.39999-.2.8-.2,1.2v.2c-.39999,2.3-.5,4.60001-.39999,6.89999.10001.7.5,1.3,1.10001,1.7l.2.2h0v1.60001h0c6.2.7,12.2,2.3,17.8,5.10001,5.5,2.7,10.60001,6.39999,14.8,10.8l1.5-1.10001h.2c.7.10001,1.5,0,2.2-.3.10001,0,.2-.2.3-.3,1.7-1.3,3.3-2.8,4.8-4.39999h.10001c.3-.39999.60001-.7.8-1,.5-.7,1.10001-1.3,1.8-1.8.10001-.10001.3-.2.39999-.3l.2-.2.2-.2h0c.2-.2.39999-.39999.60001-.5h0s.10001,0,.2-.10001c.2,0,.3-.2.5-.3h.3c.10001,0,.3,0,.39999-.10001h1.60001c.10001,0,.2,0,.39999.10001.10001,0,.3,0,.39999.10001.10001,0,.2.10001.39999.2.10001,0,.2.10001.3.2.2.10001.3.2.39999.39999,0,0,.10001,0,.2.10001h0c0,.10001.2.2.3.3,0,.10001.2.2.2.3h0s0,.10001.10001.2c0,.2.2.3.3.5,0,.10001,0,.2.10001.3,0,.3.10001.5.10001.8v1.2c0,.10001,0,.2-.10001.39999,0,.10001,0,.3-.10001.39999,0,.10001-.10001.2-.2.39999,0,.10001-.10001.2-.2.3-.10001.2-.2.3-.39999.39999,0,0,0,.10001-.10001.2h0c-.2.2-.39999.39999-.60001.5h0l-.3.2c-.2.2-.39999.3-.60001.5-.7.5-1.39999.89999-2.10001,1.3h0c-.3.2-.7.39999-1.10001.60001-1.89999,1.10001-3.8,2.39999-5.5,3.8-.10001,0-.2.2-.3.3-.2.2-.39999.5-.5.8h0v1.39999h-.10001c-.10001.2-.3.39999-.5.5-.2.2-.39999.39999-.60001.5l-.2.2c.7,1,1.3,2.10001,1.89999,3.10001,1.2,2,2.2,4.10001,3,6.3.2.5.39999,1,.60001,1.39999.5,1.39999,1,2.8,1.3,4.2,1.2,4.3,1.8,8.8,1.8,13.2h0c0,2.3-.2,4.7-.5,7l1.60001.5h0v.2c.5.60001,1,1.2,1.7,1.5,2.3.60001,4.60001,1,7,1.10001h1.3c.8,0,1.7,0,2.5.2h0c.2,0,.5.10001.7.2h.39999c.2,0,.5,0,.7.2h0c.2,0,.3.10001.5.2,0,0,.2,0,.3.10001.10001,0,.2.2.3.2,0,0,.2.10001.3.2,0,0,.2.2.2.3l.3.3s.10001.2.2.3c0,.10001.10001.2.2.3,0,.10001.10001.2.10001.39999s0,.2.10001.3v1.5h0v.7h0c0,.2-.10001.3-.2.5,0,0,0,.2-.10001.3,0,.10001-.2.2-.2.3,0,0-.10001.2-.2.3,0,0-.2.2-.3.2l-.3.3c-.10001,0-.2.10001-.3.2-.10001,0-.2.10001-.3.2-.10001,0-.3.10001-.39999.2-.10001,0-.2,0-.3.10001h-1.60001c-.2,0-.5,0-.7-.2h-.39999c-.2,0-.39999,0-.60001-.10001h0c-.8-.2-1.60001-.5-2.39999-.89999s-.8-.3-1.2-.5h-.10001c-.2-.10001-.3-.2-.5-.2-2-.8-4.10001-1.39999-6.2-1.8h-.2c-.60001,0-1.2.2-1.7.7,0,0-.2.10001-.2.2h0c-.5-.10001-1.10001-.2-1.60001-.3-3.8,12-11.89999,22.10001-22.7,28.5,0,0,0,.20001.10001.29999v.20001c.2.39999.3.70001.5,1h0v.20001c-.3.60001-.39999,1.29999-.2,2,1,2.20001,2.10001,4.29999,3.5,6.20001.2.39999.5.70001.7,1,.5.70001,1,1.39999,1.39999,2.10001.10001.20001.2.5.39999.70001,0,.10001.10001.20001.2.29999,1.10001,2,.3,4.5-1.7,5.60001-1,.5-2.10001.5-3.10001,0,0,0-.2,0-.2-.10001-.89999-.5-1.7-1.20001-2.2-2.20001,0,0,0-.20001-.10001-.29999-.10001-.29999-.3-.5-.3-.70001h0v-.20001c-.3-.70001-.5-1.5-.7-2.20001,0-.20001-.10001-.39999-.2-.60001,0-.20001-.10001-.39999-.2-.60001h0c-.7-2.29999-1.60001-4.5-2.7-6.60001-.39999-.60001-1-1-1.7-1.10001h-.3l-.2-.39999-.2-.29999-.3-.60001v-.20001c-11.8,4.39999-24.7,4.39999-36.40001,0l-.89999,1.60001h0c-.60001.10001-1.2.39999-1.7.79999-1,1.39999-1.7,3-2.2,4.70001-.3.79999-.5,1.60001-.8,2.29999,0,.29999-.2.60001-.2.79999s0,.29999-.10001.39999c-.2.79999-.5,1.60001-.8,2.39999h0c0,.20001-.2.39999-.3.70001h0c0,.10001,0,.20001-.10001.29999h0c-.7,1.5-2.2,2.5-3.9,2.60001-.5,0-1.1-.10001-1.6-.39999-2-1.10001-2.8-3.60001-1.7-5.60001,0-.10001,0-.20001.2-.39999v-.29999c0-.10001,0-.29999.2-.39999.4-.70001.9-1.39999,1.4-2.10001,0-.20001.3-.39999.4-.60001,0-.10001.2-.29999.3-.39999,1.4-2,2.6-4.20001,3.6-6.39999,0-.79999,0-1.5-.3-2.20001h0l.7-1.70001c-10.8-6.39999-18.8-16.39999-22.7-28.3l-1.7.3h-.2c-.6-.39999-1.3-.7-2-.7h0c-2.3.39999-4.6,1.10001-6.7,2h0c-.4.2-.8.3-1.2.5-.8.3-1.5.60001-2.3.89999h0c-.2,0-.5.10001-.7.2h-.2c-.2,0-.5.10001-.7.2h-1c-.2,0-.4,0-.5-.10001h0c-.4-.10001-.9-.3-1.2-.60001-.2,0-.3-.2-.4-.3s-.2-.2-.3-.3c0-.10001-.2-.3-.3-.39999-.2-.3-.3-.60001-.4-.89999h0c0-.2,0-.39999-.2-.60001h0v-.8h0l-1.1.2h.2v.00011Z"/><path class="cls-3" d="M225.2,156.39991c-.3-.2-.5-.3-.8-.39999h0c.3.10001.60001.3.8.39999Z"/><path class="cls-3" d="M9.4,437.99992c0,18.89999,15.3,34.29999,34.3,34.29999h218.09999c18.89999,0,34.29999-15.29999,34.29999-34.29999h0v-32.89999H9.4v32.89999Z"/><path class="cls-2" d="M106.75928,427.81046c1.00977-.41797,2.06396-.89648,3.16113-1.43652,1.09766-.54004,2.16895-1.13184,3.21387-1.77734,1.04541-.64355,2.04639-1.32324,3.00488-2.03711.95801-.71387,1.81982-1.47168,2.58691-2.27344h5.43457v36.21387h-7.78613v-26.07617c-1.04541.69727-2.21289,1.33203-3.50146,1.90723-1.28906.5752-2.54346,1.07129-3.76221,1.48926l-2.35156-6.00977Z"/><path class="cls-2" d="M141.07131,452.37199c0,1.56738-.49658,2.76074-1.48926,3.5791-.99316.81836-2.1167,1.22852-3.37061,1.22852-1.25439,0-2.37793-.41016-3.37061-1.22852-.99316-.81836-1.48926-2.01172-1.48926-3.5791,0-1.56836.49609-2.76074,1.48926-3.58008.99268-.81836,2.11621-1.22754,3.37061-1.22754,1.25391,0,2.37744.40918,3.37061,1.22754.99268.81934,1.48926,2.01172,1.48926,3.58008Z"/><path class="cls-2" d="M157.55176,457.2841c-.94141,0-1.93359-.06152-2.97852-.18359s-2.05664-.28711-3.03125-.49609-1.86328-.43555-2.66504-.67969c-.80176-.24316-1.42871-.46973-1.88086-.67871l1.51514-6.48047c.90576.38379,2.06396.79297,3.47607,1.22852,1.41016.43555,3.16016.65332,5.25.65332,2.4043,0,4.16406-.45215,5.2793-1.35938,1.11328-.90527,1.67188-2.12402,1.67188-3.65723,0-.94141-.20117-1.7334-.60156-2.37793s-.94922-1.16699-1.64648-1.56738-1.52344-.67969-2.48047-.83691c-.95898-.15625-1.97852-.23438-3.05859-.23438h-3.0293v-6.27148h3.44727c.76758,0,1.50781-.06934,2.22266-.20898.71289-.13867,1.34961-.37402,1.90625-.70508s1.00195-.78418,1.33203-1.3584c.33203-.5752.49805-1.29785.49805-2.16895,0-.66113-.14062-1.23633-.41797-1.72461-.2793-.4873-.63672-.88867-1.07227-1.20215s-.94141-.54883-1.51562-.70508c-.57422-.15723-1.1582-.23535-1.75-.23535-1.49805,0-2.88281.22656-4.1543.67969-1.27344.45312-2.42969,1.01074-3.47461,1.67188l-2.77051-5.69629c.55664-.34766,1.20996-.71289,1.95996-1.09668.74805-.38379,1.57617-.73242,2.48242-1.0459.9043-.31348,1.87109-.57422,2.90039-.7832,1.02734-.20898,2.11523-.31348,3.26562-.31348,2.125,0,3.96289.25195,5.51367.75684,1.54883.50391,2.83008,1.2168,3.83984,2.13867s1.75977,2.00098,2.24805,3.23535c.48633,1.23438.73047,2.58301.73047,4.04297,0,1.42676-.40039,2.80957-1.20117,4.14941-.80273,1.33887-1.88086,2.35645-3.24023,3.05176,1.88086.76758,3.33594,1.91113,4.36328,3.42773,1.02734,1.51758,1.54102,3.33984,1.54102,5.46777,0,1.6748-.2793,3.21777-.83594,4.62988-.55664,1.41309-1.42773,2.63477-2.61328,3.66309-1.18359,1.0293-2.68945,1.83105-4.51953,2.40723-1.82812.5752-3.99805.86328-6.50586.86328Z"/><path class="cls-2" d="M201.23828,429.79679c0,1.32422-.26172,2.5957-.78418,3.81445-.52246,1.21973-1.20215,2.39551-2.03809,3.52734-.83594,1.13281-1.77637,2.2207-2.82227,3.2666-1.04492,1.04492-2.07324,2.03809-3.08301,2.97852-.52246.48828-1.08887,1.03711-1.69824,1.64551-.61035.61035-1.19336,1.22852-1.75098,1.85547s-1.05371,1.21094-1.48926,1.75098-.70508.98438-.80957,1.33203h15.57227v6.53223h-24.14258c-.07031-.38281-.10449-.87012-.10449-1.46289v-1.25488c0-1.67188.26953-3.2041.81055-4.59863.53906-1.39258,1.24512-2.69043,2.11621-3.89258.87012-1.20215,1.85449-2.3252,2.95215-3.37109,1.09766-1.04492,2.18555-2.08984,3.2666-3.13477.83594-.80078,1.61914-1.55859,2.35156-2.27344.73145-.71387,1.375-1.41113,1.93262-2.08984.55762-.67969.99316-1.35938,1.30664-2.03809.31348-.67969.4707-1.36719.4707-2.06445,0-1.53223-.43652-2.61328-1.30664-3.24023-.87109-.62695-1.95117-.94043-3.24023-.94043-.94043,0-1.82031.14844-2.63867.44434-.81934.2959-1.56738.64453-2.24707,1.04492-.67969.40137-1.2627.80176-1.75098,1.20215s-.85352.72363-1.09668.9668l-3.86719-5.43457c1.53223-1.42871,3.31836-2.60449,5.35645-3.52734s4.22363-1.38477,6.55762-1.38477c2.125,0,3.9541.24414,5.4873.73145,1.53223.48828,2.7959,1.17578,3.78906,2.06348.99219.88867,1.72461,1.96875,2.19434,3.24023.4707,1.27246.70605,2.70898.70605,4.31152Z"/></svg>