<?xml version="1.0" encoding="UTF-8"?>
<svg id="Layer_1" xmlns="http://www.w3.org/2000/svg" version="1.1" viewBox="0 0 305.5 481.5">
  <!-- Generator: Adobe Illustrator 29.0.0, SVG Export Plug-In . SVG Version: 2.1.0 Build 186)  -->
  <defs>
    <style>
      .st0 {
        fill: none;
      }

      .st1 {
        fill: #fff;
      }

      .st2 {
        fill: #476bb3;
      }
    </style>
  </defs>
  <polygon class="st1" points="287.9 84.5 17.4 84.5 17.4 389.1 287.9 389.1 288.2 389.1 288.2 84.5 287.9 84.5"/>
  <path id="path3003" class="st2" d="M261.7,349c.9,0,1.8,0,2.6-.4.5-.2.8-.8.7-1.4,0-.6-.4-1.2-1-1.4-.9-.6-2-1-3-1.4s-2-.8-2.8-1.2c-.8-.4-1.5-.9-2.1-1.5s-1-1.3-1.4-2.1c-.4-.9-.5-1.9-.5-2.9,0-2,.9-4,2.5-5.2,1.7-1.3,3.9-1.9,6.7-1.9s2.8.1,4.1.4c1,.2,2.1.4,3.1.8l-1.2,5.2c-.9-.3-1.7-.5-2.5-.7-1-.2-2-.3-3-.3-2.1,0-3.1.6-3.1,1.7s0,.5.1.7.3.4.6.6.6.4,1,.6,1,.5,1.8.7c1.2.4,2.5,1,3.6,1.6.9.4,1.6,1,2.2,1.7.6.6.9,1.2,1.2,2,.2.9.4,1.7.4,2.6.1,2.1-.9,4.1-2.6,5.3-1.7,1.2-4.2,1.8-7.4,1.8s-3.5-.1-5.2-.6c-1-.2-1.9-.6-2.8-.9l1.1-5.4c1.1.4,2.3.8,3.4,1,1.2,0,2.4.2,3.6.2M227.9,342.2c0-1.8.3-3.7.9-5.4.6-1.5,1.4-2.8,2.5-3.9s2.2-1.8,3.6-2.3c1.4-.6,2.8-.8,4.2-.8,3.3,0,6,1,7.9,3.1,1.9,2,2.9,5,2.9,9s0,.8,0,1.3v1.2h-15c.1,1.3.8,2.5,1.9,3.3,1.4.9,2.9,1.3,4.5,1.2,1.2,0,2.4-.1,3.6-.3,1-.2,2-.5,2.9-.9l.9,5.4c-.4.2-.9.4-1.4.6-.7.2-1.4.4-2,.4-.7.1-1.5.2-2.3.4-.8,0-1.7.1-2.5.1-1.9,0-3.7-.2-5.5-.9-1.5-.6-2.8-1.4-3.9-2.5-1-1.1-1.8-2.5-2.3-3.9-.4-1.7-.7-3.3-.7-4.9M243.4,339.7c0-.6-.1-1.1-.3-1.7-.1-.6-.4-1-.7-1.4-.4-.4-.8-.8-1.3-1-.6-.3-1.2-.4-1.9-.4s-1.3.1-1.9.4c-.5.2-1,.6-1.4,1s-.7.9-.9,1.5-.3,1.1-.4,1.7h8.7M209.9,324.5l6.6-1v6.9h8v5.5h-8v8.2c0,1.2.2,2.3.7,3.3.5.8,1.5,1.2,3,1.2s1.5,0,2.1-.2c.7-.1,1.4-.3,2.1-.6l.9,5.2c-.9.4-1.8.6-2.7.9-1.2.2-2.4.4-3.6.4s-3.1-.2-4.5-.7c-1.1-.4-2.1-1.2-2.8-2-.7-.9-1.2-2-1.5-3.2-.3-1.4-.4-2.8-.4-4.1v-19.7M183.1,342.2c0-1.8.3-3.7.9-5.4.6-1.5,1.4-2.8,2.5-3.9s2.2-1.8,3.6-2.3c1.4-.6,2.8-.8,4.2-.8,3.3,0,6,1,7.9,3.1,1.9,2,2.9,5,2.9,9s0,.8,0,1.3v1.2h-15c.1,1.3.8,2.5,1.9,3.3,1.4.9,2.9,1.3,4.5,1.2,1.2,0,2.4-.1,3.6-.3,1-.2,2-.5,2.9-.9l.9,5.4c-.4.2-.9.4-1.4.6-.7.2-1.4.4-2,.4-.7.1-1.5.2-2.3.4-.8,0-1.7.1-2.5.1-1.9,0-3.7-.2-5.5-.9-1.5-.6-2.8-1.4-3.9-2.5-1-1.1-1.8-2.5-2.3-3.9-.5-1.7-.7-3.3-.7-4.9M198.6,339.7c0-.6-.1-1.1-.3-1.7-.1-.6-.4-1-.7-1.4-.4-.4-.8-.8-1.3-1-.6-.3-1.2-.4-1.9-.4s-1.3.1-1.9.4c-.5.2-.9.6-1.3,1-.4.4-.7.9-.9,1.5s-.3,1.1-.4,1.7h8.7M157.9,331.1c1.4-.4,2.9-.7,4.4-.9,1.8-.3,3.7-.4,5.6-.4s3.3.2,4.9.8c1.2.4,2.3,1.2,3.1,2.1.8,1,1.4,2.1,1.7,3.4.4,1.4.5,2.9.5,4.4v13.2h-6.6v-12.3c0-2.1-.3-3.6-.9-4.5-.6-.9-1.6-1.4-3.1-1.4h-1.5c-.6,0-1,0-1.4.1v18h-6.6v-22.5M153.2,336.2c-.6-.1-1.3-.3-2.1-.4-.9-.2-1.7-.2-2.6-.2s-1,0-1.5.1c-.4,0-.9.1-1.3.2v17.9h-6.6v-22.2c1.4-.5,2.8-.9,4.2-1.2,1.8-.4,3.6-.6,5.4-.6h1.3c.4,0,1,0,1.5.2.5,0,1,.1,1.5.2.4,0,.9.2,1.3.4l-1.1,5.5M112,342.2c0-1.8.3-3.7.9-5.4.6-1.5,1.4-2.8,2.5-3.9,1-1,2.2-1.8,3.6-2.3,1.4-.6,2.8-.8,4.2-.8,3.3,0,6,1,7.9,3.1,1.9,2,2.9,5,2.9,8.9s0,.8,0,1.3v1.2h-15c0,1.3.8,2.5,1.9,3.3,1.4.9,2.9,1.3,4.5,1.2,1.2,0,2.4-.1,3.6-.3,1-.2,2-.5,2.9-.9l.9,5.4c-.4.2-.9.4-1.4.6-.7.2-1.4.4-2,.4-.7.1-1.5.2-2.3.4-.8,0-1.7.1-2.5.1-1.9,0-3.7-.2-5.5-.9-1.5-.6-2.8-1.4-3.9-2.5-1-1.1-1.8-2.5-2.3-3.9-.4-1.7-.6-3.3-.6-4.9M127.6,339.7c0-.6,0-1.1-.3-1.7,0-.6-.4-1-.7-1.4-.4-.4-.8-.8-1.3-1-.6-.3-1.2-.4-1.9-.4s-1.3.1-1.9.4-1,.6-1.4,1-.7.9-.9,1.5c-.2.6-.3,1.1-.4,1.7h8.7M101.3,341.9c0-4.3-1.6-6.4-4.7-6.4s-1.4,0-2,.2c-.6.1-1.1.4-1.6.7v12c.3,0,.7.1,1.2.2s1,0,1.7,0c1.6.1,3.1-.6,4.1-1.8.9-1.5,1.4-3.2,1.4-5M108.1,342.1c0,1.7-.2,3.4-.9,5.1-.5,1.5-1.3,2.8-2.3,3.9-1.1,1.1-2.4,2-3.8,2.5-1.7.6-3.4.9-5.2.9s-1.7,0-2.5-.1c-.9,0-1.7-.2-2.6-.2-.8-.1-1.6-.2-2.4-.4-.8-.1-1.5-.3-2-.6v-32.8l6.6-1v11.7c.7-.3,1.5-.6,2.3-.7.9-.2,1.7-.2,2.6-.2,1.5,0,3,.2,4.4.9,1.2.6,2.3,1.4,3.2,2.5.9,1.2,1.6,2.5,2,3.9.4,1.5.6,3.3.6,5M80.1,352.9c-1.4.4-2.9.7-4.4.9-1.8.3-3.7.4-5.6.4s-3.4-.2-5-.8c-1.2-.5-2.3-1.2-3.1-2.2s-1.4-2.2-1.7-3.5c-.4-1.4-.5-2.9-.5-4.4v-13h6.6v12.2c0,2.1.3,3.7.9,4.6s1.6,1.4,3.1,1.4h1.5c.5,0,1,0,1.4-.2v-18h6.6v22.6M41.4,338.8c.7-.7,1.3-1.5,2-2.2.7-.8,1.4-1.5,2-2.3.7-.8,1.3-1.5,1.8-2.1s1.1-1.3,1.5-1.8h7.9c-1.6,1.8-3.1,3.6-4.6,5.2-1.5,1.7-3.1,3.4-4.9,5.1,1,.9,1.9,1.8,2.8,2.9.9,1.1,1.8,2.2,2.8,3.4.9,1.2,1.7,2.4,2.5,3.6.7,1.2,1.4,2.3,1.8,3.3h-7.6c-.5-.8-1-1.6-1.7-2.5s-1.3-1.8-1.9-2.8c-.7-.9-1.4-1.8-2.2-2.7-.7-.8-1.4-1.5-2.2-2.1v10.3h-6.6v-33.6l6.6-1v19.6"/>
  <path class="st1" d="M120.1,46.4c.4,0,.9-.2,1.3-.2h1.5c.9,0,1.7,0,2.5.2s1.5.3,2.1.5l1.1-5.4c-.2,0-.4-.2-.6-.2s-.4,0-.6-.2c-.5,0-1-.2-1.5-.3-.5,0-1,0-1.5-.2h-1.3c-1.8,0-3.6.2-5.3.5-1.4.3-2.8.7-4.1,1.2v21.8h6.5v-17.6h0s0,0,0,0ZM132.2,58.7c.2,1.1.7,2.2,1.5,3.1h0c.8.9,1.7,1.6,2.8,2,1.4.5,2.9.8,4.4.7,1.2,0,2.4,0,3.6-.3.9-.2,1.8-.5,2.6-.8l-.9-5.1c-.7.2-1.3.4-2,.5s-1.4.2-2.2.2-1.7-.2-2.5-.7c-.2-.2-.3-.3-.5-.5-.5-1-.8-2.1-.7-3.3v-8.1h7.8v-5.4h-7.8v-6.8l-6.5,1.1v19.4c0,1.4.1,2.7.4,4.1h0ZM219,55.8c.1.6.3,1.3.5,1.9.5,1.4,1.3,2.7,2.3,3.8,1.1,1.1,2.4,1.9,3.8,2.4,1.6.6,3.4.9,5.1.8h2.5c.9,0,1.7-.2,2.5-.3.8,0,1.6-.3,2.4-.4.8-.2,1.4-.3,2-.5V30l-6.5,1.1v10.4c-.7-.3-1.4-.6-2.2-.7-.8-.2-1.6-.3-2.4-.3-1.5,0-3,.3-4.4.8-1.2.5-2.4,1.4-3.2,2.4-.9,1.1-1.6,2.4-2,3.8-.5,1.6-.7,3.4-.7,5.1s0,2.1.3,3.1h0s0,0,0,0ZM227.6,46.7c.4-.2.8-.4,1.3-.5h1.1c.7,0,1.3,0,2,.3.6,0,1.1.4,1.6.7v11.9c-.3,0-.7,0-1.2.2h-1.6c-1.6,0-3.1-.6-4-1.8-1-1.4-1.4-3.1-1.4-4.9,0-2.9.8-4.8,2.3-5.7h0v-.2h-.1ZM182.5,41h6.5v23.1h-6.5v-23.1ZM66.7,57.3c.4,1.4,1.2,2.7,2.1,3.8,1,1.1,2.3,2,3.7,2.6,1.7.7,3.6,1,5.4.9,1.3,0,2.5,0,3.8-.4,1-.2,1.9-.5,2.8-.8l-.8-4.4-.2-.9c-.8.3-1.6.6-2.5.7-.8,0-1.7.2-2.5.2-2.2,0-3.8-.6-4.7-1.7-1-1.4-1.4-3.1-1.3-4.8,0-1.7.4-3.4,1.4-4.7,1.1-1.3,2.7-1.9,4.3-1.8.8,0,1.6,0,2.5.3.7.2,1.4.4,2,.6l1.4-5.2c-1-.4-2-.7-3-.9-1.1-.2-2.2-.3-3.4-.3-1.7,0-3.4.3-5,1-2.8,1.2-5,3.6-6.1,6.5h0c-.5,1.5-.8,3.1-.8,4.7s.2,3.2.7,4.8c0,0,.2-.2.2-.2ZM188.5,37.2c.8-.7,1.2-1.8,1.2-2.8s-.4-2.1-1.2-2.8c-1.6-1.4-3.9-1.4-5.5,0-.8.7-1.2,1.8-1.2,2.8s.4,2.1,1.2,2.8c1.6,1.4,3.9,1.4,5.5,0ZM157.5,37.2c.8-.7,1.2-1.8,1.2-2.8s-.4-2.1-1.2-2.8c-1.6-1.4-3.9-1.4-5.5,0-.8.7-1.2,1.8-1.2,2.8s.4,2.1,1.2,2.8c1.6,1.4,3.9,1.4,5.5,0ZM164.2,39.8v24.3h6.5v-17.6h8.1v-5.4h-8.1v-1.1c0-.6,0-1.2.2-1.7.1-.5.3-1,.7-1.4.3-.4.8-.7,1.3-.9.6-.2,1.3-.3,2-.3h1.7c.5,0,1.1.2,1.6.4l1.1-5.1c-.7-.3-1.3-.5-2-.7-1-.2-2-.3-3-.3-3.3,0-5.8.9-7.5,2.6-1.7,1.9-2.7,4.5-2.5,7.1h-.1ZM193.4,52.7c0,1.6.2,3.2.7,4.7.5,1.4,1.2,2.7,2.2,3.8,1.1,1.1,2.4,2,3.8,2.5,1.7.6,3.6,1,5.4.9h2.5c.8,0,1.6-.2,2.3-.3.7,0,1.3-.3,2-.5.5,0,.9-.3,1.4-.5l-.9-5.3c-.6.2-1.2.4-1.9.6-.3,0-.6.2-1,.2h-.5c-1,.2-2,.3-3.1.3-1.6,0-3.1-.3-4.5-1.2-1.1-.7-1.8-1.9-1.9-3.2h14.8v-2.4c0-3.9-1-6.8-2.9-8.8-2-2.1-4.9-3.2-7.8-3-1.4,0-2.8.3-4.1.8s-2.5,1.3-3.5,2.3c-.1,0-.2.2-.3.4-.2.2-.3.3-.4.5h0c-.7.9-1.3,1.9-1.7,3h0c-.7,1.7-1,3.5-.9,5.4h.3v-.2s0,0,0,0ZM200.6,48.6c.2-.5.5-1,.8-1.4.4-.4.8-.8,1.3-1,.6-.3,1.2-.4,1.9-.4h0c.7,0,1.3,0,1.9.4.5.2.9.6,1.3,1,.3.4.6.9.7,1.4.2.5.3,1.1.3,1.6h-8.6c0-.6.2-1.1.4-1.6h0ZM86.9,53.9v1.2c0,.3,0,.6.2.8v.3c0,.4.2.8.3,1.2.5,1.4,1.2,2.7,2.2,3.8,1.1,1.1,2.4,2,3.8,2.5,1.7.6,3.6,1,5.4.9h2.5c.8,0,1.6-.2,2.3-.3.7,0,1.3-.3,2-.5.5,0,1-.3,1.4-.5l-.9-5.3c-.9.4-1.9.6-2.8.8-.6,0-1.2.2-1.8.2h-1.7c-1.6,0-3.1-.3-4.5-1.2-1.1-.7-1.8-1.9-1.9-3.2h14.8v-2.4c0-3.9-.9-6.8-2.8-8.8-2-2.1-4.9-3.2-7.8-3-1.4,0-2.8.3-4.1.8-1.3.5-2.5,1.3-3.5,2.3s-1.9,2.4-2.5,3.8h0c-.7,1.7-1,3.5-.9,5.4v1.2s.3,0,.3,0ZM94,48.6c.2-.5.5-1,.8-1.4.4-.4.8-.8,1.3-1,.6-.3,1.2-.4,1.9-.4s1.3,0,1.9.4c.5.2.9.6,1.3,1,.3.4.6.9.7,1.4.2.5.3,1.1.3,1.6h-8.6c0-.6.2-1.1.4-1.6,0,0,0,0,0,0ZM151.5,41h6.5v23.1h-6.5v-23.1Z"/>
  <path class="st1" d="M138.4,41h7.8-7.8ZM106.3,57.9c-.9.4-1.9.6-2.8.8-.6,0-1.2.2-1.8.2.6,0,1.2,0,1.8-.2,1-.2,1.9-.4,2.8-.8ZM182.5,64.1h6.5-6.5ZM166.7,32.7c1.7-1.8,4.2-2.6,7.5-2.6-3.3,0-5.8.9-7.5,2.6ZM127.3,41c.2,0,.4,0,.6.2-.2,0-.4,0-.6-.2-.5,0-1-.2-1.5-.3-.5,0-1,0-1.5-.2.5,0,1,0,1.5.2.5,0,1,.2,1.5.3ZM221.9,61.4c-.5-.5-1-1.2-1.4-1.8.4.7.9,1.3,1.4,1.8,1.1,1.1,2.4,1.9,3.8,2.4.8.3,1.6.5,2.5.6-.8,0-1.7-.4-2.5-.6-1.4-.5-2.7-1.3-3.8-2.4h0ZM93.5,54.7h14.8v-1.2,1.2h-14.8ZM238.1,63.8c-.8.2-1.6.3-2.4.4.8,0,1.6-.3,2.4-.4.8-.2,1.4-.3,2-.5V30h0v33.3c-.6.2-1.3.3-2,.5h0ZM178.8,41h-8.1,8.1ZM151.5,64.1h6.5-6.5ZM215,54.7h-14.8,14.8v-2.4h0v2.4h0ZM72.9,41.4c1.6-.7,3.3-1,5-1s2.3,0,3.4.3c1,.2,2,.5,3,.9h0c-1-.4-2-.7-3-.9-1.1-.2-2.2-.3-3.4-.3-1.7,0-3.4.3-5,1-2.8,1.2-5,3.6-6.1,6.5h0c1-2.9,3.2-5.3,6.1-6.5Z"/>
  <path class="st1" d="M158.3,36.1c.3-.5.4-1.1.3-1.7v-.8.8c0,.6,0,1.2-.3,1.7Z"/>
  <path class="st0" d="M158.6,33.5c0-.3-.1-.5-.2-.8M158,36.6c.1-.2.2-.3.3-.5"/>
  <path class="st1" d="M211,58.5c-.3,0-.6.2-1,.2h-.5.5c.3,0,.6,0,1-.2h0Z"/>
  <path class="st1" d="M81.8,64.3c-1.2.2-2.5.4-3.8.4-1.9,0-3.7-.3-5.4-.9-1.4-.6-2.7-1.4-3.7-2.6h0c1,1.1,2.3,2,3.7,2.6,1.7.7,3.6,1,5.4.9,1.3,0,2.5,0,3.8-.3,1-.2,1.9-.5,2.8-.8l-.8-4.4.8,4.4c-.9.4-1.9.6-2.8.8h0ZM193.4,52.7c0,1.6.2,3.2.7,4.7.5,1.4,1.2,2.7,2.2,3.8h0c1.1,1.1,2.4,2,3.8,2.5,1.7.6,3.6,1,5.4.9h2.5c.8,0,1.6-.2,2.3-.3.7,0,1.3-.3,1.9-.5.5,0,1-.3,1.4-.5h0c-.5.2-.9.4-1.4.5-.6.2-1.3.3-2,.5-.7,0-1.5.2-2.3.3h-2.5c-1.8,0-3.7-.3-5.4-.9-1.4-.6-2.7-1.4-3.8-2.5-1-1.1-1.8-2.4-2.2-3.8-.5-1.5-.7-3.1-.7-4.7s.3-3.7.9-5.4h0c-.7,1.7-1,3.5-.9,5.4h.1Z"/>
  <path class="st0" d="M87.2,56.3v-.3M196.1,44.4h0"/>
  <path class="st1" d="M87.8,47.3c-.7,1.7-1,3.5-.9,5.4h0c0-1.8.3-3.7.9-5.4h0ZM136.5,63.9c1.4.5,2.9.8,4.4.7,1.2,0,2.4,0,3.6-.4-1.2.3-2.4.4-3.6.3-1.5,0-3-.2-4.4-.7h0ZM139.5,58.4c.7.5,1.6.8,2.5.7-.9,0-1.7-.2-2.5-.7h0ZM218.7,52.7c0-.9,0-1.7.2-2.6-.1.9-.2,1.7-.2,2.6s0,2.1.3,3.1c-.2-1-.3-2.1-.3-3.1ZM152,37.2c1.6,1.4,3.9,1.4,5.5,0-1.6,1.4-3.9,1.4-5.5,0ZM196.9,43.5c-.1,0-.2.2-.3.4.1,0,.2-.2.3-.4h0ZM183,37.2c.8.7,1.7,1,2.7,1h0c1,0,2-.4,2.7-1,.8-.7,1.2-1.8,1.2-2.8,0,1.1-.4,2.1-1.2,2.8-1.6,1.4-3.9,1.4-5.5,0h.1ZM138.4,34.2l-6.5,1.1h0l6.5-1.1h0ZM96.1,46.2c.6-.3,1.2-.4,1.9-.4-.6,0-1.3,0-1.9.4ZM200.2,50.2c0-.6.2-1.1.4-1.6-.2.5-.3,1.1-.4,1.6ZM94,48.6h0c-.2.5-.3,1.1-.4,1.6h0c0-.6.2-1.1.4-1.6ZM204.6,45.8h1-1Z"/>
  <path class="st0" d="M227.6,46.7c.4-.2.8-.4,1.3-.5"/>
  <path class="st0" d="M111.5,305.7c.7.3,1.5.6,2.3.8"/>
  <path class="st0" d="M115.2,306.7c-.5,0-.9-.1-1.4-.2M192.4,306.5c.9-.2,1.8-.5,2.6-.9M196.3,304.9c.8-.5,1.5-1.1,2.2-1.7"/>
  <path class="st0" d="M247.6,239.1c0,.3,0,.6-.1.9M246.7,242.4c-.1.3-.2.5-.4.8"/>
  <path class="st1" d="M83.7,233.8c0,.2,0,.5.2.7h0c0,.3.2.6.4.9,0,.1.2.3.3.4.3.3.7.7,1,.9s.6.3.9.4h0c.2,0,.4,0,.5.1h1c.3,0,.5,0,.7-.2h.2c.2,0,.5-.1.7-.2h0c.8-.2,1.6-.5,2.3-.9.4-.2.8-.3,1.2-.5h0c2.2-.9,4.4-1.5,6.7-2h0c.7,0,1.4.3,2,.7h.2l1.7-.3h0c3.9,11.9,11.9,22,22.7,28.3l-.7,1.7h0c.3.7.5,1.4.3,2.2-1,2.2-2.2,4.4-3.6,6.4h0c0,.1-.2.3-.3.4-.2.2-.3.4-.4.6-.5.7-1,1.4-1.4,2.1,0,.1,0,.3-.2.4v.3c0,.1,0,.3-.2.4-1.1,2-.3,4.5,1.7,5.6.5.2,1,.4,1.6.4,1.7,0,3.2-1.1,3.9-2.6h0v-.3h0c0-.3.2-.5.3-.7h0c.3-.8.6-1.6.8-2.4,0-.1,0-.3.1-.4,0-.3.2-.6.2-.8.3-.8.6-1.6.8-2.3.5-1.7,1.2-3.3,2.2-4.7.5-.4,1.1-.7,1.7-.8h0l.9-1.6h0c11.7,4.5,24.6,4.5,36.3,0v.2l.3.6c0,.1.1.2.2.3,0,.2.2.3.2.4h.3c.7.1,1.3.5,1.7,1.1,1.1,2.1,2,4.3,2.7,6.5h0c0,.3.1.5.2.7,0,.2.1.4.2.6.2.8.4,1.5.7,2.2v.2h0c.1.2.2.5.3.7v.3c.6.9,1.3,1.7,2.3,2.2,0,0,.2,0,.2.1,1,.4,2.1.4,3.1,0,2-1.1,2.7-3.6,1.7-5.6l-.2-.3c-.1-.3-.2-.5-.4-.7-.4-.7-.9-1.4-1.4-2.1-.2-.3-.5-.7-.7-1-1.4-2-2.5-4.1-3.5-6.2-.2-.7-.1-1.4.2-2v-.2h0c-.2-.3-.3-.7-.4-1v-.2c0-.1,0-.2-.1-.3h0c10.8-6.4,18.9-16.6,22.7-28.5h0c.5,0,1.4.2,1.6.3h0s.2-.1.2-.2c.5-.4,1.1-.6,1.7-.7h.2c2.1.4,4.2,1,6.2,1.8.2,0,.3.1.5.2h.1c.4.2.8.4,1.2.5.8.4,1.5.6,2.4.9h0c.2,0,.4,0,.6.1h.4c.2,0,.5.1.7.2h1.6c.1,0,.2,0,.3-.1.1,0,.3,0,.4-.2.1,0,.2-.1.3-.2.1,0,.2-.1.3-.2.1,0,.2-.2.3-.3,0,0,.2-.2.3-.2s.1-.2.2-.3c0-.1.2-.2.2-.3,0,0,0-.2.1-.3,0-.1.1-.3.2-.5v-2.3c0-.1,0-.2-.1-.3,0-.1,0-.3-.1-.4,0-.1-.1-.2-.2-.3,0-.1-.1-.2-.2-.3,0-.1-.2-.2-.3-.3,0,0-.2-.2-.2-.3,0,0-.2-.1-.3-.2-.1,0-.2-.2-.3-.2,0,0-.2,0-.3-.1-.1,0-.3-.1-.5-.2-.2,0-.5-.1-.7-.2h-.4c-.2,0-.5-.1-.7-.2h0c-.8-.1-1.7-.2-2.5-.2h-1.3c-2.4-.2-4.7-.5-7-1.1-.7-.4-1.2-.9-1.6-1.5v-.2h-.1l-1.6-.5c.3-2.3.5-4.6.5-7h0c0-4.5-.6-8.9-1.8-13.2-.4-1.4-.8-2.8-1.3-4.2-.2-.5-.4-1-.6-1.4-.9-2.2-1.9-4.3-3-6.3-.6-1.1-1.2-2.1-1.9-3.1h0l.2-.2c.2-.2.4-.3.6-.5.2-.2.4-.3.5-.4h.1v-1.4h0c.1-.4.3-.6.5-.9.1,0,.2-.2.3-.3,1.7-1.4,3.6-2.7,5.5-3.8.4-.2.7-.4,1.1-.6h0c.7-.4,1.5-.8,2.1-1.3.2-.1.4-.3.6-.5l.3-.2h0c.2-.2.4-.3.6-.5,0,0,0-.1.1-.2.1-.1.2-.3.4-.4,0,0,.1-.2.2-.3,0-.1.1-.2.2-.4,0-.1,0-.3.1-.4,0-.1,0-.2.1-.4v-1.6c0-.1,0-.3-.1-.4,0-.1,0-.2-.1-.3,0-.2-.2-.3-.3-.5,0,0,0-.1-.1-.2,0-.1-.2-.2-.2-.3s-.2-.2-.3-.3c0,0-.1,0-.2-.1l-.4-.4s-.2-.1-.3-.2c-.1,0-.2-.1-.4-.2-.1,0-.3,0-.4-.1-.1,0-.2,0-.4-.1h-1.6c-.1,0-.3,0-.4.1h-.3c-.2,0-.3.2-.5.3,0,0-.1,0-.2.1-.2.1-.4.3-.6.5h0l-.2.2-.2.2c-.2.1-.3.2-.4.3l-1.8,1.8c-.3.3-.5.6-.8.9h-.1c-1.5,1.7-3.1,3.2-4.8,4.5-.1,0-.2.2-.3.3-.7.3-1.4.4-2.2.3h-.2l-1.5,1.1h0c-4.3-4.5-9.3-8.1-14.8-10.8-5.6-2.7-11.6-4.4-17.8-5h0v-1.6h0l-.2-.2c-.6-.4-.9-1-1.1-1.7,0-2.3,0-4.6.4-6.9v-.2c0-.4.2-.8.2-1.2.2-.8.3-1.7.3-2.5v-1.2h0v-.8h0c0-.3,0-.5-.2-.7,0-.1,0-.2-.1-.3,0-.1-.1-.3-.2-.4,0-.1-.1-.2-.2-.3,0,0-.1-.2-.2-.3l-.3-.3-.3-.3s-.2-.1-.3-.2c-.1,0-.2-.2-.3-.2s-.3-.1-.4-.2c-.1,0-.2,0-.3-.1-.2,0-.5-.1-.8-.2h-.8c-.3,0-.5,0-.8.2-.1,0-.2,0-.3.1-.1,0-.3.1-.4.2-.1,0-.2.1-.3.2-.1,0-.2.1-.3.2l-.3.3-.3.3s-.1.2-.2.3c0,.1-.2.2-.2.3s-.1.3-.2.4c0,.1,0,.2-.1.3,0,.2-.1.5-.2.8h0v.8h0v1.1c0,.8.2,1.7.3,2.5,0,.4.2.8.2,1.2h0c.4,2.3.5,4.7.4,7.1-.2.8-.7,1.5-1.3,2h0v1.6c-2.5.2-4.8.6-7.2,1.1-9.8,2.2-18.8,7.3-25.7,14.7-.2-.1-.5-.4-.8-.5s-.5-.4-.6-.5h-.3c-.7.2-1.4,0-2-.3-1.9-1.4-3.6-3-5.2-4.7h0c-.3-.3-.6-.6-.8-.9-.5-.6-1.1-1.3-1.7-1.8-.2-.1-.4-.3-.6-.5h-.2v-.2c-.8-.6-1.8-1-2.8-1h0c-1.2,0-2.3.5-3,1.4-.7.8-.9,1.9-.7,3,.2,1.1.8,2.1,1.7,2.9h0s0,.1.2.2h0c0,.1.2.2.3.3,0,0,.2.1.2.2.7.5,1.4.9,2.1,1.3.4.2.8.4,1.1.6.5.3,1,.6,1.5.9.6.4,1.3.8,1.9,1.3.7.5,1.3,1,1.9,1.5.2.1.4.3.5.4.4.6.7,1.3.8,2.1h0v.2h0l1.2,1.1c-6.9,10.4-9.8,23.1-8,35.5h-.4c0,.1-1.2.5-1.2.5h0l-.2.2c-.4.6-.9,1.1-1.5,1.5-2.3.6-4.6,1-7,1.1h-1.2c-.8,0-1.7,0-2.5.2h0c-.2,0-.5.1-.7.2h-.3c-.3,0-.5.1-.7.2-.2,0-.3.1-.5.2,0,0-.2,0-.2.1-.2,0-.3.2-.4.3h-.2c-.2.2-.3.4-.4.6h0c-.5.6-.7,1.3-.8,2.1h0v.8h0l1.2-.5h0ZM139.1,232.5c0,.4,0,.7-.2,1h0l-7.8,19c-2.8-1.8-5.4-3.9-7.7-6.4-.8-.8-1.5-1.6-2.2-2.5-2.1-2.6-3.8-5.4-5.2-8.4-.5-1-.9-2-1.3-3.1l20.3-3.4h.6c.4,0,.7,0,1,.2h.3c.2,0,.4.2.5.3h0c.3.2.5.4.7.7l.2.2s0,.2.1.3c0,.1.1.2.2.3,0,.2.1.4.2.6h0v.7h0v.3h0l.3.2h0ZM162.2,258.1c-7.4,1.6-15,1.2-22.2-1.1h0l3.5-6.4,6.4-11.6h0c0-.1.2-.3.3-.4.6-.9,1.6-1.4,2.6-1.4h.1c1.3,0,2.4.7,3,1.8h0l10,18c-1.3.4-2.6.8-4,1.1h.3,0ZM191.4,232.4c-.2.4-.3.9-.5,1.3,0,.2-.2.4-.2.6-.1.3-.3.7-.4,1,0,.2-.2.4-.3.6-.1.3-.3.6-.4.9-.1.2-.2.4-.3.6-.1.3-.3.6-.5.8-.1.2-.2.4-.3.6-.2.3-.3.6-.5.8-.1.2-.3.4-.4.6-.2.3-.3.5-.5.8-.1.2-.3.4-.4.6-.2.3-.4.5-.6.8-.1.2-.3.4-.4.6-.2.2-.4.5-.6.7h0c-.2.2-.4.5-.6.7-2.7,3.2-5.8,6-9.4,8.3l-7.9-19.2h0c0-.2-.1-.4-.2-.5v-1.5c.3-1.6,1.6-2.7,3.2-2.8h.7l20.4,3.5v.2h0ZM189.8,200.6c.6,1.2,1.1,2.5,1.6,3.8.4,1.2.8,2.4,1.1,3.6.3,1.2.6,2.4.8,3.6.4,2.5.6,5,.6,7.4v1.7c0,.6,0,1.1-.1,1.7l-19.9-5.7h0c-.4-.1-.9-.3-1.2-.6h0c-.2-.1-.3-.3-.5-.4h0c-.1-.2-.2-.3-.3-.5h0c0-.2-.2-.3-.2-.5h0c0-.3,0-.4-.1-.6v-1.2h0v-.4s0-.2.1-.2c0,0,0-.2.1-.2l.2-.2s0-.1.1-.2c.1-.1.2-.3.4-.4h0l15.3-13.8c.7,1.2,1.4,2.4,2,3.7h0v-.6h0ZM158.1,177.9c4.1.5,8.1,1.7,11.9,3.4.2.1.5.2.7.3h0c.1,0,.2.1.3.2.4.2.8.4,1.2.6.1,0,.3.2.4.2.3.2.7.4,1,.6.2,0,.3.2.5.3.3.2.6.4.9.6.2.1.4.3.6.4.3.2.5.3.8.5.2.2.5.4.7.5s.4.3.6.4c.3.2.6.5,1,.8.1,0,.2.2.3.3.9.7,1.7,1.5,2.5,2.2h0l-15.8,11.2-1,.7h0c-.2.1-.3.2-.5.3h-.2c-.1,0-.3.1-.4.1h-.8c-.4,0-.8,0-1.2-.2h0c-.2,0-.3-.1-.4-.2h-.2c-.2-.1-.4-.3-.5-.4l-.5-.5h0c-.1-.2-.2-.3-.3-.5v-.2c0-.1-.1-.3-.1-.4v-.8h0l-1.2-20.6h0l-.3.2h0ZM149.9,211.8h6.3l3.9,4.9-1.4,6.1-5.7,2.7-5.7-2.7-1.4-6.1,3.9-4.9h0ZM124.5,189.2c5.4-5.3,12.1-8.9,19.5-10.6,1.4-.3,2.8-.5,4.2-.7l-1.2,20.6h0v.8c0,.1,0,.3-.1.4v.2c0,.2-.2.3-.3.5h0c-.1.2-.3.4-.5.5,0,0-.2.1-.2.2,0,0-.2.1-.3.2,0,0-.2,0-.3.1-.1,0-.2.1-.3.1h-2.1c-.1,0-.3,0-.4-.1h-.2c-.2,0-.4-.2-.5-.3h0l-16.9-12h-.4s0,.1,0,.1ZM118.3,197l15.4,13.8h0c.2.1.3.3.4.5,0,0,0,.1.1.2,0,.1.2.2.2.4v.2c0,.2.2.4.2.5h0c0,.3.1.7.1,1v1c0,.1-.1.2-.2.4,0,0,0,.2-.1.2-.1.2-.2.4-.4.6h0l-.4.4s-.1,0-.2.1c-.1,0-.2.2-.4.2h-.2c-.2,0-.4.2-.6.2h0l-19.8,5.8c-1-8.9,1-17.9,5.7-25.6h.2Z"/>
  <path class="st0" d="M136.5,228.8h-.7M171.6,211.8s0-.2.1-.2M171.9,211.3s0-.1.1-.2"/>
  <path class="st1" d="M173.8,216.7l19.9,5.7c0-.6,0-1.1.1-1.7,0,.6,0,1.1-.1,1.7l-19.9-5.7Z"/>
  <path class="st1" d="M173.8,216.6c-.4-.1-.9-.3-1.2-.6.4.3.8.5,1.2.6h0Z"/>
  <path class="st0" d="M171.7,215c0-.2-.2-.3-.2-.5M171.2,213.2v.4"/>
  <path class="st0" d="M189.2,237.4c-.1.3-.3.6-.5.8M171.4,214.3c0-.2,0-.3-.1-.5M172.5,216c-.2-.1-.3-.3-.5-.4M172,215.5c-.1-.2-.2-.3-.3-.5M171.4,212.2v-.2M189.9,235.9c-.1.3-.3.6-.4.9M187.5,240.3c-.2.3-.3.5-.5.8M138.8,230.6s0-.2-.1-.3M186.6,241.6c-.2.3-.4.5-.6.8M188.4,238.8c-.2.3-.3.6-.5.8"/>
  <path class="st1" d="M185.1,243.7h0c.2-.2.4-.5.6-.7-.2.2-.4.5-.6.7h0ZM135.1,228.8h.6-.6ZM175.1,252.7c3.5-2.3,6.7-5,9.4-8.3-2.7,3.2-5.8,6-9.4,8.3ZM150,238.9l-6.4,11.6,6.4-11.6h0ZM140.1,256.9h0c5.8,2,12,2.6,18.1,1.8-6.1.8-12.3.1-18.1-1.8h0Z"/>
  <path class="st0" d="M138.9,230.9c0,.2.1.4.2.6"/>
  <path class="st0" d="M139.2,232.2v-.6M190.7,234.3c-.1.3-.3.7-.4,1"/>
  <path class="st0" d="M167,232.4v.2M170.3,228.7h0M167.2,233.5c0-.2-.1-.4-.2-.5M137.7,229.4h0M138.4,230.1c0-.1-.2-.2-.2-.3M191.4,232.4c-.2.4-.3.9-.5,1.3"/>
  <path class="st1" d="M148.1,177.9l-1.2,20.6h0l1.2-20.6c-1.4.2-2.8.4-4.2.7-7.4,1.7-14.1,5.3-19.5,10.6h0c5.4-5.3,12.1-8.9,19.5-10.6,1.4-.3,2.8-.5,4.2-.7ZM146.8,199.1v-.6h0v.6h0Z"/>
  <path class="st0" d="M139.1,232.9v-.4M145.5,201.1s.2-.1.2-.2"/>
  <path class="st0" d="M144.9,201.5s.2,0,.3-.1M141.9,201.5h.2M143.3,201.8h.7M134.5,211.8c0-.1-.1-.3-.2-.4M142.5,201.7h.2M134.1,211.3c-.1-.2-.3-.3-.4-.5M132.9,216.5h.2"/>
  <path class="st1" d="M134.8,212.5c0-.2-.1-.4-.2-.5,0,.2.2.4.2.6h0ZM132.3,216.8h0ZM133.7,210.8h0Z"/>
  <path class="st0" d="M133.5,216.2s.1,0,.2-.1M134.9,213.9v.4M134,215.7c.1-.2.3-.4.4-.6M134.9,213.2v.3M134.5,214.9c0-.1.1-.2.2-.4M175.1,184.1c.2.1.4.3.6.4M177.8,185.9c.3.2.6.5,1,.8"/>
  <path class="st1" d="M146.2,200.4c.1-.2.2-.3.3-.5,0,.2-.2.3-.3.5h0ZM181.5,189.2c-.8-.8-1.6-1.5-2.5-2.2.9.7,1.7,1.4,2.5,2.2h0Z"/>
  <path class="st0" d="M163.6,201.6c.1,0,.3,0,.4-.1"/>
  <path class="st0" d="M164.2,201.4c.2,0,.4-.2.5-.3M173.7,183.2c.2,0,.3.2.5.3M172.2,182.4c.1,0,.3.2.4.2"/>
  <path class="st1" d="M170.8,181.6h0c.1,0,.2.1.3.2-.1,0-.2-.1-.3-.2Z"/>
  <path class="st0" d="M176.4,185c.2.2.5.4.7.5M161.6,201.6c.2,0,.5.1.8.2M161,201.3c.1,0,.3.2.4.2"/>
  <path class="st1" d="M156.2,211.8l3.9,4.9-3.9-4.9ZM160.4,200.8l-.5-.5c.1.2.3.4.5.5ZM160.9,201.2c-.2-.1-.4-.3-.5-.4.2.2.3.3.5.4h0Z"/>
  <path class="st0" d="M146.7,199.3c0,.1,0,.3-.1.4"/>
  <path class="st1" d="M164.7,201.1h0l1-.7-1,.7h0Z"/>
  <path class="st1" d="M158.1,177.9c4.1.5,8.1,1.7,11.9,3.4-3.8-1.7-7.8-2.9-11.9-3.4Z"/>
  <path class="st1" d="M103.5,173.7h0c-.5-.5-1.1-.8-1.8-.9.7.2,1.3.5,1.8.9h0ZM98.6,180l.2.2h0s0-.1-.2-.2ZM87.2,229.3h0ZM96.7,177c-.2-1.1,0-2.2.7-3,.7-.9,1.8-1.4,3-1.4h0c-1.2,0-2.3.5-3,1.4-.7.8-.9,1.9-.7,3,.2,1.1.8,2.1,1.7,2.8-.9-.7-1.5-1.7-1.7-2.9h0Z"/>
  <path class="st0" d="M85.3,230.2c0-.1.3-.2.4-.3M207.8,173.1c.2.1.3.2.4.4M87.2,237.2c-.2,0-.4,0-.5-.1"/>
  <path class="st1" d="M114.5,182.1s.4.3.6.5c-.3-.2-.5-.4-.6-.5h0ZM141.6,168.4c2.3-.5,4.7-.9,7.1-1.1-2.4.2-4.8.6-7.1,1.1-9.8,2.2-18.8,7.3-25.7,14.7-.2-.1-.5-.4-.8-.5.3.2.6.4.8.5,6.9-7.3,15.9-12.5,25.7-14.7h0ZM90.8,228.9h0c-.8,0-1.7,0-2.5.2h0c.8-.1,1.7-.2,2.5-.2ZM99.3,180.6s0-.1-.2-.2c0,0,.2.1.2.2.7.5,1.4.9,2.1,1.3.4.2.7.4,1.1.6-.4-.2-.7-.4-1.1-.6-.7-.4-1.5-.8-2.1-1.3ZM208.9,174.3h0s0,.1.1.2c0,0,0-.1-.1-.2h0ZM100.8,225.9h0l1.2-.4-1.2.4h0l-.2.2c0,.1-.2.3-.3.4,0-.1.2-.2.3-.4l.2-.2Z"/>
  <path class="st1" d="M108.4,186.6c-.2-.2-.4-.3-.5-.4.2.1.4.3.5.4.4.6.7,1.3.8,2.1h0c0-.7-.3-1.5-.8-2.1h0ZM107.9,186.1c-.6-.5-1.3-1-1.9-1.5.7.5,1.3,1,1.9,1.5h0Z"/>
  <path class="st0" d="M84.7,230.8c0-.2.3-.3.4-.5"/>
  <path class="st1" d="M112.2,181.9c-1.9-1.4-3.6-3-5.2-4.7h0c1.6,1.7,3.3,3.3,5.2,4.7ZM191.8,182.1h-.2.2ZM194,181.8c.1,0,.2-.2.3-.3-.1,0-.2.2-.3.3-.7.3-1.4.4-2.2.3.7.1,1.5,0,2.2-.3ZM190.1,183.2c-2.8-2.9-5.9-5.5-9.2-7.7,3.4,2.2,6.5,4.8,9.2,7.7h0ZM149.1,151.8h0ZM200.1,176.1c-.3.3-.5.6-.8.9h0c.3-.3.6-.6.8-.9ZM202.7,173.6h0l-.2.2-.2.2.2-.2.2-.2Z"/>
  <path class="st1" d="M149.4,155.3c-.2-.8-.3-1.7-.3-2.5,0,.8.2,1.7.3,2.5,0,.4.2.8.2,1.2h0c0-.4-.1-.8-.2-1.3h0Z"/>
  <path class="st0" d="M155,147.8c.1,0,.2.1.3.2"/>
  <path class="st1" d="M150.1,163.7c-.2.8-.7,1.5-1.3,2h0c.6-.5,1-1.2,1.3-2h0ZM109.2,188.9h0Z"/>
  <path class="st0" d="M207.5,173c-.1,0-.2-.1-.4-.2M86,229.7c.2,0,.3-.2.5-.2"/>
  <path class="st0" d="M206.4,172.5c.1,0,.2,0,.4.1M208.6,174c0-.1-.2-.2-.3-.3M222,234.9s0,.2-.1.3M200.5,199.4c.2.5.4,1,.6,1.4"/>
  <path class="st1" d="M83.7,232.9c0-.7.4-1.5.8-2.1-.5.6-.7,1.3-.8,2.1Z"/>
  <path class="st0" d="M221.7,235.5s-.1.2-.2.3M221.2,236.1l-.3.3M197.2,187.3h0M197,187.9v-.2M204.2,218.4h0M220.6,236.6c-.1,0-.2.1-.3.2M222.4,233.7v-.5M221.6,230.8c0-.1-.2-.2-.3-.3M222,231.4c0-.1-.1-.2-.2-.3M221.1,230.2s-.2-.1-.3-.2M222.4,232.9v-.4M220.5,229.8s-.2,0-.3-.1M222.3,232.1c0-.1,0-.2-.1-.3"/>
  <path class="st0" d="M209.3,177.6c0-.1,0-.2.1-.4M87.4,237.3h.4"/>
  <path class="st1" d="M88.2,237.2c.2,0,.5,0,.7-.2-.2,0-.5.1-.7.2h0ZM179.8,264h0Z"/>
  <path class="st0" d="M209.2,175c0,.1,0,.2.1.3M209.5,176.9v-.4M209.5,175.7v.4M216.7,236.9c-.2,0-.4,0-.6-.1M218.8,237.2h.4M209,178.4c0-.1.1-.2.2-.4M219.9,236.9c-.1,0-.2,0-.3.1M218.5,237.2h-.5"/>
  <path class="st1" d="M207.4,180c-.2.2-.4.3-.6.5.2-.1.4-.3.6-.5Z"/>
  <path class="st0" d="M208.8,178.7c-.1.2-.2.3-.4.4M207.7,179.8c.2-.1.4-.3.6-.5"/>
  <path class="st1" d="M179.8,264h0c-.2-.3-.3-.7-.4-1v-.2.2c.1.4.3.7.4,1h0Z"/>
  <path class="st1" d="M171.4,266.3l.3.6.2.3c0-.1-.1-.2-.2-.3l-.3-.6Z"/>
  <path class="st0" d="M156.6,149.4c0,.1.1.3.2.4"/>
  <path class="st1" d="M134.1,267.7l.9-1.6-.9,1.6Z"/>
  <path class="st0" d="M156.2,148.7s.1.2.2.3M150.5,148.2s.2-.1.3-.2"/>
  <path class="st1" d="M128.2,279.2h0c.3-.8.6-1.6.8-2.4,0-.1,0-.3.1-.4,0,.1,0,.3-.1.4-.2.8-.5,1.6-.8,2.4ZM131.3,270.4c.3-.7.7-1.3,1.1-1.9.4-.3.8-.6,1.3-.7-.5.1-.9.4-1.3.7-.4.6-.8,1.2-1.1,1.9h0Z"/>
  <path class="st0" d="M151.2,147.8c.1,0,.3-.1.4-.2"/>
  <path class="st1" d="M179.5,266.3c1,2.2,2.1,4.3,3.5,6.2.2.4.5.7.7,1,.5.7,1,1.4,1.4,2.1.1.2.2.5.4.7l.2.3c1.1,2,.3,4.5-1.7,5.6-.5.2-1,.3-1.5.4.5,0,1.1-.1,1.5-.4,2-1.1,2.8-3.6,1.7-5.6,0-.1-.1-.2-.2-.3-.1-.3-.2-.5-.4-.7-.4-.7-.9-1.4-1.4-2.1-.3-.3-.5-.7-.7-1-1.4-2-2.5-4.1-3.5-6.2-.2-.7-.1-1.4.2-2v-.2.2c-.3.6-.4,1.3-.2,2Z"/>
  <path class="st0" d="M151.9,147.5c.2,0,.5-.1.8-.2M157,151.7v-.8M156.9,150.1c0,.2.1.5.2.7"/>
  <path class="st1" d="M178.4,280.1v-.3c-.3-.2-.4-.5-.5-.7,0,.2.2.5.3.7,0,.1,0,.2.1.3.5.9,1.2,1.7,2.2,2.2-.9-.5-1.7-1.2-2.2-2.2h0ZM177,276.1c0,.2.1.4.2.6.2.8.4,1.5.7,2.2-.3-.7-.5-1.5-.7-2.2,0-.2-.1-.4-.2-.6h0ZM92.5,236c-.8.3-1.5.6-2.3.9.8-.2,1.6-.5,2.3-.9.4-.2.8-.3,1.2-.5h0c-.4.2-.8.3-1.2.5h0ZM126.4,264l.7-1.7c-10.8-6.4-18.8-16.4-22.7-28.3h0c3.9,11.9,11.9,22,22.7,28.3l-.7,1.7h0ZM102.7,234.2h0Z"/>
  <path class="st1" d="M83.8,233.8c0,.2,0,.4.2.6,0-.2,0-.5-.2-.7h0ZM89,237.1h.2-.2ZM84.3,235.4c-.2-.3-.3-.6-.4-.9,0,.3.2.6.4.9ZM84.9,236.2c0-.1-.2-.2-.3-.3,0,.1.2.2.3.3h0ZM85.7,236.7s-.2-.2-.3-.2c0,0,.2.2.3.2Z"/>
  <path class="st1" d="M84.7,235.8c0-.1-.2-.3-.3-.4,0,.1.2.3.3.4ZM86.6,237.1c-.3,0-.6-.2-.9-.4.3.2.6.3.9.4ZM85.4,236.5c-.2,0-.3-.2-.4-.3,0,.1.3.2.4.3Z"/>
  <path class="st0" d="M155.6,148.2l.3.3M83.7,233v.6"/>
  <path class="st1" d="M127.8,280.2h0v-.2.2h0ZM126.8,266.2c0-.8,0-1.5-.3-2.2h0c.3.7.5,1.4.3,2.2-1,2.2-2.2,4.4-3.6,6.4h0c1.4-2,2.6-4.2,3.6-6.4h0ZM153.5,147.3h0Z"/>
  <path class="st0" d="M154.3,147.5c.1,0,.2,0,.3.1"/>
  <path class="st1" d="M122.5,273.6c0-.2.3-.4.4-.6-.2.2-.3.4-.4.6-.5.7-1,1.4-1.4,2.1,0,.1,0,.3-.2.4,0-.1,0-.3.2-.4.4-.7.9-1.4,1.4-2.1Z"/>
  <path class="st0" d="M197.5,193.1c-.6-1.1-1.2-2.1-1.9-3.1M149.6,149.4c0-.1.1-.2.2-.3"/>
  <path class="st1" d="M203.4,173.1h.2-.2ZM149.1,150.9h0ZM215.4,228.8c.8,0,1.7,0,2.5.2h0c-.8-.1-1.7-.2-2.5-.2h-1.3,1.3ZM205.5,226v-.2h-.1v.2h.1ZM219.7,229.4h0c-.2,0-.5-.1-.7-.2h-.1.1c.3,0,.5,0,.7.2Z"/>
  <path class="st0" d="M149.3,150.1c0-.1,0-.2.1-.3"/>
  <path class="st1" d="M205.3,225.8l-1.6-.5,1.6.5ZM195.8,189.8c.2-.2.4-.3.6-.5.2-.2.4-.3.5-.4-.1.1-.3.3-.5.4-.2.2-.4.4-.6.5h0ZM198,186.2c1.7-1.4,3.6-2.7,5.5-3.8.4-.2.7-.4,1.1-.6-.4.2-.7.4-1.1.6-1.9,1.1-3.8,2.4-5.5,3.8h0Z"/>
  <path class="st0" d="M150,148.7c0-.1.2-.2.3-.3"/>
  <path class="st1" d="M205.5,233.4h.2c2.1.4,4.2,1,6.2,1.8-2-.8-4.1-1.4-6.2-1.8h-.2ZM179.2,262.4h0c10.8-6.4,18.9-16.6,22.7-28.5h0c-3.8,12-11.9,22.1-22.7,28.5ZM157.3,165.6l-.2-.2.2.2h0ZM157.4,165.7v1.5-1.5h0Z"/>
  <path class="st0" d="M120.1,46.4c.4,0,.9-.2,1.3-.2h1.5c.9,0,1.7,0,2.5.2s1.5.3,2.1.5l1.1-5.4c-.2,0-.4-.2-.6-.2s-.4,0-.6-.2c-.5,0-1-.2-1.5-.3-.5,0-1,0-1.5-.2h-1.3c-1.8,0-3.6.2-5.3.5-1.4.3-2.8.7-4.1,1.2v21.8h6.5v-17.6h0s0,0,0,0Z"/>
  <path class="st0" d="M157.5,37.2c.8-.7,1.2-1.8,1.2-2.8s-.4-2.1-1.2-2.8c-1.6-1.4-3.9-1.4-5.5,0-.8.7-1.2,1.8-1.2,2.8s.4,2.1,1.2,2.8c1.6,1.4,3.9,1.4,5.5,0Z"/>
  <rect class="st0" x="151.5" y="41" width="6.5" height="23.1"/>
  <path class="st0" d="M133.7,61.8c.8.9,1.7,1.6,2.8,2,1.4.5,2.9.8,4.4.7,1.2,0,2.4,0,3.6-.4.9-.2,1.8-.5,2.6-.8l-.9-5.1c-.7.2-1.3.4-2,.5s-1.4.2-2.2.2-1.7-.2-2.5-.7c-.2-.2-.3-.3-.5-.5-.5-1-.8-2.1-.7-3.3v-8.1h7.8v-5.4h-7.8v-6.8l-6.5,1.1h0v19.4c0,1.4.1,2.7.4,4.1.2,1.1.7,2.2,1.5,3.1,0,0,0,0,0,0Z"/>
  <path class="st0" d="M86.9,53.9v1.2c0,.3,0,.6.2.8v.3c0,.4.2.8.3,1.2.5,1.4,1.2,2.7,2.2,3.8,1.1,1.1,2.4,2,3.8,2.5,1.7.6,3.6,1,5.4.9h2.5c.8,0,1.6-.2,2.3-.3.7,0,1.3-.3,1.9-.5.5,0,1-.3,1.4-.5l-.9-5.3c-.9.4-1.9.6-2.8.8-.6,0-1.2.2-1.8.2h-1.7c-1.6,0-3.1-.3-4.5-1.2-1.1-.7-1.8-1.9-1.9-3.2h14.8v-2.4c0-3.9-.9-6.8-2.8-8.8-2-2.1-4.9-3.2-7.8-3-1.4,0-2.8.3-4.1.8-1.3.5-2.5,1.3-3.5,2.3s-1.9,2.4-2.5,3.8c-.7,1.7-1,3.5-.9,5.4h0v1.2s.4,0,.4,0ZM94,48.6h0c.2-.5.5-1,.8-1.4.4-.4.8-.8,1.3-1,.6-.3,1.2-.4,1.9-.4s1.3,0,1.9.4c.5.2.9.6,1.3,1,.3.4.6.9.7,1.4.2.5.3,1.1.3,1.6h-8.6c0-.6.2-1.1.4-1.6,0,0,0,0,0,0Z"/>
  <path class="st0" d="M68.8,61.2h0c1,1.1,2.3,2,3.7,2.6,1.7.7,3.6,1,5.4.9,1.3,0,2.5,0,3.8-.3,1-.2,1.9-.5,2.8-.8l-.8-4.4-.2-.9c-.8.3-1.6.6-2.5.7-.8,0-1.7.2-2.5.2-2.2,0-3.8-.6-4.7-1.7-1-1.4-1.4-3.1-1.3-4.8,0-1.7.4-3.4,1.4-4.7,1.1-1.3,2.7-1.9,4.3-1.8.8,0,1.6,0,2.5.3.7.2,1.4.4,2,.6l1.4-5.2h0c-1-.4-2-.7-3-.9-1.1-.2-2.2-.3-3.4-.3-1.7,0-3.4.3-5,1-2.8,1.2-5,3.6-6.1,6.5-.5,1.5-.8,3.1-.8,4.7s.2,3.2.7,4.8c.4,1.4,1.2,2.7,2.1,3.8l.2-.3h0Z"/>
  <path class="st0" d="M164.2,64.1h6.5v-17.6h8.1v-5.4h-8.1v-1.1c0-.6,0-1.2.2-1.7.1-.5.3-1,.7-1.4.3-.4.8-.7,1.3-.9.6-.2,1.3-.3,2-.3h1.7c.5,0,1.1.2,1.6.4l1.1-5.1c-.7-.3-1.3-.5-2-.7-1-.2-2-.3-3-.3-3.3,0-5.8.9-7.5,2.6-1.7,1.9-2.7,4.5-2.5,7.1v24.3h-.1Z"/>
  <path class="st0" d="M221.9,61.4c1.1,1.1,2.4,1.9,3.8,2.4,1.6.6,3.4.9,5.1.8h2.5c.9,0,1.7-.2,2.5-.3.8,0,1.6-.3,2.4-.4.8-.2,1.4-.3,2-.5V30h0l-6.5,1.1v10.4c-.7-.3-1.4-.6-2.2-.7-.8-.2-1.6-.3-2.4-.3-1.5,0-3,.3-4.4.8-1.2.5-2.4,1.4-3.2,2.4-.9,1.1-1.6,2.4-2,3.8h0c-.5,1.6-.7,3.4-.7,5.1s.3,3.4.8,5c.5,1.4,1.3,2.7,2.3,3.8,0,0,0,0,0,0ZM227.6,46.7c.4-.2.8-.4,1.3-.5h1.1c.7,0,1.3,0,2,.3.6,0,1.1.4,1.6.7v11.9c-.3,0-.7,0-1.2.2h-1.6c-1.6,0-3.1-.6-4-1.8-1-1.4-1.4-3.1-1.4-4.9,0-2.9.8-4.8,2.3-5.7h0v-.2h-.1Z"/>
  <path class="st0" d="M193.4,52.7c0,1.6.2,3.2.7,4.7.5,1.4,1.2,2.7,2.2,3.8h0c1.1,1.1,2.4,2,3.8,2.5,1.7.6,3.6,1,5.4.9h2.5c.8,0,1.6-.2,2.3-.3.7,0,1.3-.3,1.9-.5.5,0,1-.3,1.4-.5h0l-.9-5.3c-.6.2-1.2.4-1.9.6-.3,0-.6.2-1,.2h-.5c-1,.2-2,.3-3.1.3-1.6,0-3.1-.3-4.5-1.2-1.1-.7-1.8-1.9-1.9-3.2h14.8v-2.4h0c0-3.9-.9-6.8-2.9-8.8-2-2.1-4.9-3.2-7.8-3-1.4,0-2.8.3-4.1.8s-2.5,1.3-3.5,2.3h0c-.1,0-.2.2-.3.4-.2.2-.3.3-.4.5h0c-.7.9-1.3,1.9-1.7,3h0c-.7,1.7-1,3.5-.9,5.4h.4s0-.2,0-.2ZM200.6,48.6c.2-.5.5-1,.8-1.4.4-.4.8-.8,1.3-1,.6-.3,1.2-.4,1.9-.4s1.3,0,1.9.4c.5.2.9.6,1.3,1,.3.4.6.9.7,1.4h0c.2.5.3,1.1.3,1.6h-8.6c0-.6.2-1.1.4-1.6h0Z"/>
  <path class="st0" d="M185.8,38.2h0c1,0,2-.4,2.7-1,.8-.7,1.2-1.8,1.2-2.8s-.4-2.1-1.2-2.8c-1.6-1.4-3.9-1.4-5.5,0-.8.7-1.2,1.8-1.2,2.8s.4,2.1,1.2,2.8,1.7,1,2.7,1h.1Z"/>
  <rect class="st0" x="182.5" y="41" width="6.5" height="23.1"/>
  <path class="st0" d="M224.3,155.9h0l-65.8-31.4,65.8,31.4h0Z"/>
  <path class="st0" d="M83.7,233.8h0c0,.2,0,.4.2.6h0c0,.3.2.6.4.9,0,.1.2.3.3.4,0,.1.2.2.3.3,0,.1.3.2.4.3.3.3.8.5,1.2.6h0c.2,0,.4,0,.5.1h1c.2,0,.5,0,.7-.2h.2c.2,0,.5-.1.7-.2h0c.8-.2,1.6-.5,2.3-.9.4-.2.8-.3,1.2-.5h0c2.2-.9,4.4-1.5,6.7-2h0c.7,0,1.4.3,2,.7h.2l1.7-.3c3.9,11.9,11.9,22,22.7,28.3l-.7,1.7h0c.3.7.5,1.4.3,2.2-1,2.2-2.2,4.4-3.6,6.4,0,.1-.2.3-.3.4-.2.2-.3.4-.4.6-.5.7-1,1.4-1.4,2.1,0,.1,0,.3-.2.4v.3c0,.1,0,.3-.2.4-1.1,2-.3,4.5,1.7,5.6.5.2,1,.4,1.6.4,1.7,0,3.2-1.1,3.9-2.6h0v-.3h0c0-.3.2-.5.3-.7h0c.3-.8.6-1.6.8-2.4,0-.1,0-.3.1-.4,0-.3.2-.6.2-.8.3-.8.6-1.6.8-2.3.5-1.7,1.2-3.3,2.2-4.7.5-.4,1.1-.7,1.7-.8h0l.9-1.6c11.7,4.5,24.6,4.5,36.3,0v.2c.2.2.3.4.4.6l.2.3c0,.2.2.3.2.4h.3c.7.1,1.3.5,1.7,1.1,1.1,2.1,2,4.3,2.7,6.5h0c0,.3.1.5.2.7,0,.2.1.4.2.6.2.8.4,1.5.7,2.2v.2h0c0,.2.2.5.3.7,0,.1,0,.2.1.3.5.9,1.2,1.7,2.2,2.2,0,0,.2,0,.2.1,1,.4,2.1.4,3.1,0,2-1.1,2.8-3.6,1.7-5.6,0-.1-.1-.2-.2-.3-.1-.3-.2-.5-.4-.7-.4-.7-.9-1.4-1.4-2.1-.3-.3-.5-.7-.7-1-1.4-2-2.5-4.1-3.5-6.2-.2-.7-.1-1.4.2-2v-.2h0c-.2-.3-.3-.7-.4-1v-.2c-.1-.1-.2-.2-.2-.3,10.8-6.4,18.9-16.6,22.7-28.5.5,0,1.1.2,1.6.3h0s.2-.1.2-.2c.5-.4,1.1-.6,1.7-.7h.2c2.1.4,4.2,1,6.2,1.8.2,0,.3.1.5.2h.1c.4.2.8.4,1.2.5.8.4,1.5.6,2.4.9h0c.2,0,.4,0,.6.1h.4c.2,0,.5.1.7.2h1.6c.1,0,.2,0,.3-.1.1,0,.3,0,.4-.2.1,0,.2-.1.3-.2.1,0,.2-.1.3-.2.1,0,.2-.2.3-.3,0,0,.2-.2.3-.2,0,0,.1-.2.2-.3,0-.1.2-.2.2-.3,0,0,0-.2.1-.3,0-.1.1-.3.2-.5h0v-.7h0v-1.5c0-.1,0-.2-.1-.3,0-.1,0-.3-.1-.4,0-.1-.1-.2-.2-.3,0-.1-.1-.2-.2-.3,0-.1-.2-.2-.3-.3,0,0-.2-.2-.2-.3,0,0-.2-.1-.3-.2-.1,0-.2-.2-.3-.2,0,0-.2,0-.3-.1-.1,0-.3-.1-.5-.2h0c-.2,0-.5-.1-.7-.2h-.4c-.3,0-.5-.1-.7-.2h0c-.8-.1-1.7-.2-2.5-.2h-1.3c-2.4-.2-4.7-.5-7-1.1-.7-.4-1.2-.9-1.6-1.5v-.2h-.1l-1.6-.5c.3-2.3.5-4.6.5-7h0c0-4.5-.6-8.9-1.8-13.2-.4-1.4-.8-2.8-1.3-4.2-.2-.5-.4-1-.6-1.4-.9-2.2-1.9-4.3-3-6.3-.6-1.1-1.2-2.1-1.9-3.1l.2-.2c.2-.2.4-.3.6-.5.2-.2.4-.3.5-.4h.1v-1.4h0c.1-.4.3-.6.5-.9.1,0,.2-.2.3-.3,1.7-1.4,3.6-2.7,5.5-3.8.4-.2.7-.4,1.1-.6h0c.7-.4,1.5-.8,2.1-1.3.2-.1.4-.3.6-.5l.3-.2h0c.2-.2.4-.3.6-.5h0s0-.1.1-.2c.1-.1.2-.3.4-.4,0,0,.1-.2.2-.3,0-.1.1-.2.2-.4,0-.1,0-.3.1-.4,0-.1,0-.2.1-.4v-1.2c0-.3,0-.5-.1-.8,0-.1,0-.2-.1-.3,0-.2-.2-.3-.3-.5,0,0,0-.1-.1-.2h0c0-.1-.2-.2-.2-.3s-.2-.2-.3-.3h0s-.1,0-.2-.1l-.4-.4s-.2-.1-.3-.2c-.1,0-.2-.1-.4-.2-.1,0-.3,0-.4-.1-.1,0-.2,0-.4-.1h-1.6c-.1,0-.3,0-.4.1h-.3c-.2,0-.3.2-.5.3h-.2c-.2.2-.4.3-.6.5h0l-.2.2-.2.2c-.2.1-.3.2-.4.3l-1.8,1.8c-.3.3-.5.6-.8.9h-.1c-1.5,1.7-3.1,3.2-4.8,4.5-.1,0-.2.2-.3.3-.7.3-1.4.4-2.2.3h-.2l-1.5,1.1c-4.3-4.5-9.3-8.1-14.8-10.8-5.6-2.7-11.6-4.4-17.8-5h0v-1.6h0c0-.1-.2-.3-.2-.3-.6-.4-1-1-1.1-1.7,0-2.3,0-4.6.4-6.9v-.2c0-.4.2-.9.2-1.2.2-.8.3-1.7.3-2.5v-1.2h0v-.8h0c0-.3,0-.5-.2-.7,0-.1,0-.2-.1-.3,0-.1-.1-.3-.2-.4,0-.1-.1-.2-.2-.3,0,0-.1-.2-.2-.3l-.3-.3-.3-.3s-.2-.1-.3-.2c-.1,0-.2-.2-.3-.2s-.3-.1-.4-.2c-.1,0-.2,0-.3-.1-.2,0-.5-.1-.8-.2h-.8c-.3,0-.5,0-.8.2-.1,0-.2,0-.3.1-.1,0-.3.1-.4.2-.1,0-.2.1-.3.2-.1,0-.2.1-.3.2l-.3.3-.3.3s-.1.2-.2.3c0,.1-.2.2-.2.3s-.1.3-.2.4c0,.1,0,.2-.1.3,0,.2-.1.5-.2.8h0v.8h0v1c0,.8.2,1.7.3,2.5,0,.4.2.8.2,1.2h0c.4,2.3.5,4.7.4,7.1-.2.8-.7,1.5-1.3,2h0v1.7c-2.4.2-4.8.6-7.1,1.1-9.8,2.2-18.8,7.3-25.7,14.7-.2-.1-.5-.4-.8-.5-.3-.2-.5-.4-.6-.5h-.3c-.7.2-1.4,0-2-.3-1.9-1.4-3.6-3-5.2-4.7h0c-.3-.4-.6-.7-.8-1-.5-.6-1.1-1.3-1.7-1.8-.2-.1-.4-.3-.6-.5h-.2v-.2c-.8-.6-1.8-1-2.8-1h0c-1.2,0-2.3.5-3,1.4-.7.8-.9,1.9-.7,3,.2,1.1.8,2.1,1.7,2.8h0s0,.1.2.2h0c0,.1.2.2.3.3,0,0,.2.1.2.2.7.5,1.4.9,2.1,1.3.4.2.7.4,1.1.6.5.3,1,.6,1.5.9.6.4,1.3.8,1.9,1.3.7.5,1.3,1,1.9,1.5.2.1.4.3.5.4.4.6.7,1.3.8,2.1h0v.2h0l1.2,1.1c-6.9,10.4-9.8,23.1-8,35.5h-.4c0,.1-1.2.5-1.2.5h0l-.2.2c-.4.6-.9,1.1-1.5,1.5-2.3.6-4.6,1-7,1.1h-1.2c-.8,0-1.7,0-2.5.2h0c-.2,0-.5.1-.7.2h-.3c-.2,0-.5,0-.7.2h0c-.2,0-.3.1-.5.2,0,0-.2,0-.2.1-.2,0-.3.2-.4.3h-.2c-.2.2-.3.4-.4.6h0c-.5.6-.7,1.3-.8,2.1h0v.8h1.1,0s0,0,0,0ZM139.1,232.5c0,.4,0,.7-.2,1h0l-7.8,19c-2.8-1.8-5.4-3.9-7.7-6.4-.8-.8-1.5-1.6-2.2-2.5-2.1-2.6-3.8-5.4-5.2-8.4-.5-1-.9-2-1.3-3.1l20.3-3.4h.6c.4,0,.7,0,1,.2h.3c.2,0,.4.2.5.3h0c.2.1.3.3.5.4,0,0,.2.2.2.3l.2.2s0,.2.1.3c0,.1.1.2.2.3,0,.2.1.4.2.6h0v1h0l.3.2h0ZM162.2,258.1h0c-7.4,1.6-15,1.2-22.2-1.1l3.5-6.4,6.4-11.6h0c0-.1.2-.3.3-.4.6-.9,1.6-1.4,2.6-1.4h.1c1.3,0,2.4.7,3,1.8h0l10,18c-1.3.4-2.6.8-4,1.1h.3,0ZM191.4,232.4c-.2.4-.3.9-.5,1.3,0,.2-.2.4-.2.6-.1.3-.3.7-.4,1,0,.2-.2.4-.3.6-.1.3-.3.6-.4.9-.1.2-.2.4-.3.6-.1.3-.3.6-.5.8-.1.2-.2.4-.3.6-.2.3-.3.6-.5.8-.1.2-.3.4-.4.6-.2.3-.3.5-.5.8-.1.2-.3.4-.4.6-.2.3-.4.5-.6.8-.1.2-.3.4-.4.6-.2.2-.4.5-.6.7-.2.2-.4.4-.6.7-2.7,3.2-5.8,6-9.4,8.3l-7.9-19.2h0c0-.2-.1-.4-.2-.5v-1.5c.3-1.6,1.7-2.7,3.2-2.8h.7l20.4,3.5v.2h0ZM191.4,204.5c.4,1.2.8,2.4,1.1,3.6.3,1.2.6,2.4.8,3.6.4,2.5.6,5,.6,7.4v1.7c0,.6,0,1.1-.1,1.7l-19.9-5.7h0c-.4-.1-.9-.3-1.2-.6h0c-.2-.1-.3-.3-.5-.4h0c-.1-.2-.2-.3-.3-.5h0c0-.2-.2-.3-.2-.5h0c0-.3,0-.4-.1-.6v-1.8s0-.2.1-.2c0,0,0-.2.1-.2l.2-.2s0-.1.1-.2c.1-.1.2-.3.4-.4h0l15.3-13.8c1.5,2.4,2.7,4.9,3.6,7.5h0v-.4h0ZM158.1,177.9c4.1.5,8.1,1.7,11.9,3.4.2.1.5.2.7.3.1,0,.2.1.3.2.4.2.8.4,1.2.6.1,0,.3.2.4.2.3.2.7.4,1,.6.2,0,.3.2.5.3.3.2.6.4.9.6.2.1.4.3.6.4.3.2.5.3.8.5.2.2.5.4.7.5s.4.3.6.4c.3.2.6.5,1,.8.1,0,.2.2.3.3.9.7,1.7,1.4,2.5,2.2l-15.8,11.2-1,.7h0c-.2.1-.3.2-.5.3h-.2c-.1,0-.3.1-.4.1h-.2c-.6.1-1.2.1-1.8-.1h0c-.2,0-.3-.1-.4-.2h-.2c-.6-.3-1-.8-1.3-1.4v-.2c0-.1-.1-.3-.1-.4v-.8h0l-1.2-20.6h-.3ZM149.9,211.8h6.3l3.9,4.9-1.4,6.1-5.7,2.7-5.7-2.7h0l-1.4-6.1,3.9-4.9h0ZM144,178.6c1.4-.3,2.8-.5,4.2-.7l-1.2,20.6h0v.8c0,.1,0,.3-.1.4v.2c-.2.4-.4.7-.8,1,0,0-.2.1-.2.2,0,0-.2.1-.3.2,0,0-.2,0-.3.1-.1,0-.2.1-.3.1h-2.1c-.1,0-.3,0-.4-.1h-.2c-.2,0-.4-.2-.5-.3h0l-16.9-12c5.4-5.3,12.1-8.9,19.5-10.6h-.4ZM118.3,197l15.4,13.8h0c.2.1.3.3.4.5,0,0,0,.1.1.2,0,.1.2.2.2.4v.2c.2.5.3,1,.3,1.6v1c0,.1-.1.2-.2.4,0,0,0,.2-.1.2-.2.4-.5.7-.8,1,0,0-.1,0-.2.1-.1,0-.2.2-.4.2h-.2c-.2,0-.4.2-.6.2h0l-19.8,5.8c-1-8.9,1-17.9,5.7-25.6h.2s0,0,0,0Z"/>
  <path class="st2" d="M296.4,80.7v-25.8c0-25.1-20.4-45.5-45.6-45.6H55.3c-25.1,0-45.5,20.4-45.6,45.6v341.7h286.7V80.7h0ZM218.9,50.1c.1-.8.3-1.7.5-2.5h0c.4-1.4,1.1-2.7,2-3.8.9-1,2-1.9,3.2-2.4,1.4-.6,2.9-.9,4.4-.8.8,0,1.6,0,2.4.3.7.2,1.5.4,2.2.7v-10.4l6.5-1.1h0v33.3c-.6.2-1.3.3-2,.5-.8.2-1.6.3-2.4.4-.8,0-1.7.2-2.5.3h-2.5c-1.7,0-3.5-.3-5.1-.8-1.4-.5-2.7-1.3-3.8-2.4-1-1.1-1.8-2.4-2.3-3.8-.5-1.6-.8-3.3-.8-5s0-1.7.2-2.6h0s0,0,0,0ZM194.4,47.3c.4-1.1,1-2.1,1.7-3h0c.1-.2.3-.4.4-.5.1,0,.2-.2.3-.4h0c1-1,2.2-1.8,3.5-2.3s2.7-.8,4.1-.8c2.9,0,5.7.9,7.8,3,1.9,2,2.9,4.9,2.9,8.8h0v2.5h-14.8c.1,1.3.8,2.5,1.9,3.2,1.3.9,2.9,1.3,4.5,1.2,1,0,2.1,0,3.1-.3h.5c.3,0,.6,0,1-.2.6-.2,1.3-.3,1.9-.6l.9,5.3h0c-.5.2-.9.4-1.4.5-.6.2-1.3.3-1.9.5-.7,0-1.5.2-2.3.3h-2.5c-1.8,0-3.7-.3-5.4-.9-1.4-.6-2.7-1.4-3.8-2.5h0c-1-1.1-1.8-2.4-2.2-3.8-.5-1.5-.7-3.1-.7-4.7s.3-3.7.9-5.4h-.4ZM182.5,32.1c.2-.2.3-.4.5-.6,1.6-1.4,3.9-1.4,5.5,0,.8.7,1.2,1.8,1.2,2.8s-.4,2.1-1.2,2.8-1.7,1-2.7,1h0c-1,0-2-.4-2.7-1-.8-.7-1.2-1.8-1.2-2.8s.2-1.6.6-2.2h0ZM189.1,41v23.1h-6.5v-23.1s6.5,0,6.5,0ZM166.7,32.7c1.7-1.8,4.2-2.6,7.5-2.6s2,0,3,.3c.7.2,1.4.4,2,.7l-1.1,5.1c-.5-.2-1-.4-1.6-.4h-1.7c-.5,0-1.4,0-2,.3-.5.2-.9.5-1.3.9-.3.4-.5.9-.7,1.4-.1.6-.2,1.1-.2,1.7v1.1h8.1v5.4h-8.1v17.6h-6.5v-24.3c-.1-2.6.8-5.2,2.5-7.1h.1s0-.1,0-.1ZM151.1,32.8c.2-.5.5-.9.9-1.3,1.6-1.4,3.9-1.4,5.5,0,.8.7,1.2,1.8,1.2,2.8s-.4,2.1-1.2,2.8c-1.6,1.4-3.9,1.4-5.5,0s-1.2-1.8-1.2-2.8,0-1.1.3-1.5h0ZM158,41v23.1h-6.5v-23.1s6.5,0,6.5,0ZM131.8,35.3h0l6.5-1.1v6.8h7.8v5.4h-7.8v8.1c0,1.1.2,2.3.7,3.3.1.2.3.4.5.5.7.5,1.6.8,2.5.7.7,0,1.5,0,2.2-.2.7,0,1.4-.3,2-.5l.9,5.1c-.9.3-1.7.6-2.6.8-1.2.3-2.4.4-3.6.4s-3-.2-4.4-.7c-1.1-.4-2.1-1.1-2.8-2s-1.2-2-1.5-3.1c-.3-1.3-.4-2.7-.4-4.1v-19.4s0,0,0,0ZM113.5,64.1v-21.8c1.4-.5,2.7-.8,4.1-1.2,1.7-.4,3.5-.6,5.3-.5h1.3c.5,0,1,0,1.5.2.5,0,1,.2,1.5.3.2,0,.4,0,.6.2.2,0,.4,0,.6.2l-1.1,5.4c-.6,0-1.3-.3-2.1-.5-.8-.2-1.7-.2-2.5-.2h-1.5c-.4,0-.9,0-1.3.2v17.6h-6.5,0ZM86.8,52.7h0c0-1.8.3-3.7.9-5.4.6-1.4,1.4-2.7,2.5-3.8s2.2-1.8,3.5-2.3,2.7-.8,4.1-.8c2.9,0,5.7.9,7.8,3,1.9,2,2.8,4.9,2.8,8.8s0,.8,0,1.2v1.2h-14.8c0,1.3.8,2.5,1.9,3.2,1.3.9,2.9,1.3,4.5,1.2h1.7c.6,0,1.2,0,1.8-.2,1-.2,1.9-.4,2.8-.8l.9,5.3c-.5.2-.9.4-1.4.5-.6.2-1.3.3-1.9.5-.7,0-1.5.2-2.3.3h-2.5c-1.8,0-3.7-.3-5.4-.9-1.4-.6-2.7-1.4-3.8-2.5-1-1.1-1.8-2.4-2.2-3.8,0-.4-.2-.8-.3-1.2v-.3c0-.3,0-.6-.2-.8v-2.4s-.4,0-.4,0ZM66.8,47.8c1-2.9,3.2-5.3,6.1-6.5,1.6-.7,3.3-1,5-1s2.3,0,3.4.3c1,.2,2,.5,3,.9h0l-1.4,5.2c-.7-.2-1.3-.5-2-.6-.8-.2-1.6-.3-2.5-.3-1.6,0-3.2.5-4.3,1.8-1,1.4-1.5,3-1.4,4.7,0,1.7.4,3.4,1.3,4.8.9,1.1,2.4,1.7,4.7,1.7s1.7,0,2.5-.2c.9,0,1.7-.4,2.5-.7l.2.9.8,4.4c-.9.4-1.9.6-2.8.8-1.2.2-2.5.4-3.8.3-1.9,0-3.7-.3-5.4-.9-1.4-.6-2.7-1.4-3.7-2.6h0c-1-1.1-1.7-2.4-2.1-3.8-.5-1.6-.7-3.2-.7-4.8s.3-3.2.8-4.7l-.2.3h0ZM287.9,389.1H17.1V84.5h270.8v304.6h0Z"/>
  <path class="st2" d="M230.8,59.1h1.6c.5,0,.9,0,1.2-.2v-11.9c-.5-.3-1-.5-1.6-.7-.7-.2-1.3-.3-2-.3h-1.1c-.5,0-.9.3-1.3.5-1.5.9-2.3,2.8-2.3,5.7s.4,3.4,1.4,4.9c1,1.2,2.5,1.9,4,1.8v.2h.1Z"/>
  <path class="st2" d="M208.5,48.6h0c-.2-.5-.4-1-.7-1.4s-.8-.8-1.3-1c-.6-.3-1.2-.4-1.9-.4s-1.3,0-1.9.4c-.5.2-1,.6-1.3,1-.4.4-.6.9-.8,1.4s-.3,1.1-.4,1.6h8.6c0-.6-.1-1.1-.3-1.6h0Z"/>
  <path class="st2" d="M101.9,48.6c-.2-.5-.4-1-.7-1.4-.4-.4-.8-.8-1.3-1-.6-.3-1.2-.4-1.9-.4s-1.3,0-1.9.4c-.5.2-1,.6-1.3,1-.4.4-.6.9-.8,1.4h0c-.2.5-.3,1.1-.4,1.6h8.6c0-.6,0-1.1-.3-1.6,0,0,0,0,0,0Z"/>
  <path class="st2" d="M141.4,201.1h0c.2.1.3.2.5.3h.2c.1,0,.3.1.4.1h.2c.4,0,.8.1,1.3,0h.6c.1,0,.2,0,.3-.1,0,0,.2,0,.3-.1.1,0,.2-.1.3-.2,0,0,.2-.1.2-.2.3-.3.6-.6.8-1v-.2c0-.1.1-.3.1-.4v-.8h0l1.2-20.6c-1.4.2-2.8.4-4.2.7-7.4,1.7-14.1,5.3-19.5,10.6l16.9,12h.4Z"/>
  <path class="st2" d="M156.1,238.9h0c-.6-1.1-1.8-1.8-3-1.8h-.1c-1.1,0-2,.6-2.6,1.4,0,.1-.2.2-.3.4h0l-6.4,11.6-3.5,6.4c7.1,2.4,14.8,2.8,22.2,1.1h0c1.3-.3,2.7-.7,4-1.1l-10-18h-.3,0Z"/>
  <path class="st2" d="M132.3,216.8h0c.2,0,.4-.1.6-.2h.2c.1,0,.2-.1.4-.2,0,0,.1,0,.2-.1.3-.3.6-.6.8-1,0,0,0-.2.1-.2,0-.1.1-.2.2-.4v-1c0-.5,0-1.1-.3-1.6v-.2c0-.1-.1-.3-.2-.4,0,0,0-.1-.1-.2-.1-.2-.3-.3-.4-.5h0l-15.4-13.8c-4.7,7.7-6.7,16.6-5.7,25.6l19.8-5.7h-.2Z"/>
  <path class="st2" d="M171,228.7h-.7c-1.6,0-2.9,1.2-3.2,2.8v1.5c0,.2.1.4.2.5h0l7.9,19.2c3.5-2.3,6.7-5,9.4-8.3.2-.2.4-.4.6-.7.2-.2.4-.5.6-.7.1-.2.3-.4.4-.6.2-.3.4-.5.6-.8.1-.2.3-.4.4-.6.2-.3.3-.5.5-.8.1-.2.3-.4.4-.6.2-.3.3-.6.5-.8.1-.2.2-.4.3-.6.2-.3.3-.6.5-.8.1-.2.2-.4.3-.6.1-.3.3-.6.4-.9,0-.2.2-.4.3-.6.1-.3.3-.7.4-1,0-.2.2-.4.2-.6.2-.4.3-.9.5-1.3v-.2l-20.4-3.5h0Z"/>
  <path class="st2" d="M139.1,231.6h0c0-.3-.1-.5-.2-.7,0-.1-.1-.2-.2-.3,0,0,0-.2-.1-.3l-.2-.2c0-.1-.2-.2-.2-.3-.2-.2-.3-.3-.5-.4h0c-.2-.1-.3-.2-.5-.3h-.3c-.3-.1-.7-.2-1-.2h-.6l-20.3,3.4c.4,1.1.8,2.1,1.3,3.1,1.4,3,3.1,5.9,5.2,8.4.7.9,1.4,1.7,2.2,2.5,2.3,2.4,4.9,4.6,7.7,6.4l7.8-19h0c.1-.3.2-.7.2-1v-.9h0l-.3-.2h0Z"/>
  <path class="st2" d="M159.2,198.4h0v.8c0,.1,0,.3.1.4v.2c.3.6.7,1.1,1.3,1.4h.2c.1,0,.3.2.4.2h0c.6.2,1.2.2,1.8.1h.2c.1,0,.3,0,.4-.1h.2c.2,0,.4-.2.5-.3h0l1-.7,15.8-11.2c-.8-.8-1.6-1.5-2.5-2.2-.1,0-.2-.2-.3-.3-.3-.3-.6-.5-1-.8-.2-.1-.4-.3-.6-.4-.2-.2-.5-.4-.7-.5-.3-.2-.5-.3-.8-.5-.2-.1-.4-.3-.6-.4-.3-.2-.6-.4-.9-.6-.2-.1-.3-.2-.5-.3-.3-.2-.7-.4-1-.6-.1,0-.3-.2-.4-.2-.4-.2-.8-.4-1.2-.6-.1,0-.2-.1-.3-.2-.2-.1-.5-.2-.7-.3-3.8-1.7-7.8-2.9-11.9-3.4h0l1.2,20.6h.3Z"/>
  <polygon class="st2" points="147.4 222.8 147.4 222.8 153.1 225.6 158.7 222.8 160.1 216.7 156.2 211.8 149.9 211.8 146 216.7 147.4 222.8"/>
  <path class="st2" d="M172.4,210.7h0c-.1.1-.3.2-.4.4,0,0,0,.1-.1.2l-.2.2s0,.2-.1.2c0,0,0,.2-.1.2v1.8c0,.2,0,.3.1.5h0c0,.3.1.4.2.6h0c0,.2.2.3.3.5h0c.1.2.3.3.5.4h0c.4.3.8.5,1.2.6h0l19.9,5.7c0-.6,0-1.1.1-1.7v-1.7c0-2.5-.2-5-.6-7.4-.2-1.2-.5-2.4-.8-3.6-.3-1.2-.7-2.4-1.1-3.6-.9-2.6-2.2-5.1-3.6-7.5l-15.3,13.7h0v.5h0Z"/>
  <path class="st2" d="M224.3,155.9h0l-65.8-31.4,65.8,31.4h0Z"/>
  <path class="st2" d="M230.8,163.3c0,.1.1.3.1.4h0c0-.1-.1-.3-.1-.4Z"/>
  <path class="st2" d="M61.3,245.5l45.5,56.6c2.4,3,6,4.7,9.8,4.7h73c3.8,0,7.4-1.7,9.8-4.7l45.5-56.6c.3-.3.5-.7.7-1-.2.3-.5.7-.7,1,.5-.7,1-1.4,1.4-2.2.1-.3.3-.5.4-.8.3-.8.6-1.7.7-2.5,0-.3,0-.6.1-.9v-1c0-1,0-2.1-.3-3.1l-16.2-70.6c0-.2-.1-.4-.2-.6h0c-.6-2.2-1.8-4.1-3.5-5.7-.2-.2-.5-.5-.8-.7-.1,0-.2-.2-.3-.3-.2-.2-.4-.3-.7-.5-.1,0-.2-.1-.3-.2-.3-.2-.6-.4-1-.5h0l-65.8-31.4c-3.5-1.6-7.5-1.6-10.9,0l-65.8,31.4c-3.4,1.6-5.9,4.8-6.8,8.5l-16.2,70.6c-.8,3.3,0,6.7,1.7,9.6.2.3.5.7.7,1h.2q0-.1,0-.1ZM83.7,232.9h0c0-.7.4-1.5.8-2.1h0c0-.2.3-.3.4-.5h.2c.2-.2.3-.3.4-.4,0,0,.2,0,.2-.1.2,0,.3-.2.5-.2h0c.2,0,.5-.1.7-.2h.3c.2,0,.5-.1.7-.2h0c.8-.2,1.7-.2,2.5-.2h1.2c2.3-.2,4.7-.6,7-1.2.6-.4,1.1-.9,1.5-1.5l.2-.2h0l1.2-.4h.4c-1.8-12.5,1.1-25.2,8-35.6l-1.2-1.1h0c0-.9-.3-1.6-.8-2.2-.2-.2-.4-.3-.5-.4-.6-.5-1.3-1-1.9-1.5-.6-.4-1.2-.9-1.9-1.3-.5-.3-1-.6-1.5-.9-.4-.2-.8-.4-1.1-.6-.7-.4-1.5-.8-2.1-1.3,0,0,0-.1-.2-.2l-.3-.3h0s0-.1-.2-.2h0c-.9-.7-1.5-1.7-1.7-2.9-.2-1.1,0-2.2.7-3,.7-.9,1.8-1.4,3-1.4h0c1,0,2,.4,2.8,1h0l.2.2c.2.2.5.4.6.5.6.6,1.2,1.2,1.7,1.8.3.3.5.6.8.9h0c1.6,1.8,3.3,3.4,5.2,4.8.6.4,1.3.4,2,.3h.3s.4.3.6.5c.3.2.6.4.8.5,6.9-7.3,15.9-12.5,25.7-14.7,2.3-.5,4.7-.9,7.1-1.1v-1.6h0c.6-.5,1-1.2,1.3-2,0-2.4,0-4.7-.4-7.1h0c0-.4-.1-.9-.2-1.2-.2-.8-.3-1.7-.3-2.5v-1h0v-.9h0c0-.3,0-.5.2-.8,0-.1,0-.2.1-.3,0-.1.1-.3.2-.4,0-.1.1-.2.2-.3,0,0,.1-.2.2-.3,0-.1.2-.2.3-.3l.3-.3s.2-.1.3-.2c.1,0,.2-.2.3-.2s.3-.1.4-.2c.1,0,.2,0,.3-.1.2,0,.5-.1.8-.2h.8c.3,0,.5,0,.8.2.1,0,.2,0,.3.1.1,0,.3.1.4.2.1,0,.2.1.3.2,0,0,.2.1.3.2l.3.3.3.3s.1.2.2.3c0,.1.2.2.2.3s.1.3.2.4c0,.1,0,.2.1.3,0,.2.1.5.2.7h0v.8h0v1.2c0,.8-.2,1.7-.3,2.5,0,.4-.2.8-.2,1.2v.2c-.4,2.3-.5,4.6-.4,6.9.1.7.5,1.3,1.1,1.7l.2.2h0v1.6h0c6.2.7,12.2,2.3,17.8,5.1,5.5,2.7,10.6,6.4,14.8,10.8l1.5-1.1h.2c.7.1,1.5,0,2.2-.3.1,0,.2-.2.3-.3,1.7-1.3,3.3-2.8,4.8-4.4h.1c.3-.4.6-.7.8-1,.5-.7,1.1-1.3,1.8-1.8.1-.1.3-.2.4-.3l.2-.2.2-.2h0c.2-.2.4-.4.6-.5h0s.1,0,.2-.1c.2,0,.3-.2.5-.3h.3c.1,0,.3,0,.4-.1h1.6c.1,0,.2,0,.4.1.1,0,.3,0,.4.1.1,0,.2.1.4.2.1,0,.2.1.3.2.2.1.3.2.4.4,0,0,.1,0,.2.1h0c0,.1.2.2.3.3,0,.1.2.2.2.3h0s0,.1.1.2c0,.2.2.3.3.5,0,.1,0,.2.1.3,0,.3.1.5.1.8v1.2c0,.1,0,.2-.1.4,0,.1,0,.3-.1.4,0,.1-.1.2-.2.4,0,.1-.1.2-.2.3-.1.2-.2.3-.4.4,0,0,0,.1-.1.2h0c-.2.2-.4.4-.6.5h0l-.3.2c-.2.2-.4.3-.6.5-.7.5-1.4.9-2.1,1.3h0c-.3.2-.7.4-1.1.6-1.9,1.1-3.8,2.4-5.5,3.8-.1,0-.2.2-.3.3-.2.2-.4.5-.5.8h0v1.4h-.1c-.1.2-.3.4-.5.5-.2.2-.4.4-.6.5l-.2.2c.7,1,1.3,2.1,1.9,3.1,1.2,2,2.2,4.1,3,6.3.2.5.4,1,.6,1.4.5,1.4,1,2.8,1.3,4.2,1.2,4.3,1.8,8.8,1.8,13.2h0c0,2.3-.2,4.7-.5,7l1.6.5h0v.2c.5.6,1,1.2,1.7,1.5,2.3.6,4.6,1,7,1.1h1.3c.8,0,1.7,0,2.5.2h0c.2,0,.5.1.7.2h.4c.2,0,.5,0,.7.2h0c.2,0,.3.1.5.2,0,0,.2,0,.3.1.1,0,.2.2.3.2,0,0,.2.1.3.2,0,0,.2.2.2.3l.3.3s.1.2.2.3c0,.1.1.2.2.3,0,.1.1.2.1.4s0,.2.1.3v1.5h0v.7h0c0,.2-.1.3-.2.5,0,0,0,.2-.1.3,0,.1-.2.2-.2.3,0,0-.1.2-.2.3,0,0-.2.2-.3.2l-.3.3c-.1,0-.2.1-.3.2-.1,0-.2.1-.3.2-.1,0-.3.1-.4.2-.1,0-.2,0-.3.1h-1.6c-.2,0-.5,0-.7-.2h-.4c-.2,0-.4,0-.6-.1h0c-.8-.2-1.6-.5-2.4-.9s-.8-.3-1.2-.5h-.1c-.2-.1-.3-.2-.5-.2-2-.8-4.1-1.4-6.2-1.8h-.2c-.6,0-1.2.2-1.7.7,0,0-.2.1-.2.2h0c-.5-.1-1.1-.2-1.6-.3-3.8,12-11.9,22.1-22.7,28.5,0,0,0,.2.1.3v.2c.2.4.3.7.5,1h0v.2c-.3.6-.4,1.3-.2,2,1,2.2,2.1,4.3,3.5,6.2.2.4.5.7.7,1,.5.7,1,1.4,1.4,2.1.1.2.2.5.4.7,0,.1.1.2.2.3,1.1,2,.3,4.5-1.7,5.6-1,.5-2.1.5-3.1,0,0,0-.2,0-.2-.1-.9-.5-1.7-1.2-2.2-2.2,0,0,0-.2-.1-.3-.1-.3-.3-.5-.3-.7h0v-.2c-.3-.7-.5-1.5-.7-2.2,0-.2-.1-.4-.2-.6,0-.2-.1-.4-.2-.6h0c-.7-2.3-1.6-4.5-2.7-6.6-.4-.6-1-1-1.7-1.1h-.3l-.2-.4-.2-.3-.3-.6v-.2c-11.8,4.4-24.7,4.4-36.4,0l-.9,1.6h0c-.6.1-1.2.4-1.7.8-1,1.4-1.7,3-2.2,4.7-.3.8-.5,1.6-.8,2.3,0,.3-.2.6-.2.8s0,.3-.1.4c-.2.8-.5,1.6-.8,2.4h0c0,.2-.2.4-.3.7h0c0,.1,0,.2-.1.3h0c-.7,1.5-2.2,2.5-3.9,2.6-.5,0-1.1-.1-1.6-.4-2-1.1-2.8-3.6-1.7-5.6,0-.1,0-.2.2-.4v-.3c0-.1,0-.3.2-.4.4-.7.9-1.4,1.4-2.1,0-.2.3-.4.4-.6,0-.1.2-.3.3-.4,1.4-2,2.6-4.2,3.6-6.4,0-.8,0-1.5-.3-2.2h0l.7-1.7c-10.8-6.4-18.8-16.4-22.7-28.3l-1.7.3h-.2c-.6-.4-1.3-.7-2-.7h0c-2.3.4-4.6,1.1-6.7,2h0c-.4.2-.8.3-1.2.5-.8.3-1.5.6-2.3.9h0c-.2,0-.5.1-.7.2h-.2c-.2,0-.5.1-.7.2h-1c-.2,0-.4,0-.5-.1h0c-.4-.1-.9-.3-1.2-.6-.2,0-.3-.2-.4-.3s-.2-.2-.3-.3c0-.1-.2-.3-.3-.4-.2-.3-.3-.6-.4-.9h0c0-.2,0-.4-.2-.6h0v-.8h0l-1.1.2h.2s0,0,0,0Z"/>
  <path class="st2" d="M225.2,156.4c-.3-.2-.5-.3-.8-.4h0c.3.1.6.3.8.4Z"/>
  <path class="st2" d="M9.6,438c0,18.9,15.3,34.3,34.3,34.3h218.1c18.9,0,34.3-15.3,34.3-34.3h0v-32.9H9.6v32.9Z"/>
  <g>
    <path class="st1" d="M105,427.1c1-.4,2.1-.9,3.2-1.5,1.1-.5,2.2-1.1,3.2-1.8s2.1-1.3,3-2.1c1-.7,1.8-1.5,2.6-2.3h5.5v36.5h-7.9v-26.3c-1.1.7-2.2,1.3-3.5,1.9-1.3.6-2.6,1.1-3.8,1.5l-2.4-6.1Z"/>
    <path class="st1" d="M139.7,451.9c0,1.6-.5,2.8-1.5,3.6s-2.1,1.2-3.4,1.2-2.4-.4-3.4-1.2c-1-.8-1.5-2-1.5-3.6s.5-2.8,1.5-3.6c1-.8,2.1-1.2,3.4-1.2s2.4.4,3.4,1.2c1,.8,1.5,2,1.5,3.6Z"/>
    <path class="st1" d="M156.3,456.8c-.9,0-1.9,0-3-.2-1.1-.1-2.1-.3-3.1-.5-1-.2-1.9-.4-2.7-.7-.8-.2-1.4-.5-1.9-.7l1.5-6.5c.9.4,2.1.8,3.5,1.2s3.2.7,5.3.7,4.2-.5,5.3-1.4c1.1-.9,1.7-2.1,1.7-3.7s-.2-1.7-.6-2.4-1-1.2-1.7-1.6c-.7-.4-1.5-.7-2.5-.8-1-.2-2-.2-3.1-.2h-3.1v-6.3h3.5c.8,0,1.5,0,2.2-.2.7-.1,1.4-.4,1.9-.7s1-.8,1.3-1.4c.3-.6.5-1.3.5-2.2s-.1-1.2-.4-1.7c-.3-.5-.6-.9-1.1-1.2s-.9-.6-1.5-.7-1.2-.2-1.8-.2c-1.5,0-2.9.2-4.2.7-1.3.5-2.5,1-3.5,1.7l-2.8-5.7c.6-.4,1.2-.7,2-1.1.8-.4,1.6-.7,2.5-1.1.9-.3,1.9-.6,2.9-.8,1-.2,2.1-.3,3.3-.3,2.1,0,4,.3,5.6.8,1.6.5,2.9,1.2,3.9,2.2s1.8,2,2.3,3.3c.5,1.2.7,2.6.7,4.1s-.4,2.8-1.2,4.2c-.8,1.4-1.9,2.4-3.3,3.1,1.9.8,3.4,1.9,4.4,3.5s1.6,3.4,1.6,5.5-.3,3.2-.8,4.7c-.6,1.4-1.4,2.7-2.6,3.7-1.2,1-2.7,1.8-4.6,2.4s-4,.9-6.6.9Z"/>
    <path class="st1" d="M186.2,456.8c-.9,0-2,0-3-.2-1.1-.1-2.1-.3-3.1-.5-1-.2-1.9-.4-2.7-.7-.8-.2-1.4-.5-1.9-.7l1.5-6.5c.9.4,2.1.8,3.5,1.2,1.4.4,3.2.7,5.3.7s4.2-.5,5.3-1.4c1.1-.9,1.7-2.1,1.7-3.7s-.2-1.7-.6-2.4c-.4-.7-1-1.2-1.7-1.6-.7-.4-1.5-.7-2.5-.8-1-.2-2-.2-3.1-.2h-3.1v-6.3h3.5c.8,0,1.5,0,2.2-.2.7-.1,1.4-.4,1.9-.7s1-.8,1.3-1.4c.3-.6.5-1.3.5-2.2s-.1-1.2-.4-1.7c-.3-.5-.6-.9-1.1-1.2s-.9-.6-1.5-.7-1.2-.2-1.8-.2c-1.5,0-2.9.2-4.2.7-1.3.5-2.5,1-3.5,1.7l-2.8-5.7c.6-.4,1.2-.7,2-1.1.8-.4,1.6-.7,2.5-1.1.9-.3,1.9-.6,2.9-.8,1-.2,2.1-.3,3.3-.3,2.1,0,4,.3,5.6.8,1.6.5,2.9,1.2,3.9,2.2s1.8,2,2.3,3.3c.5,1.2.7,2.6.7,4.1s-.4,2.8-1.2,4.2c-.8,1.4-1.9,2.4-3.3,3.1,1.9.8,3.4,1.9,4.4,3.5s1.6,3.4,1.6,5.5-.3,3.2-.8,4.7c-.6,1.4-1.4,2.7-2.6,3.7-1.2,1-2.7,1.8-4.6,2.4-1.8.6-4,.9-6.6.9Z"/>
  </g>
</svg>