<?xml version="1.0" encoding="UTF-8"?>
<svg id="Layer_1" xmlns="http://www.w3.org/2000/svg" version="1.1" viewBox="0 0 305.5 481.5">
  <!-- Generator: Adobe Illustrator 30.0.0, SVG Export Plug-In . SVG Version: 2.1.1 Build 123)  -->
  <path d="M9.495,405.332v32.922c0,18.919,15.337,34.255,34.255,34.255h218.099c18.919,0,34.255-15.337,34.255-34.255v-32.922H9.495Z" fill="#476bb3"/>
  <path d="M296.104,80.38h-.045v-25.805c0-25.071-20.512-45.583-45.583-45.583H54.979c-25.071,0-45.583,20.512-45.583,45.583v341.674h286.708V80.38ZM151.145,63.781v-23.06h6.532v23.06h-6.532ZM182.184,63.781v-23.06h6.532v23.06h-6.532ZM219.062,47.319c.467-1.505,1.14-2.784,2.017-3.836.877-1.052,1.951-1.856,3.222-2.411,1.272-.555,2.725-.833,4.363-.833.905,0,1.716.088,2.433.263.716.175,1.439.424,2.17.745v-10.434l6.532-1.052v33.275c-.585.175-1.257.344-2.017.504-.76.161-1.556.299-2.389.416-.833.117-1.681.212-2.543.285-.863.073-1.688.11-2.477.11-1.901,0-3.595-.278-5.086-.833-1.491-.555-2.748-1.352-3.77-2.389-1.023-1.037-1.805-2.294-2.345-3.77-.542-1.476-.811-3.135-.811-4.976,0-1.87.233-3.558.701-5.064ZM194.033,47.056c.628-1.535,1.454-2.813,2.477-3.836,1.023-1.023,2.199-1.797,3.529-2.324,1.33-.526,2.696-.789,4.099-.789,3.273,0,5.86,1.002,7.76,3.003,1.899,2.002,2.85,4.947,2.85,8.834,0,.38-.015.797-.044,1.25-.029.453-.059.855-.088,1.205h-14.818c.146,1.345.774,2.411,1.885,3.201,1.11.789,2.601,1.183,4.472,1.183,1.198,0,2.374-.109,3.529-.329,1.154-.219,2.097-.489,2.828-.811l.877,5.305c-.351.175-.819.351-1.403.526-.585.176-1.235.329-1.951.46-.717.132-1.484.241-2.302.329-.819.088-1.637.131-2.455.131-2.076,0-3.88-.307-5.414-.921-1.535-.614-2.806-1.453-3.814-2.521-1.008-1.067-1.754-2.33-2.236-3.792-.482-1.461-.723-3.039-.723-4.735,0-2.045.314-3.836.942-5.37ZM182.688,31.23c.774-.686,1.688-1.03,2.74-1.03s1.965.344,2.74,1.03c.774.687,1.162,1.63,1.162,2.828s-.388,2.141-1.162,2.828c-.775.687-1.688,1.03-2.74,1.03s-1.966-.343-2.74-1.03c-.775-.686-1.162-1.629-1.162-2.828s.387-2.141,1.162-2.828ZM163.815,39.494c0-2.981.84-5.349,2.521-7.102,1.681-1.754,4.172-2.631,7.475-2.631,1.227,0,2.243.103,3.047.307.803.205,1.483.424,2.039.658l-1.14,5.129c-.467-.204-.986-.351-1.556-.438-.57-.088-1.147-.132-1.731-.132-.79,0-1.455.11-1.995.329-.541.219-.965.519-1.271.899-.307.38-.526.833-.658,1.359-.131.526-.197,1.096-.197,1.71v1.14h8.067v5.436h-8.067v17.624h-6.532v-24.288ZM151.65,31.23c.774-.686,1.688-1.03,2.74-1.03s1.965.344,2.74,1.03c.774.687,1.162,1.63,1.162,2.828s-.388,2.141-1.162,2.828c-.775.687-1.688,1.03-2.74,1.03s-1.966-.343-2.74-1.03c-.775-.686-1.162-1.629-1.162-2.828s.387-2.141,1.162-2.828ZM131.461,34.978l6.532-1.052v6.795h7.847v5.436h-7.847v8.11c0,1.374.241,2.47.723,3.288.482.819,1.453,1.227,2.915,1.227.701,0,1.425-.066,2.17-.197.745-.131,1.425-.314,2.039-.548l.921,5.086c-.789.322-1.666.599-2.63.833-.965.234-2.148.351-3.551.351-1.783,0-3.259-.241-4.428-.723-1.169-.482-2.104-1.154-2.806-2.017-.701-.862-1.191-1.907-1.469-3.135-.278-1.228-.416-2.587-.416-4.077v-19.378ZM113.18,41.949c1.169-.409,2.55-.796,4.143-1.162,1.593-.365,3.368-.548,5.327-.548.351,0,.774.022,1.272.066.497.044.993.103,1.49.175.497.073.993.161,1.491.263.497.103.921.227,1.271.373l-1.096,5.392c-.585-.146-1.271-.299-2.06-.46-.789-.16-1.637-.241-2.543-.241-.41,0-.899.037-1.469.11-.57.073-1.002.153-1.293.241v17.624h-6.532v-21.833ZM87.423,47.056c.628-1.535,1.454-2.813,2.477-3.836,1.023-1.023,2.199-1.797,3.529-2.324,1.329-.526,2.696-.789,4.099-.789,3.273,0,5.86,1.002,7.76,3.003,1.899,2.002,2.849,4.947,2.849,8.834,0,.38-.015.797-.044,1.25-.03.453-.059.855-.088,1.205h-14.818c.146,1.345.774,2.411,1.885,3.201,1.11.789,2.601,1.183,4.472,1.183,1.198,0,2.374-.109,3.529-.329,1.154-.219,2.097-.489,2.828-.811l.877,5.305c-.351.175-.819.351-1.403.526-.585.176-1.235.329-1.951.46-.716.132-1.484.241-2.302.329-.819.088-1.637.131-2.455.131-2.076,0-3.88-.307-5.414-.921-1.534-.614-2.806-1.453-3.814-2.521-1.008-1.067-1.754-2.33-2.236-3.792-.482-1.461-.723-3.039-.723-4.735,0-2.045.314-3.836.942-5.37ZM66.467,47.538c.54-1.476,1.322-2.762,2.346-3.858,1.023-1.096,2.265-1.965,3.726-2.608,1.461-.643,3.127-.965,4.998-.965,1.228,0,2.352.109,3.376.329,1.023.219,2.017.534,2.981.943l-1.359,5.217c-.614-.234-1.287-.438-2.017-.614-.731-.176-1.55-.263-2.455-.263-1.929,0-3.369.599-4.318,1.797-.95,1.199-1.425,2.777-1.425,4.735,0,2.076.445,3.683,1.337,4.822.891,1.14,2.448,1.71,4.669,1.71.789,0,1.636-.072,2.543-.219.906-.146,1.739-.379,2.499-.701l.921,5.349c-.76.322-1.71.599-2.849.833-1.14.233-2.397.351-3.77.351-2.104,0-3.917-.314-5.436-.943-1.52-.628-2.769-1.483-3.748-2.565-.979-1.081-1.695-2.36-2.148-3.836-.454-1.476-.68-3.076-.68-4.8,0-1.666.27-3.237.811-4.713ZM16.793,388.83V84.257h270.789v304.573H16.793Z" fill="#476bb3"/>
  <path d="M126.058,336.021c-.327-.416-.757-.757-1.291-1.024-.505-.267-1.143-.401-1.915-.401-.742,0-1.38.134-1.915.401-.534.237-.98.564-1.336.98-.356.416-.638.906-.846,1.47-.178.534-.312,1.084-.401,1.648h8.773c-.03-.564-.134-1.113-.312-1.648-.148-.534-.401-1.009-.757-1.425Z" fill="#fff"/>
  <path d="M197.118,336.021c-.327-.416-.757-.757-1.291-1.024-.505-.267-1.143-.401-1.915-.401-.742,0-1.38.134-1.915.401-.534.237-.98.564-1.336.98-.356.416-.638.906-.846,1.47-.178.534-.312,1.084-.401,1.648h8.773c-.03-.564-.134-1.113-.312-1.648-.148-.534-.401-1.009-.757-1.425Z" fill="#fff"/>
  <path d="M96.064,334.864c-.683,0-1.366.089-2.049.267-.653.178-1.188.401-1.603.668v12.068c.327.059.742.119,1.247.178.505.03,1.054.045,1.648.045,1.811,0,3.177-.623,4.097-1.87.92-1.247,1.38-2.895,1.38-4.943,0-4.275-1.573-6.413-4.72-6.413Z" fill="#fff"/>
  <path d="M241.998,336.021c-.327-.416-.757-.757-1.291-1.024-.505-.267-1.143-.401-1.915-.401-.742,0-1.38.134-1.915.401-.534.237-.98.564-1.336.98-.356.416-.638.906-.846,1.47-.178.534-.312,1.084-.401,1.648h8.773c-.03-.564-.134-1.113-.312-1.648-.149-.534-.401-1.009-.757-1.425Z" fill="#fff"/>

  <path d="M16.793,84.257v304.573h270.789V84.257H16.793ZM106.412,301.818l-45.509-56.583c-.254-.319-.493-.65-.715-.992-1.848-2.827-2.464-6.276-1.707-9.561l16.221-70.567c.852-3.7,3.356-6.813,6.803-8.459l65.749-31.415c1.508-.721,3.146-1.135,4.818-1.219,2.103-.106,4.199.313,6.096,1.219l65.757,31.399c3.447,1.646,5.951,4.76,6.803,8.459l16.246,70.567c.852,3.701-.043,7.586-2.43,10.553l-45.492,56.592c-2.388,2.963-6.006,4.687-9.83,4.684l-72.98.017c-3.826,0-7.444-1.726-9.83-4.692ZM48.807,353.166c-.475-.772-1.024-1.618-1.648-2.538-.594-.95-1.232-1.885-1.915-2.806-.683-.95-1.41-1.855-2.182-2.716-.742-.861-1.484-1.588-2.227-2.182v10.242h-6.635v-33.488l6.635-1.069v19.594c.653-.712,1.321-1.455,2.004-2.227.713-.772,1.395-1.529,2.049-2.271.653-.772,1.262-1.499,1.826-2.182.594-.683,1.098-1.277,1.514-1.781h7.882c-1.573,1.811-3.117,3.548-4.631,5.21-1.484,1.633-3.117,3.325-4.899,5.077.891.802,1.811,1.766,2.761,2.895.95,1.098,1.87,2.241,2.761,3.429.891,1.188,1.707,2.375,2.449,3.563.742,1.188,1.366,2.271,1.87,3.251h-7.615ZM79.505,352.365c-1.128.327-2.583.623-4.364.891-1.781.297-3.652.445-5.611.445-1.989,0-3.652-.267-4.988-.802-1.306-.534-2.345-1.277-3.117-2.227-.772-.98-1.321-2.138-1.648-3.474-.327-1.336-.49-2.806-.49-4.409v-13.048h6.635v12.246c0,2.138.282,3.681.846,4.631s1.618,1.425,3.162,1.425c.475,0,.98-.015,1.514-.045.534-.059,1.009-.119,1.425-.178v-18.08h6.635v22.622ZM106.708,346.531c-.534,1.514-1.321,2.806-2.36,3.874-1.039,1.069-2.316,1.9-3.83,2.494-1.514.564-3.236.846-5.166.846-.802,0-1.648-.045-2.538-.134-.861-.059-1.722-.148-2.583-.267-.831-.119-1.633-.252-2.405-.401-.772-.178-1.455-.356-2.049-.534v-32.731l6.635-1.069v11.667c.742-.327,1.514-.579,2.316-.757.802-.178,1.663-.267,2.583-.267,1.663,0,3.132.297,4.409.891,1.277.564,2.345,1.38,3.206,2.449s1.514,2.36,1.959,3.874c.445,1.484.668,3.147.668,4.988,0,1.87-.282,3.563-.846,5.077ZM133.494,342.434c-.03.445-.059.846-.089,1.202h-15.052c.148,1.366.787,2.449,1.915,3.251,1.128.802,2.642,1.202,4.542,1.202,1.217,0,2.405-.104,3.563-.312,1.188-.238,2.152-.52,2.895-.846l.891,5.388c-.356.178-.831.356-1.425.534-.594.178-1.262.327-2.004.445-.713.148-1.484.267-2.316.356-.831.089-1.663.134-2.494.134-2.108,0-3.949-.312-5.522-.935-1.544-.623-2.835-1.47-3.874-2.538-1.009-1.099-1.766-2.39-2.271-3.874-.475-1.484-.713-3.088-.713-4.809h0c0-2.078.312-3.889.935-5.433.653-1.573,1.499-2.88,2.538-3.919s2.227-1.826,3.563-2.36c1.366-.534,2.761-.802,4.186-.802,3.325,0,5.952,1.024,7.882,3.073,1.93,2.019,2.895,5.002,2.895,8.951,0,.386-.015.816-.045,1.291ZM152.776,335.621c-.594-.148-1.292-.297-2.093-.445-.802-.178-1.663-.267-2.583-.267-.416,0-.92.045-1.514.134-.564.059-.995.134-1.291.223v17.902h-6.635v-22.177c1.188-.416,2.583-.802,4.186-1.158,1.633-.386,3.444-.579,5.433-.579.356,0,.787.03,1.291.089.505.03,1.009.089,1.514.178.505.059,1.009.148,1.514.267.505.089.935.208,1.291.356l-1.113,5.477ZM177.664,353.166h-6.635v-12.424c0-2.138-.282-3.652-.846-4.542-.564-.891-1.618-1.336-3.162-1.336-.475,0-.98.03-1.514.089-.534.03-1.009.074-1.425.134v18.08h-6.635v-22.622c1.128-.327,2.583-.623,4.364-.891,1.781-.297,3.652-.445,5.611-.445,1.989,0,3.637.267,4.943.802,1.336.505,2.39,1.232,3.162,2.182s1.321,2.078,1.648,3.384c.327,1.306.49,2.761.49,4.364v13.226ZM204.555,342.434c-.03.445-.059.846-.089,1.202h-15.052c.148,1.366.787,2.449,1.915,3.251,1.128.802,2.642,1.202,4.542,1.202,1.217,0,2.405-.104,3.563-.312,1.188-.238,2.152-.52,2.895-.846l.891,5.388c-.356.178-.831.356-1.425.534-.594.178-1.262.327-2.004.445-.713.148-1.484.267-2.316.356-.831.089-1.663.134-2.494.134-2.108,0-3.949-.312-5.522-.935-1.544-.623-2.835-1.47-3.874-2.538-1.009-1.099-1.766-2.39-2.271-3.874-.475-1.484-.713-3.088-.713-4.809,0-2.078.312-3.889.935-5.433.653-1.573,1.499-2.88,2.538-3.919s2.227-1.826,3.563-2.36c1.366-.534,2.761-.802,4.186-.802,3.325,0,5.952,1.024,7.882,3.073,1.93,2.019,2.895,5.002,2.895,8.951,0,.386-.015.816-.044,1.291ZM222.367,353.344c-.98.238-2.182.356-3.607.356-1.811,0-3.31-.237-4.498-.713-1.188-.505-2.138-1.188-2.85-2.048-.713-.891-1.217-1.959-1.514-3.206-.267-1.247-.401-2.627-.401-4.142v-19.683h0l6.635-1.069v6.902h7.971v5.522h-7.971v8.238c0,1.395.238,2.509.713,3.34.505.831,1.499,1.247,2.984,1.247.713,0,1.44-.059,2.182-.178.772-.148,1.47-.341,2.093-.579l.935,5.166c-.802.327-1.692.609-2.672.846ZM249.435,342.434c-.03.445-.059.846-.089,1.202h-15.052c.148,1.366.787,2.449,1.915,3.251,1.128.802,2.642,1.202,4.542,1.202,1.217,0,2.405-.104,3.563-.312,1.188-.238,2.152-.52,2.895-.846l.891,5.388c-.356.178-.831.356-1.425.534-.594.178-1.262.327-2.004.445-.713.148-1.484.267-2.316.356-.831.089-1.663.134-2.494.134-2.108,0-3.948-.312-5.522-.935-1.544-.623-2.835-1.47-3.874-2.538-1.009-1.099-1.766-2.39-2.271-3.874-.475-1.484-.713-3.088-.713-4.809,0-2.078.312-3.889.935-5.433.653-1.573,1.499-2.88,2.538-3.919,1.039-1.039,2.227-1.826,3.563-2.36,1.366-.534,2.761-.802,4.186-.802,3.325,0,5.953,1.024,7.882,3.073,1.93,2.019,2.895,5.002,2.895,8.951,0,.386-.015.816-.045,1.291ZM268.627,352.009c-1.722,1.188-4.171,1.781-7.348,1.781-2.078,0-3.815-.178-5.21-.534-1.365-.356-2.316-.653-2.85-.891l1.113-5.388c1.128.445,2.286.802,3.474,1.069,1.188.238,2.36.356,3.518.356,1.217,0,2.078-.119,2.583-.356.505-.237.757-.698.757-1.38,0-.534-.327-.995-.98-1.38-.653-.416-1.648-.876-2.984-1.38-1.039-.386-1.989-.787-2.85-1.202-.831-.416-1.544-.905-2.138-1.47-.594-.594-1.054-1.291-1.38-2.093-.327-.802-.49-1.766-.49-2.895,0-2.197.816-3.934,2.449-5.21,1.633-1.277,3.874-1.915,6.724-1.915,1.425,0,2.791.134,4.097.401,1.306.238,2.345.505,3.117.802l-1.158,5.166c-.772-.267-1.618-.505-2.538-.713-.891-.208-1.9-.312-3.028-.312-2.078,0-3.117.579-3.117,1.737,0,.267.045.505.134.712.089.208.267.416.534.623.267.178.623.386,1.069.623.475.208,1.069.445,1.781.713,1.455.534,2.657,1.069,3.607,1.603.95.505,1.692,1.069,2.227,1.692.564.594.95,1.262,1.158,2.004.237.742.356,1.603.356,2.583,0,2.316-.876,4.067-2.627,5.255Z" fill="#fff"/>

  <path d="M101.54,48.306c-.161-.526-.41-.993-.745-1.403-.336-.409-.76-.745-1.271-1.008-.512-.263-1.147-.394-1.907-.394-.731,0-1.359.125-1.885.373-.526.249-.965.577-1.315.986-.351.41-.621.884-.811,1.425-.19.541-.329,1.089-.416,1.644h8.637c-.03-.555-.125-1.096-.285-1.622Z" fill="#476bb3"/>
  <path d="M230.417,58.783c.584,0,1.125-.022,1.622-.066.497-.044.906-.095,1.228-.154v-11.881c-.41-.263-.943-.482-1.6-.658-.658-.175-1.323-.263-1.995-.263-3.098,0-4.647,2.104-4.647,6.313,0,2.017.453,3.639,1.36,4.866.905,1.228,2.25,1.841,4.033,1.841Z" fill="#476bb3"/>
  <path d="M208.15,48.306c-.161-.526-.41-.993-.746-1.403-.336-.409-.76-.745-1.271-1.008-.511-.263-1.148-.394-1.907-.394-.731,0-1.359.125-1.885.373-.526.249-.965.577-1.315.986-.351.41-.621.884-.811,1.425-.19.541-.329,1.089-.417,1.644h8.637c-.03-.555-.125-1.096-.285-1.622Z" fill="#476bb3"/>
  <path d="M68.484,60.888c.979,1.082,2.228,1.937,3.748,2.565,1.52.628,3.332.943,5.436.943,1.373,0,2.631-.117,3.77-.351,1.14-.234,2.089-.511,2.849-.833l-.921-5.349c-.76.322-1.593.556-2.499.701-.906.147-1.753.219-2.543.219-2.221,0-3.778-.57-4.669-1.71-.892-1.14-1.337-2.747-1.337-4.822,0-1.958.475-3.536,1.425-4.735.949-1.198,2.389-1.797,4.318-1.797.906,0,1.724.088,2.455.263.73.175,1.403.38,2.017.614l1.359-5.217c-.965-.409-1.958-.723-2.981-.943-1.023-.219-2.148-.329-3.376-.329-1.871,0-3.537.322-4.998.965-1.462.643-2.704,1.512-3.726,2.608-1.023,1.096-1.805,2.383-2.346,3.858-.541,1.476-.811,3.047-.811,4.713,0,1.725.226,3.325.68,4.8.453,1.476,1.169,2.755,2.148,3.836Z" fill="#fff"/>
  <path d="M89.44,60.954c1.008,1.067,2.28,1.907,3.814,2.521,1.535.614,3.339.921,5.414.921.818,0,1.637-.044,2.455-.131.818-.088,1.585-.197,2.302-.329.716-.131,1.366-.285,1.951-.46.584-.175,1.052-.351,1.403-.526l-.877-5.305c-.731.322-1.673.592-2.828.811-1.155.219-2.331.329-3.529.329-1.871,0-3.361-.394-4.472-1.183-1.111-.789-1.739-1.856-1.885-3.201h14.818c.029-.351.058-.752.088-1.205.029-.453.044-.869.044-1.25,0-3.887-.95-6.832-2.849-8.834-1.9-2.002-4.487-3.003-7.76-3.003-1.403,0-2.77.263-4.099.789-1.33.526-2.507,1.301-3.529,2.324-1.023,1.023-1.849,2.302-2.477,3.836-.629,1.534-.942,3.325-.942,5.37,0,1.695.241,3.274.723,4.735.482,1.462,1.228,2.726,2.236,3.792ZM93.605,48.284c.19-.541.46-1.015.811-1.425.351-.409.789-.738,1.315-.986.526-.248,1.154-.373,1.885-.373.76,0,1.395.131,1.907.394.511.263.935.599,1.271,1.008.336.41.584.877.745,1.403.16.526.255,1.067.285,1.622h-8.637c.087-.555.226-1.103.416-1.644Z" fill="#fff"/>
  <path d="M119.712,46.158c.292-.088.723-.168,1.293-.241.57-.073,1.059-.11,1.469-.11.906,0,1.754.081,2.543.241.789.161,1.476.314,2.06.46l1.096-5.392c-.351-.146-.775-.27-1.271-.373-.497-.102-.994-.19-1.491-.263-.497-.072-.994-.131-1.49-.175-.497-.044-.921-.066-1.272-.066-1.958,0-3.734.183-5.327.548-1.593.366-2.974.753-4.143,1.162v21.833h6.532v-17.624Z" fill="#fff"/>
  <path d="M133.347,61.568c.701.862,1.636,1.534,2.806,2.017,1.169.482,2.645.723,4.428.723,1.403,0,2.586-.117,3.551-.351.965-.233,1.841-.511,2.63-.833l-.921-5.086c-.614.234-1.293.416-2.039.548-.745.132-1.469.197-2.17.197-1.462,0-2.433-.409-2.915-1.227-.482-.818-.723-1.914-.723-3.288v-8.11h7.847v-5.436h-7.847v-6.795l-6.532,1.052v19.378c0,1.49.138,2.849.416,4.077.277,1.228.767,2.273,1.469,3.135Z" fill="#fff"/>
  <path d="M154.39,37.915c1.052,0,1.965-.343,2.74-1.03.774-.686,1.162-1.629,1.162-2.828s-.388-2.141-1.162-2.828c-.775-.686-1.688-1.03-2.74-1.03s-1.966.344-2.74,1.03c-.775.687-1.162,1.63-1.162,2.828s.387,2.141,1.162,2.828c.774.687,1.688,1.03,2.74,1.03Z" fill="#fff"/>
  <rect x="151.145" y="40.721" width="6.532" height="23.06" fill="#fff"/>
  <path d="M170.347,46.158h8.067v-5.436h-8.067v-1.14c0-.614.066-1.184.197-1.71.132-.526.351-.979.658-1.359.307-.379.73-.68,1.271-.899.54-.219,1.206-.329,1.995-.329.584,0,1.162.044,1.731.132.57.088,1.089.234,1.556.438l1.14-5.129c-.556-.233-1.235-.453-2.039-.658-.804-.204-1.82-.307-3.047-.307-3.303,0-5.795.877-7.475,2.631-1.681,1.753-2.521,4.121-2.521,7.102v24.288h6.532v-17.624Z" fill="#fff"/>
  <path d="M185.428,37.915c1.052,0,1.965-.343,2.74-1.03.774-.686,1.162-1.629,1.162-2.828s-.388-2.141-1.162-2.828c-.775-.686-1.688-1.03-2.74-1.03s-1.966.344-2.74,1.03c-.775.687-1.162,1.63-1.162,2.828s.387,2.141,1.162,2.828c.774.687,1.688,1.03,2.74,1.03Z" fill="#fff"/>
  <rect x="182.184" y="40.721" width="6.532" height="23.06" fill="#fff"/>
  <path d="M196.05,60.954c1.008,1.067,2.28,1.907,3.814,2.521,1.534.614,3.338.921,5.414.921.818,0,1.636-.044,2.455-.131.818-.088,1.585-.197,2.302-.329.716-.131,1.366-.285,1.951-.46.584-.175,1.052-.351,1.403-.526l-.877-5.305c-.731.322-1.674.592-2.828.811-1.155.219-2.331.329-3.529.329-1.871,0-3.362-.394-4.472-1.183-1.111-.789-1.739-1.856-1.885-3.201h14.818c.029-.351.059-.752.088-1.205.029-.453.044-.869.044-1.25,0-3.887-.95-6.832-2.85-8.834-1.9-2.002-4.487-3.003-7.76-3.003-1.403,0-2.769.263-4.099.789-1.33.526-2.507,1.301-3.529,2.324-1.023,1.023-1.849,2.302-2.477,3.836-.629,1.534-.942,3.325-.942,5.37,0,1.695.241,3.274.723,4.735.482,1.462,1.227,2.726,2.236,3.792ZM200.215,48.284c.19-.541.46-1.015.811-1.425.351-.409.789-.738,1.315-.986.526-.248,1.154-.373,1.885-.373.759,0,1.396.131,1.907.394.511.263.935.599,1.271,1.008.336.41.584.877.746,1.403.16.526.255,1.067.285,1.622h-8.637c.088-.555.226-1.103.417-1.644Z" fill="#fff"/>
  <path d="M221.517,61.129c1.023,1.038,2.28,1.835,3.77,2.389,1.491.555,3.185.833,5.086.833.789,0,1.614-.037,2.477-.11.862-.073,1.71-.168,2.543-.285.833-.117,1.629-.255,2.389-.416.76-.16,1.431-.329,2.017-.504V29.761l-6.532,1.052v10.434c-.731-.321-1.454-.57-2.17-.745-.717-.175-1.528-.263-2.433-.263-1.637,0-3.091.278-4.363.833-1.271.555-2.345,1.359-3.222,2.411-.877,1.052-1.549,2.331-2.017,3.836-.468,1.505-.701,3.193-.701,5.064,0,1.841.27,3.5.811,4.976.54,1.476,1.322,2.733,2.345,3.77ZM229.671,45.763c.672,0,1.337.088,1.995.263.657.176,1.19.395,1.6.658v11.881c-.322.059-.731.11-1.228.154-.497.044-1.038.066-1.622.066-1.783,0-3.128-.614-4.033-1.841-.906-1.227-1.36-2.849-1.36-4.866,0-4.209,1.549-6.313,4.647-6.313Z" fill="#fff"/>

  <path d="M184.699,243.451c2.771-3.493,4.935-7.39,6.433-11.586l-20.434-3.455-.033.043-.02-.004c-.285-.052-.547-.071-.791-.058-.45.023-.894.138-1.316.342-1.665.801-2.396,2.758-1.666,4.455l.008.018-.026.034,7.932,19.159c3.781-2.414,7.116-5.425,9.911-8.948Z" fill="#476bb3"/>
  <path d="M178.859,249.469c.011-.009.022-.018.032-.027-.011.009-.022.018-.032.027Z" fill="#326ce5"/>
  <path d="M183.626,244.797c.022-.026.044-.051.066-.077-.022.026-.044.051-.066.077Z" fill="#326ce5"/>
  <path d="M117.944,196.683c-2.302,3.759-3.967,7.839-4.949,12.128-1.008,4.401-1.271,8.92-.781,13.432l19.754-5.702.017-.068.019-.005c.708-.194,1.324-.6,1.782-1.174,1.15-1.442.96-3.52-.433-4.73l-.015-.013.017-.084-15.411-13.785Z" fill="#476bb3"/>
  <path d="M170.97,212.287c-.411,1.802.66,3.594,2.44,4.081l.02.005.018.084,19.853,5.718c.426-4.382.136-8.804-.86-13.143-1.009-4.389-2.706-8.542-5.046-12.342l-15.327,13.717.008.042-.014.013c-.551.479-.928,1.109-1.091,1.823Z" fill="#476bb3"/>
  <path d="M130.744,252.323l7.848-18.965-.059-.076.008-.018c.288-.67.354-1.402.191-2.115-.354-1.552-1.71-2.651-3.297-2.673-.014,0-.028,0-.043,0-.208,0-.42.02-.632.058l-.02.004-.033-.042-20.257,3.438c1.537,4.24,3.749,8.166,6.575,11.668,2.75,3.409,6.02,6.344,9.719,8.723Z" fill="#476bb3"/>
  <path d="M161.856,257.781c1.356-.308,2.688-.679,3.961-1.104l-9.985-18.043h-.078l-.009-.018c-.341-.638-.873-1.144-1.54-1.465-.475-.228-.972-.343-1.482-.343-.042,0-.083,0-.126.002-1.217.044-2.33.74-2.906,1.815l-.009.018h-.019l-9.96,18.009c7.111,2.415,14.771,2.806,22.151,1.13Z" fill="#476bb3"/>
  <polygon points="149.569 211.557 145.645 216.442 147.051 222.549 152.723 225.277 158.378 222.557 159.784 216.45 155.87 211.557 149.569 211.557" fill="#476bb3"/>
  <path d="M176.132,251.541c.035-.024.069-.048.104-.072-.035.024-.069.048-.104.072Z" fill="#326ce5"/>
  <path d="M170.413,181.358c-4.023-1.947-8.3-3.212-12.717-3.76l1.166,20.55.017.009v.02c.031.726.29,1.414.751,1.99,1.152,1.445,3.221,1.721,4.713.633l.015-.011.06.025,16.77-11.889c-3.164-3.092-6.788-5.638-10.774-7.567Z" fill="#476bb3"/>
  <path d="M124.127,188.916l16.877,11.964.034-.017.016.012c.589.43,1.289.657,2.024.657,1.846,0,3.353-1.445,3.431-3.289v-.02s.085-.042.085-.042l1.165-20.584c-1.426.174-2.822.416-4.153.718-7.388,1.677-14.123,5.342-19.48,10.6Z" fill="#476bb3"/>
  <path d="M181.381,247.191c-.008.007-.015.015-.023.022.008-.007.015-.015.023-.022Z" fill="#326ce5"/>

  <path d="M189.222,306.494c3.824.003,7.442-1.721,9.83-4.684l45.492-56.592c2.387-2.967,3.282-6.852,2.43-10.553l-16.246-70.567c-.852-3.699-3.356-6.813-6.803-8.459l-65.757-31.399c-1.897-.906-3.993-1.326-6.096-1.219-1.672.084-3.31.499-4.818,1.219l-65.749,31.415c-3.447,1.646-5.951,4.76-6.803,8.459l-16.221,70.567c-.757,3.285-.141,6.734,1.707,9.561.222.342.46.673.715.992l45.509,56.583c2.386,2.966,6.004,4.693,9.83,4.692l72.98-.017ZM126.044,263.713l-.005-.013.005-.012.703-1.688c-10.792-6.403-18.844-16.457-22.676-28.314l-1.698.291-.011-.006c-.052-.029-.11-.063-.174-.1-.487-.283-1.298-.752-2.069-.695-2.063.298-4.227,1.074-6.732,1.973l-.121.044c-.406.155-.79.32-1.162.48-.759.326-1.476.634-2.372.874-.201.054-.46.109-.711.162-.106.022-.211.044-.308.066-.011.002-.022.007-.032.011-.014.005-.028.011-.044.014-.009.002-.021.003-.033.005-.009,0-.018.002-.026.004-2.343.503-4.639-.797-5.119-2.902-.48-2.102,1.025-4.27,3.355-4.833.008-.002.018-.005.028-.008.011-.003.022-.007.031-.009l.015-.003c.006-.002.013-.003.02-.005.097-.023.202-.049.31-.075.26-.064.529-.129.742-.169.901-.171,1.674-.201,2.492-.234.414-.016.843-.033,1.287-.07l.094-.01c2.659-.279,4.956-.519,6.954-1.149.556-.229,1.088-.927,1.515-1.487.055-.073.108-.143.159-.208l.006-.009.011-.003,1.62-.471c-1.783-12.394,1.066-24.99,8.024-35.473l-1.249-1.116-.002-.012c-.008-.053-.018-.114-.027-.181-.083-.563-.222-1.505-.754-2.072-1.545-1.451-3.538-2.681-5.845-4.106-.382-.225-.758-.425-1.123-.618-.722-.384-1.404-.747-2.142-1.292-.172-.127-.384-.301-.588-.469-.078-.065-.156-.129-.229-.187-.008-.006-.017-.012-.026-.018-.011-.008-.023-.016-.033-.024-.92-.733-1.528-1.745-1.712-2.849-.184-1.105.078-2.171.739-3,.715-.896,1.807-1.403,3.016-1.403.049,0,.099,0,.148.002.981.034,1.961.404,2.761,1.042.073.058.154.121.237.186.217.17.463.362.638.512.701.603,1.21,1.189,1.749,1.809.267.307.543.625.844.944l.068.069c1.875,1.905,3.495,3.55,5.232,4.719.791.462,1.424.362,2.034.264.094-.015.188-.029.281-.042l.013-.002.011.008c.233.172.972.702,1.396.992,6.945-7.361,15.835-12.436,25.712-14.679,2.313-.525,4.698-.892,7.089-1.091l.093-1.649.009-.009c.485-.469,1.098-1.2,1.268-2.018.17-2.091-.107-4.393-.429-7.06l-.008-.068c-.062-.434-.139-.849-.213-1.249-.15-.808-.291-1.572-.326-2.495-.008-.193-.002-.437.003-.672.002-.116.005-.231.006-.339,0-.015-.003-.031-.005-.047-.002-.021-.004-.041-.004-.062,0-2.43,1.78-4.407,3.969-4.407s3.969,1.977,3.969,4.407c0,.117.004.247.006.381.006.26.011.529.003.738-.034.923-.176,1.687-.326,2.496-.075.401-.151.815-.213,1.249l-.026.209c-.314,2.61-.586,4.864-.42,6.922.132.901.605,1.331,1.063,1.748.073.066.144.131.215.198l.01.01v.013c.012.297.057,1.218.09,1.728,6.188.553,12.18,2.219,17.809,4.953,5.573,2.706,10.563,6.345,14.831,10.817l1.483-1.058h.012c.06.004.129.01.205.015.56.043,1.5.115,2.164-.271,1.715-1.155,3.313-2.779,5.164-4.659l.135-.137c.294-.313.568-.626.832-.928.545-.625,1.062-1.216,1.768-1.823.174-.15.406-.331.631-.507.086-.067.17-.132.245-.192,1.896-1.512,4.55-1.353,5.916.359,1.363,1.71.927,4.334-.973,5.85-.085.069-.179.146-.275.225-.206.17-.419.346-.593.473-.735.543-1.417.905-2.14,1.287-.368.195-.749.397-1.134.623-2.31,1.427-4.301,2.658-5.846,4.107-.623.667-.666,1.304-.707,1.921-.007.096-.013.191-.022.286v.013s-.011.008-.011.008c-.106.098-.336.303-.602.541-.268.239-.563.503-.772.693,3.482,5.188,5.959,10.918,7.363,17.032,1.392,6.062,1.671,12.238.829,18.357l1.573.458.007.009c.033.048.072.104.114.165.318.468.85,1.251,1.569,1.53,2.001.63,4.303.871,6.97,1.15l.078.008c.442.037.87.053,1.284.07.819.032,1.592.063,2.493.234.205.038.467.103.719.166.152.038.299.074.427.103,2.329.562,3.834,2.73,3.354,4.833-.48,2.104-2.78,3.406-5.118,2.901-.008-.002-.017-.002-.026-.003-.011-.001-.023-.003-.032-.005-.016-.003-.03-.009-.045-.015-.011-.004-.021-.008-.031-.01-.118-.026-.246-.052-.376-.078-.227-.046-.46-.093-.643-.141-.887-.237-1.597-.545-2.35-.871-.379-.164-.771-.334-1.185-.492l-.109-.039c-2.51-.901-4.677-1.678-6.746-1.977-.078-.006-.152-.009-.225-.009-.771,0-1.249.332-1.712.654-.081.056-.161.112-.242.165l-.012.008-.014-.003c-.286-.057-1.143-.209-1.651-.289-1.889,5.924-4.806,11.403-8.673,16.286-3.905,4.934-8.614,9.048-13.996,12.23.058.142.127.326.198.52.161.431.342.92.44,1.033l.013.015-.007.019c-.034.093-.072.184-.109.277-.229.568-.464,1.154-.192,2.023.763,1.981,2.025,3.955,3.486,6.239.246.367.497.711.741,1.042.485.66.941,1.284,1.371,2.097.106.2.232.466.353.723.057.121.112.236.161.337,1.014,2.171.257,4.7-1.689,5.637-.956.46-2.053.48-3.089.056-1.035-.424-1.887-1.241-2.397-2.3-.043-.088-.091-.185-.14-.285-.127-.254-.257-.517-.347-.725-.371-.848-.577-1.6-.795-2.396-.108-.392-.219-.798-.351-1.214l-.029-.089c-.863-2.529-1.608-4.714-2.667-6.522-.511-.757-1.124-.941-1.717-1.12-.092-.028-.183-.055-.274-.085l-.012-.004-.007-.011c-.066-.113-.226-.404-.395-.711-.151-.274-.313-.567-.432-.778-2.198.83-4.462,1.511-6.729,2.026-9.872,2.241-20.092,1.509-29.558-2.119l-.884,1.602-.014.003c-.631.169-1.284.344-1.679.815-1.003,1.196-1.585,2.909-2.201,4.722-.261.767-.53,1.56-.84,2.338-.133.421-.245.832-.352,1.23-.214.79-.416,1.536-.783,2.378-.085.194-.207.438-.325.674-.056.112-.11.221-.159.32l-.003.014c-.004.008-.009.013-.012.016-.786,1.618-2.346,2.586-3.902,2.586-.535,0-1.069-.114-1.572-.356-1.946-.937-2.704-3.465-1.689-5.636.055-.114.116-.247.18-.383.111-.241.227-.49.326-.677.432-.817.891-1.447,1.378-2.113.241-.33.49-.671.734-1.035,1.56-2.441,2.813-4.462,3.559-6.396.193-.662-.107-1.573-.35-2.201Z" fill="#476bb3"/>

  <path d="M122.835,272.309c-.244.364-.493.705-.734,1.035-.487.666-.947,1.296-1.378,2.113-.099.188-.214.437-.326.677-.063.136-.125.269-.18.383-1.015,2.171-.257,4.7,1.689,5.636.503.242,1.037.356,1.572.356,1.556,0,3.117-.968,3.902-2.586.003-.003.008-.008.012-.016l.003-.014c.049-.1.103-.208.159-.32.118-.235.24-.479.325-.674.367-.842.57-1.588.783-2.378.107-.398.219-.809.352-1.23.31-.779.579-1.572.84-2.338.616-1.813,1.198-3.526,2.201-4.722.395-.471,1.047-.646,1.679-.815l.014-.003.884-1.602c9.466,3.628,19.686,4.36,29.558,2.119,2.267-.515,4.532-1.196,6.729-2.026.119.211.281.504.432.778.17.308.33.598.395.711l.007.011.012.004c.09.029.182.057.274.085.593.179,1.206.363,1.717,1.12,1.059,1.808,1.803,3.993,2.667,6.522l.029.089c.132.417.243.822.351,1.214.218.796.424,1.548.795,2.396.09.208.221.471.347.725.049.1.097.197.14.285.51,1.06,1.362,1.876,2.397,2.3,1.035.423,2.133.403,3.089-.056,1.947-.937,2.704-3.466,1.689-5.637-.049-.101-.104-.217-.161-.337-.122-.257-.247-.523-.353-.723-.43-.813-.886-1.436-1.371-2.097-.243-.332-.495-.675-.741-1.042-1.461-2.284-2.723-4.258-3.486-6.239-.272-.869-.036-1.455.192-2.023.037-.092.075-.184.109-.277l.007-.019-.013-.015c-.098-.112-.28-.601-.44-1.033-.072-.195-.14-.379-.198-.52,5.381-3.182,10.091-7.296,13.996-12.23,3.867-4.883,6.784-10.363,8.673-16.286.508.08,1.366.232,1.651.289l.014.003.012-.008c.081-.053.161-.109.242-.165.463-.322.941-.654,1.712-.654.073,0,.147.002.225.009,2.069.299,4.236,1.077,6.746,1.977l.109.039c.414.159.806.329,1.185.492.753.326,1.463.633,2.35.871.182.049.416.096.643.141.13.026.258.052.376.078.011.002.021.006.031.01.015.006.029.011.045.015.01.002.022.003.032.005.01,0,.019.001.026.003,2.338.505,4.639-.797,5.118-2.901.48-2.103-1.025-4.271-3.354-4.833-.128-.029-.275-.065-.427-.103-.252-.063-.514-.128-.719-.166-.901-.171-1.674-.202-2.493-.234-.414-.017-.842-.033-1.284-.07l-.078-.008c-2.667-.279-4.968-.52-6.97-1.15-.719-.279-1.251-1.062-1.569-1.53-.042-.062-.08-.117-.114-.165l-.007-.009-1.573-.458c.842-6.118.563-12.294-.829-18.357-1.404-6.114-3.881-11.844-7.363-17.032.209-.19.504-.453.772-.693.267-.238.496-.443.602-.541l.01-.008v-.013c.01-.095.016-.19.023-.286.041-.617.084-1.254.707-1.921,1.545-1.45,3.537-2.68,5.846-4.107.386-.227.766-.428,1.134-.623.723-.383,1.405-.744,2.14-1.287.174-.128.387-.303.593-.473.096-.079.189-.156.275-.225,1.9-1.516,2.336-4.14.973-5.85-1.366-1.712-4.02-1.87-5.916-.359-.076.06-.159.125-.245.192-.225.176-.457.357-.631.507-.706.608-1.222,1.198-1.768,1.823-.264.302-.538.615-.832.928l-.135.137c-1.85,1.88-3.449,3.504-5.164,4.659-.664.386-1.604.314-2.164.271-.076-.005-.145-.011-.205-.014h-.012s-1.483,1.057-1.483,1.057c-4.269-4.472-9.259-8.111-14.831-10.817-5.63-2.734-11.621-4.4-17.809-4.953-.033-.51-.078-1.431-.09-1.728v-.013l-.01-.01c-.071-.067-.142-.132-.215-.198-.457-.417-.93-.847-1.063-1.748-.166-2.058.106-4.312.42-6.922l.026-.209c.062-.434.138-.849.213-1.249.15-.809.291-1.573.326-2.496.008-.209.003-.478-.003-.738-.002-.134-.005-.264-.006-.381,0-2.43-1.78-4.407-3.969-4.407s-3.969,1.977-3.969,4.407c0,.021.002.041.004.062.002.016.004.032.005.047,0,.108-.004.223-.006.339-.005.235-.011.479-.003.672.034.923.176,1.687.326,2.495.074.401.151.816.213,1.249l.008.068c.322,2.667.598,4.969.429,7.06-.17.818-.783,1.549-1.268,2.018l-.009.009-.093,1.649c-2.391.199-4.776.566-7.089,1.091-9.876,2.243-18.766,7.318-25.712,14.679-.424-.29-1.163-.82-1.396-.992l-.011-.008-.013.002c-.093.013-.187.027-.281.042-.61.098-1.243.198-2.034-.264-1.738-1.169-3.357-2.814-5.232-4.719l-.068-.069c-.301-.319-.577-.637-.844-.944-.539-.62-1.048-1.206-1.749-1.809-.175-.15-.421-.342-.638-.512-.083-.065-.164-.128-.237-.186-.8-.638-1.781-1.008-2.761-1.042-.05-.001-.099-.002-.148-.002-1.209,0-2.301.507-3.016,1.403-.661.83-.924,1.895-.739,3,.184,1.104.792,2.116,1.712,2.849.011.008.022.016.033.024.009.006.018.012.026.018.073.059.15.123.229.187.205.168.416.342.588.469.739.545,1.421.908,2.142,1.292.365.193.741.393,1.123.618,2.308,1.425,4.3,2.656,5.845,4.106.532.567.671,1.509.754,2.072.01.067.019.128.027.181l.002.012,1.249,1.116c-6.957,10.483-9.806,23.079-8.024,35.473l-1.62.471-.011.003-.006.009c-.051.065-.104.135-.159.208-.427.561-.959,1.259-1.515,1.487-1.998.63-4.294.87-6.954,1.149l-.094.01c-.444.037-.873.053-1.287.07-.818.032-1.591.063-2.492.234-.213.04-.482.105-.742.169-.108.026-.213.052-.31.075-.007.001-.013.003-.02.005l-.015.003c-.009.002-.02.006-.031.009-.01.003-.02.006-.028.008-2.33.563-3.835,2.731-3.355,4.833.48,2.104,2.776,3.404,5.119,2.902.008-.002.017-.003.026-.004.012-.001.024-.003.033-.005.015-.003.029-.009.044-.014.011-.004.022-.008.032-.011.097-.022.202-.044.308-.066.251-.053.51-.108.711-.162.896-.24,1.613-.548,2.372-.874.372-.16.756-.325,1.162-.48l.121-.044c2.506-.898,4.67-1.674,6.732-1.973.771-.057,1.582.412,2.069.695.063.037.122.071.174.1l.011.006,1.698-.291c3.832,11.857,11.884,21.911,22.676,28.314l-.703,1.688-.005.012.005.013c.243.627.543,1.539.35,2.201-.746,1.934-1.999,3.955-3.559,6.396ZM133.353,210.565c1.393,1.21,1.583,3.288.433,4.73-.458.574-1.074.981-1.782,1.174l-.019.005-.017.068-19.754,5.702c-.489-4.513-.226-9.032.781-13.432.982-4.289,2.647-8.369,4.949-12.128l15.411,13.785-.017.084.015.013ZM134.706,228.495l.033.042.02-.004c.212-.039.425-.058.632-.058.014,0,.028,0,.043,0,1.587.022,2.943,1.121,3.297,2.673.163.714.097,1.445-.191,2.115l-.008.018.059.076-7.848,18.965c-3.699-2.379-6.969-5.313-9.719-8.723-2.826-3.502-5.038-7.428-6.575-11.668l20.257-3.438ZM164.356,200.789l-.015.011c-1.492,1.088-3.561.811-4.713-.633-.46-.576-.719-1.265-.75-1.99v-.02s-.018-.009-.018-.009l-1.166-20.55c4.417.548,8.695,1.813,12.717,3.76,3.985,1.929,7.61,4.475,10.774,7.567l-16.77,11.889-.06-.025ZM146.595,198.182l-.084.042v.02c-.079,1.844-1.586,3.289-3.432,3.289-.735,0-1.434-.227-2.024-.657l-.016-.012-.034.017-16.877-11.964c5.357-5.258,12.092-8.923,19.48-10.6,1.331-.302,2.727-.544,4.153-.718l-1.165,20.584ZM149.665,238.642h.019l.009-.018c.576-1.075,1.689-1.77,2.906-1.815.042-.002.083-.002.126-.002.509,0,1.007.115,1.482.343.667.321,1.199.828,1.54,1.465l.009.018h.078l9.985,18.043c-1.273.425-2.605.797-3.961,1.104-7.38,1.676-15.04,1.285-22.151-1.13l9.96-18.009ZM158.378,222.557l-5.655,2.719-5.672-2.727-1.406-6.107,3.923-4.885h6.301l3.915,4.893-1.406,6.107ZM166.855,233.24l.026-.034-.008-.018c-.73-1.697,0-3.654,1.666-4.455.422-.204.865-.319,1.316-.342.243-.013.506.007.791.058l.02.004.033-.043,20.434,3.455c-1.498,4.196-3.662,8.093-6.433,11.586-2.795,3.523-6.13,6.534-9.911,8.948l-7.932-19.159ZM183.692,244.721c-.022.026-.044.051-.066.077.022-.026.044-.051.066-.077ZM172.067,210.409l15.327-13.717c2.34,3.8,4.037,7.952,5.046,12.342.997,4.339,1.286,8.76.86,13.143l-19.853-5.718-.018-.084-.02-.005c-1.78-.487-2.851-2.279-2.44-4.081.163-.714.54-1.345,1.091-1.823l.014-.013-.008-.042ZM178.891,249.442c-.011.009-.022.018-.032.027.011-.009.022-.018.032-.027ZM176.236,251.469c-.035.024-.069.048-.104.072.035-.024.069-.048.104-.072ZM181.381,247.191c-.008.007-.015.015-.023.022.008-.007.015-.015.023-.022Z" fill="#fff"/>

  <path d="M52.102,346.353c-.891-1.188-1.811-2.331-2.761-3.429-.95-1.128-1.87-2.093-2.761-2.895,1.781-1.752,3.414-3.444,4.899-5.077,1.514-1.662,3.058-3.399,4.631-5.21h-7.882c-.416.505-.92,1.099-1.514,1.781-.564.683-1.173,1.41-1.826,2.182-.653.742-1.336,1.499-2.049,2.271-.683.772-1.351,1.514-2.004,2.227v-19.594l-6.635,1.069v33.488h6.635v-10.242c.742.594,1.484,1.321,2.227,2.182.772.861,1.499,1.766,2.182,2.716.683.92,1.321,1.856,1.915,2.806.623.92,1.173,1.766,1.648,2.538h7.615c-.505-.98-1.128-2.063-1.87-3.251-.742-1.188-1.559-2.375-2.449-3.563Z" fill="#476bb3"/>
  <path d="M72.87,347.822c-.416.059-.891.119-1.425.178-.534.03-1.039.045-1.514.045-1.544,0-2.598-.475-3.162-1.425s-.846-2.494-.846-4.631v-12.246h-6.635v13.048c0,1.603.163,3.073.49,4.409.327,1.336.876,2.494,1.648,3.474.772.95,1.811,1.692,3.117,2.227,1.336.534,2.998.802,4.988.802,1.959,0,3.83-.148,5.611-.445,1.781-.267,3.236-.564,4.364-.891v-22.622h-6.635v18.08Z" fill="#476bb3"/>
  <path d="M104.926,332.593c-.861-1.069-1.93-1.885-3.206-2.449-1.277-.594-2.746-.891-4.409-.891-.92,0-1.781.089-2.583.267-.802.178-1.573.43-2.316.757v-11.667l-6.635,1.069v32.731c.594.178,1.277.356,2.049.534.772.148,1.573.282,2.405.401.861.119,1.722.208,2.583.267.891.089,1.737.134,2.538.134,1.93,0,3.652-.282,5.166-.846,1.514-.594,2.791-1.425,3.83-2.494,1.039-1.069,1.826-2.36,2.36-3.874.564-1.514.846-3.206.846-5.077,0-1.841-.223-3.503-.668-4.988-.445-1.514-1.098-2.805-1.959-3.874ZM99.404,346.219c-.92,1.247-2.286,1.87-4.097,1.87-.594,0-1.143-.015-1.648-.045-.505-.059-.92-.119-1.247-.178v-12.068c.416-.267.95-.49,1.603-.668.683-.178,1.366-.267,2.049-.267,3.147,0,4.72,2.138,4.72,6.413,0,2.048-.46,3.696-1.38,4.943Z" fill="#476bb3"/>
  <path d="M122.762,329.119c-1.425,0-2.82.267-4.186.802-1.336.534-2.523,1.321-3.563,2.36s-1.885,2.345-2.538,3.919c-.623,1.544-.935,3.355-.935,5.433h0c0,1.722.238,3.325.713,4.809.505,1.484,1.262,2.776,2.271,3.874,1.039,1.069,2.331,1.915,3.874,2.538,1.573.623,3.414.935,5.522.935.831,0,1.662-.045,2.494-.134.831-.089,1.603-.208,2.316-.356.742-.119,1.41-.267,2.004-.445.594-.178,1.069-.356,1.425-.534l-.891-5.388c-.742.327-1.707.609-2.895.846-1.158.208-2.345.312-3.563.312-1.9,0-3.414-.401-4.542-1.202-1.128-.802-1.766-1.885-1.915-3.251h15.052c.03-.356.059-.757.089-1.202.03-.475.044-.906.045-1.291,0-3.949-.965-6.932-2.895-8.951-1.93-2.048-4.557-3.073-7.882-3.073ZM118.354,339.094c.089-.564.223-1.113.401-1.648.208-.564.49-1.054.846-1.47.356-.416.802-.742,1.336-.98.534-.267,1.173-.401,1.915-.401.772,0,1.41.134,1.915.401.534.267.965.609,1.291,1.024.356.416.609.891.757,1.425.178.534.282,1.084.312,1.648h-8.773Z" fill="#476bb3"/>
  <path d="M151.084,329.52c-.505-.089-1.009-.148-1.514-.178-.505-.059-.935-.089-1.291-.089-1.989,0-3.8.193-5.433.579-1.603.356-2.998.742-4.186,1.158v22.177h6.635v-17.902c.297-.089.727-.163,1.291-.223.594-.089,1.098-.134,1.514-.134.92,0,1.781.089,2.583.267.802.148,1.499.297,2.093.445l1.113-5.477c-.356-.148-.787-.267-1.291-.356-.505-.119-1.009-.208-1.514-.267Z" fill="#476bb3"/>
  <path d="M175.527,332.192c-.772-.95-1.826-1.677-3.162-2.182-1.306-.534-2.954-.802-4.943-.802-1.959,0-3.83.148-5.611.445-1.781.267-3.236.564-4.364.891v22.622h6.635v-18.08c.416-.059.891-.104,1.425-.134.534-.059,1.039-.089,1.514-.089,1.544,0,2.598.445,3.162,1.336.564.891.846,2.405.846,4.542v12.424h6.635v-13.226c0-1.603-.163-3.058-.49-4.364-.327-1.306-.876-2.434-1.648-3.384Z" fill="#476bb3"/>
  <path d="M193.822,329.119c-1.425,0-2.82.267-4.186.802-1.336.534-2.523,1.321-3.563,2.36s-1.885,2.345-2.538,3.919c-.623,1.544-.935,3.355-.935,5.433,0,1.722.237,3.325.713,4.809.505,1.484,1.262,2.776,2.271,3.874,1.039,1.069,2.331,1.915,3.874,2.538,1.573.623,3.414.935,5.522.935.831,0,1.663-.045,2.494-.134.831-.089,1.603-.208,2.316-.356.742-.119,1.41-.267,2.004-.445.594-.178,1.069-.356,1.425-.534l-.891-5.388c-.742.327-1.707.609-2.895.846-1.158.208-2.345.312-3.563.312-1.9,0-3.414-.401-4.542-1.202-1.128-.802-1.766-1.885-1.915-3.251h15.052c.03-.356.059-.757.089-1.202.03-.475.044-.906.044-1.291,0-3.949-.965-6.932-2.895-8.951-1.93-2.048-4.557-3.073-7.882-3.073ZM189.414,339.094c.089-.564.223-1.113.401-1.648.208-.564.49-1.054.846-1.47.356-.416.802-.742,1.336-.98.534-.267,1.173-.401,1.915-.401.772,0,1.41.134,1.915.401.534.267.965.609,1.291,1.024.356.416.609.891.757,1.425.178.534.282,1.084.312,1.648h-8.773Z" fill="#476bb3"/>
  <path d="M222.011,347.912c-.742.119-1.47.178-2.182.178-1.484,0-2.479-.416-2.984-1.247-.475-.831-.713-1.945-.713-3.34v-8.238h7.971v-5.522h-7.971v-6.902l-6.635,1.069h0v19.683c0,1.514.134,2.895.401,4.142.297,1.247.802,2.316,1.514,3.206.713.861,1.663,1.544,2.85,2.048,1.188.475,2.687.713,4.498.713,1.425,0,2.627-.119,3.607-.356.98-.237,1.87-.52,2.672-.846l-.935-5.166c-.623.238-1.321.43-2.093.579Z" fill="#476bb3"/>
  <path d="M238.703,329.119c-1.425,0-2.82.267-4.186.802-1.336.534-2.523,1.321-3.563,2.36-1.039,1.039-1.885,2.345-2.538,3.919-.623,1.544-.935,3.355-.935,5.433,0,1.722.237,3.325.713,4.809.505,1.484,1.262,2.776,2.271,3.874,1.039,1.069,2.331,1.915,3.874,2.538,1.573.623,3.414.935,5.522.935.831,0,1.663-.045,2.494-.134.831-.089,1.603-.208,2.316-.356.742-.119,1.41-.267,2.004-.445.594-.178,1.069-.356,1.425-.534l-.891-5.388c-.742.327-1.707.609-2.895.846-1.158.208-2.345.312-3.563.312-1.9,0-3.414-.401-4.542-1.202-1.128-.802-1.766-1.885-1.915-3.251h15.052c.03-.356.059-.757.089-1.202.03-.475.044-.906.045-1.291,0-3.949-.965-6.932-2.895-8.951-1.93-2.048-4.557-3.073-7.882-3.073ZM234.294,339.094c.089-.564.223-1.113.401-1.648.208-.564.49-1.054.846-1.47.356-.416.802-.742,1.336-.98.534-.267,1.173-.401,1.915-.401.772,0,1.41.134,1.915.401.534.267.965.609,1.291,1.024.356.416.609.891.757,1.425.178.534.282,1.084.312,1.648h-8.773Z" fill="#476bb3"/>
  <path d="M269.741,342.167c-.534-.623-1.277-1.188-2.227-1.692-.95-.534-2.152-1.069-3.607-1.603-.713-.267-1.306-.505-1.781-.713-.445-.237-.802-.445-1.069-.623-.267-.208-.445-.416-.534-.623-.089-.208-.134-.445-.134-.712,0-1.158,1.039-1.737,3.117-1.737,1.128,0,2.137.104,3.028.312.92.208,1.766.445,2.538.713l1.158-5.166c-.772-.297-1.811-.564-3.117-.802-1.306-.267-2.672-.401-4.097-.401-2.85,0-5.092.638-6.724,1.915-1.633,1.277-2.449,3.013-2.449,5.21,0,1.128.163,2.093.49,2.895.327.802.787,1.499,1.38,2.093.594.564,1.306,1.054,2.138,1.47.861.416,1.811.816,2.85,1.202,1.336.505,2.331.965,2.984,1.38.653.386.98.846.98,1.38,0,.683-.252,1.143-.757,1.38-.505.238-1.366.356-2.583.356-1.158,0-2.331-.119-3.518-.356-1.188-.267-2.345-.623-3.474-1.069l-1.113,5.388c.534.237,1.484.534,2.85.891,1.396.356,3.132.534,5.21.534,3.177,0,5.626-.594,7.348-1.781,1.752-1.188,2.627-2.939,2.627-5.255,0-.98-.119-1.841-.356-2.583-.208-.742-.594-1.41-1.158-2.004Z" fill="#476bb3"/>
  <g>
    <path d="M107.408,427.873c.967-.4,1.975-.857,3.025-1.375,1.05-.516,2.074-1.083,3.074-1.7,1-.617,1.958-1.267,2.875-1.95.917-.683,1.742-1.408,2.476-2.175h5.2v34.65h-7.45v-24.95c-1,.667-2.117,1.275-3.351,1.825s-2.434,1.025-3.6,1.425l-2.25-5.75Z" fill="#fff"/>
    <path d="M140.107,451.373c0,1.5-.475,2.643-1.425,3.425s-2.025,1.175-3.225,1.175-2.275-.392-3.226-1.175-1.425-1.925-1.425-3.425.475-2.641,1.425-3.425c.95-.783,2.025-1.175,3.226-1.175s2.274.392,3.225,1.175c.95.784,1.425,1.925,1.425,3.425Z" fill="#fff"/>
    <path d="M156.008,456.073c-.9,0-1.851-.059-2.851-.175-1-.117-1.967-.275-2.899-.475-.934-.2-1.784-.417-2.551-.65-.767-.233-1.367-.45-1.8-.65l1.45-6.2c.866.367,1.975.758,3.325,1.175,1.35.417,3.024.625,5.024.625,2.301,0,3.983-.433,5.051-1.3,1.066-.867,1.6-2.033,1.6-3.5,0-.9-.192-1.658-.575-2.275-.384-.617-.908-1.117-1.575-1.5-.667-.383-1.458-.65-2.375-.8s-1.892-.225-2.925-.225h-2.899v-6h3.3c.732,0,1.441-.066,2.125-.2.683-.133,1.291-.358,1.825-.675.532-.316.957-.75,1.274-1.3.316-.55.476-1.241.476-2.075,0-.633-.134-1.183-.4-1.65-.268-.466-.608-.85-1.025-1.15s-.899-.525-1.449-.675c-.551-.15-1.109-.225-1.676-.225-1.434,0-2.758.217-3.975.65-1.217.434-2.325.967-3.325,1.6l-2.649-5.45c.532-.333,1.157-.683,1.875-1.05.716-.367,1.508-.7,2.375-1,.866-.3,1.791-.55,2.774-.75.983-.2,2.025-.3,3.125-.3,2.033,0,3.792.242,5.275.725,1.482.482,2.708,1.165,3.675,2.047.967.882,1.683,1.914,2.15,3.095.466,1.181.699,2.471.699,3.869,0,1.365-.383,2.688-1.149,3.97-.768,1.281-1.8,2.254-3.101,2.92,1.801.734,3.191,1.828,4.176,3.28.982,1.452,1.475,3.195,1.475,5.231,0,1.602-.268,3.079-.8,4.43-.534,1.352-1.367,2.521-2.5,3.505-1.134.984-2.575,1.752-4.325,2.303-1.75.55-3.825.826-6.225.826Z" fill="#fff"/>
    <path d="M196.257,420.673v20.8h3.7v6.1h-3.7v7.75h-7.3v-7.75h-14.95v-5.45c.732-1.466,1.65-3.125,2.75-4.975,1.1-1.85,2.325-3.75,3.675-5.7,1.351-1.95,2.775-3.858,4.275-5.725,1.5-1.866,3-3.55,4.5-5.05h7.05ZM188.957,429.773c-1.3,1.7-2.684,3.55-4.15,5.55s-2.7,4.05-3.7,6.15h7.851v-11.7Z" fill="#fff"/>
  </g>
</svg>