<svg id="ejlL26nVrBM1" xmlns="http://www.w3.org/2000/svg" xmlns:xlink="http://www.w3.org/1999/xlink" viewBox="0 0 200 200" shape-rendering="geometricPrecision" text-rendering="geometricPrecision"><style><![CDATA[#ejlL26nVrBM6 {animation: ejlL26nVrBM6_f_p 9000ms linear 2 normal forwards}@keyframes ejlL26nVrBM6_f_p { 0% {fill: rgb(8,193,209)} 44.444444% {fill: rgb(8,193,209)} 55.555556% {fill: rgb(180,204,255)} 66.666667% {fill: rgb(144,179,251)} 77.777778% {fill: rgb(49,108,230)} 100% {fill: rgb(8,193,209)}} #ejlL26nVrBM7 {animation: ejlL26nVrBM7_f_p 9000ms linear 2 normal forwards}@keyframes ejlL26nVrBM7_f_p { 0% {fill: rgb(8,193,209)} 44.444444% {fill: rgb(8,193,209)} 55.555556% {fill: rgb(180,204,255)} 66.666667% {fill: rgb(144,179,251)} 77.777778% {fill: rgb(49,108,230)} 100% {fill: rgb(8,193,209)}} #ejlL26nVrBM8 {animation: ejlL26nVrBM8_f_p 9000ms linear 2 normal forwards}@keyframes ejlL26nVrBM8_f_p { 0% {fill: rgb(8,193,209)} 44.444444% {fill: rgb(8,193,209)} 55.555556% {fill: rgb(180,204,255)} 66.666667% {fill: rgb(144,179,251)} 77.777778% {fill: rgb(49,108,230)} 100% {fill: rgb(8,193,209)}} #ejlL26nVrBM9 {animation: ejlL26nVrBM9_f_p 9000ms linear 2 normal forwards}@keyframes ejlL26nVrBM9_f_p { 0% {fill: rgb(8,193,209)} 44.444444% {fill: rgb(8,193,209)} 55.555556% {fill: rgb(180,204,255)} 66.666667% {fill: rgb(144,179,251)} 77.777778% {fill: rgb(49,108,230)} 100% {fill: rgb(8,193,209)}}]]></style><g id="ejlL26nVrBM2"><g id="ejlL26nVrBM3" transform="matrix(1 0 0 1 -979 -887)"><g id="ejlL26nVrBM4" transform="matrix(1 0 0 1 267 887)"><g id="ejlL26nVrBM5" transform="matrix(1 0 0 1 712 0)"><path id="ejlL26nVrBM6" d="M13.89449,48.151882L62.066533,48.151882C69.669019,48.151882,75.829973,41.989247,75.829973,34.388441C75.829973,26.787634,69.669019,20.625,62.066533,20.625C60.737567,20.62668,59.417003,20.823253,58.145161,21.209677C58.461022,19.890793,58.622312,18.539987,58.625672,17.18414C58.617271,8.835686,52.614247,1.698589,44.391801,0.258736C36.169355,-1.182796,28.098118,3.487903,25.250336,11.334005C23.857527,10.655242,22.326949,10.300739,20.77621,10.302419C15.075605,10.302419,10.453629,14.924395,10.453629,20.625C10.448589,20.77453,10.460349,20.925739,10.488911,21.071909C3.803763,22.819221,-0.549395,29.250672,0.3125,36.107191C1.174395,42.96203,6.985887,48.11492,13.89449,48.151882Z" fill="rgb(8,193,209)" stroke="none" stroke-width="1"/><path id="ejlL26nVrBM7" d="M185.9375,20.625C184.608535,20.62668,183.28797,20.823253,182.016129,21.209677C182.331989,19.890793,182.49328,18.539987,182.49664,17.18414C182.488239,8.835686,176.485215,1.698589,168.262769,0.258736C160.040323,-1.182796,151.969086,3.487903,149.121304,11.334005C147.728495,10.655242,146.197917,10.300739,144.647178,10.302419C138.946572,10.302419,134.324597,14.924395,134.324597,20.625C134.319557,20.77453,134.331317,20.925739,134.359879,21.071909C127.674731,22.819221,123.321572,29.250672,124.183468,36.107191C125.045363,42.96203,130.856855,48.11492,137.765457,48.151882L185.9375,48.151882C193.539987,48.151882,199.700941,41.989247,199.700941,34.388441C199.700941,26.787634,193.539987,20.625,185.9375,20.625Z" fill="rgb(8,193,209)" stroke="none" stroke-width="1"/><path id="ejlL26nVrBM8" d="M13.89449,199.549731L62.066533,199.549731C69.669019,199.549731,75.829973,193.387097,75.829973,185.78629C75.829973,178.185484,69.669019,172.022849,62.066533,172.022849C60.737567,172.024529,59.417003,172.221102,58.145161,172.607527C58.461022,171.288643,58.622312,169.937836,58.625672,168.581989C58.617271,160.233535,52.614247,153.096438,44.391801,151.656586C36.169355,150.215054,28.098118,154.885753,25.250336,162.731855C23.857527,162.053092,22.326949,161.698589,20.77621,161.700269C15.075605,161.700269,10.453629,166.322245,10.453629,172.022849C10.448589,172.172379,10.460349,172.323589,10.488911,172.469758C3.803763,174.21707,-0.549395,180.648521,0.3125,187.50504C1.174395,194.359879,6.985887,199.512769,13.89449,199.549731Z" fill="rgb(8,193,209)" stroke="none" stroke-width="1"/><path id="ejlL26nVrBM9" d="M185.9375,172.022849C184.608535,172.024529,183.28797,172.221102,182.016129,172.607527C182.331989,171.288643,182.49328,169.937836,182.49664,168.581989C182.488239,160.233535,176.485215,153.096438,168.262769,151.656586C160.040323,150.215054,151.969086,154.885753,149.121304,162.731855C147.728495,162.053092,146.197917,161.698589,144.647178,161.700269C138.946572,161.700269,134.324597,166.322245,134.324597,172.022849C134.319557,172.172379,134.331317,172.323589,134.359879,172.469758C127.674731,174.21707,123.321572,180.648521,124.183468,187.50504C125.045363,194.359879,130.856855,199.512769,137.765457,199.549731L185.9375,199.549731C193.539987,199.549731,199.700941,193.387097,199.700941,185.78629C199.700941,178.185484,193.539987,172.022849,185.9375,172.022849Z" fill="rgb(8,193,209)" stroke="none" stroke-width="1"/><path id="ejlL26nVrBM10" d="M34.539651,99.764785C34.539651,103.565188,31.460013,106.646505,27.65793,106.646505C23.857527,106.646505,20.77621,103.565188,20.77621,99.764785C20.77621,95.964382,23.857527,92.883065,27.65793,92.883065C31.460013,92.883065,34.539651,95.964382,34.539651,99.764785Z" fill="rgb(241,242,242)" stroke="none" stroke-width="1"/><path id="ejlL26nVrBM11" d="M179.05578,99.764785C179.05578,103.565188,175.976142,106.646505,172.174059,106.646505C168.373656,106.646505,165.292339,103.565188,165.292339,99.764785C165.292339,95.964382,168.373656,92.883065,172.174059,92.883065C175.976142,92.883065,179.05578,95.964382,179.05578,99.764785Z" fill="rgb(241,242,242)" stroke="none" stroke-width="1"/><path id="ejlL26nVrBM12" d="M55.184812,96.323925L37.348791,96.323925C36.307123,93.408938,34.013777,91.115591,31.098791,90.075605L31.098791,58.474462L24.21707,58.474462L24.21707,90.075605C20.095766,91.512097,17.333669,95.399866,17.333669,99.764785C17.333669,104.129704,20.095766,108.017473,24.21707,109.453965L24.21707,144.495968L31.098791,144.495968L31.098791,109.453965C34.013777,108.413978,36.307123,106.120632,37.348791,103.205645L55.184812,103.205645L55.184812,96.323925ZM27.65793,103.205645C25.757729,103.205645,24.21707,101.664987,24.21707,99.764785C24.21707,97.864583,25.757729,96.323925,27.65793,96.323925C29.559812,96.323925,31.098791,97.864583,31.098791,99.764785C31.098791,101.664987,29.559812,103.205645,27.65793,103.205645Z" fill="rgb(201,233,236)" stroke="none" stroke-width="1"/><path id="ejlL26nVrBM13" d="M55.184812,96.323925L37.348791,96.323925C36.307123,93.408938,34.013777,91.115591,31.098791,90.075605L31.098791,58.474462L24.21707,58.474462L24.21707,90.075605C20.095766,91.512097,17.333669,95.399866,17.333669,99.764785C17.333669,104.129704,20.095766,108.017473,24.21707,109.453965L24.21707,144.495968L31.098791,144.495968L31.098791,109.453965C34.013777,108.413978,36.307123,106.120632,37.348791,103.205645L55.184812,103.205645L55.184812,96.323925ZM27.65793,103.205645C25.757729,103.205645,24.21707,101.664987,24.21707,99.764785C24.21707,97.864583,25.757729,96.323925,27.65793,96.323925C29.559812,96.323925,31.098791,97.864583,31.098791,99.764785C31.098791,101.664987,29.559812,103.205645,27.65793,103.205645Z" fill="rgb(201,233,236)" stroke="rgb(255,255,255)" stroke-width="0"/><path id="ejlL26nVrBM14" d="M182.49664,99.764785C182.479839,95.406586,179.724462,91.528898,175.61492,90.075605L175.61492,58.474462L168.733199,58.474462L168.733199,90.075605C165.819892,91.115591,163.526546,93.408938,162.484879,96.323925L144.647178,96.323925L144.647178,103.205645L162.484879,103.205645C163.526546,106.120632,165.819892,108.413978,168.733199,109.453965L168.733199,141.055108L175.61492,141.055108L175.61492,109.453965C179.724462,108.000672,182.479839,104.122984,182.49664,99.764785L182.49664,99.764785ZM172.174059,103.205645C170.273858,103.205645,168.733199,101.664987,168.733199,99.764785C168.733199,97.864583,170.273858,96.323925,172.174059,96.323925C174.075941,96.323925,175.61492,97.864583,175.61492,99.764785C175.61492,101.664987,174.075941,103.205645,172.174059,103.205645Z" fill="rgb(201,233,236)" stroke="rgb(0,0,0)" stroke-width="0"/><path id="ejlL26nVrBM15" d="M66.176075,101.784274C66.039987,101.56586,65.924059,101.335686,65.831653,101.09711C65.924059,101.335686,66.039987,101.56586,66.176075,101.784274Z" fill="rgb(0,174,239)" stroke="none" stroke-width="1"/><path id="ejlL26nVrBM16" d="M74.247312,120.409946C74.479167,120.485551,74.742944,120.554435,74.981519,120.63004C74.53629,120.488911,74.096102,120.347782,73.676075,120.199933C73.872648,120.268817,74.049059,120.341062,74.247312,120.409946Z" fill="rgb(33,64,154)" stroke="none" stroke-width="1"/><path id="ejlL26nVrBM17" d="M134.012097,101.08871C133.919691,101.328965,133.803763,101.55914,133.667675,101.777554C133.803763,101.55914,133.919691,101.328965,134.012097,101.08871Z" fill="rgb(43,57,144)" stroke="none" stroke-width="1"/><path id="ejlL26nVrBM18" d="M133.395497,102.118615C133.229166,102.34207,133.047715,102.553763,132.852822,102.752016C133.047715,102.552083,133.229166,102.34039,133.395497,102.118615Z" fill="rgb(43,57,144)" stroke="none" stroke-width="1"/><path id="ejlL26nVrBM19" d="M131.293683,103.990255C131.001344,104.186828,130.695565,104.37836,130.361223,104.568212C130.695565,104.37836,131.001344,104.186828,131.293683,103.990255Z" fill="rgb(43,57,144)" stroke="none" stroke-width="1"/><path id="ejlL26nVrBM20" d="M132.484879,103.077957C132.249664,103.291331,132.004368,103.492944,131.747312,103.681116C132.004368,103.492944,132.249664,103.291331,132.484879,103.077957Z" fill="rgb(43,57,144)" stroke="none" stroke-width="1"/><path id="ejlL26nVrBM21" d="M73.029234,119.963037C72.575605,119.789987,72.138777,119.618615,71.72211,119.438844C72.138777,119.618615,72.575605,119.789987,73.029234,119.963037Z" fill="rgb(33,64,154)" stroke="none" stroke-width="1"/><path id="ejlL26nVrBM22" d="M71.120632,119.175067C70.727487,118.991935,70.356183,118.807123,70.00168,118.620632C70.356183,118.807123,70.727487,118.991935,71.120632,119.175067Z" fill="rgb(33,64,154)" stroke="none" stroke-width="1"/><path id="ejlL26nVrBM23" d="M68.084677,117.444557C67.829301,117.256385,67.584005,117.054772,67.348791,116.841398C67.584005,117.054772,67.829301,117.256385,68.084677,117.444557Z" fill="rgb(33,64,154)" stroke="none" stroke-width="1"/><path id="ejlL26nVrBM24" d="M69.472447,118.345094C69.128024,118.156922,68.832325,117.96371,68.539987,117.767137C68.832325,117.950269,69.138105,118.141801,69.472447,118.345094Z" fill="rgb(33,64,154)" stroke="none" stroke-width="1"/><path id="ejlL26nVrBM25" d="M66.980847,116.515457C66.785954,116.317204,66.602822,116.105511,66.436492,115.882056C66.604503,116.103831,66.785954,116.315524,66.980847,116.515457Z" fill="rgb(33,64,154)" stroke="none" stroke-width="1"/><path id="ejlL26nVrBM26" d="M66.176075,115.547715C66.039987,115.329301,65.924059,115.099126,65.831653,114.860551C65.924059,115.099126,66.039987,115.329301,66.176075,115.547715Z" fill="rgb(0,174,239)" stroke="none" stroke-width="1"/><path id="ejlL26nVrBM27" d="M108.037634,109.788306L107.180779,109.853831L108.037634,109.788306Z" fill="rgb(33,64,154)" stroke="none" stroke-width="1"/><path id="ejlL26nVrBM28" d="M114.761425,109.05578L113.948253,109.171707L114.761425,109.05578Z" fill="rgb(33,64,154)" stroke="none" stroke-width="1"/><path id="ejlL26nVrBM29" d="M111.460013,109.477486C111.189516,109.509409,110.924059,109.543011,110.645161,109.568212C110.927419,109.543011,111.189516,109.509409,111.460013,109.477486Z" fill="rgb(33,64,154)" stroke="none" stroke-width="1"/><path id="ejlL26nVrBM30" d="M129.831989,104.857191C129.487567,105.043683,129.106183,105.228495,128.713037,105.411626C129.106183,105.228495,129.477486,105.043683,129.831989,104.857191Z" fill="rgb(43,57,144)" stroke="none" stroke-width="1"/><path id="ejlL26nVrBM31" d="M104.452285,109.988239C104.163307,109.988239,103.881049,110.018481,103.58535,110.028562C103.881049,110.018481,104.163307,109.99832,104.452285,109.988239Z" fill="rgb(33,64,154)" stroke="none" stroke-width="1"/><path id="ejlL26nVrBM32" d="M96.24832,110.028562C95.952621,110.028562,95.670363,109.99832,95.381385,109.988239C95.670363,109.99832,95.952621,110.018481,96.24832,110.028562Z" fill="rgb(33,64,154)" stroke="none" stroke-width="1"/><path id="ejlL26nVrBM33" d="M128.111559,105.675403C127.694892,105.855175,127.258065,106.019825,126.804435,106.199597C127.258065,106.026546,127.694892,105.855175,128.111559,105.675403Z" fill="rgb(43,57,144)" stroke="none" stroke-width="1"/><path id="ejlL26nVrBM34" d="M125.586357,106.646505C125.78461,106.577621,125.961022,106.505376,126.155914,106.436492C125.737567,106.584342,125.295699,106.725471,124.852151,106.8666C125.090726,106.790994,125.354503,106.72211,125.586357,106.646505Z" fill="rgb(43,57,144)" stroke="none" stroke-width="1"/><path id="ejlL26nVrBM35" d="M117.904906,108.553428C117.622648,108.607191,117.34207,108.659274,117.051411,108.707997C117.34207,108.659274,117.622648,108.603831,117.904906,108.553428Z" fill="rgb(33,64,154)" stroke="none" stroke-width="1"/><path id="ejlL26nVrBM36" d="M123.627352,107.234543C123.28293,107.33871,122.901546,107.437836,122.526882,107.533602C122.901546,107.437836,123.266129,107.33535,123.627352,107.234543Z" fill="rgb(33,64,154)" stroke="none" stroke-width="1"/><path id="ejlL26nVrBM37" d="M120.875336,107.940188C120.561156,108.012433,120.245295,108.084677,119.922715,108.153562C120.245295,108.084677,120.561156,108.022514,120.875336,107.940188Z" fill="rgb(33,64,154)" stroke="none" stroke-width="1"/><path id="ejlL26nVrBM38" d="M128.111559,119.438844C127.694892,119.618615,127.258065,119.783266,126.804435,119.963037C127.258065,119.789987,127.694892,119.618615,128.111559,119.438844Z" fill="rgb(43,57,144)" stroke="none" stroke-width="1"/><path id="ejlL26nVrBM39" d="M92.65289,109.853831L91.796035,109.788306L92.65289,109.853831Z" fill="rgb(33,64,154)" stroke="none" stroke-width="1"/><path id="ejlL26nVrBM40" d="M129.831989,118.620632C129.487567,118.807123,129.106183,118.991935,128.713037,119.175067C129.106183,118.991935,129.477486,118.807123,129.831989,118.620632Z" fill="rgb(43,57,144)" stroke="none" stroke-width="1"/><path id="ejlL26nVrBM41" d="M123.627352,120.997984C123.28293,121.102151,122.901546,121.201277,122.526882,121.297043C122.901546,121.201277,123.266129,121.098791,123.627352,120.997984Z" fill="rgb(33,64,154)" stroke="none" stroke-width="1"/><path id="ejlL26nVrBM42" d="M125.586357,120.409946C125.78461,120.341062,125.961022,120.268817,126.155914,120.199933C125.737567,120.347782,125.295699,120.488911,124.852151,120.63004C125.090726,120.554435,125.354503,120.485551,125.586357,120.409946Z" fill="rgb(43,57,144)" stroke="none" stroke-width="1"/><path id="ejlL26nVrBM43" d="M77.306788,121.297043C76.932124,121.201277,76.56418,121.102151,76.206317,120.997984C76.56754,121.098791,76.932124,121.201277,77.306788,121.297043Z" fill="rgb(33,64,154)" stroke="none" stroke-width="1"/><path id="ejlL26nVrBM44" d="M134.324597,113.528226C134.322917,113.879368,134.265793,114.227151,134.153226,114.559812C134.265793,114.227151,134.322917,113.879368,134.324597,113.528226Z" fill="rgb(43,57,144)" stroke="none" stroke-width="1"/><path id="ejlL26nVrBM45" d="M132.484879,116.841398C132.249664,117.054772,132.004368,117.256385,131.747312,117.444557C132.004368,117.256385,132.249664,117.054772,132.484879,116.841398Z" fill="rgb(43,57,144)" stroke="none" stroke-width="1"/><path id="ejlL26nVrBM46" d="M120.875336,121.703629C120.561156,121.775874,120.245295,121.848118,119.922715,121.917003C120.245295,121.848118,120.561156,121.785954,120.875336,121.703629Z" fill="rgb(33,64,154)" stroke="none" stroke-width="1"/><path id="ejlL26nVrBM47" d="M134.012097,114.852151C133.919691,115.092406,133.803763,115.322581,133.667675,115.540994C133.803763,115.322581,133.919691,115.092406,134.012097,114.852151Z" fill="rgb(43,57,144)" stroke="none" stroke-width="1"/><path id="ejlL26nVrBM48" d="M133.395497,115.882056C133.229166,116.105511,133.047715,116.317204,132.852822,116.515457C133.047715,116.315524,133.229166,116.103831,133.395497,115.882056Z" fill="rgb(43,57,144)" stroke="none" stroke-width="1"/><path id="ejlL26nVrBM49" d="M131.293683,117.753696C131.001344,117.950269,130.695565,118.141801,130.361223,118.331653C130.695565,118.141801,131.001344,117.950269,131.293683,117.753696Z" fill="rgb(43,57,144)" stroke="none" stroke-width="1"/><path id="ejlL26nVrBM50" d="M92.65289,123.617271L91.796035,123.551747L92.65289,123.617271Z" fill="rgb(33,64,154)" stroke="none" stroke-width="1"/><path id="ejlL26nVrBM51" d="M85.885417,122.948589L85.072245,122.832662L85.885417,122.948589Z" fill="rgb(33,64,154)" stroke="none" stroke-width="1"/><path id="ejlL26nVrBM52" d="M89.188508,123.331653C88.90961,123.306452,88.644153,123.272849,88.371976,123.240927C88.644153,123.272849,88.90625,123.306452,89.188508,123.331653Z" fill="rgb(33,64,154)" stroke="none" stroke-width="1"/><path id="ejlL26nVrBM53" d="M117.904906,122.316868C117.622648,122.370632,117.34207,122.422715,117.051411,122.471438C117.34207,122.422715,117.622648,122.367271,117.904906,122.316868Z" fill="rgb(33,64,154)" stroke="none" stroke-width="1"/><path id="ejlL26nVrBM54" d="M79.910954,121.917003C79.588374,121.848118,79.270834,121.775874,78.958333,121.703629C79.270834,121.785954,79.588374,121.848118,79.910954,121.917003Z" fill="rgb(33,64,154)" stroke="none" stroke-width="1"/><path id="ejlL26nVrBM55" d="M82.780578,122.474798C82.4916,122.426075,82.209342,122.373992,81.927083,122.320228C82.209342,122.367271,82.4916,122.422715,82.780578,122.474798Z" fill="rgb(33,64,154)" stroke="none" stroke-width="1"/><path id="ejlL26nVrBM56" d="M111.460013,123.240927C111.189516,123.272849,110.924059,123.306452,110.645161,123.331653C110.927419,123.306452,111.189516,123.272849,111.460013,123.240927Z" fill="rgb(33,64,154)" stroke="none" stroke-width="1"/><path id="ejlL26nVrBM57" d="M114.761425,122.819221L113.948253,122.935148L114.761425,122.819221Z" fill="rgb(33,64,154)" stroke="none" stroke-width="1"/><path id="ejlL26nVrBM58" d="M104.452285,123.75168C104.163307,123.75168,103.881049,123.781922,103.58535,123.792003C103.881049,123.781922,104.163307,123.761761,104.452285,123.75168Z" fill="rgb(33,64,154)" stroke="none" stroke-width="1"/><path id="ejlL26nVrBM59" d="M96.24832,123.792003C95.952621,123.792003,95.670363,123.761761,95.381385,123.75168C95.670363,123.761761,95.952621,123.781922,96.24832,123.792003Z" fill="rgb(33,64,154)" stroke="none" stroke-width="1"/><path id="ejlL26nVrBM60" d="M108.037634,123.551747L107.180779,123.617271L108.037634,123.551747Z" fill="rgb(33,64,154)" stroke="none" stroke-width="1"/><path id="ejlL26nVrBM61" d="M134.324597,99.764785C134.322917,100.115927,134.265793,100.46371,134.153226,100.796371C134.265793,100.46371,134.322917,100.115927,134.324597,99.764785Z" fill="rgb(43,57,144)" stroke="none" stroke-width="1"/><g id="ejlL26nVrBM62" transform="matrix(1 0 0 1 71.3979 91.6129)"><path id="ejlL26nVrBM63" d="M14.487567,3.808804L13.674395,3.692877L14.487567,3.808804Z" fill="rgb(33,64,154)" stroke="none" stroke-width="1"/><path id="ejlL26nVrBM64" d="M11.382729,3.335013C11.09375,3.28629,10.811492,3.234207,10.529234,3.180443C10.811492,3.227486,11.09375,3.28293,11.382729,3.335013Z" fill="rgb(33,64,154)" stroke="none" stroke-width="1"/><path id="ejlL26nVrBM65" d="M8.513105,2.777218C8.190524,2.708333,7.872984,2.636089,7.560484,2.563844C7.872984,2.646169,8.190524,2.708333,8.513105,2.777218Z" fill="rgb(33,64,154)" stroke="none" stroke-width="1"/><path id="ejlL26nVrBM66" d="M2.849462,1.270161C3.081317,1.345766,3.345094,1.41465,3.583669,1.490255C3.138441,1.349126,2.698253,1.207997,2.278226,1.060148C2.474798,1.129032,2.651209,1.201277,2.849462,1.270161Z" fill="rgb(33,64,154)" stroke="none" stroke-width="1"/><path id="ejlL26nVrBM67" d="M5.908938,2.157258C5.534274,2.061492,5.166331,1.962366,4.808468,1.858199C5.169691,1.959006,5.534274,2.061492,5.908938,2.157258Z" fill="rgb(33,64,154)" stroke="none" stroke-width="1"/><path id="ejlL26nVrBM68" d="M36.639785,4.411962L35.78293,4.477486L36.639785,4.411962Z" fill="rgb(33,64,154)" stroke="none" stroke-width="1"/><path id="ejlL26nVrBM69" d="M33.054435,4.611895C32.765457,4.611895,32.483199,4.642137,32.1875,4.652218C32.483199,4.642137,32.765457,4.621976,33.054435,4.611895Z" fill="rgb(33,64,154)" stroke="none" stroke-width="1"/><path id="ejlL26nVrBM70" d="M1.631385,0.823252C1.177755,0.650202,0.740927,0.478831,0.324261,0.299059C0.740927,0.478831,1.177755,0.650202,1.631385,0.823252Z" fill="rgb(33,64,154)" stroke="none" stroke-width="1"/><path id="ejlL26nVrBM71" d="M24.850471,4.652218C24.554772,4.652218,24.272514,4.621976,23.983535,4.611895C24.272514,4.621976,24.554772,4.642137,24.850471,4.652218Z" fill="rgb(33,64,154)" stroke="none" stroke-width="1"/><path id="ejlL26nVrBM72" d="M40.062164,4.101142C39.791667,4.133065,39.52621,4.166667,39.247312,4.191868C39.52957,4.166667,39.791667,4.133065,40.062164,4.101142Z" fill="rgb(33,64,154)" stroke="none" stroke-width="1"/><path id="ejlL26nVrBM73" d="M17.790659,4.191868C17.511761,4.166667,17.246304,4.133065,16.974127,4.101142C17.246304,4.133065,17.5084,4.166667,17.790659,4.191868Z" fill="rgb(33,64,154)" stroke="none" stroke-width="1"/><path id="ejlL26nVrBM74" d="M21.25504,4.477486L20.398185,4.411962L21.25504,4.477486Z" fill="rgb(33,64,154)" stroke="none" stroke-width="1"/></g><path id="ejlL26nVrBM75" d="M65.507393,99.764785C65.509073,100.115927,65.567876,100.46371,65.680443,100.796371C65.567876,100.46371,65.509073,100.115927,65.507393,99.764785Z" fill="rgb(0,174,239)" stroke="none" stroke-width="1"/><path id="ejlL26nVrBM76" d="M65.507393,113.528226C65.509073,113.879368,65.567876,114.227151,65.680443,114.559812C65.567876,114.227151,65.509073,113.879368,65.507393,113.528226Z" fill="rgb(0,174,239)" stroke="none" stroke-width="1"/><path id="ejlL26nVrBM77" d="M71.120632,91.648185C70.727487,91.465054,70.356183,91.280242,70.00168,91.09375C70.356183,91.280242,70.727487,91.465054,71.120632,91.648185Z" fill="rgb(33,64,154)" stroke="none" stroke-width="1"/><path id="ejlL26nVrBM78" d="M68.084677,89.917675C67.829301,89.729503,67.584005,89.52789,67.348791,89.314516C67.584005,89.52789,67.829301,89.729503,68.084677,89.917675Z" fill="rgb(33,64,154)" stroke="none" stroke-width="1"/><path id="ejlL26nVrBM79" d="M89.188508,109.568212C88.90961,109.543011,88.644153,109.509409,88.371976,109.477486C88.644153,109.509409,88.90625,109.543011,89.188508,109.568212Z" fill="rgb(33,64,154)" stroke="none" stroke-width="1"/><path id="ejlL26nVrBM80" d="M66.176075,88.020834C66.039987,87.802419,65.924059,87.572245,65.831653,87.333669C65.924059,87.572245,66.039987,87.802419,66.176075,88.020834Z" fill="rgb(0,174,239)" stroke="none" stroke-width="1"/><path id="ejlL26nVrBM81" d="M66.980847,88.988576C66.785954,88.790323,66.602822,88.578629,66.436492,88.355175C66.604503,88.576949,66.785954,88.788643,66.980847,88.988576Z" fill="rgb(0,174,239)" stroke="none" stroke-width="1"/><path id="ejlL26nVrBM82" d="M65.507393,86.001344C65.509073,86.352487,65.567876,86.700269,65.680443,87.03293C65.567876,86.700269,65.509073,86.352487,65.507393,86.001344Z" fill="rgb(0,174,239)" stroke="none" stroke-width="1"/><path id="ejlL26nVrBM83" d="M69.472447,90.818213C69.128024,90.63004,68.832325,90.436828,68.539987,90.240256C68.832325,90.423387,69.138105,90.61492,69.472447,90.818213Z" fill="rgb(33,64,154)" stroke="none" stroke-width="1"/><path id="ejlL26nVrBM84" d="M69.472447,104.581653C69.128024,104.393481,68.832325,104.200269,68.539987,104.003696C68.832325,104.186828,69.138105,104.37836,69.472447,104.581653Z" fill="rgb(33,64,154)" stroke="none" stroke-width="1"/><path id="ejlL26nVrBM85" d="M73.029234,106.199597C72.575605,106.026546,72.138777,105.855175,71.72211,105.675403C72.138777,105.855175,72.575605,106.026546,73.029234,106.199597Z" fill="rgb(33,64,154)" stroke="none" stroke-width="1"/><path id="ejlL26nVrBM86" d="M71.120632,105.411626C70.727487,105.228495,70.356183,105.043683,70.00168,104.857191C70.356183,105.043683,70.727487,105.228495,71.120632,105.411626Z" fill="rgb(33,64,154)" stroke="none" stroke-width="1"/><path id="ejlL26nVrBM87" d="M66.980847,102.752016C66.785954,102.553763,66.602822,102.34207,66.436492,102.118615C66.604503,102.34039,66.785954,102.552083,66.980847,102.752016Z" fill="rgb(33,64,154)" stroke="none" stroke-width="1"/><path id="ejlL26nVrBM88" d="M68.084677,103.681116C67.829301,103.492944,67.584005,103.291331,67.348791,103.077957C67.584005,103.291331,67.829301,103.492944,68.084677,103.681116Z" fill="rgb(33,64,154)" stroke="none" stroke-width="1"/><path id="ejlL26nVrBM89" d="M77.306788,107.533602C76.932124,107.437836,76.56418,107.33871,76.206317,107.234543C76.56754,107.33535,76.932124,107.437836,77.306788,107.533602Z" fill="rgb(33,64,154)" stroke="none" stroke-width="1"/><path id="ejlL26nVrBM90" d="M74.247312,106.646505C74.479167,106.72211,74.742944,106.790994,74.981519,106.8666C74.53629,106.725471,74.096102,106.584342,73.676075,106.436492C73.872648,106.505376,74.049059,106.577621,74.247312,106.646505Z" fill="rgb(33,64,154)" stroke="none" stroke-width="1"/><path id="ejlL26nVrBM91" d="M82.780578,108.711357C82.4916,108.662634,82.209342,108.610551,81.927083,108.556788C82.209342,108.603831,82.4916,108.659274,82.780578,108.711357Z" fill="rgb(33,64,154)" stroke="none" stroke-width="1"/><path id="ejlL26nVrBM92" d="M85.885417,109.185148L85.072245,109.069221L85.885417,109.185148Z" fill="rgb(33,64,154)" stroke="none" stroke-width="1"/><path id="ejlL26nVrBM93" d="M79.910954,108.153562C79.588374,108.084677,79.270834,108.012433,78.958333,107.940188C79.270834,108.022514,79.588374,108.084677,79.910954,108.153562Z" fill="rgb(33,64,154)" stroke="none" stroke-width="1"/><path id="ejlL26nVrBM94" d="M125.586357,92.883065C125.78461,92.81418,125.961022,92.741936,126.155914,92.673051C125.737567,92.820901,125.295699,92.96203,124.852151,93.103159C125.090726,93.027554,125.354503,92.958669,125.586357,92.883065Z" fill="rgb(43,57,144)" stroke="none" stroke-width="1"/><path id="ejlL26nVrBM95" d="M123.627352,93.471102C123.28293,93.575269,122.901546,93.674395,122.526882,93.770161C122.901546,93.674395,123.266129,93.571909,123.627352,93.471102Z" fill="rgb(33,64,154)" stroke="none" stroke-width="1"/><path id="ejlL26nVrBM96" d="M114.761425,95.292339L113.948253,95.408266L114.761425,95.292339Z" fill="rgb(33,64,154)" stroke="none" stroke-width="1"/><path id="ejlL26nVrBM97" d="M117.904906,94.789987C117.622648,94.84375,117.34207,94.895833,117.051411,94.944557C117.34207,94.895833,117.622648,94.84039,117.904906,94.789987Z" fill="rgb(33,64,154)" stroke="none" stroke-width="1"/><path id="ejlL26nVrBM98" d="M128.111559,91.911962C127.694892,92.091734,127.258065,92.256385,126.804435,92.436156C127.258065,92.263105,127.694892,92.091734,128.111559,91.911962Z" fill="rgb(43,57,144)" stroke="none" stroke-width="1"/><path id="ejlL26nVrBM99" d="M134.324597,86.001344C134.322917,86.352487,134.265793,86.700269,134.153226,87.03293C134.265793,86.700269,134.322917,86.352487,134.324597,86.001344Z" fill="rgb(0,174,239)" stroke="none" stroke-width="1"/><path id="ejlL26nVrBM100" d="M120.875336,94.176748C120.561156,94.248992,120.245295,94.321237,119.922715,94.390121C120.245295,94.321237,120.561156,94.259073,120.875336,94.176748Z" fill="rgb(33,64,154)" stroke="none" stroke-width="1"/><path id="ejlL26nVrBM101" d="M134.012097,87.325269C133.919691,87.565524,133.803763,87.795699,133.667675,88.014113C133.803763,87.795699,133.919691,87.565524,134.012097,87.325269Z" fill="rgb(0,174,239)" stroke="none" stroke-width="1"/><path id="ejlL26nVrBM102" d="M129.831989,91.09375C129.487567,91.280242,129.106183,91.465054,128.713037,91.648185C129.106183,91.465054,129.477486,91.280242,129.831989,91.09375Z" fill="rgb(43,57,144)" stroke="none" stroke-width="1"/><path id="ejlL26nVrBM103" d="M133.395497,88.355175C133.229166,88.578629,133.047715,88.790323,132.852822,88.988576C133.047715,88.788643,133.229166,88.576949,133.395497,88.355175Z" fill="rgb(43,57,144)" stroke="none" stroke-width="1"/><path id="ejlL26nVrBM104" d="M131.293683,90.226815C131.001344,90.423387,130.695565,90.61492,130.361223,90.804772C130.695565,90.61492,131.001344,90.423387,131.293683,90.226815Z" fill="rgb(43,57,144)" stroke="none" stroke-width="1"/><path id="ejlL26nVrBM105" d="M132.484879,89.314516C132.249664,89.52789,132.004368,89.729503,131.747312,89.917675C132.004368,89.729503,132.249664,89.52789,132.484879,89.314516Z" fill="rgb(43,57,144)" stroke="none" stroke-width="1"/><path id="ejlL26nVrBM106" d="M74.247312,79.119624C82.580645,81.56082,91.234879,82.720094,99.915995,82.560484C108.59711,82.720094,117.253024,81.56082,125.586357,79.119624C131.021505,77.296707,134.324597,74.887433,134.324597,72.237903C134.324597,66.525538,118.90961,61.915323,99.915995,61.915323C80.922379,61.915323,65.507393,66.525538,65.507393,72.237903C65.507393,74.887433,68.812164,77.296707,74.247312,79.119624L74.247312,79.119624Z" fill="rgb(201,233,236)" stroke="none" stroke-width="1"/><path id="ejlL26nVrBM107" d="M65.821573,87.325269C65.913979,87.565524,66.029906,87.795699,66.165995,88.014113C66.2416,88.12836,66.340726,88.234207,66.426411,88.358535C66.592742,88.581989,66.774193,88.793683,66.970766,88.991936C67.079973,89.101142,67.214382,89.208669,67.33871,89.336357C67.573925,89.549731,67.819221,89.749664,68.074597,89.937836C68.215726,90.043683,68.373656,90.14449,68.529906,90.246976C68.822245,90.443548,69.128024,90.636761,69.462366,90.824933C69.630376,90.925739,69.805108,91.018145,69.9916,91.113911C70.336022,91.300403,70.717406,91.486895,71.110551,91.668347L71.71203,91.933804C72.128696,92.111895,72.565524,92.278226,73.019153,92.456317C73.232527,92.535282,73.445901,92.617608,73.665995,92.693213C74.086022,92.841062,74.52621,92.982191,74.969758,93.12332C75.414987,93.264449,75.77621,93.371976,76.196237,93.491264C76.538979,93.59543,76.922043,93.694557,77.296707,93.792003C77.832662,93.933132,78.383737,94.06754,78.948253,94.196908C79.260753,94.269153,79.578293,94.341398,79.900874,94.410282C80.554435,94.551411,81.229839,94.68246,81.917003,94.810148C82.199261,94.865591,82.481519,94.915995,82.770497,94.964718C83.518145,95.095766,84.284274,95.211694,85.062164,95.325941L85.875336,95.443548C86.683468,95.549395,87.518481,95.646841,88.361895,95.735887C88.634073,95.766129,88.89953,95.801411,89.178428,95.824933C90.031922,95.910619,90.898858,95.979503,91.785954,96.045027L92.642809,96.110551C93.536626,96.169355,94.452285,96.206317,95.371304,96.24496C95.660282,96.24496,95.94254,96.275202,96.238239,96.285282C97.442877,96.323925,98.667675,96.344086,99.905914,96.344086C101.145833,96.344086,102.370632,96.323925,103.573589,96.285282C103.870968,96.285282,104.153226,96.25504,104.442204,96.24496C105.359543,96.206317,106.275202,96.169355,107.170699,96.110551L108.027554,96.045027C108.90793,95.979503,109.781586,95.910619,110.63508,95.824933C110.913978,95.801411,111.179436,95.766129,111.449933,95.735887C112.293347,95.646841,113.13004,95.549395,113.938172,95.443548L114.749664,95.325941C115.527554,95.211694,116.295363,95.095766,117.041331,94.964718C117.330309,94.915995,117.612567,94.865591,117.894825,94.810148C118.583669,94.68246,119.270834,94.551411,119.910954,94.410282C120.235215,94.341398,120.551075,94.269153,120.865255,94.196908C121.429772,94.06754,121.979166,93.933132,122.516801,93.792003C122.891465,93.694557,123.259409,93.59543,123.617271,93.491264C124.037298,93.371976,124.443884,93.251008,124.84207,93.12332C125.241935,92.997312,125.725806,92.841062,126.145833,92.693213C126.365927,92.617608,126.579301,92.535282,126.792675,92.456317C127.247984,92.284946,127.684812,92.111895,128.101479,91.933804L128.702957,91.668347C129.094422,91.486895,129.467406,91.300403,129.821909,91.113911C130.00336,91.018145,130.16465,90.925739,130.351142,90.824933C130.695565,90.636761,130.991264,90.443548,131.283602,90.246976C131.438172,90.14449,131.596102,90.043683,131.737231,89.937836C131.994288,89.749664,132.239583,89.549731,132.474798,89.336357C132.597446,89.225471,132.731855,89.117944,132.842742,88.991936C133.037634,88.793683,133.219086,88.581989,133.385417,88.358535C133.472782,88.244288,133.571909,88.138441,133.647514,88.014113C133.783602,87.795699,133.897849,87.565524,133.991935,87.325269C134.032258,87.222782,134.097782,87.127016,134.133065,87.02285C134.250672,86.695228,134.316196,86.350807,134.324597,86.001344L134.324597,72.237903C134.324597,74.887433,131.021505,77.296707,125.586357,79.119624C117.253024,81.56082,108.59711,82.720094,99.915995,82.560484C91.234879,82.720094,82.580645,81.56082,74.247312,79.119624C68.812164,77.296707,65.507393,74.887433,65.507393,72.237903L65.507393,86.001344C65.509073,86.352487,65.567876,86.700269,65.680443,87.03293C65.714046,87.127016,65.77957,87.222782,65.821573,87.325269L65.821573,87.325269Z" fill="rgb(180,204,255)" stroke="none" stroke-width="1"/><path id="ejlL26nVrBM108" d="M65.821573,101.08871C65.913979,101.328965,66.029906,101.55914,66.165995,101.777554C66.2416,101.891801,66.340726,101.997648,66.426411,102.121976C66.592742,102.34543,66.774193,102.557123,66.970766,102.755376C67.079973,102.864583,67.214382,102.97211,67.33871,103.081317C67.573925,103.294691,67.819221,103.496304,68.074597,103.684476C68.215726,103.790323,68.373656,103.891129,68.529906,103.993615C68.822245,104.190188,69.128024,104.38172,69.462366,104.571572C69.630376,104.670699,69.805108,104.764785,69.9916,104.860551C70.336022,105.047043,70.717406,105.231855,71.110551,105.414987L71.71203,105.680443C72.128696,105.858535,72.565524,106.023185,73.019153,106.202957C73.232527,106.281922,73.445901,106.364247,73.665995,106.439852C74.086022,106.587702,74.52621,106.728831,74.969758,106.86996C75.414987,107.011089,75.77621,107.118615,76.196237,107.237903C76.538979,107.34207,76.922043,107.441196,77.296707,107.536963C77.832662,107.678091,78.383737,107.8125,78.948253,107.943548C79.260753,108.015793,79.578293,108.088038,79.900874,108.156922C80.554435,108.298051,81.229839,108.429099,81.917003,108.556788C82.199261,108.610551,82.481519,108.662634,82.770497,108.711357C83.518145,108.842406,84.284274,108.958333,85.062164,109.072581L85.875336,109.188508C86.683468,109.296035,87.518481,109.391801,88.361895,109.482527C88.634073,109.512769,88.89953,109.546371,89.178428,109.571572C90.031922,109.657258,90.898858,109.726142,91.785954,109.791667L92.642809,109.857191C93.536626,109.915995,94.452285,109.952957,95.371304,109.9916C95.660282,109.9916,95.94254,110.021841,96.238239,110.031922C97.442877,110.070564,98.667675,110.090726,99.905914,110.090726C101.145833,110.090726,102.370632,110.070564,103.573589,110.031922C103.870968,110.031922,104.153226,110.00168,104.442204,109.9916C105.359543,109.952957,106.275202,109.915995,107.170699,109.857191L108.027554,109.791667C108.90793,109.726142,109.781586,109.657258,110.63508,109.571572C110.913978,109.546371,111.179436,109.512769,111.449933,109.482527C112.293347,109.391801,113.13004,109.296035,113.938172,109.188508L114.749664,109.072581C115.527554,108.958333,116.295363,108.842406,117.041331,108.711357C117.330309,108.662634,117.612567,108.610551,117.894825,108.556788C118.583669,108.429099,119.270834,108.298051,119.910954,108.156922C120.235215,108.088038,120.551075,108.015793,120.865255,107.943548C121.429772,107.8125,121.979166,107.678091,122.516801,107.536963C122.891465,107.441196,123.259409,107.34207,123.617271,107.237903C124.037298,107.118615,124.443884,106.997648,124.84207,106.86996C125.241935,106.742271,125.725806,106.587702,126.145833,106.439852C126.365927,106.364247,126.579301,106.281922,126.792675,106.202957C127.247984,106.029906,127.684812,105.858535,128.101479,105.680443L128.702957,105.414987C129.094422,105.231855,129.467406,105.047043,129.821909,104.860551C130.00336,104.764785,130.16465,104.670699,130.351142,104.571572C130.695565,104.38172,130.991264,104.190188,131.283602,103.993615C131.438172,103.891129,131.596102,103.790323,131.737231,103.684476C131.994288,103.496304,132.239583,103.294691,132.474798,103.081317C132.597446,102.97211,132.731855,102.864583,132.842742,102.755376C133.037634,102.557123,133.219086,102.34543,133.385417,102.121976C133.472782,102.007729,133.571909,101.901882,133.647514,101.777554C133.783602,101.55914,133.897849,101.328965,133.991935,101.08871C134.032258,100.986223,134.097782,100.890457,134.133065,100.78629C134.250672,100.458669,134.316196,100.114247,134.324597,99.764785L134.324597,86.001344C134.322917,86.352487,134.265793,86.700269,134.153226,87.03293C134.119624,87.137097,134.054099,87.232863,134.012097,87.33703C133.919691,87.575605,133.803763,87.80578,133.667675,88.024194C133.59207,88.138441,133.492944,88.244288,133.407258,88.368616C133.239247,88.59039,133.057796,88.802083,132.862903,89.002016C132.748656,89.111223,132.619288,89.21875,132.49496,89.346438C132.259745,89.559812,132.014449,89.759745,131.759073,89.947917C131.617944,90.055443,131.458333,90.15457,131.303763,90.257056C131.011425,90.453629,130.705645,90.646841,130.371304,90.835013C130.203293,90.93582,130.026882,91.028226,129.84207,91.123992C129.497648,91.310484,129.116263,91.496976,128.723118,91.678428L128.12164,91.943884C127.704973,92.121976,127.268145,92.288306,126.814516,92.466398C126.601142,92.545363,126.387769,92.627688,126.167675,92.703293C125.947581,92.780578,125.794691,92.844422,125.596438,92.913307C125.396505,92.982191,125.100806,93.057796,124.862231,93.1334C124.464046,93.261089,124.05746,93.382056,123.637433,93.503024C123.294691,93.605511,122.911626,93.704637,122.536963,93.802083C122.001008,93.943213,121.449933,94.077621,120.885417,94.206989C120.569557,94.279234,120.255376,94.351479,119.932796,94.420363C119.279234,94.561492,118.603831,94.69254,117.916667,94.820228C117.634409,94.872312,117.352151,94.927755,117.063172,94.974798C116.315524,95.105847,115.549395,95.223454,114.771505,95.336022L113.958333,95.453629C113.146841,95.559476,112.316868,95.656922,111.471774,95.745968C111.199597,95.77621,110.93414,95.811492,110.655242,95.835013C109.801747,95.920699,108.934812,95.989583,108.047715,96.055108L107.19086,96.120632C106.295363,96.176075,105.381385,96.218078,104.462366,96.25504C104.173387,96.25504,103.891129,96.285282,103.59543,96.297043C102.390793,96.334005,101.165995,96.354167,99.927755,96.354167C98.687836,96.354167,97.463037,96.334005,96.2584,96.297043C95.962702,96.297043,95.680443,96.265121,95.391465,96.25504C94.474127,96.218078,93.558468,96.176075,92.66297,96.120632L91.806116,96.055108C90.925739,95.989583,90.052083,95.920699,89.198589,95.835013C88.919691,95.811492,88.654234,95.77621,88.383737,95.745968C87.536963,95.656922,86.706989,95.559476,85.895497,95.453629L85.084005,95.336022C84.306116,95.223454,83.538306,95.105847,82.792339,94.974798C82.50336,94.927755,82.221102,94.872312,81.938844,94.820228C81.25,94.69254,80.561156,94.561492,79.922715,94.420363C79.598454,94.351479,79.285954,94.279234,78.968414,94.206989C78.403898,94.077621,77.854503,93.943213,77.316868,93.802083C76.942204,93.704637,76.577621,93.605511,76.216398,93.503024C75.796371,93.382056,75.389785,93.261089,74.9916,93.1334C74.753024,93.057796,74.489247,92.988911,74.259073,92.913307C74.027218,92.837702,73.882729,92.772177,73.687836,92.703293C73.491264,92.636089,73.252688,92.545363,73.040994,92.466398C72.585686,92.295027,72.148858,92.121976,71.732191,91.943884L71.130712,91.678428C70.737567,91.496976,70.366263,91.310484,70.011761,91.123992C69.830309,91.028226,69.650538,90.93582,69.482527,90.835013C69.138105,90.646841,68.842406,90.453629,68.550067,90.257056C68.395497,90.15457,68.237567,90.055443,68.096438,89.947917C67.839382,89.759745,67.594086,89.559812,67.358871,89.346438C67.236223,89.235551,67.105175,89.129704,66.990927,89.002016C66.796035,88.802083,66.614583,88.59039,66.448253,88.368616C66.360887,88.254368,66.261761,88.148521,66.186156,88.024194C66.050067,87.80578,65.93414,87.575605,65.841734,87.33703C65.801411,87.232863,65.735887,87.137097,65.700605,87.03293C65.581317,86.701949,65.515793,86.354167,65.507393,86.001344L65.507393,99.764785C65.509073,100.115927,65.567876,100.46371,65.680443,100.796371C65.714046,100.890457,65.77957,100.986223,65.821573,101.08871Z" fill="rgb(144,179,251)" stroke="none" stroke-width="1"/><path id="ejlL26nVrBM109" d="M68.539987,90.226815C68.385417,90.122648,68.225807,90.023522,68.084677,89.917675C68.225807,90.023522,68.385417,90.131049,68.539987,90.226815Z" fill="rgb(33,64,154)" stroke="none" stroke-width="1"/><path id="ejlL26nVrBM110" d="M67.348791,89.314516C67.224462,89.205309,67.091734,89.097782,66.980847,88.970094C67.095094,89.097782,67.227823,89.205309,67.348791,89.314516Z" fill="rgb(33,64,154)" stroke="none" stroke-width="1"/><path id="ejlL26nVrBM111" d="M76.206317,93.471102C75.78629,93.351815,75.379704,93.230847,74.981519,93.103159C75.379704,93.227487,75.78629,93.351815,76.206317,93.471102Z" fill="rgb(33,64,154)" stroke="none" stroke-width="1"/><path id="ejlL26nVrBM112" d="M70.00168,91.09375C69.820228,90.997984,69.640457,90.903898,69.472447,90.804772C69.637097,90.903898,69.820228,90.997984,70.00168,91.09375Z" fill="rgb(33,64,154)" stroke="none" stroke-width="1"/><path id="ejlL26nVrBM113" d="M65.821573,87.325269C65.77957,87.222782,65.714046,87.127016,65.680443,87.02285C65.714046,87.127016,65.77957,87.222782,65.821573,87.325269Z" fill="rgb(0,174,239)" stroke="none" stroke-width="1"/><path id="ejlL26nVrBM114" d="M73.676075,92.673051C73.455981,92.597446,73.242607,92.515121,73.029234,92.436156C73.242607,92.515121,73.455981,92.597446,73.676075,92.673051Z" fill="rgb(33,64,154)" stroke="none" stroke-width="1"/><path id="ejlL26nVrBM115" d="M71.72211,91.911962L71.120632,91.648185L71.72211,91.911962Z" fill="rgb(33,64,154)" stroke="none" stroke-width="1"/><path id="ejlL26nVrBM116" d="M128.713037,91.648185L128.111559,91.911962L128.713037,91.648185Z" fill="rgb(43,57,144)" stroke="none" stroke-width="1"/><path id="ejlL26nVrBM117" d="M66.436492,88.355175C66.350807,88.240927,66.25168,88.13508,66.176075,88.010753C66.25168,88.13508,66.350807,88.240927,66.436492,88.355175Z" fill="rgb(0,174,239)" stroke="none" stroke-width="1"/><path id="ejlL26nVrBM118" d="M124.852151,93.103159C124.453965,93.230847,124.047379,93.351815,123.627352,93.471102C124.047379,93.351815,124.453965,93.227487,124.852151,93.103159Z" fill="rgb(33,64,154)" stroke="none" stroke-width="1"/><path id="ejlL26nVrBM119" d="M126.804435,92.436156C126.591062,92.515121,126.377688,92.597446,126.155914,92.673051C126.377688,92.597446,126.591062,92.515121,126.804435,92.436156Z" fill="rgb(43,57,144)" stroke="none" stroke-width="1"/><path id="ejlL26nVrBM120" d="M117.051411,94.947917C116.305443,95.078965,115.537634,95.194893,114.761425,95.30914C115.537634,95.191532,116.305443,95.075605,117.051411,94.947917Z" fill="rgb(33,64,154)" stroke="none" stroke-width="1"/><path id="ejlL26nVrBM121" d="M119.922715,94.390121C119.267473,94.53125,118.59375,94.662299,117.904906,94.789987C118.59375,94.662299,119.267473,94.53125,119.922715,94.390121Z" fill="rgb(33,64,154)" stroke="none" stroke-width="1"/><path id="ejlL26nVrBM122" d="M78.958333,94.176748C78.393817,94.045699,77.844422,93.91129,77.306788,93.770161C77.844422,93.91465,78.393817,94.045699,78.958333,94.176748Z" fill="rgb(33,64,154)" stroke="none" stroke-width="1"/><path id="ejlL26nVrBM123" d="M133.657594,88.020834C133.581989,88.13508,133.482863,88.240927,133.395497,88.365256C133.482863,88.240927,133.581989,88.13508,133.657594,88.020834Z" fill="rgb(0,174,239)" stroke="none" stroke-width="1"/><path id="ejlL26nVrBM124" d="M134.153226,87.03293C134.119624,87.137097,134.054099,87.232863,134.012097,87.33703C134.054099,87.222782,134.119624,87.127016,134.153226,87.03293Z" fill="rgb(0,174,239)" stroke="none" stroke-width="1"/><path id="ejlL26nVrBM125" d="M132.852822,88.988576C132.741935,89.097782,132.607527,89.205309,132.484879,89.331317C132.604167,89.205309,132.738575,89.097782,132.852822,88.988576Z" fill="rgb(43,57,144)" stroke="none" stroke-width="1"/><path id="ejlL26nVrBM126" d="M131.747312,89.917675C131.607863,90.023522,131.448253,90.122648,131.293683,90.226815C131.448253,90.131049,131.607863,90.023522,131.747312,89.917675Z" fill="rgb(43,57,144)" stroke="none" stroke-width="1"/><path id="ejlL26nVrBM127" d="M130.361223,90.818213C130.193212,90.919019,130.016801,91.011425,129.831989,91.107191C130.013441,90.997984,130.196572,90.903898,130.361223,90.818213Z" fill="rgb(43,57,144)" stroke="none" stroke-width="1"/><path id="ejlL26nVrBM128" d="M122.526882,93.770161C121.989247,93.91129,121.439852,94.045699,120.875336,94.176748C121.439852,94.045699,121.989247,93.91465,122.526882,93.770161Z" fill="rgb(33,64,154)" stroke="none" stroke-width="1"/><path id="ejlL26nVrBM129" d="M91.796035,96.024865C90.915659,95.959342,90.042003,95.890457,89.188508,95.804772C90.042003,95.890457,90.915659,95.959342,91.796035,96.024865Z" fill="rgb(33,64,154)" stroke="none" stroke-width="1"/><path id="ejlL26nVrBM130" d="M88.371976,95.714046C87.530242,95.625,86.693548,95.529234,85.885417,95.421707C86.696908,95.527554,87.526882,95.625,88.371976,95.714046Z" fill="rgb(33,64,154)" stroke="none" stroke-width="1"/><path id="ejlL26nVrBM131" d="M95.381385,96.224798C94.462366,96.186156,93.548387,96.149194,92.65289,96.09039C93.548387,96.144153,94.462366,96.186156,95.381385,96.224798Z" fill="rgb(33,64,154)" stroke="none" stroke-width="1"/><path id="ejlL26nVrBM132" d="M81.927083,94.789987C81.239919,94.662299,80.551075,94.53125,79.910954,94.390121C80.564516,94.53125,81.239919,94.662299,81.927083,94.789987Z" fill="rgb(33,64,154)" stroke="none" stroke-width="1"/><path id="ejlL26nVrBM133" d="M85.072245,95.292339C84.296035,95.178091,83.528226,95.060484,82.780578,94.931116C83.528226,95.075605,84.296035,95.191532,85.072245,95.292339Z" fill="rgb(33,64,154)" stroke="none" stroke-width="1"/><path id="ejlL26nVrBM134" d="M103.58535,96.265121C102.380712,96.303763,101.155914,96.323925,99.915995,96.323925C101.155914,96.323925,102.380712,96.303763,103.58535,96.265121Z" fill="rgb(33,64,154)" stroke="none" stroke-width="1"/><path id="ejlL26nVrBM135" d="M107.180779,96.09039C106.285282,96.149194,105.371304,96.186156,104.452285,96.224798C105.371304,96.186156,106.285282,96.144153,107.180779,96.09039Z" fill="rgb(33,64,154)" stroke="none" stroke-width="1"/><path id="ejlL26nVrBM136" d="M99.915995,96.323925C98.677755,96.323925,97.452957,96.303763,96.24832,96.265121C97.452957,96.303763,98.677755,96.323925,99.915995,96.323925Z" fill="rgb(33,64,154)" stroke="none" stroke-width="1"/><path id="ejlL26nVrBM137" d="M110.645161,95.804772C109.791667,95.890457,108.924731,95.959342,108.037634,96.024865C108.918011,95.959342,109.791667,95.890457,110.645161,95.804772Z" fill="rgb(33,64,154)" stroke="none" stroke-width="1"/><path id="ejlL26nVrBM138" d="M113.948253,95.421707C113.140121,95.529234,112.303428,95.625,111.460013,95.714046C112.306788,95.625,113.136761,95.527554,113.948253,95.421707Z" fill="rgb(33,64,154)" stroke="none" stroke-width="1"/><path id="ejlL26nVrBM139" d="M65.821573,114.852151C65.913979,115.092406,66.029906,115.322581,66.165995,115.540994C66.2416,115.655242,66.340726,115.761089,66.426411,115.885417C66.592742,116.108871,66.774193,116.320564,66.970766,116.518817C67.079973,116.628024,67.214382,116.735551,67.33871,116.844758C67.573925,117.058132,67.819221,117.259745,68.074597,117.447917C68.215726,117.553763,68.373656,117.65457,68.529906,117.757056C68.822245,117.953629,69.128024,118.145161,69.462366,118.335013C69.630376,118.43414,69.805108,118.528226,69.9916,118.623992C70.336022,118.810484,70.717406,118.995295,71.110551,119.178428L71.71203,119.443884C72.128696,119.621976,72.565524,119.786626,73.019153,119.966398C73.232527,120.045363,73.445901,120.127688,73.665995,120.203293C74.086022,120.351142,74.52621,120.492271,74.969758,120.6334C75.414987,120.774529,75.77621,120.882056,76.196237,121.001344C76.538979,121.105511,76.922043,121.204637,77.296707,121.300403C77.832662,121.441532,78.383737,121.575941,78.948253,121.706989C79.260753,121.779234,79.578293,121.851479,79.900874,121.920363C80.554435,122.061492,81.229839,122.19254,81.917003,122.320228C82.199261,122.373992,82.481519,122.426075,82.770497,122.474798C83.518145,122.605847,84.284274,122.721774,85.062164,122.836022L85.875336,122.951949C86.683468,123.059476,87.518481,123.155242,88.361895,123.245968C88.634073,123.27621,88.89953,123.309812,89.178428,123.335013C90.031922,123.420699,90.898858,123.489583,91.785954,123.555108L92.642809,123.620632C93.536626,123.679436,94.452285,123.716398,95.371304,123.75504C95.660282,123.75504,95.94254,123.785282,96.238239,123.795363C97.442877,123.834005,98.667675,123.854167,99.905914,123.854167C101.145833,123.854167,102.370632,123.834005,103.573589,123.795363C103.870968,123.795363,104.153226,123.765121,104.442204,123.75504C105.359543,123.716398,106.275202,123.679436,107.170699,123.620632L108.027554,123.555108C108.90793,123.489583,109.781586,123.420699,110.63508,123.335013C110.913978,123.309812,111.179436,123.27621,111.449933,123.245968C112.293347,123.155242,113.13004,123.059476,113.938172,122.951949L114.749664,122.836022C115.527554,122.721774,116.295363,122.605847,117.041331,122.474798C117.330309,122.426075,117.612567,122.373992,117.894825,122.320228C118.583669,122.19254,119.270834,122.061492,119.910954,121.920363C120.235215,121.851479,120.551075,121.779234,120.865255,121.706989C121.429772,121.575941,121.979166,121.441532,122.516801,121.300403C122.891465,121.204637,123.259409,121.105511,123.617271,121.001344C124.037298,120.882056,124.443884,120.761089,124.84207,120.6334C125.241935,120.505712,125.725806,120.351142,126.145833,120.203293C126.365927,120.127688,126.579301,120.045363,126.792675,119.966398C127.247984,119.793347,127.684812,119.621976,128.101479,119.443884L128.702957,119.178428C129.094422,118.995295,129.467406,118.810484,129.821909,118.623992C130.00336,118.528226,130.16465,118.43414,130.351142,118.335013C130.695565,118.145161,130.991264,117.953629,131.283602,117.757056C131.438172,117.65457,131.596102,117.553763,131.737231,117.447917C131.994288,117.259745,132.239583,117.058132,132.474798,116.844758C132.597446,116.735551,132.731855,116.628024,132.842742,116.518817C133.037634,116.320564,133.219086,116.108871,133.385417,115.885417C133.472782,115.771169,133.571909,115.665323,133.647514,115.540994C133.783602,115.322581,133.897849,115.092406,133.991935,114.852151C134.032258,114.749664,134.097782,114.653898,134.133065,114.549731C134.250672,114.22211,134.316196,113.877688,134.324597,113.528226L134.324597,99.764785C134.322917,100.115927,134.265793,100.46371,134.153226,100.796371C134.119624,100.900538,134.054099,100.996304,134.012097,101.100471C133.919691,101.339046,133.803763,101.569221,133.667675,101.787634C133.59207,101.901882,133.492944,102.007729,133.407258,102.132056C133.239247,102.353831,133.057796,102.565524,132.862903,102.765457C132.748656,102.874664,132.619288,102.982191,132.49496,103.091398C132.259745,103.306452,132.014449,103.506385,131.759073,103.694557C131.617944,103.800403,131.458333,103.901209,131.303763,104.003696C131.011425,104.200269,130.705645,104.393481,130.371304,104.581653C130.203293,104.68246,130.026882,104.774865,129.84207,104.870632C129.497648,105.057123,129.116263,105.241935,128.723118,105.425067L128.12164,105.690524C127.704973,105.868615,127.268145,106.033266,126.814516,106.213037C126.601142,106.292003,126.387769,106.374328,126.167675,106.449933C125.947581,106.525538,125.794691,106.591062,125.596438,106.659946C125.396505,106.728831,125.100806,106.804435,124.862231,106.88004C124.464046,107.007729,124.05746,107.128696,123.637433,107.247984C123.294691,107.352151,122.911626,107.451277,122.536963,107.548723C122.001008,107.689852,121.449933,107.822581,120.885417,107.953629C120.569557,108.025874,120.255376,108.098118,119.932796,108.167003C119.279234,108.308132,118.603831,108.43918,117.916667,108.566868C117.634409,108.617271,117.352151,108.672715,117.063172,108.721438C116.315524,108.852486,115.549395,108.968414,114.771505,109.082662L113.958333,109.200269C113.146841,109.304435,112.316868,109.401882,111.471774,109.492607C111.199597,109.522849,110.93414,109.558132,110.655242,109.581653C109.801747,109.667338,108.934812,109.736223,108.047715,109.801747L107.19086,109.867271C106.295363,109.922715,105.381385,109.963037,104.462366,110.00168C104.173387,110.00168,103.891129,110.031922,103.59543,110.042003C102.390793,110.080645,101.165995,110.100806,99.927755,110.100806C98.687836,110.100806,97.463037,110.080645,96.2584,110.042003C95.962702,110.042003,95.680443,110.011761,95.391465,110.00168C94.474127,109.963037,93.558468,109.922715,92.66297,109.867271L91.806116,109.801747C90.925739,109.736223,90.052083,109.667338,89.198589,109.581653C88.919691,109.558132,88.654234,109.522849,88.383737,109.492607C87.536963,109.401882,86.706989,109.304435,85.895497,109.200269L85.084005,109.082662C84.306116,108.968414,83.538306,108.852486,82.792339,108.721438C82.50336,108.672715,82.221102,108.617271,81.938844,108.566868C81.25,108.43918,80.561156,108.308132,79.922715,108.167003C79.598454,108.098118,79.285954,108.025874,78.968414,107.953629C78.403898,107.822581,77.854503,107.689852,77.316868,107.548723C76.942204,107.451277,76.577621,107.352151,76.216398,107.247984C75.796371,107.128696,75.389785,107.007729,74.9916,106.88004C74.753024,106.804435,74.489247,106.735551,74.259073,106.659946C74.027218,106.584342,73.882729,106.518817,73.687836,106.449933C73.491264,106.381049,73.252688,106.292003,73.040994,106.213037C72.585686,106.041667,72.148858,105.868615,71.732191,105.690524L71.130712,105.425067C70.737567,105.241935,70.366263,105.057123,70.011761,104.870632C69.830309,104.774865,69.650538,104.68246,69.482527,104.581653C69.138105,104.393481,68.842406,104.200269,68.550067,104.003696C68.395497,103.901209,68.237567,103.800403,68.096438,103.694557C67.839382,103.506385,67.594086,103.306452,67.358871,103.091398C67.236223,102.982191,67.105175,102.874664,66.990927,102.765457C66.796035,102.565524,66.614583,102.353831,66.448253,102.132056C66.360887,102.017809,66.261761,101.911962,66.186156,101.787634C66.050067,101.569221,65.93414,101.339046,65.841734,101.100471C65.801411,100.996304,65.735887,100.900538,65.700605,100.796371C65.581317,100.46539,65.515793,100.117608,65.507393,99.764785L65.507393,113.528226C65.509073,113.879368,65.567876,114.227151,65.680443,114.559812C65.714046,114.653898,65.77957,114.749664,65.821573,114.852151Z" fill="rgb(97,144,241)" stroke="none" stroke-width="1"/><path id="ejlL26nVrBM140" d="M103.58535,110.028562C102.380712,110.067204,101.155914,110.087366,99.915995,110.087366C101.155914,110.087366,102.380712,110.067204,103.58535,110.028562Z" fill="rgb(33,64,154)" stroke="none" stroke-width="1"/><path id="ejlL26nVrBM141" d="M126.804435,106.199597C126.591062,106.278562,126.377688,106.360887,126.155914,106.436492C126.377688,106.360887,126.591062,106.278562,126.804435,106.199597Z" fill="rgb(43,57,144)" stroke="none" stroke-width="1"/><path id="ejlL26nVrBM142" d="M78.958333,107.940188C78.393817,107.80914,77.844422,107.674731,77.306788,107.533602C77.844422,107.678091,78.393817,107.80914,78.958333,107.940188Z" fill="rgb(33,64,154)" stroke="none" stroke-width="1"/><path id="ejlL26nVrBM143" d="M88.371976,109.477486C87.530242,109.388441,86.693548,109.292675,85.885417,109.185148C86.696908,109.290994,87.526882,109.388441,88.371976,109.477486Z" fill="rgb(33,64,154)" stroke="none" stroke-width="1"/><path id="ejlL26nVrBM144" d="M117.051411,108.711357C116.305443,108.842406,115.537634,108.958333,114.761425,109.072581C115.537634,108.954973,116.305443,108.839046,117.051411,108.711357Z" fill="rgb(33,64,154)" stroke="none" stroke-width="1"/><path id="ejlL26nVrBM145" d="M99.915995,110.087366C98.677755,110.087366,97.452957,110.067204,96.24832,110.028562C97.452957,110.067204,98.677755,110.087366,99.915995,110.087366Z" fill="rgb(33,64,154)" stroke="none" stroke-width="1"/><path id="ejlL26nVrBM146" d="M131.747312,103.681116C131.607863,103.786963,131.448253,103.886089,131.293683,103.990255C131.448253,103.894489,131.607863,103.786963,131.747312,103.681116Z" fill="rgb(43,57,144)" stroke="none" stroke-width="1"/><path id="ejlL26nVrBM147" d="M124.852151,106.8666C124.453965,106.994288,124.047379,107.115255,123.627352,107.234543C124.047379,107.115255,124.453965,106.990927,124.852151,106.8666Z" fill="rgb(33,64,154)" stroke="none" stroke-width="1"/><path id="ejlL26nVrBM148" d="M76.206317,107.234543C75.78629,107.115255,75.379704,106.994288,74.981519,106.8666C75.379704,106.990927,75.78629,107.115255,76.206317,107.234543Z" fill="rgb(33,64,154)" stroke="none" stroke-width="1"/><path id="ejlL26nVrBM149" d="M68.539987,103.990255C68.385417,103.886089,68.225807,103.786963,68.084677,103.681116C68.225807,103.786963,68.385417,103.894489,68.539987,103.990255Z" fill="rgb(33,64,154)" stroke="none" stroke-width="1"/><path id="ejlL26nVrBM150" d="M133.657594,101.784274C133.581989,101.898521,133.482863,102.004368,133.395497,102.128696C133.482863,102.004368,133.581989,101.898521,133.657594,101.784274Z" fill="rgb(43,57,144)" stroke="none" stroke-width="1"/><path id="ejlL26nVrBM151" d="M128.713037,105.411626L128.111559,105.675403L128.713037,105.411626Z" fill="rgb(43,57,144)" stroke="none" stroke-width="1"/><path id="ejlL26nVrBM152" d="M107.180779,109.853831C106.285282,109.912634,105.371304,109.949597,104.452285,109.988239C105.371304,109.949597,106.285282,109.907594,107.180779,109.853831Z" fill="rgb(33,64,154)" stroke="none" stroke-width="1"/><path id="ejlL26nVrBM153" d="M85.072245,109.05578C84.296035,108.941532,83.528226,108.823925,82.780578,108.694557C83.528226,108.839046,84.296035,108.954973,85.072245,109.05578Z" fill="rgb(33,64,154)" stroke="none" stroke-width="1"/><path id="ejlL26nVrBM154" d="M134.153226,100.796371C134.119624,100.900538,134.054099,100.996304,134.012097,101.100471C134.054099,100.986223,134.119624,100.890457,134.153226,100.796371Z" fill="rgb(43,57,144)" stroke="none" stroke-width="1"/><path id="ejlL26nVrBM155" d="M113.948253,109.185148C113.140121,109.292675,112.303428,109.388441,111.460013,109.477486C112.306788,109.388441,113.136761,109.290994,113.948253,109.185148Z" fill="rgb(33,64,154)" stroke="none" stroke-width="1"/><path id="ejlL26nVrBM156" d="M130.361223,104.581653C130.193212,104.68246,130.016801,104.774865,129.831989,104.870632C130.013441,104.761425,130.196572,104.667338,130.361223,104.581653Z" fill="rgb(43,57,144)" stroke="none" stroke-width="1"/><path id="ejlL26nVrBM157" d="M110.645161,109.568212C109.791667,109.653898,108.924731,109.722782,108.037634,109.788306C108.918011,109.722782,109.791667,109.653898,110.645161,109.568212Z" fill="rgb(33,64,154)" stroke="none" stroke-width="1"/><path id="ejlL26nVrBM158" d="M95.381385,109.988239C94.462366,109.949597,93.548387,109.912634,92.65289,109.853831C93.548387,109.907594,94.462366,109.949597,95.381385,109.988239Z" fill="rgb(33,64,154)" stroke="none" stroke-width="1"/><path id="ejlL26nVrBM159" d="M71.72211,105.675403L71.120632,105.411626L71.72211,105.675403Z" fill="rgb(33,64,154)" stroke="none" stroke-width="1"/><path id="ejlL26nVrBM160" d="M65.821573,101.08871C65.77957,100.986223,65.714046,100.890457,65.680443,100.78629C65.714046,100.890457,65.77957,100.986223,65.821573,101.08871Z" fill="rgb(0,174,239)" stroke="none" stroke-width="1"/><path id="ejlL26nVrBM161" d="M70.00168,104.857191C69.820228,104.761425,69.640457,104.667338,69.472447,104.568212C69.637097,104.667338,69.820228,104.761425,70.00168,104.857191Z" fill="rgb(33,64,154)" stroke="none" stroke-width="1"/><path id="ejlL26nVrBM162" d="M119.922715,108.153562C119.267473,108.294691,118.59375,108.425739,117.904906,108.553428C118.59375,108.425739,119.267473,108.294691,119.922715,108.153562Z" fill="rgb(33,64,154)" stroke="none" stroke-width="1"/><path id="ejlL26nVrBM163" d="M132.852822,102.752016C132.741935,102.861223,132.607527,102.96875,132.484879,103.077957C132.604167,102.96875,132.738575,102.861223,132.852822,102.752016Z" fill="rgb(43,57,144)" stroke="none" stroke-width="1"/><path id="ejlL26nVrBM164" d="M67.348791,103.077957C67.224462,102.96875,67.091734,102.861223,66.980847,102.752016C67.095094,102.861223,67.227823,102.96875,67.348791,103.077957Z" fill="rgb(33,64,154)" stroke="none" stroke-width="1"/><path id="ejlL26nVrBM165" d="M66.436492,102.118615C66.350807,102.004368,66.25168,101.898521,66.176075,101.774194C66.25168,101.898521,66.350807,102.004368,66.436492,102.118615Z" fill="rgb(33,64,154)" stroke="none" stroke-width="1"/><path id="ejlL26nVrBM166" d="M73.676075,106.436492C73.455981,106.360887,73.242607,106.278562,73.029234,106.199597C73.242607,106.278562,73.455981,106.360887,73.676075,106.436492Z" fill="rgb(33,64,154)" stroke="none" stroke-width="1"/><path id="ejlL26nVrBM167" d="M91.796035,109.788306C90.915659,109.722782,90.042003,109.653898,89.188508,109.568212C90.042003,109.653898,90.915659,109.722782,91.796035,109.788306Z" fill="rgb(33,64,154)" stroke="none" stroke-width="1"/><path id="ejlL26nVrBM168" d="M122.526882,107.533602C121.989247,107.674731,121.439852,107.80914,120.875336,107.940188C121.439852,107.80914,121.989247,107.678091,122.526882,107.533602Z" fill="rgb(33,64,154)" stroke="none" stroke-width="1"/><path id="ejlL26nVrBM169" d="M81.927083,108.553428C81.239919,108.425739,80.551075,108.294691,79.910954,108.153562C80.564516,108.294691,81.239919,108.425739,81.927083,108.553428Z" fill="rgb(33,64,154)" stroke="none" stroke-width="1"/><path id="ejlL26nVrBM170" d="M99.915995,137.614247C118.90961,137.614247,134.324597,133.004032,134.324597,127.291667L134.324597,113.528226C134.322917,113.879368,134.265793,114.227151,134.153226,114.559812C134.119624,114.663978,134.054099,114.759745,134.012097,114.863911C133.919691,115.102486,133.803763,115.332662,133.667675,115.551075C133.59207,115.665323,133.492944,115.771169,133.407258,115.895497C133.239247,116.117271,133.057796,116.328965,132.862903,116.528898C132.748656,116.638105,132.619288,116.745632,132.49496,116.854839C132.259745,117.069892,132.014449,117.269825,131.759073,117.457997C131.617944,117.563844,131.458333,117.66465,131.303763,117.767137C131.011425,117.96371,130.705645,118.156922,130.371304,118.345094C130.203293,118.445901,130.026882,118.538306,129.84207,118.634073C129.497648,118.820564,129.116263,119.005376,128.723118,119.188508L128.12164,119.453965C127.704973,119.632056,127.268145,119.796707,126.814516,119.976478C126.601142,120.055443,126.387769,120.137769,126.167675,120.213374C125.947581,120.288978,125.794691,120.354503,125.596438,120.423387C125.396505,120.492271,125.100806,120.567876,124.862231,120.643481C124.464046,120.771169,124.05746,120.892137,123.637433,121.011425C123.294691,121.115591,122.911626,121.214718,122.536963,121.312164C122.001008,121.453293,121.449933,121.586022,120.885417,121.71707C120.569557,121.789314,120.255376,121.861559,119.932796,121.930443C119.279234,122.071572,118.603831,122.202621,117.916667,122.330309C117.634409,122.380712,117.352151,122.436156,117.063172,122.484879C116.315524,122.615927,115.549395,122.731855,114.771505,122.846102L113.958333,122.96371C113.146841,123.067876,112.316868,123.165323,111.471774,123.256048C111.199597,123.28629,110.93414,123.321572,110.655242,123.345094C109.801747,123.430779,108.934812,123.499664,108.047715,123.565188L107.19086,123.630712C106.295363,123.686156,105.381385,123.726478,104.462366,123.765121C104.173387,123.765121,103.891129,123.795363,103.59543,123.805443C102.390793,123.844086,101.165995,123.864247,99.927755,123.864247C98.687836,123.864247,97.463037,123.844086,96.2584,123.805443C95.962702,123.805443,95.680443,123.775202,95.391465,123.765121C94.474127,123.726478,93.558468,123.686156,92.66297,123.630712L91.806116,123.565188C90.925739,123.499664,90.052083,123.430779,89.198589,123.345094C88.919691,123.321572,88.654234,123.28629,88.383737,123.256048C87.536963,123.165323,86.706989,123.067876,85.895497,122.96371L85.084005,122.846102C84.306116,122.731855,83.538306,122.615927,82.792339,122.484879C82.50336,122.436156,82.221102,122.380712,81.938844,122.330309C81.25,122.202621,80.561156,122.071572,79.922715,121.930443C79.598454,121.861559,79.285954,121.789314,78.968414,121.71707C78.403898,121.586022,77.854503,121.453293,77.316868,121.312164C76.942204,121.214718,76.577621,121.115591,76.216398,121.011425C75.796371,120.892137,75.389785,120.771169,74.9916,120.643481C74.753024,120.567876,74.489247,120.498992,74.259073,120.423387C74.027218,120.347782,73.882729,120.282258,73.687836,120.213374C73.491264,120.144489,73.252688,120.055443,73.040994,119.976478C72.585686,119.805108,72.148858,119.632056,71.732191,119.453965L71.130712,119.188508C70.737567,119.005376,70.366263,118.820564,70.011761,118.634073C69.830309,118.538306,69.650538,118.445901,69.482527,118.345094C69.138105,118.156922,68.842406,117.96371,68.550067,117.767137C68.395497,117.66465,68.237567,117.563844,68.096438,117.457997C67.839382,117.269825,67.594086,117.069892,67.358871,116.854839C67.236223,116.745632,67.105175,116.638105,66.990927,116.528898C66.796035,116.328965,66.614583,116.117271,66.448253,115.895497C66.360887,115.78125,66.261761,115.675403,66.186156,115.551075C66.050067,115.332662,65.93414,115.102486,65.841734,114.863911C65.801411,114.759745,65.735887,114.663978,65.700605,114.559812C65.581317,114.228831,65.515793,113.881049,65.507393,113.528226L65.507393,127.291667C65.507393,133.004032,80.922379,137.614247,99.915995,137.614247L99.915995,137.614247Z" fill="rgb(49,108,230)" stroke="none" stroke-width="1"/><path id="ejlL26nVrBM171" d="M95.381385,123.75168C94.462366,123.713037,93.548387,123.676075,92.65289,123.617271C93.548387,123.671035,94.462366,123.713037,95.381385,123.75168Z" fill="rgb(33,64,154)" stroke="none" stroke-width="1"/><path id="ejlL26nVrBM172" d="M103.58535,123.792003C102.380712,123.830645,101.155914,123.850806,99.915995,123.850806C101.155914,123.850806,102.380712,123.830645,103.58535,123.792003Z" fill="rgb(33,64,154)" stroke="none" stroke-width="1"/><path id="ejlL26nVrBM173" d="M99.915995,123.850806C98.677755,123.850806,97.452957,123.830645,96.24832,123.792003C97.452957,123.830645,98.677755,123.850806,99.915995,123.850806Z" fill="rgb(33,64,154)" stroke="none" stroke-width="1"/><path id="ejlL26nVrBM174" d="M134.153226,114.559812C134.119624,114.663978,134.054099,114.759745,134.012097,114.863911C134.054099,114.749664,134.119624,114.653898,134.153226,114.559812Z" fill="rgb(43,57,144)" stroke="none" stroke-width="1"/><path id="ejlL26nVrBM175" d="M110.645161,123.331653C109.791667,123.417338,108.924731,123.486223,108.037634,123.551747C108.918011,123.486223,109.791667,123.417338,110.645161,123.331653Z" fill="rgb(33,64,154)" stroke="none" stroke-width="1"/><path id="ejlL26nVrBM176" d="M91.796035,123.551747C90.915659,123.486223,90.042003,123.417338,89.188508,123.331653C90.042003,123.417338,90.915659,123.486223,91.796035,123.551747Z" fill="rgb(33,64,154)" stroke="none" stroke-width="1"/><path id="ejlL26nVrBM177" d="M88.371976,123.240927C87.530242,123.151882,86.693548,123.056116,85.885417,122.948589C86.696908,123.054435,87.526882,123.151882,88.371976,123.240927Z" fill="rgb(33,64,154)" stroke="none" stroke-width="1"/><path id="ejlL26nVrBM178" d="M131.747312,117.444557C131.607863,117.550403,131.448253,117.649529,131.293683,117.753696C131.448253,117.65793,131.607863,117.550403,131.747312,117.444557Z" fill="rgb(43,57,144)" stroke="none" stroke-width="1"/><path id="ejlL26nVrBM179" d="M66.436492,115.882056C66.350807,115.767809,66.25168,115.661962,66.176075,115.537634C66.25168,115.661962,66.350807,115.767809,66.436492,115.882056Z" fill="rgb(33,64,154)" stroke="none" stroke-width="1"/><path id="ejlL26nVrBM180" d="M124.852151,120.63004C124.453965,120.757729,124.047379,120.878696,123.627352,120.997984C124.047379,120.878696,124.453965,120.754368,124.852151,120.63004Z" fill="rgb(33,64,154)" stroke="none" stroke-width="1"/><path id="ejlL26nVrBM181" d="M67.348791,116.841398C67.224462,116.732191,67.091734,116.624664,66.980847,116.515457C67.095094,116.624664,67.227823,116.732191,67.348791,116.841398Z" fill="rgb(33,64,154)" stroke="none" stroke-width="1"/><path id="ejlL26nVrBM182" d="M126.804435,119.963037C126.591062,120.042003,126.377688,120.124328,126.155914,120.199933C126.377688,120.124328,126.591062,120.042003,126.804435,119.963037Z" fill="rgb(33,64,154)" stroke="none" stroke-width="1"/><path id="ejlL26nVrBM183" d="M71.72211,119.438844L71.120632,119.175067L71.72211,119.438844Z" fill="rgb(33,64,154)" stroke="none" stroke-width="1"/><path id="ejlL26nVrBM184" d="M132.852822,116.515457C132.741935,116.624664,132.607527,116.732191,132.484879,116.841398C132.604167,116.732191,132.738575,116.624664,132.852822,116.515457Z" fill="rgb(43,57,144)" stroke="none" stroke-width="1"/><path id="ejlL26nVrBM185" d="M68.539987,117.753696C68.385417,117.649529,68.225807,117.550403,68.084677,117.444557C68.225807,117.550403,68.385417,117.65793,68.539987,117.753696Z" fill="rgb(33,64,154)" stroke="none" stroke-width="1"/><path id="ejlL26nVrBM186" d="M130.361223,118.345094C130.193212,118.445901,130.016801,118.538306,129.831989,118.634073C130.013441,118.524865,130.196572,118.430779,130.361223,118.345094Z" fill="rgb(43,57,144)" stroke="none" stroke-width="1"/><path id="ejlL26nVrBM187" d="M70.00168,118.620632C69.820228,118.524865,69.640457,118.430779,69.472447,118.331653C69.637097,118.430779,69.820228,118.524865,70.00168,118.620632Z" fill="rgb(33,64,154)" stroke="none" stroke-width="1"/><path id="ejlL26nVrBM188" d="M107.180779,123.617271C106.285282,123.676075,105.371304,123.713037,104.452285,123.75168C105.371304,123.713037,106.285282,123.671035,107.180779,123.617271Z" fill="rgb(33,64,154)" stroke="none" stroke-width="1"/><path id="ejlL26nVrBM189" d="M128.713037,119.175067L128.111559,119.438844L128.713037,119.175067Z" fill="rgb(43,57,144)" stroke="none" stroke-width="1"/><path id="ejlL26nVrBM190" d="M76.206317,120.997984C75.78629,120.878696,75.379704,120.757729,74.981519,120.63004C75.379704,120.754368,75.78629,120.878696,76.206317,120.997984Z" fill="rgb(33,64,154)" stroke="none" stroke-width="1"/><path id="ejlL26nVrBM191" d="M117.051411,122.474798C116.305443,122.605847,115.537634,122.721774,114.761425,122.836022C115.537634,122.718414,116.305443,122.602486,117.051411,122.474798Z" fill="rgb(33,64,154)" stroke="none" stroke-width="1"/><path id="ejlL26nVrBM192" d="M78.958333,121.703629C78.393817,121.572581,77.844422,121.438172,77.306788,121.297043C77.844422,121.441532,78.393817,121.572581,78.958333,121.703629Z" fill="rgb(33,64,154)" stroke="none" stroke-width="1"/><path id="ejlL26nVrBM193" d="M85.072245,122.819221C84.296035,122.704973,83.528226,122.587366,82.780578,122.457997C83.528226,122.602486,84.296035,122.718414,85.072245,122.819221Z" fill="rgb(33,64,154)" stroke="none" stroke-width="1"/><path id="ejlL26nVrBM194" d="M81.927083,122.316868C81.239919,122.18918,80.551075,122.058132,79.910954,121.917003C80.564516,122.058132,81.239919,122.18918,81.927083,122.316868Z" fill="rgb(33,64,154)" stroke="none" stroke-width="1"/><path id="ejlL26nVrBM195" d="M113.948253,122.948589C113.140121,123.056116,112.303428,123.151882,111.460013,123.240927C112.306788,123.151882,113.136761,123.054435,113.948253,122.948589Z" fill="rgb(33,64,154)" stroke="none" stroke-width="1"/><path id="ejlL26nVrBM196" d="M133.657594,115.547715C133.581989,115.661962,133.482863,115.767809,133.395497,115.892137C133.482863,115.767809,133.581989,115.661962,133.657594,115.547715Z" fill="rgb(43,57,144)" stroke="none" stroke-width="1"/><path id="ejlL26nVrBM197" d="M65.821573,114.852151C65.77957,114.749664,65.714046,114.653898,65.680443,114.549731C65.714046,114.653898,65.77957,114.749664,65.821573,114.852151Z" fill="rgb(0,174,239)" stroke="none" stroke-width="1"/><path id="ejlL26nVrBM198" d="M73.676075,120.199933C73.455981,120.124328,73.242607,120.042003,73.029234,119.963037C73.242607,120.042003,73.455981,120.124328,73.676075,120.199933Z" fill="rgb(33,64,154)" stroke="none" stroke-width="1"/><path id="ejlL26nVrBM199" d="M122.526882,121.297043C121.989247,121.438172,121.439852,121.572581,120.875336,121.703629C121.439852,121.572581,121.989247,121.441532,122.526882,121.297043Z" fill="rgb(33,64,154)" stroke="none" stroke-width="1"/><path id="ejlL26nVrBM200" d="M119.922715,121.917003C119.267473,122.058132,118.59375,122.18918,117.904906,122.316868C118.59375,122.18918,119.267473,122.058132,119.922715,121.917003Z" fill="rgb(33,64,154)" stroke="none" stroke-width="1"/></g></g></g></g></svg>