<svg id="eq31gp5QJGT1" xmlns="http://www.w3.org/2000/svg" xmlns:xlink="http://www.w3.org/1999/xlink" viewBox="0 0 190 187" shape-rendering="geometricPrecision" text-rendering="geometricPrecision"><style><![CDATA[#eq31gp5QJGT10 {animation: eq31gp5QJGT10_f_p 10000ms linear 2 normal forwards}@keyframes eq31gp5QJGT10_f_p { 0% {fill: rgb(201,233,236)} 69% {fill: rgb(201,233,236)} 74% {fill: rgb(189,81,26)} 86% {fill: rgb(189,81,26)} 88% {fill: rgb(201,233,236)} 100% {fill: rgb(201,233,236)}} #eq31gp5QJGT11 {animation: eq31gp5QJGT11_f_p 10000ms linear 2 normal forwards}@keyframes eq31gp5QJGT11_f_p { 0% {fill: rgb(201,233,236)} 67% {fill: rgb(201,233,236)} 72% {fill: rgb(189,81,26)} 88% {fill: rgb(189,81,26)} 90% {fill: rgb(201,233,236)} 100% {fill: rgb(201,233,236)}} #eq31gp5QJGT12 {animation: eq31gp5QJGT12_f_p 10000ms linear 2 normal forwards}@keyframes eq31gp5QJGT12_f_p { 0% {fill: rgb(201,233,236)} 65% {fill: rgb(201,233,236)} 70% {fill: rgb(189,81,26)} 90% {fill: rgb(189,81,26)} 92% {fill: rgb(201,233,236)} 100% {fill: rgb(201,233,236)}} #eq31gp5QJGT15 {animation: eq31gp5QJGT15_f_p 10000ms linear 2 normal forwards}@keyframes eq31gp5QJGT15_f_p { 0% {fill: rgb(201,233,236)} 84% {fill: rgb(201,233,236)} 86% {fill: rgb(189,81,26)} 96% {fill: rgb(189,81,26)} 100% {fill: rgb(201,233,236)}} #eq31gp5QJGT16 {animation: eq31gp5QJGT16_f_p 10000ms linear 2 normal forwards}@keyframes eq31gp5QJGT16_f_p { 0% {fill: rgb(201,233,236)} 82% {fill: rgb(201,233,236)} 84% {fill: rgb(189,81,26)} 96% {fill: rgb(189,81,26)} 100% {fill: rgb(201,233,236)}} #eq31gp5QJGT17 {animation: eq31gp5QJGT17_f_p 10000ms linear 2 normal forwards}@keyframes eq31gp5QJGT17_f_p { 0% {fill: rgb(201,233,236)} 80% {fill: rgb(201,233,236)} 82% {fill: rgb(189,81,26)} 96% {fill: rgb(189,81,26)} 100% {fill: rgb(201,233,236)}} #eq31gp5QJGT20 {animation: eq31gp5QJGT20_f_p 10000ms linear 2 normal forwards}@keyframes eq31gp5QJGT20_f_p { 0% {fill: rgb(201,233,236)} 79% {fill: rgb(201,233,236)} 81% {fill: rgb(189,81,26)} 96% {fill: rgb(189,81,26)} 100% {fill: rgb(201,233,236)}} #eq31gp5QJGT21 {animation: eq31gp5QJGT21_f_p 10000ms linear 2 normal forwards}@keyframes eq31gp5QJGT21_f_p { 0% {fill: rgb(201,233,236)} 77% {fill: rgb(201,233,236)} 79% {fill: rgb(189,81,26)} 96% {fill: rgb(189,81,26)} 100% {fill: rgb(201,233,236)}} #eq31gp5QJGT22 {animation: eq31gp5QJGT22_f_p 10000ms linear 2 normal forwards}@keyframes eq31gp5QJGT22_f_p { 0% {fill: rgb(201,233,236)} 75% {fill: rgb(201,233,236)} 77% {fill: rgb(189,81,26)} 96% {fill: rgb(189,81,26)} 100% {fill: rgb(201,233,236)}} #eq31gp5QJGT25 {animation: eq31gp5QJGT25_f_p 10000ms linear 2 normal forwards}@keyframes eq31gp5QJGT25_f_p { 0% {fill: rgb(201,233,236)} 74% {fill: rgb(201,233,236)} 76% {fill: rgb(189,81,26)} 96% {fill: rgb(189,81,26)} 100% {fill: rgb(201,233,236)}} #eq31gp5QJGT26 {animation: eq31gp5QJGT26_f_p 10000ms linear 2 normal forwards}@keyframes eq31gp5QJGT26_f_p { 0% {fill: rgb(201,233,236)} 72% {fill: rgb(201,233,236)} 74% {fill: rgb(189,81,26)} 96% {fill: rgb(189,81,26)} 100% {fill: rgb(201,233,236)}} #eq31gp5QJGT27 {animation: eq31gp5QJGT27_f_p 10000ms linear 2 normal forwards}@keyframes eq31gp5QJGT27_f_p { 0% {fill: rgb(201,233,236)} 70% {fill: rgb(201,233,236)} 72% {fill: rgb(189,81,26)} 96% {fill: rgb(189,81,26)} 100% {fill: rgb(201,233,236)}}]]></style><g id="eq31gp5QJGT2"><g id="eq31gp5QJGT3" transform="matrix(1 0 0 1 -984 -1416)"><g id="eq31gp5QJGT4" transform="matrix(1 0 0 1 267 1416)"><g id="eq31gp5QJGT5" transform="matrix(1 0 0 1 717 0)"><path id="eq31gp5QJGT6" d="M101.785714,98.392857C103.659538,98.392857,105.178571,96.873823,105.178571,95C105.178571,93.126177,103.659538,91.607143,101.785714,91.607143L88.214286,91.607143L88.214286,27.142857C88.214286,25.269034,89.73332,23.75,91.607143,23.75L101.785714,23.75C103.659538,23.75,105.178571,22.230966,105.178571,20.357143C105.178571,18.48332,103.659538,16.964286,101.785714,16.964286L91.607143,16.964286C85.985673,16.964286,81.428571,21.521387,81.428571,27.142857L81.428571,91.607143L67.857143,91.607143C65.98332,91.607143,64.464286,93.126177,64.464286,95C64.464286,96.873823,65.98332,98.392857,67.857143,98.392857L81.428571,98.392857L81.428571,162.857143C81.428571,168.478613,85.985673,173.035714,91.607143,173.035714L101.785714,173.035714C103.659538,173.035714,105.178571,171.51668,105.178571,169.642857C105.178571,167.769034,103.659538,166.25,101.785714,166.25L91.607143,166.25C89.73332,166.25,88.214286,164.730966,88.214286,162.857143L88.214286,98.392857L101.785714,98.392857Z" fill="rgb(201,233,236)" stroke="none" stroke-width="1"/><rect id="eq31gp5QJGT7" width="67.8571" height="142.5" rx="6.785714" ry="6.785714" transform="matrix(1 0 0 1 0 23.75)" fill="rgb(49,108,230)" stroke="none" stroke-width="1"/><circle id="eq31gp5QJGT8" r="13.5714" transform="matrix(1 0 0 1 33.9286 135.714)" fill="rgb(8,193,209)" stroke="none" stroke-width="1"/><g id="eq31gp5QJGT9" transform="matrix(1 0 0 1 13.5714 40.7143)"><rect id="eq31gp5QJGT10" width="40.7143" height="13.5714" rx="3.392857" ry="3.392857" fill="rgb(201,233,236)" stroke="none" stroke-width="1"/><rect id="eq31gp5QJGT11" width="40.7143" height="13.5714" rx="3.392857" ry="3.392857" transform="matrix(1 0 0 1 0 27.1429)" fill="rgb(201,233,236)" stroke="none" stroke-width="1"/><rect id="eq31gp5QJGT12" width="40.7143" height="13.5714" rx="3.392857" ry="3.392857" transform="matrix(1 0 0 1 0 54.2857)" fill="rgb(201,233,236)" stroke="none" stroke-width="1"/></g><rect id="eq31gp5QJGT13" width="88.2143" height="40.7143" rx="6.785714" ry="6.785714" transform="matrix(1 0 0 1 101.786 0)" fill="rgb(49,108,230)" stroke="none" stroke-width="1"/><g id="eq31gp5QJGT14" transform="matrix(1 0 0 1 111.964 10.1786)"><path id="eq31gp5QJGT15" d="M3.392857,20.357143C1.519034,20.357143,0,18.838109,0,16.964286L0,3.392857C0,1.519034,1.519034,0,3.392857,0C5.26668,0,6.785714,1.519034,6.785714,3.392857L6.785714,16.964286C6.785714,18.838109,5.26668,20.357143,3.392857,20.357143Z" fill="rgb(201,233,236)" stroke="none" stroke-width="1"/><path id="eq31gp5QJGT16" d="M16.964286,20.357143C15.090463,20.357143,13.571429,18.838109,13.571429,16.964286L13.571429,3.392857C13.571429,1.519034,15.090463,0,16.964286,0C18.838109,0,20.357143,1.519034,20.357143,3.392857L20.357143,16.964286C20.357143,18.838109,18.838109,20.357143,16.964286,20.357143Z" fill="rgb(201,233,236)" stroke="none" stroke-width="1"/><path id="eq31gp5QJGT17" d="M30.535714,20.357143C28.661891,20.357143,27.142857,18.838109,27.142857,16.964286L27.142857,3.392857C27.142857,1.519034,28.661891,0,30.535714,0C32.409538,0,33.928571,1.519034,33.928571,3.392857L33.928571,16.964286C33.928571,18.838109,32.409538,20.357143,30.535714,20.357143Z" fill="rgb(201,233,236)" stroke="none" stroke-width="1"/></g><circle id="eq31gp5QJGT18" r="6.78571" transform="matrix(1 0 0 1 169.643 20.3571)" fill="rgb(8,193,209)" stroke="none" stroke-width="1"/><rect id="eq31gp5QJGT19" width="88.2143" height="40.7143" rx="6.785714" ry="6.785714" transform="matrix(1 0 0 1 101.786 74.6429)" fill="rgb(49,108,230)" stroke="none" stroke-width="1"/><path id="eq31gp5QJGT20" d="M115.357143,105.178571C113.48332,105.178571,111.964286,103.659538,111.964286,101.785714L111.964286,88.214286C111.964286,86.340463,113.48332,84.821429,115.357143,84.821429C117.230966,84.821429,118.75,86.340463,118.75,88.214286L118.75,101.785714C118.75,103.659538,117.230966,105.178571,115.357143,105.178571Z" fill="rgb(201,233,236)" stroke="none" stroke-width="1"/><path id="eq31gp5QJGT21" d="M128.928571,105.178571C127.054748,105.178571,125.535714,103.659538,125.535714,101.785714L125.535714,88.214286C125.535714,86.340463,127.054748,84.821429,128.928571,84.821429C130.802395,84.821429,132.321429,86.340463,132.321429,88.214286L132.321429,101.785714C132.321429,103.659538,130.802395,105.178571,128.928571,105.178571Z" fill="rgb(201,233,236)" stroke="none" stroke-width="1"/><path id="eq31gp5QJGT22" d="M142.5,105.178571C140.626177,105.178571,139.107143,103.659538,139.107143,101.785714L139.107143,88.214286C139.107143,86.340463,140.626177,84.821429,142.5,84.821429C144.373823,84.821429,145.892857,86.340463,145.892857,88.214286L145.892857,101.785714C145.892857,103.659538,144.373823,105.178571,142.5,105.178571Z" fill="rgb(201,233,236)" stroke="none" stroke-width="1"/><circle id="eq31gp5QJGT23" r="6.78571" transform="matrix(1 0 0 1 169.643 95)" fill="rgb(8,193,209)" stroke="none" stroke-width="1"/><rect id="eq31gp5QJGT24" width="88.2143" height="40.7143" rx="6.785714" ry="6.785714" transform="matrix(1 0 0 1 101.786 145.893)" fill="rgb(49,108,230)" stroke="none" stroke-width="1"/><path id="eq31gp5QJGT25" d="M115.357143,176.428571C113.48332,176.428571,111.964286,174.909538,111.964286,173.035714L111.964286,159.464286C111.964286,157.590462,113.48332,156.071429,115.357143,156.071429C117.230966,156.071429,118.75,157.590462,118.75,159.464286L118.75,173.035714C118.75,174.909538,117.230966,176.428571,115.357143,176.428571Z" fill="rgb(201,233,236)" stroke="none" stroke-width="1"/><path id="eq31gp5QJGT26" d="M128.928571,176.428571C127.054748,176.428571,125.535714,174.909538,125.535714,173.035714L125.535714,159.464286C125.535714,157.590462,127.054748,156.071429,128.928571,156.071429C130.802395,156.071429,132.321429,157.590462,132.321429,159.464286L132.321429,173.035714C132.321429,174.909538,130.802395,176.428571,128.928571,176.428571Z" fill="rgb(201,233,236)" stroke="none" stroke-width="1"/><path id="eq31gp5QJGT27" d="M142.5,176.428571C140.626177,176.428571,139.107143,174.909538,139.107143,173.035714L139.107143,159.464286C139.107143,157.590462,140.626177,156.071429,142.5,156.071429C144.373823,156.071429,145.892857,157.590462,145.892857,159.464286L145.892857,173.035714C145.892857,174.909538,144.373823,176.428571,142.5,176.428571Z" fill="rgb(201,233,236)" stroke="none" stroke-width="1"/><circle id="eq31gp5QJGT28" r="6.78571" transform="matrix(1 0 0 1 169.643 166.25)" fill="rgb(8,193,209)" stroke="none" stroke-width="1"/></g></g></g></g></svg>