<svg width="169" height="183" fill="none" xmlns="http://www.w3.org/2000/svg"><path clip-rule="evenodd" d="M164.66 45.589H4.34A3.35 3.35 0 0 1 1 42.249V4.34A3.35 3.35 0 0 1 4.34 1h160.32A3.35 3.35 0 0 1 168 4.34v37.909a3.35 3.35 0 0 1-3.34 3.34ZM164.827 105.876H4.173c-1.837 0-3.173-1.503-3.173-3.173V64.627c0-1.837 1.503-3.173 3.173-3.173h160.654c1.837 0 3.173 1.503 3.173 3.173v38.076c0 1.837-1.336 3.173-3.173 3.173Z" stroke="#232F3E" stroke-width="1.7" stroke-linejoin="round"/><path stroke="#232F3E" stroke-width="1.7" stroke-linejoin="round" d="M23.211 45.589h122.578v15.03H23.211z"/><path clip-rule="evenodd" d="M164.66 166.33H4.34A3.35 3.35 0 0 1 1 162.99v-37.909a3.35 3.35 0 0 1 3.34-3.34h160.32a3.35 3.35 0 0 1 3.34 3.34v37.909a3.35 3.35 0 0 1-3.34 3.34Z" stroke="#232F3E" stroke-width="1.7" stroke-linejoin="round"/><path stroke="#527FFF" stroke-width="1.7" stroke-linejoin="round" d="M26.217 15.529h15.698v15.698H26.217zM63.291 15.529h15.698v15.698H63.291z"/><path stroke="#232F3E" stroke-width="1.7" stroke-linejoin="round" d="M23.211 106.711h122.578v15.03H23.211z"/><path stroke="#527FFF" stroke-width="1.7" stroke-linejoin="round" d="M95.188 75.816h15.698v15.698H95.188zM132.262 75.816h15.698v15.698h-15.698zM26.217 136.103h15.698v15.698H26.217zM63.291 136.103h15.698v15.698H63.291z"/><path stroke="#232F3E" stroke-width="1.7" stroke-linejoin="round" d="M17.867 166.33h40.414v15.03H17.867zM111.554 166.33h40.414v15.03h-40.414z"/></svg>