<svg width="178" height="184" fill="none" xmlns="http://www.w3.org/2000/svg"><path d="M115.295 160.958h28.943s28.205 2.094 27.22-20.938" stroke="#232F3E" stroke-width="1.7" stroke-linejoin="round"/><path d="M163.944 107.259c0-.123 0-.123 0 0" stroke="#527FFF" stroke-width="1.7" stroke-linejoin="round"/><path d="M5.68 111.57C2.847 116.004 1 121.792 1 129.059c0 16.381 9.484 25.002 15.765 28.943 2.833 1.724 6.035 2.71 9.237 2.71h30.052M32.037 68.832c4.557-6.897 10.715-12.563 17.982-15.765 19.46-8.252 37.318-1.97 49.019 9.73 5.419 5.42 9.36 12.316 12.07 19.706 0 0 16.75-10.469 25.248 6.774" stroke="#232F3E" stroke-width="1.7" stroke-linejoin="round"/><path clip-rule="evenodd" d="m85.367 132.384-21.8 11.085 21.184 10.961 21.8-10.961-21.184-11.085Z" stroke="#527FFF" stroke-width="1.7" stroke-linejoin="round"/><path clip-rule="evenodd" d="M63.567 143.469v28.081l21.43 11.085V154.43l-21.43-10.961ZM106.551 143.469v28.081l-21.553 11.085V154.43l21.553-10.961ZM155.693 89.523l-21.8 11.085 21.184 10.962L177 100.608l-21.307-11.085Z" stroke="#527FFF" stroke-width="1.7" stroke-linejoin="round"/><path clip-rule="evenodd" d="M133.893 100.608v28.081l21.553 11.085V111.57l-21.553-10.962ZM177 100.608v28.081l-21.554 11.085V111.57L177 100.608ZM37.21 75.483l-21.8 11.084L36.594 97.53l21.8-10.962L37.21 75.483Z" stroke="#527FFF" stroke-width="1.7" stroke-linejoin="round"/><path clip-rule="evenodd" d="M15.41 86.568v28.081l21.553 11.084V97.529L15.41 86.568ZM58.394 86.568v28.081l-21.43 11.084V97.529l21.43-10.961Z" stroke="#527FFF" stroke-width="1.7" stroke-linejoin="round"/><path d="m117.266 70.803 7.144-17.982" stroke="#232F3E" stroke-width="1.7" stroke-linejoin="round"/><path d="m133.154 16.734 17.489-7.143" stroke="#527FFF" stroke-width="1.7" stroke-linejoin="round"/><path clip-rule="evenodd" d="M150.889 9.59v19.09c0 1.848-.985 3.45-2.71 4.188-2.709 1.232-7.759 2.833-14.779 2.833l.123-18.474a.677.677 0 0 0-.369-.616l-16.997-7.02c-.246-.124-.739-.124-.862.123 0-.247.123-.616.369-.74l16.997-7.882c.246-.123.369-.123.616 0l16.996 7.883c.493 0 .616.246.616.616Z" stroke="#527FFF" stroke-width="1.7" stroke-linejoin="round"/><path clip-rule="evenodd" d="M133.523 17.104v18.474c-4.064 0-8.252-.493-10.838-1.108-.247 0-.37-.124-.616-.124-.369-.123-.862-.246-1.232-.37-.739-.245-1.478-.492-1.97-.738-.123-.123-.247-.123-.493-.123-.246-.123-.369-.123-.493-.247-.246-.123-.369-.246-.615-.37-.124-.122-.37-.245-.493-.368-.123 0-.123-.124-.246-.247l-.247-.246c-.739-.862-1.108-1.848-1.108-2.956V9.59c0-.247.246-.37.493-.247l17.366 7.267c.369 0 .492.246.492.493Z" stroke="#527FFF" stroke-width="1.7" stroke-linejoin="round"/><path d="M156.431 25.479c6.651 2.093 10.716 5.05 10.716 8.375 0 6.281-15.026 11.577-33.624 11.577-18.597 0-33.623-5.296-33.623-11.577 0-3.326 4.187-6.282 10.838-8.375" stroke="#232F3E" stroke-width="1.7" stroke-linejoin="round"/></svg>