<svg width="178" height="179" fill="none" xmlns="http://www.w3.org/2000/svg"><path d="M1.662 136.061V40.01h4.895M1.662 157.23v-14.686M16.215 74.011v103.196H1.662v-13.098M173.126 40.01h3.969v137.197h-14.553V68.322M140.314 171.254h16.406M115.574 171.254h16.67M22.036 171.254h88.114M118.088 49.8h26.328M47.702 49.8h17.464M119.279 61.443h26.063M86.732 61.443h5.028M46.115 61.443h17.2M104.196 62.766l-7.674.793M105.651 75.202l-7.805.926M106.975 87.77l-7.806.795M108.297 100.339l-7.806.794M100.888 108.542l-6.483-60.594 19.846-2.117 6.615 62.05" stroke="#232F3E" stroke-width="1.7" stroke-linejoin="round"/><path d="m73.37 109.468 16.537-76.47M74.03 29.954l-17.066 78.588M100.623 7.463c1.456 1.72 3.705 3.175 6.219 3.705 2.513.529 5.159.264 7.276-.794M110.15 24.398c-1.323-1.72-3.308-3.043-5.689-3.572a9.806 9.806 0 0 0-6.748.926" stroke="#527FFF" stroke-width="1.7" stroke-linejoin="round"/><path clip-rule="evenodd" d="m78.529 1.377 21.83 4.763-3.572 16.802-6.88 11.114-15.876-3.44s1.852-13.098-2.514-15.612c-5.69-3.175-17.86 4.366-28.048 15.612l-2.646-2.514C40.69 27.97 59.742-2.724 78.529 1.377Z" stroke="#527FFF" stroke-width="1.7" stroke-linejoin="round"/><path d="M162.542 118.73h14.553M122.057 118.73h32.414M22.3 118.73h99.757M1.662 118.73h14.553M45.586 109.468 26.402 69.513c-6.483 0-12.7-3.704-15.744-10.055" stroke="#232F3E" stroke-width="1.7" stroke-linejoin="round"/><path d="M10.658 59.59c-3.308-7.012-1.72-15.082 3.572-20.242l6.218 12.966 10.32-4.895-6.218-12.966c7.276-.926 14.685 2.91 17.993 9.923 3.043 6.218 1.984 13.495-1.985 18.522l14.289 29.768" stroke="#232F3E" stroke-width="1.7" stroke-linejoin="round"/><path clip-rule="evenodd" d="M148.649 50.33c-.397-.398-.794-1.324-.397-2.25l12.04-16.935c.397-.926 1.323-1.323 2.249-1.058l3.44 1.19c.926.265 1.455 1.324 1.19 2.25l-.793 20.639c-.265 1.058-1.191 1.588-1.72 1.588-1.059 0-4.102-.53-4.366.529l-11.511 33.605-8.467-2.91 11.51-33.606c.397-1.058-2.381-2.514-3.175-3.043Z" stroke="#527FFF" stroke-width="1.7" stroke-linejoin="round"/><path d="m149.443 108.542 5.027-14.685c.397-.926-.132-1.985-1.19-2.382l-17.332-5.821c-.926-.265-1.984.132-2.381 1.19l-7.409 21.831" stroke="#527FFF" stroke-width="1.7" stroke-linejoin="round"/><path clip-rule="evenodd" d="m112.134 26.912 7.409 1.587 3.705-17.199-7.409-1.588c-2.382-.529-4.763 1.059-5.292 3.44l-1.852 8.468c-.53 2.381 1.058 4.762 3.439 5.292Z" stroke="#527FFF" stroke-width="1.7" stroke-linejoin="round"/></svg>