<svg width="585" height="227" fill="none" xmlns="http://www.w3.org/2000/svg"><path d="M91.186 62.557h35.882M91.186 24.693h20.341M91.186 13.723h20.341" stroke="#527FFF" stroke-width="1.7" stroke-linejoin="round"/><path d="M134.534 17.99v4.037" stroke="#232F3E" stroke-width="1.7" stroke-linejoin="round"/><path d="m111.146 33.302-6.324 20.646M102.613 38.102l-7.314 4.037v.915l7.314 3.885M113.964 38.102l7.238 4.037v.915l-7.238 3.885" stroke="#527FFF" stroke-width="1.7" stroke-linejoin="round"/><circle cx="134.991" cy="37.492" r="9.98" stroke="#232F3E" stroke-width="1.7" stroke-linejoin="round"/><path d="m129.734 38.406 2.971 2.971 7.39-7.313" stroke="#232F3E" stroke-width="1.7" stroke-linejoin="round"/><path d="M117.545 1H85.624c-1.067 0-1.98.914-1.98 1.98v69.023c0 1.067.913 1.981 1.98 1.981h46.853c1.067 0 1.981-.914 1.981-1.98V52.88" stroke="#232F3E" stroke-width="1.7" stroke-linejoin="round"/><path clip-rule="evenodd" d="M117.545 17.989h16.989L117.545 1v16.989ZM31 105.067v4.876l.305.229c1.6 1.219 3.504 1.828 5.485 1.828h87.688c1.676 0 3.276-.533 4.571-1.6l.609-.533v-4.876L31 105.067Z" stroke="#232F3E" stroke-width="1.7" stroke-linejoin="round"/><path d="M116.707 78.936v18.132c0 1.067-.915 1.98-1.981 1.98H46.77c-1.067 0-1.98-.913-1.98-1.98V51.662c0-1.066.913-1.98 1.98-1.98h31.692" stroke="#232F3E" stroke-width="1.7" stroke-linejoin="round"/><path d="M78.463 45.034H41.59c-1.067 0-1.981.915-1.981 1.981v55.843c0 1.067.914 1.981 1.98 1.981h77.708c1.067 0 1.981-.914 1.981-1.981V78.936M439.425 96.772v-61.71h3.145M439.425 110.372v-9.435M448.775 56.907v66.3h-9.35v-8.415M549.585 35.062h2.55v88.145h-9.35V53.252M528.505 119.382h10.54M512.61 119.382h10.71M452.515 119.382h56.61M514.225 41.352h16.915M469.005 41.352h11.22M514.99 48.832h16.745M494.08 48.832h3.23M467.985 48.832h11.05M505.3 49.682l-4.93.51M506.235 57.672l-5.015.595M507.085 65.747l-5.015.51M507.935 73.822l-5.015.51M503.175 79.092l-4.165-38.93 12.75-1.36 4.25 39.865" stroke="#232F3E" stroke-width="1.7" stroke-linejoin="round"/><path d="m485.495 79.687 10.625-49.13M485.92 28.602l-10.965 50.49M503.005 14.152a7.352 7.352 0 0 0 3.995 2.38c1.615.34 3.315.17 4.675-.51M509.125 25.032a6.335 6.335 0 0 0-3.655-2.295 6.3 6.3 0 0 0-4.335.595" stroke="#527FFF" stroke-width="1.7" stroke-linejoin="round"/><path clip-rule="evenodd" d="m488.81 10.242 14.025 3.06-2.295 10.795-4.42 7.14-10.2-2.21s1.19-8.415-1.615-10.03c-3.655-2.04-11.475 2.805-18.02 10.03l-1.7-1.615c-.085-.085 12.155-19.805 24.225-17.17Z" stroke="#527FFF" stroke-width="1.7" stroke-linejoin="round"/><path d="M542.785 85.637h9.35M516.775 85.637H537.6M452.685 85.637h64.09M439.425 85.637h9.35M467.645 79.687l-12.325-25.67c-4.165 0-8.16-2.38-10.115-6.46" stroke="#232F3E" stroke-width="1.7" stroke-linejoin="round"/><path d="M445.205 47.642c-2.125-4.505-1.105-9.69 2.295-13.005l3.995 8.33 6.63-3.145-3.995-8.33c4.675-.595 9.435 1.87 11.56 6.375 1.955 3.995 1.275 8.67-1.275 11.9l9.18 19.125" stroke="#232F3E" stroke-width="1.7" stroke-linejoin="round"/><path clip-rule="evenodd" d="M533.86 41.692a1.367 1.367 0 0 1-.255-1.445l7.735-10.88c.255-.595.85-.85 1.445-.68l2.21.765c.595.17.935.85.765 1.445l-.51 13.26c-.17.68-.765 1.02-1.105 1.02-.68 0-2.635-.34-2.805.34l-7.395 21.59-5.44-1.87 7.395-21.59c.255-.68-1.53-1.615-2.04-1.955Z" stroke="#527FFF" stroke-width="1.7" stroke-linejoin="round"/><path d="m534.37 79.092 3.23-9.435c.255-.595-.085-1.275-.765-1.53l-11.135-3.74c-.595-.17-1.275.085-1.53.765l-4.76 14.025" stroke="#527FFF" stroke-width="1.7" stroke-linejoin="round"/><path clip-rule="evenodd" d="m510.4 26.647 4.76 1.02 2.38-11.05-4.76-1.02c-1.53-.34-3.06.68-3.4 2.21l-1.19 5.44c-.34 1.53.68 3.06 2.21 3.4Z" stroke="#527FFF" stroke-width="1.7" stroke-linejoin="round"/><path d="M255.925 46.781h-6.12c-1.36 0-2.38 1.275-2.38 2.72v13.345M346.025 62.676V49.161c0-1.53-1.105-2.72-2.38-2.72h-5.185" stroke="#232F3E" stroke-width="1.7" stroke-linejoin="round"/><path d="M281.085 51.031V23.746c0-.765.595-1.36 1.36-1.36h22.1l11.73 11.73v17.595" stroke="#527FFF" stroke-width="1.7" stroke-linejoin="round"/><path clip-rule="evenodd" d="M304.545 34.116h11.73l-11.73-11.815v11.815Z" stroke="#527FFF" stroke-width="1.7" stroke-linejoin="round"/><path d="M286.27 43.551h24.905M286.27 36.666h14.11M274.37 1.306l-20.4 5.355a2.256 2.256 0 0 0-1.615 2.805l10.965 42.16" stroke="#527FFF" stroke-width="1.7" stroke-linejoin="round"/><path clip-rule="evenodd" d="m277.43 12.611 11.305-2.975-14.365-8.33 3.06 11.305Z" stroke="#527FFF" stroke-width="1.7" stroke-linejoin="round"/><path d="m261.96 25.701 14.79-3.825M263.745 32.416l13.26-3.57M265.445 39.046l11.56-3.06M260.26 19.071l13.515-3.57M290.945 18.136l-2.125-8.075M333.53 8.191l-19.805-7.055a2.306 2.306 0 0 0-2.975 1.445l-5.525 15.64" stroke="#527FFF" stroke-width="1.7" stroke-linejoin="round"/><path clip-rule="evenodd" d="m329.62 19.241 11.05 3.91-7.14-14.96-3.91 11.05Z" stroke="#527FFF" stroke-width="1.7" stroke-linejoin="round"/><path d="m309.475 21.366 23.29 8.33M320.61 32.671l9.86 3.485M319.76 39.641l8.415 2.975M311.77 14.906l13.175 4.675M340.84 23.066l-7.225 20.23-2.975 8.33" stroke="#527FFF" stroke-width="1.7" stroke-linejoin="round"/><path d="M247.425 88.176v-8.67M247.425 71.431v-8.67c0-1.275 1.105-2.295 2.465-2.295h33.83c-.17-2.21 1.19-3.74 2.72-3.74h19.38c1.53 0 2.805 1.445 2.72 3.74h35.02c1.36 0 2.465 1.02 2.465 2.295v55.59c0 1.275-1.105 2.295-2.465 2.295h-93.67c-1.36 0-2.465-1.02-2.465-2.295v-24.99M280.15 112.316h59.415M265.445 112.316h9.86M252.355 112.316h9.605" stroke="#232F3E" stroke-width="1.7" stroke-linejoin="round"/><path d="M209.354 75.354a.5.5 0 0 0 0-.708l-3.182-3.181a.501.501 0 0 0-.708.707L208.293 75l-2.829 2.828a.5.5 0 0 0 .708.707l3.182-3.181ZM145 75.5h64v-1h-64v1ZM425.354 74.354a.5.5 0 0 0 0-.708l-3.182-3.181a.501.501 0 0 0-.708.707L424.293 74l-2.829 2.828a.5.5 0 0 0 .708.707l3.182-3.181ZM361 74.5h64v-1h-64v1Z" fill="#00A1C9"/><path d="M40.058 150.907c0 1.126-.217 2.067-.65 2.823-.428.752-1.05 1.32-1.866 1.703-.816.378-1.798.567-2.946.567h-2.83v-9.994h3.137c1.049 0 1.958.187 2.728.56.77.37 1.367.919 1.79 1.648.425.724.637 1.622.637 2.693Zm-2.202.055c0-.738-.109-1.344-.328-1.818-.214-.479-.533-.832-.957-1.06-.419-.228-.938-.342-1.558-.342h-1.128v6.508h.909c1.035 0 1.802-.276 2.304-.827.505-.552.758-1.372.758-2.461Zm11.054 1.203c0 .638-.086 1.203-.26 1.695-.168.493-.417.91-.745 1.251a3.123 3.123 0 0 1-1.175.766c-.456.173-.971.26-1.545.26a4.11 4.11 0 0 1-1.484-.26 3.286 3.286 0 0 1-1.169-.766 3.556 3.556 0 0 1-.765-1.251c-.178-.492-.267-1.057-.267-1.695 0-.848.15-1.565.451-2.153.301-.588.73-1.035 1.285-1.34.556-.305 1.22-.458 1.99-.458.715 0 1.349.153 1.9.458.556.305.991.752 1.306 1.34.319.588.478 1.305.478 2.153Zm-5.284 0c0 .501.055.923.164 1.265.11.341.28.599.513.772.232.173.535.26.909.26.37 0 .668-.087.895-.26.233-.173.401-.431.506-.772.11-.342.164-.764.164-1.265 0-.506-.054-.925-.164-1.258-.105-.337-.273-.59-.506-.759-.232-.168-.535-.252-.909-.252-.551 0-.952.189-1.203.567-.246.378-.369.946-.369 1.702ZM56.915 156l-.588-2.673a23.76 23.76 0 0 0-.157-.704 98.638 98.638 0 0 0-.24-1.005 96.63 96.63 0 0 0-.232-.998l-.15-.67h-.062l-.15.67c-.068.305-.146.638-.233.998a1488.156 1488.156 0 0 1-.396 1.736L54.092 156H51.85l-2.174-7.643h2.078l.882 3.384c.059.237.116.52.17.848.055.323.103.638.144.943.046.301.08.54.103.718h.054c.01-.132.028-.308.055-.526.032-.219.066-.445.103-.677l.109-.636c.036-.191.064-.321.082-.39l.943-3.664h2.297l.896 3.664c.032.133.073.342.123.629.054.288.102.584.143.889.041.301.064.538.069.711h.054a33.693 33.693 0 0 1 .253-1.647c.064-.338.128-.625.192-.862l.916-3.384h2.044L59.185 156h-2.27Zm10.049-7.786c.816 0 1.472.223 1.969.67.496.442.745 1.153.745 2.133V156h-2.085v-4.464c0-.547-.1-.959-.301-1.237-.196-.278-.506-.417-.93-.417-.638 0-1.073.216-1.305.649-.233.433-.349 1.058-.349 1.873V156h-2.085v-7.643h1.593l.28.978h.116c.164-.264.367-.479.609-.643a2.69 2.69 0 0 1 .813-.362c.301-.077.61-.116.93-.116ZM73.909 156h-2.085v-10.637h2.085V156Zm9.14-3.835c0 .638-.087 1.203-.26 1.695-.169.493-.417.91-.745 1.251a3.122 3.122 0 0 1-1.176.766c-.456.173-.97.26-1.545.26a4.11 4.11 0 0 1-1.483-.26 3.286 3.286 0 0 1-1.17-.766 3.556 3.556 0 0 1-.765-1.251c-.177-.492-.266-1.057-.266-1.695 0-.848.15-1.565.45-2.153.302-.588.73-1.035 1.286-1.34.556-.305 1.22-.458 1.99-.458.715 0 1.348.153 1.9.458.556.305.99.752 1.305 1.34.32.588.479 1.305.479 2.153Zm-5.284 0c0 .501.054.923.164 1.265.11.341.28.599.512.772.233.173.536.26.91.26.369 0 .667-.087.895-.26.233-.173.401-.431.506-.772.11-.342.164-.764.164-1.265 0-.506-.055-.925-.164-1.258-.105-.337-.273-.59-.506-.759-.232-.168-.535-.252-.91-.252-.55 0-.952.189-1.202.567-.246.378-.37.946-.37 1.702Zm10.137-3.965c1.026 0 1.812.224 2.359.67.547.447.82 1.126.82 2.037V156h-1.456l-.403-1.039h-.055a3.887 3.887 0 0 1-.67.67c-.228.173-.49.301-.786.383a4.098 4.098 0 0 1-1.08.123c-.451 0-.857-.087-1.217-.26a1.934 1.934 0 0 1-.84-.793c-.206-.36-.308-.816-.308-1.367 0-.811.284-1.408.854-1.791.57-.388 1.424-.602 2.564-.643l1.326-.041v-.335c0-.401-.105-.695-.315-.882-.21-.186-.501-.28-.875-.28-.369 0-.731.053-1.087.157-.355.105-.71.237-1.066.397l-.69-1.408a5.888 5.888 0 0 1 1.36-.506 6.603 6.603 0 0 1 1.565-.185Zm1.108 4.259-.807.027c-.674.019-1.144.139-1.408.363-.26.223-.39.517-.39.881 0 .319.094.547.28.684.187.132.431.198.732.198.447 0 .823-.132 1.128-.396.31-.265.465-.64.465-1.128v-.629Zm6.644 3.678c-.852 0-1.547-.333-2.085-.998-.533-.67-.8-1.652-.8-2.947 0-1.308.272-2.296.814-2.966.542-.675 1.251-1.012 2.126-1.012.365 0 .686.05.964.15.278.101.517.235.718.404.205.168.378.357.52.567h.067c-.027-.146-.061-.36-.102-.643a6.981 6.981 0 0 1-.055-.881v-2.448h2.092V156h-1.6l-.403-.991h-.089a2.579 2.579 0 0 1-.499.574c-.196.169-.43.303-.704.403a2.78 2.78 0 0 1-.964.151Zm.732-1.661c.57 0 .97-.169 1.203-.506.237-.342.362-.855.376-1.538v-.226c0-.743-.114-1.31-.342-1.702-.228-.397-.652-.595-1.271-.595-.46 0-.82.198-1.08.595-.26.396-.39.968-.39 1.716 0 .747.13 1.31.39 1.688.264.378.635.568 1.114.568ZM111.65 156h-5.755v-9.994h5.755v1.736h-3.636v2.195h3.383v1.736h-3.383v2.577h3.636V156Zm10.131 0h-2.406l-2.618-4.211-.896.643V156h-2.119v-9.994h2.119v4.573c.142-.196.281-.392.417-.588.137-.196.276-.392.417-.588l2.707-3.397h2.352l-3.486 4.423 3.513 5.571Zm7.157-2.775c0 .592-.143 1.107-.43 1.545-.287.437-.707.774-1.258 1.011-.547.237-1.212.356-1.996.356-.346 0-.686-.023-1.019-.069a6.86 6.86 0 0 1-.95-.198 5.892 5.892 0 0 1-.861-.335v-1.969c.474.21.966.399 1.476.568a4.84 4.84 0 0 0 1.518.253c.346 0 .624-.046.834-.137a.953.953 0 0 0 .465-.376c.095-.159.143-.342.143-.547a.895.895 0 0 0-.253-.642 2.607 2.607 0 0 0-.697-.499 27.32 27.32 0 0 0-.991-.499c-.232-.11-.485-.242-.759-.397a4.418 4.418 0 0 1-.779-.581 2.822 2.822 0 0 1-.609-.827c-.154-.328-.232-.72-.232-1.176 0-.597.137-1.107.41-1.531a2.597 2.597 0 0 1 1.169-.971c.511-.228 1.112-.342 1.805-.342.519 0 1.014.062 1.483.185.474.118.969.292 1.484.519l-.684 1.648c-.46-.187-.873-.331-1.237-.431a4.01 4.01 0 0 0-1.115-.157c-.264 0-.489.043-.676.13a.912.912 0 0 0-.424.355.96.96 0 0 0-.144.527.91.91 0 0 0 .205.601c.142.16.351.315.629.465.283.15.634.326 1.053.526.51.242.946.495 1.306.759.364.26.645.568.841.923.195.351.293.789.293 1.313ZM15.592 178l-.725-2.379h-3.643L10.499 178H8.216l3.527-10.035h2.591L17.875 178h-2.283Zm-1.23-4.156-.725-2.324a25.642 25.642 0 0 0-.185-.595 64.15 64.15 0 0 0-.225-.745 18.723 18.723 0 0 1-.178-.663 68.724 68.724 0 0 1-.574 2.003l-.718 2.324h2.604Zm8.954-3.63c.816 0 1.472.223 1.97.67.496.442.744 1.153.744 2.133V178h-2.085v-4.464c0-.547-.1-.959-.3-1.237-.196-.278-.506-.417-.93-.417-.638 0-1.073.216-1.306.649-.232.433-.348 1.058-.348 1.873V178h-2.085v-7.643h1.592l.28.978h.117c.164-.264.367-.479.608-.643a2.69 2.69 0 0 1 .814-.362c.3-.077.61-.116.93-.116Zm3.767.143h2.283l1.443 4.3c.045.137.084.276.116.417a6.968 6.968 0 0 1 .137.909h.04c.028-.246.064-.476.11-.69.05-.214.112-.426.184-.636l1.416-4.3h2.235l-3.233 8.621c-.197.528-.452.968-.766 1.319a3.084 3.084 0 0 1-1.087.8 3.314 3.314 0 0 1-1.34.266 3.92 3.92 0 0 1-.615-.041 5.479 5.479 0 0 1-.445-.075v-1.654c.096.023.217.043.363.061.146.019.298.028.458.028.291 0 .542-.062.752-.185.21-.123.385-.289.526-.499.141-.205.253-.431.335-.677l.123-.376-3.035-7.588ZM42.43 178l-.588-2.673a23.76 23.76 0 0 0-.157-.704 98.756 98.756 0 0 0-.24-1.005c-.082-.36-.16-.693-.232-.998l-.15-.67H41l-.15.67c-.069.305-.146.638-.233.998l-.232 1.019c-.073.314-.128.553-.164.717L39.606 178h-2.242l-2.174-7.643h2.079l.881 3.384c.06.237.117.52.171.848.055.323.103.638.144.943.045.301.08.54.102.718h.055c.01-.132.027-.308.055-.526.032-.219.066-.445.102-.677l.11-.636c.036-.191.063-.321.082-.39l.943-3.664h2.297l.895 3.664c.032.133.073.342.123.629.055.288.103.584.144.889.041.301.064.538.068.711h.055a34.043 34.043 0 0 1 .253-1.647c.064-.338.128-.625.191-.862l.916-3.384H46.9L44.7 178h-2.27Zm7.793-10.637v2.167c0 .379-.014.739-.041 1.08a28.01 28.01 0 0 1-.055.725h.11c.163-.264.357-.479.58-.643.228-.164.479-.284.752-.362.274-.077.568-.116.882-.116.552 0 1.032.098 1.443.294.41.191.729.494.957.909.227.41.341.943.341 1.6V178h-2.085v-4.464c0-.547-.1-.959-.3-1.237-.2-.278-.51-.417-.93-.417-.42 0-.75.098-.991.294-.242.191-.413.476-.513.854-.1.374-.15.832-.15 1.374V178h-2.085v-10.637h2.085Zm10.267 2.851c.707 0 1.315.137 1.825.41.51.269.905.661 1.183 1.176.278.515.417 1.144.417 1.887v1.011h-4.929c.023.588.199 1.051.527 1.388.332.333.793.499 1.38.499.488 0 .935-.05 1.34-.15a6.843 6.843 0 0 0 1.251-.452v1.614a4.98 4.98 0 0 1-1.19.41c-.41.086-.908.13-1.496.13-.766 0-1.445-.142-2.037-.424a3.166 3.166 0 0 1-1.388-1.292c-.333-.579-.499-1.308-.499-2.188 0-.893.15-1.636.451-2.228.305-.597.73-1.044 1.272-1.34.542-.301 1.173-.451 1.893-.451Zm.014 1.483c-.406 0-.743.13-1.012.39-.264.26-.417.668-.458 1.224h2.926a2.068 2.068 0 0 0-.17-.828 1.286 1.286 0 0 0-.48-.574c-.21-.141-.478-.212-.806-.212Zm9.372-1.483c.105 0 .226.007.362.02.142.009.255.023.342.041l-.157 1.955a1.31 1.31 0 0 0-.294-.047 2.89 2.89 0 0 0-1.108.082c-.25.068-.476.18-.676.335-.2.15-.36.351-.479.601-.114.246-.17.549-.17.909V178H65.61v-7.643h1.58l.307 1.286h.103a3.2 3.2 0 0 1 .56-.711c.228-.219.486-.392.773-.52.291-.132.606-.198.943-.198Zm5.243 0c.707 0 1.315.137 1.825.41.51.269.905.661 1.183 1.176.278.515.417 1.144.417 1.887v1.011h-4.929c.023.588.199 1.051.527 1.388.332.333.793.499 1.38.499.488 0 .935-.05 1.34-.15a6.843 6.843 0 0 0 1.251-.452v1.614a4.98 4.98 0 0 1-1.19.41c-.41.086-.908.13-1.496.13-.766 0-1.445-.142-2.037-.424a3.165 3.165 0 0 1-1.388-1.292c-.333-.579-.5-1.308-.5-2.188 0-.893.151-1.636.452-2.228.305-.597.73-1.044 1.272-1.34.542-.301 1.173-.451 1.893-.451Zm.014 1.483c-.406 0-.743.13-1.012.39-.264.26-.417.668-.458 1.224h2.926a2.068 2.068 0 0 0-.171-.828 1.286 1.286 0 0 0-.479-.574c-.21-.141-.478-.212-.806-.212Zm10.828-4.334v2.475c0 .287-.01.572-.027.854a7.21 7.21 0 0 1-.055.657h.082c.2-.315.474-.581.82-.8.347-.223.795-.335 1.347-.335.857 0 1.552.335 2.085 1.005.533.67.8 1.652.8 2.946 0 .87-.123 1.602-.37 2.194-.246.588-.59 1.033-1.032 1.333-.442.297-.954.445-1.538.445-.56 0-1.002-.101-1.326-.301a3.053 3.053 0 0 1-.786-.677h-.144l-.348.841h-1.593v-10.637h2.085Zm1.497 4.519c-.365 0-.654.075-.868.225-.214.151-.372.376-.472.677-.096.301-.148.681-.157 1.142v.225c0 .743.11 1.313.328 1.709.219.392.618.588 1.196.588.429 0 .768-.198 1.019-.594.255-.397.383-.969.383-1.716 0-.748-.128-1.311-.383-1.689-.255-.378-.604-.567-1.046-.567Zm12.223 2.283c0 .638-.087 1.203-.26 1.695-.169.493-.417.91-.745 1.251a3.123 3.123 0 0 1-1.176.766c-.456.173-.97.26-1.545.26a4.11 4.11 0 0 1-1.483-.26 3.286 3.286 0 0 1-1.17-.766 3.556 3.556 0 0 1-.765-1.251c-.178-.492-.267-1.057-.267-1.695 0-.848.15-1.565.452-2.153.3-.588.729-1.035 1.285-1.34.556-.305 1.219-.458 1.99-.458.715 0 1.348.153 1.9.458.555.305.99.752 1.305 1.34.32.588.479 1.305.479 2.153Zm-5.284 0c0 .501.054.923.163 1.265.11.341.28.599.513.772.233.173.536.26.91.26.369 0 .667-.087.895-.26.232-.173.401-.431.506-.772.11-.342.164-.764.164-1.265 0-.506-.055-.925-.164-1.258-.105-.337-.274-.59-.506-.759-.233-.168-.536-.252-.91-.252-.55 0-.952.189-1.202.567-.247.378-.37.946-.37 1.702Zm13.952 0c0 .638-.087 1.203-.26 1.695-.169.493-.417.91-.745 1.251a3.13 3.13 0 0 1-1.176.766 4.33 4.33 0 0 1-1.545.26 4.107 4.107 0 0 1-1.483-.26 3.276 3.276 0 0 1-1.169-.766 3.554 3.554 0 0 1-.766-1.251c-.178-.492-.267-1.057-.267-1.695 0-.848.151-1.565.452-2.153a3.09 3.09 0 0 1 1.285-1.34c.556-.305 1.219-.458 1.989-.458.716 0 1.349.153 1.9.458.556.305.992.752 1.306 1.34.319.588.479 1.305.479 2.153Zm-5.285 0c0 .501.055.923.165 1.265.109.341.28.599.512.772.233.173.536.26.909.26.37 0 .668-.087.896-.26.232-.173.401-.431.506-.772.109-.342.164-.764.164-1.265 0-.506-.055-.925-.164-1.258-.105-.337-.274-.59-.506-.759-.233-.168-.536-.252-.909-.252-.552 0-.953.189-1.203.567-.246.378-.37.946-.37 1.702Zm10.227 2.311c.228 0 .449-.023.663-.069a6.22 6.22 0 0 0 .65-.171v1.552a3.86 3.86 0 0 1-.834.246 5.27 5.27 0 0 1-1.081.103c-.455 0-.865-.073-1.23-.219a1.753 1.753 0 0 1-.855-.772c-.205-.37-.307-.882-.307-1.539v-3.684h-.998v-.882l1.148-.697.602-1.614h1.333v1.627h2.139v1.566h-2.139v3.684c0 .292.082.511.246.657.169.141.39.212.663.212Zm8.196-.746c0 .52-.123.96-.369 1.32-.241.355-.604.626-1.087.813-.483.183-1.084.274-1.804.274-.534 0-.992-.034-1.374-.103a5.59 5.59 0 0 1-1.149-.342v-1.722c.415.187.859.342 1.333.465a5.35 5.35 0 0 0 1.258.177c.406 0 .695-.059.868-.177a.56.56 0 0 0 .267-.479.568.568 0 0 0-.11-.342c-.068-.105-.218-.221-.451-.348a11.055 11.055 0 0 0-1.094-.513 7.29 7.29 0 0 1-1.182-.608 2.07 2.07 0 0 1-.684-.725c-.146-.283-.219-.64-.219-1.073 0-.707.274-1.238.821-1.593.551-.36 1.287-.54 2.208-.54.474 0 .925.048 1.353.143.433.096.878.249 1.333.458l-.629 1.504a10.72 10.72 0 0 0-1.073-.403 3.364 3.364 0 0 0-1.018-.157c-.306 0-.536.041-.691.123a.4.4 0 0 0-.232.376c0 .123.038.232.116.328.082.096.237.203.465.321.232.114.572.262 1.018.445.433.177.809.364 1.128.56.319.192.565.431.739.718.173.282.259.649.259 1.1Zm4.847.746c.228 0 .449-.023.663-.069.219-.045.435-.102.649-.171v1.552c-.223.1-.501.182-.834.246a5.253 5.253 0 0 1-1.08.103c-.455 0-.865-.073-1.23-.219a1.753 1.753 0 0 1-.855-.772c-.205-.37-.307-.882-.307-1.539v-3.684h-.998v-.882l1.148-.697.602-1.614h1.333v1.627h2.139v1.566h-2.139v3.684c0 .292.082.511.246.657.169.141.39.212.663.212Zm7.13-6.262c.105 0 .225.007.362.02.141.009.255.023.342.041l-.157 1.955a1.322 1.322 0 0 0-.294-.047 2.888 2.888 0 0 0-1.108.082c-.25.068-.476.18-.676.335a1.58 1.58 0 0 0-.479.601c-.114.246-.171.549-.171.909V178h-2.085v-7.643h1.579l.308 1.286h.103c.15-.26.337-.497.56-.711.228-.219.485-.392.773-.52.291-.132.606-.198.943-.198Zm5.223-.014c1.025 0 1.811.224 2.358.67.547.447.82 1.126.82 2.037V178h-1.456l-.403-1.039h-.055a3.887 3.887 0 0 1-.67.67c-.228.173-.49.301-.786.383a4.095 4.095 0 0 1-1.08.123c-.451 0-.857-.087-1.217-.26a1.937 1.937 0 0 1-.841-.793c-.205-.36-.307-.816-.307-1.367 0-.811.285-1.408.854-1.791.57-.388 1.424-.602 2.564-.643l1.326-.041v-.335c0-.401-.105-.695-.315-.882-.209-.186-.501-.28-.875-.28-.369 0-.731.053-1.086.157a8.39 8.39 0 0 0-1.067.397l-.69-1.408a5.88 5.88 0 0 1 1.36-.506 6.606 6.606 0 0 1 1.566-.185Zm1.107 4.259-.807.027c-.674.019-1.144.139-1.408.363-.26.223-.39.517-.39.881 0 .319.094.547.281.684.187.132.43.198.731.198.447 0 .823-.132 1.128-.396.31-.265.465-.64.465-1.128v-.629Zm8.477-4.245c.861 0 1.556.335 2.084 1.005.534.67.8 1.652.8 2.946 0 .866-.125 1.595-.376 2.188-.25.587-.597 1.032-1.039 1.333-.442.3-.95.451-1.524.451-.369 0-.686-.046-.95-.137a2.44 2.44 0 0 1-.677-.362 3.191 3.191 0 0 1-.485-.479h-.11a5.98 5.98 0 0 1 .11 1.121v3.083h-2.085v-11.006h1.695l.294.992h.096a2.89 2.89 0 0 1 .499-.568c.196-.173.43-.31.704-.41.278-.105.599-.157.964-.157Zm-.67 1.668c-.365 0-.654.075-.869.225-.214.151-.371.376-.471.677-.096.301-.148.681-.157 1.142v.225c0 .493.045.91.136 1.251.096.342.253.602.472.78.223.177.529.266.916.266.319 0 .581-.089.786-.266.205-.178.358-.438.458-.78.105-.346.157-.768.157-1.264 0-.748-.116-1.311-.348-1.689-.233-.378-.593-.567-1.08-.567Zm-80.617 26.594c.228 0 .45-.023.663-.069.22-.045.436-.102.65-.171v1.552c-.223.1-.501.182-.834.246a5.256 5.256 0 0 1-1.08.103c-.456 0-.866-.073-1.23-.219a1.75 1.75 0 0 1-.855-.772c-.205-.37-.308-.882-.308-1.539v-3.684h-.998v-.882l1.149-.697.601-1.614h1.333v1.627h2.14v1.566h-2.14v3.684c0 .292.082.511.246.657.169.141.39.212.663.212Zm9.81-2.311c0 .638-.087 1.203-.26 1.695-.168.493-.417.91-.745 1.251a3.123 3.123 0 0 1-1.176.766c-.455.173-.97.26-1.545.26a4.11 4.11 0 0 1-1.483-.26 3.285 3.285 0 0 1-1.169-.766 3.556 3.556 0 0 1-.766-1.251c-.177-.492-.266-1.057-.266-1.695 0-.848.15-1.565.451-2.153.3-.588.73-1.035 1.285-1.34.556-.305 1.22-.458 1.99-.458.715 0 1.348.153 1.9.458.556.305.991.752 1.305 1.34.32.588.479 1.305.479 2.153Zm-5.284 0c0 .501.054.923.164 1.265.11.341.28.599.512.772.233.173.536.26.91.26.369 0 .667-.087.895-.26.233-.173.401-.431.506-.772.11-.342.164-.764.164-1.265 0-.506-.055-.925-.164-1.258-.105-.337-.273-.59-.506-.759-.232-.168-.535-.252-.909-.252-.551 0-.952.189-1.203.567-.246.378-.37.946-.37 1.702Zm13.952 0c0 .638-.087 1.203-.26 1.695-.168.493-.417.91-.745 1.251a3.122 3.122 0 0 1-1.176.766c-.456.173-.97.26-1.545.26a4.11 4.11 0 0 1-1.483-.26 3.286 3.286 0 0 1-1.169-.766 3.556 3.556 0 0 1-.766-1.251c-.177-.492-.266-1.057-.266-1.695 0-.848.15-1.565.45-2.153.302-.588.73-1.035 1.286-1.34.556-.305 1.22-.458 1.99-.458.715 0 1.348.153 1.9.458.556.305.99.752 1.305 1.34.32.588.479 1.305.479 2.153Zm-5.284 0c0 .501.054.923.164 1.265.11.341.28.599.513.772.232.173.535.26.909.26.369 0 .667-.087.895-.26.233-.173.401-.431.506-.772.11-.342.164-.764.164-1.265 0-.506-.055-.925-.164-1.258-.105-.337-.273-.59-.506-.759-.232-.168-.535-.252-.909-.252-.551 0-.953.189-1.203.567-.246.378-.37.946-.37 1.702ZM89.269 200h-2.084v-10.637h2.084V200Zm7.527-2.27c0 .52-.123.96-.37 1.32-.24.355-.603.626-1.086.813-.483.183-1.085.274-1.805.274-.533 0-.991-.034-1.374-.103a5.608 5.608 0 0 1-1.148-.342v-1.722a8.32 8.32 0 0 0 1.333.465c.478.118.897.177 1.257.177.406 0 .696-.059.869-.177a.56.56 0 0 0 .266-.479.568.568 0 0 0-.11-.342c-.067-.105-.218-.221-.45-.348a11.122 11.122 0 0 0-1.094-.513 7.273 7.273 0 0 1-1.183-.608 2.068 2.068 0 0 1-.683-.725c-.146-.283-.219-.64-.219-1.073 0-.707.273-1.238.82-1.593.552-.36 1.288-.54 2.208-.54.474 0 .925.048 1.354.143.433.096.877.249 1.333.458l-.629 1.504a10.724 10.724 0 0 0-1.073-.403 3.364 3.364 0 0 0-1.019-.157c-.305 0-.535.041-.69.123a.4.4 0 0 0-.233.376c0 .123.039.232.117.328.082.096.237.203.464.321.233.114.572.262 1.019.445.433.177.809.364 1.128.56.319.192.565.431.738.718.173.282.26.649.26 1.1ZM252.818 146.626c-.405 0-.765.08-1.08.239-.31.155-.572.381-.786.677a3.273 3.273 0 0 0-.478 1.073c-.11.42-.164.891-.164 1.415 0 .707.086 1.31.259 1.812.178.497.452.877.821 1.141.369.26.845.39 1.428.39.406 0 .812-.046 1.217-.137.41-.091.855-.221 1.333-.389v1.777a6.47 6.47 0 0 1-1.306.39 7.701 7.701 0 0 1-1.442.123c-1.03 0-1.877-.212-2.543-.636-.661-.428-1.151-1.025-1.47-1.791-.319-.77-.478-1.668-.478-2.693 0-.757.102-1.45.308-2.079a4.698 4.698 0 0 1 .902-1.633 3.974 3.974 0 0 1 1.47-1.067c.583-.25 1.253-.376 2.009-.376.497 0 .994.064 1.491.192.501.123.979.294 1.435.512l-.683 1.723c-.374-.178-.75-.333-1.128-.465a3.374 3.374 0 0 0-1.115-.198Zm8.785.588c.104 0 .225.007.362.02.141.009.255.023.342.041l-.158 1.955a1.301 1.301 0 0 0-.294-.047 2.888 2.888 0 0 0-1.107.082c-.251.068-.476.18-.677.335-.2.15-.36.351-.478.601-.114.246-.171.549-.171.909V155h-2.085v-7.643h1.579l.308 1.286h.102c.151-.26.337-.497.561-.711.228-.219.485-.392.772-.52.292-.132.606-.198.944-.198Zm5.243 0c.706 0 1.314.137 1.825.41.51.269.905.661 1.183 1.176.278.515.417 1.144.417 1.887v1.011h-4.929c.023.588.198 1.051.526 1.388.333.333.793.499 1.381.499.488 0 .934-.05 1.34-.15a6.875 6.875 0 0 0 1.251-.452v1.614a4.974 4.974 0 0 1-1.19.41c-.41.086-.909.13-1.497.13-.765 0-1.444-.142-2.037-.424a3.162 3.162 0 0 1-1.387-1.292c-.333-.579-.5-1.308-.5-2.188 0-.893.151-1.636.452-2.228.305-.597.729-1.044 1.271-1.34.542-.301 1.174-.451 1.894-.451Zm.013 1.483c-.405 0-.742.13-1.011.39-.265.26-.417.668-.458 1.224h2.925a2.062 2.062 0 0 0-.17-.828 1.289 1.289 0 0 0-.479-.574c-.21-.141-.478-.212-.807-.212Zm8.238-1.497c1.025 0 1.811.224 2.358.67.547.447.82 1.126.82 2.037V155h-1.456l-.403-1.039h-.055a3.852 3.852 0 0 1-.67.67c-.227.173-.49.301-.786.383a4.095 4.095 0 0 1-1.08.123c-.451 0-.857-.087-1.217-.26a1.934 1.934 0 0 1-.84-.793c-.206-.36-.308-.816-.308-1.367 0-.811.285-1.408.854-1.791.57-.388 1.425-.602 2.564-.643l1.326-.041v-.335c0-.401-.105-.695-.314-.882-.21-.186-.502-.28-.875-.28-.369 0-.732.053-1.087.157a8.39 8.39 0 0 0-1.067.397l-.69-1.408a5.88 5.88 0 0 1 1.36-.506 6.606 6.606 0 0 1 1.566-.185Zm1.107 4.259-.807.027c-.674.019-1.143.139-1.408.363-.26.223-.389.517-.389.881 0 .319.093.547.28.684.187.132.431.198.731.198.447 0 .823-.132 1.128-.396.31-.265.465-.64.465-1.128v-.629Zm7.444 2.017c.228 0 .449-.023.664-.069.218-.045.435-.102.649-.171v1.552c-.223.1-.501.182-.834.246a5.253 5.253 0 0 1-1.08.103c-.456 0-.866-.073-1.231-.219a1.751 1.751 0 0 1-.854-.772c-.205-.37-.308-.882-.308-1.539v-3.684h-.998v-.882l1.149-.697.601-1.614h1.333v1.627h2.14v1.566h-2.14v3.684c0 .292.082.511.246.657.169.141.39.212.663.212Zm6.016-6.262c.706 0 1.315.137 1.825.41.511.269.905.661 1.183 1.176.278.515.417 1.144.417 1.887v1.011h-4.929c.023.588.198 1.051.527 1.388.332.333.792.499 1.38.499.488 0 .935-.05 1.34-.15a6.822 6.822 0 0 0 1.251-.452v1.614a4.981 4.981 0 0 1-1.189.41c-.41.086-.909.13-1.497.13-.766 0-1.445-.142-2.037-.424a3.164 3.164 0 0 1-1.388-1.292c-.333-.579-.499-1.308-.499-2.188 0-.893.15-1.636.451-2.228.305-.597.729-1.044 1.272-1.34.542-.301 1.173-.451 1.893-.451Zm.014 1.483c-.406 0-.743.13-1.012.39-.264.26-.417.668-.458 1.224h2.926a2.08 2.08 0 0 0-.171-.828 1.282 1.282 0 0 0-.479-.574c-.209-.141-.478-.212-.806-.212Zm11.846 6.44c-.756 0-1.401-.137-1.934-.41-.533-.278-.939-.707-1.217-1.286-.278-.578-.417-1.319-.417-2.221 0-.935.157-1.696.472-2.283.319-.593.759-1.028 1.319-1.306.565-.278 1.219-.417 1.962-.417.529 0 .984.052 1.367.157.388.1.725.221 1.012.362l-.615 1.614a9.831 9.831 0 0 0-.916-.322 2.9 2.9 0 0 0-.848-.129c-.365 0-.668.086-.909.259-.242.169-.422.424-.54.766-.119.342-.178.77-.178 1.285 0 .506.064.925.191 1.258.128.333.313.581.554.745.242.159.536.239.882.239.433 0 .818-.057 1.155-.171.337-.118.666-.282.985-.492v1.784a3.417 3.417 0 0 1-1.005.431c-.347.091-.786.137-1.32.137Zm6.187-.137h-2.085v-10.637h2.085V155Zm9.208-7.643V155h-1.6l-.28-.978h-.109a2.09 2.09 0 0 1-.616.636 2.69 2.69 0 0 1-.813.363 3.654 3.654 0 0 1-.923.116c-.547 0-1.023-.096-1.429-.287a2.13 2.13 0 0 1-.95-.91c-.223-.41-.335-.943-.335-1.599v-4.984h2.085v4.464c0 .547.098.96.294 1.238.196.278.508.417.937.417.424 0 .756-.096.998-.288.241-.195.41-.48.506-.854.1-.378.15-.839.15-1.381v-3.596h2.085Zm7.519 5.373c0 .52-.123.96-.369 1.32-.241.355-.604.626-1.087.813-.483.183-1.084.274-1.804.274-.533 0-.991-.034-1.374-.103a5.61 5.61 0 0 1-1.149-.342v-1.722c.415.187.859.342 1.333.465a5.35 5.35 0 0 0 1.258.177c.406 0 .695-.059.868-.177a.56.56 0 0 0 .267-.479.568.568 0 0 0-.11-.342c-.068-.105-.218-.221-.451-.348a11.126 11.126 0 0 0-1.093-.513 7.262 7.262 0 0 1-1.183-.608 2.079 2.079 0 0 1-.684-.725c-.145-.283-.218-.64-.218-1.073 0-.707.273-1.238.82-1.593.551-.36 1.287-.54 2.208-.54.474 0 .925.048 1.353.143.433.096.878.249 1.333.458l-.628 1.504a10.733 10.733 0 0 0-1.074-.403 3.36 3.36 0 0 0-1.018-.157c-.306 0-.536.041-.691.123a.4.4 0 0 0-.232.376.51.51 0 0 0 .116.328c.082.096.237.203.465.321.232.114.572.262 1.018.445.433.177.809.364 1.128.56.319.192.566.431.739.718.173.282.259.649.259 1.1Zm4.847.746c.228 0 .449-.023.663-.069a6.22 6.22 0 0 0 .65-.171v1.552a3.86 3.86 0 0 1-.834.246 5.253 5.253 0 0 1-1.08.103c-.456 0-.866-.073-1.231-.219a1.747 1.747 0 0 1-.854-.772c-.205-.37-.308-.882-.308-1.539v-3.684h-.998v-.882l1.148-.697.602-1.614h1.333v1.627h2.14v1.566h-2.14v3.684c0 .292.082.511.246.657.169.141.39.212.663.212Zm6.016-6.262c.706 0 1.315.137 1.825.41.51.269.905.661 1.183 1.176.278.515.417 1.144.417 1.887v1.011h-4.929c.023.588.198 1.051.526 1.388.333.333.793.499 1.381.499.488 0 .934-.05 1.34-.15a6.822 6.822 0 0 0 1.251-.452v1.614a4.974 4.974 0 0 1-1.19.41c-.41.086-.909.13-1.497.13-.765 0-1.444-.142-2.037-.424a3.162 3.162 0 0 1-1.387-1.292c-.333-.579-.499-1.308-.499-2.188 0-.893.15-1.636.451-2.228.305-.597.729-1.044 1.271-1.34.543-.301 1.174-.451 1.894-.451Zm.013 1.483c-.405 0-.742.13-1.011.39-.265.26-.417.668-.458 1.224h2.926a2.08 2.08 0 0 0-.171-.828 1.289 1.289 0 0 0-.479-.574c-.21-.141-.478-.212-.807-.212Zm9.373-1.483c.104 0 .225.007.362.02.141.009.255.023.342.041l-.158 1.955a1.301 1.301 0 0 0-.294-.047 2.888 2.888 0 0 0-1.107.082c-.251.068-.476.18-.677.335-.2.15-.36.351-.478.601-.114.246-.171.549-.171.909V155h-2.085v-7.643H342l.308 1.286h.102c.151-.26.337-.497.561-.711.228-.219.485-.392.772-.52.292-.132.606-.198.944-.198Zm-116.95 27.516c0 .52-.123.96-.369 1.32-.241.355-.604.626-1.087.813-.483.183-1.084.274-1.804.274-.534 0-.992-.034-1.374-.103a5.59 5.59 0 0 1-1.149-.342v-1.722c.415.187.859.342 1.333.465a5.35 5.35 0 0 0 1.258.177c.406 0 .695-.059.868-.177a.56.56 0 0 0 .267-.479.568.568 0 0 0-.11-.342c-.068-.105-.218-.221-.451-.348a11.055 11.055 0 0 0-1.094-.513 7.29 7.29 0 0 1-1.182-.608 2.07 2.07 0 0 1-.684-.725c-.146-.283-.219-.64-.219-1.073 0-.707.274-1.238.821-1.593.551-.36 1.287-.54 2.208-.54.474 0 .925.048 1.353.143.433.096.878.249 1.333.458l-.629 1.504a10.72 10.72 0 0 0-1.073-.403 3.364 3.364 0 0 0-1.018-.157c-.306 0-.536.041-.691.123a.4.4 0 0 0-.232.376c0 .123.038.232.116.328.082.096.237.203.465.321.232.114.572.262 1.018.445.433.177.809.364 1.128.56.319.192.565.431.739.718.173.282.259.649.259 1.1Zm5.879-5.516c.862 0 1.557.335 2.085 1.005.533.67.8 1.652.8 2.946 0 .866-.125 1.595-.376 2.188-.251.587-.597 1.032-1.039 1.333-.442.3-.95.451-1.524.451-.37 0-.686-.046-.951-.137a2.433 2.433 0 0 1-.676-.362 3.246 3.246 0 0 1-.486-.479h-.109a5.567 5.567 0 0 1 .109 1.121v3.083h-2.085v-11.006h1.696l.294.992h.095c.137-.205.303-.395.499-.568a2.19 2.19 0 0 1 .704-.41c.278-.105.6-.157.964-.157Zm-.67 1.668c-.364 0-.654.075-.868.225-.214.151-.371.376-.472.677-.095.301-.148.681-.157 1.142v.225c0 .493.046.91.137 1.251.096.342.253.602.472.78.223.177.528.266.916.266.319 0 .581-.089.786-.266.205-.178.358-.438.458-.78.105-.346.157-.768.157-1.264 0-.748-.116-1.311-.349-1.689-.232-.378-.592-.567-1.08-.567Zm8.429-1.668c.706 0 1.315.137 1.825.41.511.269.905.661 1.183 1.176.278.515.417 1.144.417 1.887v1.011h-4.929c.023.588.198 1.051.526 1.388.333.333.793.499 1.381.499.488 0 .935-.05 1.34-.15a6.822 6.822 0 0 0 1.251-.452v1.614a4.981 4.981 0 0 1-1.189.41c-.41.086-.909.13-1.497.13-.766 0-1.445-.142-2.037-.424a3.164 3.164 0 0 1-1.388-1.292c-.333-.579-.499-1.308-.499-2.188 0-.893.15-1.636.451-2.228.305-.597.729-1.044 1.271-1.34.543-.301 1.174-.451 1.894-.451Zm.014 1.483c-.406 0-.743.13-1.012.39-.264.26-.417.668-.458 1.224h2.926a2.08 2.08 0 0 0-.171-.828 1.282 1.282 0 0 0-.479-.574c-.209-.141-.478-.212-.806-.212Zm8.21 6.44c-.757 0-1.402-.137-1.935-.41-.533-.278-.939-.707-1.217-1.286-.278-.578-.417-1.319-.417-2.221 0-.935.158-1.696.472-2.283.319-.593.759-1.028 1.319-1.306.565-.278 1.219-.417 1.962-.417.529 0 .985.052 1.367.157.388.1.725.221 1.012.362l-.615 1.614a9.831 9.831 0 0 0-.916-.322 2.9 2.9 0 0 0-.848-.129c-.364 0-.667.086-.909.259-.242.169-.422.424-.54.766-.119.342-.178.77-.178 1.285 0 .506.064.925.192 1.258.127.333.312.581.553.745.242.159.536.239.882.239.433 0 .818-.057 1.155-.171.338-.118.666-.282.985-.492v1.784a3.417 3.417 0 0 1-1.005.431c-.346.091-.786.137-1.319.137Zm6.186-7.78V177H253.7v-7.643h2.085Zm-1.039-2.994c.31 0 .577.073.8.219.223.141.335.408.335.8 0 .387-.112.656-.335.806-.223.146-.49.219-.8.219-.314 0-.583-.073-.807-.219-.218-.15-.328-.419-.328-.806 0-.392.11-.659.328-.8.224-.146.493-.219.807-.219Zm7.458 4.56h-1.805V177h-2.085v-6.077h-1.148v-1.005l1.148-.561v-.56c0-.652.11-1.158.329-1.518.223-.364.535-.619.936-.765.406-.151.884-.226 1.436-.226.405 0 .774.034 1.107.103.333.063.604.136.814.218l-.534 1.532a5.708 5.708 0 0 0-.519-.137 3.016 3.016 0 0 0-.643-.062c-.291 0-.506.089-.642.267-.133.173-.199.396-.199.67v.478h1.805v1.566Zm3.281-1.566V177H263.4v-7.643h2.085Zm-1.039-2.994c.31 0 .577.073.8.219.223.141.335.408.335.8 0 .387-.112.656-.335.806-.223.146-.49.219-.8.219a1.44 1.44 0 0 1-.806-.219c-.219-.15-.328-.419-.328-.806 0-.392.109-.659.328-.8a1.44 1.44 0 0 1 .806-.219Zm6.33 10.774c-.756 0-1.401-.137-1.934-.41-.533-.278-.939-.707-1.217-1.286-.278-.578-.417-1.319-.417-2.221 0-.935.157-1.696.472-2.283.319-.593.758-1.028 1.319-1.306.565-.278 1.219-.417 1.962-.417.529 0 .984.052 1.367.157.387.1.725.221 1.012.362l-.615 1.614a9.934 9.934 0 0 0-.916-.322 2.905 2.905 0 0 0-.848-.129c-.365 0-.668.086-.909.259-.242.169-.422.424-.54.766-.119.342-.178.77-.178 1.285 0 .506.064.925.191 1.258.128.333.313.581.554.745.242.159.536.239.882.239.433 0 .818-.057 1.155-.171.337-.118.666-.282.985-.492v1.784a3.417 3.417 0 0 1-1.005.431c-.347.091-.786.137-1.32.137Zm7.233-7.937c1.025 0 1.811.224 2.358.67.547.447.821 1.126.821 2.037V177h-1.457l-.403-1.039h-.055a3.884 3.884 0 0 1-.669.67 2.3 2.3 0 0 1-.787.383 4.095 4.095 0 0 1-1.08.123c-.451 0-.856-.087-1.216-.26a1.931 1.931 0 0 1-.841-.793c-.205-.36-.308-.816-.308-1.367 0-.811.285-1.408.855-1.791.569-.388 1.424-.602 2.563-.643l1.326-.041v-.335c0-.401-.105-.695-.314-.882-.21-.186-.502-.28-.875-.28-.369 0-.732.053-1.087.157a8.39 8.39 0 0 0-1.067.397l-.69-1.408a5.898 5.898 0 0 1 1.36-.506 6.606 6.606 0 0 1 1.566-.185Zm1.107 4.259-.806.027c-.675.019-1.144.139-1.409.363a1.107 1.107 0 0 0-.389.881c0 .319.093.547.28.684.187.132.431.198.731.198.447 0 .823-.132 1.128-.396.31-.265.465-.64.465-1.128v-.629Zm7.445 2.017c.227 0 .448-.023.663-.069.218-.045.435-.102.649-.171v1.552c-.223.1-.501.182-.834.246a5.253 5.253 0 0 1-1.08.103 3.28 3.28 0 0 1-1.23-.219 1.75 1.75 0 0 1-.855-.772c-.205-.37-.308-.882-.308-1.539v-3.684h-.998v-.882l1.149-.697.601-1.614h1.333v1.627h2.14v1.566h-2.14v3.684c0 .292.082.511.246.657.169.141.39.212.664.212Zm4.949-6.119V177h-2.085v-7.643h2.085Zm-1.039-2.994c.31 0 .576.073.8.219.223.141.334.408.334.8 0 .387-.111.656-.334.806a1.43 1.43 0 0 1-.8.219 1.44 1.44 0 0 1-.807-.219c-.219-.15-.328-.419-.328-.806 0-.392.109-.659.328-.8a1.44 1.44 0 0 1 .807-.219Zm10.178 6.802c0 .638-.086 1.203-.259 1.695-.169.493-.417.91-.745 1.251a3.13 3.13 0 0 1-1.176.766 4.33 4.33 0 0 1-1.545.26 4.116 4.116 0 0 1-1.484-.26 3.294 3.294 0 0 1-1.169-.766 3.552 3.552 0 0 1-.765-1.251c-.178-.492-.267-1.057-.267-1.695 0-.848.151-1.565.451-2.153a3.097 3.097 0 0 1 1.286-1.34c.556-.305 1.219-.458 1.989-.458.715 0 1.349.153 1.9.458.556.305.991.752 1.306 1.34.319.588.478 1.305.478 2.153Zm-5.284 0c0 .501.055.923.164 1.265.11.341.281.599.513.772.232.173.535.26.909.26.369 0 .668-.087.896-.26.232-.173.401-.431.506-.772.109-.342.164-.764.164-1.265 0-.506-.055-.925-.164-1.258-.105-.337-.274-.59-.506-.759-.233-.168-.536-.252-.909-.252-.552 0-.953.189-1.204.567-.246.378-.369.946-.369 1.702Zm11.348-3.951c.816 0 1.472.223 1.969.67.496.442.745 1.153.745 2.133V177h-2.085v-4.464c0-.547-.1-.959-.301-1.237-.196-.278-.506-.417-.93-.417-.638 0-1.073.216-1.305.649-.233.433-.349 1.058-.349 1.873V177h-2.085v-7.643h1.593l.28.978h.116c.164-.264.367-.479.609-.643.246-.164.517-.284.813-.362.301-.077.611-.116.93-.116ZM321.492 177l-.588-2.673a23.617 23.617 0 0 0-.157-.704c-.073-.314-.153-.649-.239-1.005-.082-.36-.16-.693-.233-.998a217.2 217.2 0 0 0-.15-.67h-.062l-.15.67c-.068.305-.146.638-.232.998l-.233 1.019c-.073.314-.127.553-.164.717l-.615 2.646h-2.242l-2.174-7.643h2.078l.882 3.384c.059.237.116.52.171.848.054.323.102.638.143.943.046.301.08.54.103.718h.055c.009-.132.027-.308.054-.526.032-.219.066-.445.103-.677l.109-.636c.037-.191.064-.321.082-.39l.944-3.664h2.296l.896 3.664c.032.133.073.342.123.629.055.288.103.584.144.889.041.301.063.538.068.711h.055a32.73 32.73 0 0 1 .253-1.647c.063-.338.127-.625.191-.862l.916-3.384h2.044L323.762 177h-2.27Zm7.793-7.643V177H327.2v-7.643h2.085Zm-1.039-2.994c.31 0 .577.073.8.219.223.141.335.408.335.8 0 .387-.112.656-.335.806-.223.146-.49.219-.8.219-.314 0-.583-.073-.807-.219-.218-.15-.328-.419-.328-.806 0-.392.11-.659.328-.8.224-.146.493-.219.807-.219Zm6.453 9.113c.228 0 .449-.023.663-.069.219-.045.436-.102.65-.171v1.552a3.86 3.86 0 0 1-.834.246 5.253 5.253 0 0 1-1.08.103c-.456 0-.866-.073-1.231-.219a1.747 1.747 0 0 1-.854-.772c-.205-.37-.308-.882-.308-1.539v-3.684h-.998v-.882l1.148-.697.602-1.614h1.333v1.627h2.14v1.566h-2.14v3.684c0 .292.082.511.246.657.169.141.39.212.663.212Zm4.949-9.113v2.167c0 .379-.013.739-.041 1.08-.022.342-.041.584-.054.725h.109c.164-.264.358-.479.581-.643.228-.164.479-.284.752-.362.274-.077.567-.116.882-.116.551 0 1.032.098 1.442.294.41.191.73.494.957.909.228.41.342.943.342 1.6V177h-2.085v-4.464c0-.547-.1-.959-.301-1.237-.2-.278-.51-.417-.929-.417-.42 0-.75.098-.991.294-.242.191-.413.476-.513.854-.1.374-.151.832-.151 1.374V177h-2.085v-10.637h2.085Zm17.699 6.802c0 .638-.087 1.203-.26 1.695-.169.493-.417.91-.745 1.251a3.13 3.13 0 0 1-1.176.766 4.33 4.33 0 0 1-1.545.26 4.107 4.107 0 0 1-1.483-.26 3.276 3.276 0 0 1-1.169-.766 3.554 3.554 0 0 1-.766-1.251c-.178-.492-.266-1.057-.266-1.695 0-.848.15-1.565.451-2.153a3.09 3.09 0 0 1 1.285-1.34c.556-.305 1.219-.458 1.989-.458.716 0 1.349.153 1.9.458.556.305.992.752 1.306 1.34.319.588.479 1.305.479 2.153Zm-5.285 0c0 .501.055.923.165 1.265.109.341.28.599.512.772.233.173.536.26.909.26.37 0 .668-.087.896-.26.232-.173.401-.431.506-.772.109-.342.164-.764.164-1.265 0-.506-.055-.925-.164-1.258-.105-.337-.274-.59-.506-.759-.232-.168-.536-.252-.909-.252-.552 0-.953.189-1.203.567-.246.378-.37.946-.37 1.702Zm11.348-3.951c.816 0 1.472.223 1.969.67.497.442.745 1.153.745 2.133V177h-2.085v-4.464c0-.547-.1-.959-.301-1.237-.196-.278-.506-.417-.929-.417-.638 0-1.074.216-1.306.649-.232.433-.349 1.058-.349 1.873V177h-2.085v-7.643h1.593l.28.978h.117c.164-.264.366-.479.608-.643.246-.164.517-.284.813-.362.301-.077.611-.116.93-.116Zm4.184 4.888v-1.709h3.671v1.709h-3.671Zm-145.052 17.112c.861 0 1.556.335 2.085 1.005.533.67.8 1.652.8 2.946 0 .866-.126 1.595-.376 2.188-.251.587-.597 1.032-1.039 1.333-.442.3-.95.451-1.525.451-.369 0-.686-.046-.95-.137a2.454 2.454 0 0 1-.677-.362 3.286 3.286 0 0 1-.485-.479h-.109a5.868 5.868 0 0 1 .109 1.121v3.083h-2.085v-11.006h1.695l.294.992h.096c.137-.205.303-.395.499-.568a2.19 2.19 0 0 1 .704-.41c.278-.105.599-.157.964-.157Zm-.67 1.668c-.365 0-.654.075-.868.225-.214.151-.372.376-.472.677-.095.301-.148.681-.157 1.142v.225c0 .493.046.91.137 1.251.095.342.253.602.471.78.224.177.529.266.916.266.319 0 .581-.089.787-.266.205-.178.357-.438.458-.78.104-.346.157-.768.157-1.264 0-.748-.116-1.311-.349-1.689-.232-.378-.592-.567-1.08-.567Zm9.543-1.668c.105 0 .226.007.362.02.142.009.256.023.342.041l-.157 1.955a1.301 1.301 0 0 0-.294-.047 2.888 2.888 0 0 0-1.107.082 1.91 1.91 0 0 0-.677.335 1.58 1.58 0 0 0-.479.601c-.114.246-.171.549-.171.909V199h-2.085v-7.643h1.58l.307 1.286h.103c.15-.26.337-.497.56-.711.228-.219.486-.392.773-.52.291-.132.606-.198.943-.198Zm5.243 0c.707 0 1.315.137 1.825.41.511.269.905.661 1.183 1.176.278.515.417 1.144.417 1.887v1.011h-4.929c.023.588.199 1.051.527 1.388.332.333.793.499 1.381.499.487 0 .934-.05 1.339-.15a6.822 6.822 0 0 0 1.251-.452v1.614a4.966 4.966 0 0 1-1.189.41c-.41.086-.909.13-1.497.13-.766 0-1.445-.142-2.037-.424a3.164 3.164 0 0 1-1.388-1.292c-.333-.579-.499-1.308-.499-2.188 0-.893.15-1.636.451-2.228.306-.597.729-1.044 1.272-1.34.542-.301 1.173-.451 1.893-.451Zm.014 1.483c-.406 0-.743.13-1.012.39-.264.26-.417.668-.458 1.224h2.926a2.08 2.08 0 0 0-.171-.828 1.286 1.286 0 0 0-.478-.574c-.21-.141-.479-.212-.807-.212Zm14.082-1.483c.866 0 1.52.223 1.962.67.446.442.67 1.153.67 2.133V199h-2.092v-4.464c0-.547-.093-.959-.28-1.237-.187-.278-.477-.417-.868-.417-.552 0-.944.198-1.176.595-.233.391-.349.954-.349 1.688V199h-2.085v-4.464c0-.364-.041-.67-.123-.916-.082-.246-.207-.431-.376-.554-.169-.123-.385-.184-.649-.184-.388 0-.693.098-.916.294-.219.191-.376.476-.472.854-.091.374-.137.832-.137 1.374V199h-2.085v-7.643h1.593l.28.978h.117c.155-.264.348-.479.581-.643.237-.164.496-.284.779-.362a3.26 3.26 0 0 1 .861-.116c.561 0 1.035.091 1.422.273.392.183.693.465.902.848h.185a2 2 0 0 1 .964-.855c.419-.177.85-.266 1.292-.266Zm6.863.143V199h-2.085v-7.643h2.085Zm-1.039-2.994c.31 0 .577.073.8.219.223.141.335.408.335.8 0 .387-.112.656-.335.806-.223.146-.49.219-.8.219-.314 0-.583-.073-.807-.219-.218-.15-.328-.419-.328-.806 0-.392.11-.659.328-.8.224-.146.493-.219.807-.219Zm8.566 8.367c0 .52-.123.96-.37 1.32-.241.355-.603.626-1.086.813-.484.183-1.085.274-1.805.274-.533 0-.991-.034-1.374-.103a5.628 5.628 0 0 1-1.149-.342v-1.722c.415.187.859.342 1.333.465a5.35 5.35 0 0 0 1.258.177c.406 0 .695-.059.868-.177a.574.574 0 0 0 .158-.821c-.069-.105-.219-.221-.452-.348a11.126 11.126 0 0 0-1.093-.513 7.262 7.262 0 0 1-1.183-.608 2.079 2.079 0 0 1-.684-.725c-.145-.283-.218-.64-.218-1.073 0-.707.273-1.238.82-1.593.551-.36 1.287-.54 2.208-.54.474 0 .925.048 1.354.143.432.096.877.249 1.333.458l-.629 1.504a10.733 10.733 0 0 0-1.074-.403 3.36 3.36 0 0 0-1.018-.157c-.306 0-.536.041-.691.123a.4.4 0 0 0-.232.376.51.51 0 0 0 .116.328c.082.096.237.203.465.321.232.114.572.262 1.019.445.433.177.808.364 1.128.56.319.192.565.431.738.718.173.282.26.649.26 1.1Zm4.778-5.516c.706 0 1.315.137 1.825.41.51.269.905.661 1.183 1.176.278.515.417 1.144.417 1.887v1.011h-4.929c.023.588.198 1.051.526 1.388.333.333.793.499 1.381.499.488 0 .934-.05 1.34-.15a6.822 6.822 0 0 0 1.251-.452v1.614a4.981 4.981 0 0 1-1.189.41 7.43 7.43 0 0 1-1.498.13c-.765 0-1.444-.142-2.037-.424a3.162 3.162 0 0 1-1.387-1.292c-.333-.579-.499-1.308-.499-2.188 0-.893.15-1.636.451-2.228.305-.597.729-1.044 1.271-1.34.543-.301 1.174-.451 1.894-.451Zm.014 1.483c-.406 0-.743.13-1.012.39-.264.26-.417.668-.458 1.224h2.926a2.08 2.08 0 0 0-.171-.828 1.289 1.289 0 0 0-.479-.574c-.209-.141-.478-.212-.806-.212Zm10.438 4.033c0 .52-.123.96-.369 1.32-.242.355-.604.626-1.087.813-.483.183-1.085.274-1.805.274-.533 0-.991-.034-1.374-.103a5.6 5.6 0 0 1-1.148-.342v-1.722c.415.187.859.342 1.333.465.478.118.898.177 1.258.177.405 0 .695-.059.868-.177a.56.56 0 0 0 .266-.479.567.567 0 0 0-.109-.342c-.068-.105-.219-.221-.451-.348a11.168 11.168 0 0 0-1.094-.513 7.304 7.304 0 0 1-1.183-.608 2.066 2.066 0 0 1-.683-.725c-.146-.283-.219-.64-.219-1.073 0-.707.274-1.238.82-1.593.552-.36 1.288-.54 2.208-.54.474 0 .926.048 1.354.143.433.096.877.249 1.333.458l-.629 1.504a10.72 10.72 0 0 0-1.073-.403 3.366 3.366 0 0 0-1.019-.157c-.305 0-.535.041-.69.123a.4.4 0 0 0-.233.376c0 .123.039.232.117.328.082.096.237.203.464.321.233.114.572.262 1.019.445.433.177.809.364 1.128.56.319.192.565.431.738.718.173.282.26.649.26 1.1Zm8.415-5.516c.706 0 1.315.137 1.825.41.511.269.905.661 1.183 1.176.278.515.417 1.144.417 1.887v1.011h-4.929c.023.588.198 1.051.527 1.388.332.333.792.499 1.38.499.488 0 .935-.05 1.34-.15a6.822 6.822 0 0 0 1.251-.452v1.614a4.981 4.981 0 0 1-1.189.41c-.41.086-.909.13-1.497.13-.766 0-1.445-.142-2.037-.424a3.164 3.164 0 0 1-1.388-1.292c-.333-.579-.499-1.308-.499-2.188 0-.893.15-1.636.451-2.228.305-.597.729-1.044 1.272-1.34.542-.301 1.173-.451 1.893-.451Zm.014 1.483c-.406 0-.743.13-1.012.39-.264.26-.417.668-.458 1.224h2.926a2.08 2.08 0 0 0-.171-.828 1.282 1.282 0 0 0-.479-.574c-.209-.141-.478-.212-.806-.212Zm9.447-1.483c.816 0 1.472.223 1.969.67.496.442.745 1.153.745 2.133V199h-2.085v-4.464c0-.547-.1-.959-.301-1.237-.196-.278-.506-.417-.93-.417-.638 0-1.073.216-1.305.649-.233.433-.349 1.058-.349 1.873V199h-2.085v-7.643h1.593l.28.978h.116c.164-.264.367-.479.609-.643.246-.164.517-.284.813-.362.301-.077.611-.116.93-.116Zm6.679 7.786-2.912-7.643h2.18l1.477 4.355c.082.255.146.524.191.807.05.282.085.535.103.758h.054c.014-.241.046-.499.096-.772.055-.274.125-.538.212-.793l1.47-4.355h2.18L307.068 199h-2.139Zm8.237-7.643V199h-2.085v-7.643h2.085Zm-1.039-2.994c.31 0 .576.073.8.219.223.141.335.408.335.8 0 .387-.112.656-.335.806a1.43 1.43 0 0 1-.8.219c-.315 0-.583-.073-.807-.219-.218-.15-.328-.419-.328-.806 0-.392.11-.659.328-.8.224-.146.492-.219.807-.219Zm7.499 2.851c.105 0 .226.007.362.02.142.009.255.023.342.041l-.157 1.955a1.312 1.312 0 0 0-.294-.047 2.888 2.888 0 0 0-1.108.082c-.25.068-.476.18-.676.335a1.58 1.58 0 0 0-.479.601c-.114.246-.171.549-.171.909V199h-2.085v-7.643h1.579l.308 1.286h.103c.15-.26.337-.497.56-.711.228-.219.486-.392.773-.52.291-.132.606-.198.943-.198Zm9.037 3.951c0 .638-.087 1.203-.26 1.695-.168.493-.417.91-.745 1.251a3.114 3.114 0 0 1-1.176.766 4.32 4.32 0 0 1-1.544.26 4.112 4.112 0 0 1-1.484-.26 3.285 3.285 0 0 1-1.169-.766 3.552 3.552 0 0 1-.765-1.251c-.178-.492-.267-1.057-.267-1.695 0-.848.15-1.565.451-2.153a3.095 3.095 0 0 1 1.285-1.34c.556-.305 1.219-.458 1.99-.458.715 0 1.348.153 1.9.458.556.305.991.752 1.306 1.34.319.588.478 1.305.478 2.153Zm-5.284 0c0 .501.055.923.164 1.265.109.341.28.599.513.772.232.173.535.26.909.26.369 0 .667-.087.895-.26.233-.173.401-.431.506-.772.11-.342.164-.764.164-1.265 0-.506-.054-.925-.164-1.258-.105-.337-.273-.59-.506-.759-.232-.168-.535-.252-.909-.252-.551 0-.952.189-1.203.567-.246.378-.369.946-.369 1.702Zm11.348-3.951c.815 0 1.472.223 1.968.67.497.442.745 1.153.745 2.133V199h-2.085v-4.464c0-.547-.1-.959-.3-1.237-.196-.278-.506-.417-.93-.417-.638 0-1.073.216-1.306.649-.232.433-.348 1.058-.348 1.873V199h-2.085v-7.643h1.593l.28.978h.116c.164-.264.367-.479.608-.643.246-.164.518-.284.814-.362.301-.077.611-.116.93-.116Zm13.835 0c.866 0 1.52.223 1.962.67.447.442.67 1.153.67 2.133V199h-2.091v-4.464c0-.547-.094-.959-.281-1.237-.187-.278-.476-.417-.868-.417-.551 0-.943.198-1.176.595-.232.391-.348.954-.348 1.688V199h-2.085v-4.464c0-.364-.041-.67-.123-.916-.082-.246-.208-.431-.376-.554-.169-.123-.385-.184-.65-.184-.387 0-.692.098-.916.294-.218.191-.376.476-.471.854-.092.374-.137.832-.137 1.374V199h-2.085v-7.643h1.593l.28.978h.116c.155-.264.349-.479.581-.643a2.55 2.55 0 0 1 .78-.362c.282-.077.569-.116.861-.116.56 0 1.034.091 1.422.273.392.183.692.465.902.848h.185a2 2 0 0 1 .964-.855 3.287 3.287 0 0 1 1.291-.266Zm7.93 0c.707 0 1.315.137 1.825.41.511.269.905.661 1.183 1.176.278.515.417 1.144.417 1.887v1.011h-4.929c.023.588.199 1.051.527 1.388.332.333.793.499 1.381.499.487 0 .934-.05 1.339-.15a6.822 6.822 0 0 0 1.251-.452v1.614a4.966 4.966 0 0 1-1.189.41c-.41.086-.909.13-1.497.13-.766 0-1.445-.142-2.037-.424a3.164 3.164 0 0 1-1.388-1.292c-.333-.579-.499-1.308-.499-2.188 0-.893.15-1.636.451-2.228.305-.597.729-1.044 1.272-1.34.542-.301 1.173-.451 1.893-.451Zm.014 1.483c-.406 0-.743.13-1.012.39-.264.26-.417.668-.458 1.224h2.926a2.08 2.08 0 0 0-.171-.828 1.282 1.282 0 0 0-.479-.574c-.209-.141-.478-.212-.806-.212Zm9.447-1.483c.816 0 1.472.223 1.969.67.497.442.745 1.153.745 2.133V199h-2.085v-4.464c0-.547-.1-.959-.301-1.237-.196-.278-.506-.417-.929-.417-.638 0-1.074.216-1.306.649-.233.433-.349 1.058-.349 1.873V199h-2.085v-7.643h1.593l.28.978h.117c.164-.264.366-.479.608-.643.246-.164.517-.284.813-.362.301-.077.611-.116.93-.116Zm8.08 6.262c.228 0 .449-.023.663-.069.219-.045.436-.102.65-.171v1.552a3.86 3.86 0 0 1-.834.246 5.253 5.253 0 0 1-1.08.103c-.456 0-.866-.073-1.231-.219a1.747 1.747 0 0 1-.854-.772c-.205-.37-.308-.882-.308-1.539v-3.684h-.998v-.882l1.148-.697.602-1.614h1.333v1.627h2.14v1.566h-2.14v3.684c0 .292.082.511.246.657.169.141.39.212.663.212Zm-116.546 15.881V221h-2.085v-7.643h2.085Zm-1.039-2.994c.31 0 .577.073.8.219.223.141.335.408.335.8 0 .387-.112.656-.335.806-.223.146-.49.219-.8.219a1.44 1.44 0 0 1-.806-.219c-.219-.15-.329-.419-.329-.806 0-.392.11-.659.329-.8a1.44 1.44 0 0 1 .806-.219Zm7.574 2.851c.816 0 1.472.223 1.969.67.497.442.745 1.153.745 2.133V221h-2.085v-4.464c0-.547-.1-.959-.3-1.237-.196-.278-.506-.417-.93-.417-.638 0-1.073.216-1.306.649-.232.433-.348 1.058-.348 1.873V221h-2.085v-7.643h1.592l.281.978h.116c.164-.264.367-.479.608-.643.246-.164.518-.284.814-.362a3.73 3.73 0 0 1 .929-.116Zm9.085 1.709h-1.804V221h-2.085v-6.077h-1.149v-1.005l1.149-.561v-.56c0-.652.109-1.158.328-1.518.223-.364.535-.619.936-.765.406-.151.885-.226 1.436-.226.406 0 .775.034 1.107.103.333.063.604.136.814.218l-.533 1.532a5.821 5.821 0 0 0-.52-.137 3.013 3.013 0 0 0-.642-.062c-.292 0-.506.089-.643.267-.132.173-.198.396-.198.67v.478h1.804v1.566Zm8.149 2.242c0 .638-.087 1.203-.26 1.695-.169.493-.417.91-.745 1.251a3.13 3.13 0 0 1-1.176.766 4.33 4.33 0 0 1-1.545.26 4.11 4.11 0 0 1-1.483-.26 3.285 3.285 0 0 1-1.169-.766 3.568 3.568 0 0 1-.766-1.251c-.177-.492-.266-1.057-.266-1.695 0-.848.15-1.565.451-2.153a3.095 3.095 0 0 1 1.285-1.34c.556-.305 1.219-.458 1.989-.458.716 0 1.349.153 1.901.458.556.305.991.752 1.305 1.34.319.588.479 1.305.479 2.153Zm-5.284 0c0 .501.054.923.164 1.265.109.341.28.599.512.772.233.173.536.26.91.26.369 0 .667-.087.895-.26.233-.173.401-.431.506-.772.109-.342.164-.764.164-1.265 0-.506-.055-.925-.164-1.258-.105-.337-.273-.59-.506-.759-.232-.168-.535-.252-.909-.252-.551 0-.953.189-1.203.567-.246.378-.369.946-.369 1.702Zm11.272-3.951c.105 0 .226.007.362.02.142.009.256.023.342.041l-.157 1.955a1.301 1.301 0 0 0-.294-.047 2.888 2.888 0 0 0-1.107.082 1.91 1.91 0 0 0-.677.335 1.58 1.58 0 0 0-.479.601c-.114.246-.171.549-.171.909V221h-2.084v-7.643h1.579l.307 1.286h.103c.15-.26.337-.497.56-.711.228-.219.486-.392.773-.52.291-.132.606-.198.943-.198Zm11.068 0c.865 0 1.519.223 1.961.67.447.442.67 1.153.67 2.133V221h-2.091v-4.464c0-.547-.094-.959-.281-1.237-.187-.278-.476-.417-.868-.417-.551 0-.943.198-1.176.595-.232.391-.348.954-.348 1.688V221h-2.085v-4.464c0-.364-.041-.67-.123-.916-.082-.246-.208-.431-.376-.554-.169-.123-.385-.184-.65-.184-.387 0-.692.098-.916.294-.218.191-.376.476-.471.854-.092.374-.137.832-.137 1.374V221h-2.085v-7.643h1.593l.28.978h.116c.155-.264.349-.479.581-.643a2.55 2.55 0 0 1 .78-.362c.282-.077.569-.116.861-.116.56 0 1.034.091 1.422.273.392.183.692.465.902.848h.185a2 2 0 0 1 .964-.855 3.288 3.288 0 0 1 1.292-.266Zm7.909-.014c1.025 0 1.811.224 2.358.67.547.447.82 1.126.82 2.037V221h-1.456l-.403-1.039h-.055a3.852 3.852 0 0 1-.67.67 2.286 2.286 0 0 1-.786.383 4.095 4.095 0 0 1-1.08.123c-.451 0-.857-.087-1.217-.26a1.934 1.934 0 0 1-.84-.793c-.205-.36-.308-.816-.308-1.367 0-.811.285-1.408.854-1.791.57-.388 1.425-.602 2.564-.643l1.326-.041v-.335c0-.401-.105-.695-.314-.882-.21-.186-.502-.28-.875-.28-.369 0-.732.053-1.087.157a8.39 8.39 0 0 0-1.067.397l-.69-1.408a5.898 5.898 0 0 1 1.36-.506 6.606 6.606 0 0 1 1.566-.185Zm1.107 4.259-.807.027c-.674.019-1.143.139-1.408.363a1.107 1.107 0 0 0-.389.881c0 .319.093.547.28.684.187.132.431.198.731.198.447 0 .823-.132 1.128-.396.31-.265.465-.64.465-1.128v-.629Zm7.444 2.017c.228 0 .449-.023.664-.069.218-.045.435-.102.649-.171v1.552c-.223.1-.501.182-.834.246a5.253 5.253 0 0 1-1.08.103c-.456 0-.866-.073-1.231-.219a1.751 1.751 0 0 1-.854-.772c-.205-.37-.308-.882-.308-1.539v-3.684h-.998v-.882l1.149-.697.601-1.614h1.333v1.627h2.14v1.566h-2.14v3.684c0 .292.082.511.246.657.169.141.39.212.663.212Zm4.95-6.119V221h-2.085v-7.643h2.085Zm-1.039-2.994c.31 0 .576.073.799.219.224.141.335.408.335.8 0 .387-.111.656-.335.806a1.425 1.425 0 0 1-.799.219 1.44 1.44 0 0 1-.807-.219c-.219-.15-.328-.419-.328-.806 0-.392.109-.659.328-.8a1.44 1.44 0 0 1 .807-.219Zm10.178 6.802c0 .638-.086 1.203-.259 1.695-.169.493-.417.91-.746 1.251a3.118 3.118 0 0 1-1.175.766 4.33 4.33 0 0 1-1.545.26 4.116 4.116 0 0 1-1.484-.26 3.294 3.294 0 0 1-1.169-.766 3.552 3.552 0 0 1-.765-1.251c-.178-.492-.267-1.057-.267-1.695 0-.848.151-1.565.451-2.153a3.097 3.097 0 0 1 1.286-1.34c.555-.305 1.219-.458 1.989-.458.715 0 1.349.153 1.9.458.556.305.991.752 1.306 1.34.319.588.478 1.305.478 2.153Zm-5.284 0c0 .501.055.923.164 1.265.11.341.28.599.513.772.232.173.535.26.909.26.369 0 .668-.087.896-.26.232-.173.401-.431.505-.772.11-.342.165-.764.165-1.265 0-.506-.055-.925-.165-1.258-.104-.337-.273-.59-.505-.759-.233-.168-.536-.252-.91-.252-.551 0-.952.189-1.203.567-.246.378-.369.946-.369 1.702Zm11.348-3.951c.816 0 1.472.223 1.969.67.496.442.745 1.153.745 2.133V221h-2.085v-4.464c0-.547-.101-.959-.301-1.237-.196-.278-.506-.417-.93-.417-.638 0-1.073.216-1.305.649-.233.433-.349 1.058-.349 1.873V221h-2.085v-7.643h1.593l.28.978h.116c.164-.264.367-.479.609-.643.246-.164.517-.284.813-.362.301-.077.611-.116.93-.116ZM446.269 146.626c-.406 0-.766.08-1.081.239a2.164 2.164 0 0 0-.786.677 3.273 3.273 0 0 0-.478 1.073c-.11.42-.164.891-.164 1.415 0 .707.086 1.31.26 1.812.177.497.451.877.82 1.141.369.26.845.39 1.429.39.405 0 .811-.046 1.216-.137a11.64 11.64 0 0 0 1.333-.389v1.777a6.48 6.48 0 0 1-1.305.39 7.712 7.712 0 0 1-1.443.123c-1.03 0-1.877-.212-2.543-.636-.66-.428-1.15-1.025-1.469-1.791-.319-.77-.479-1.668-.479-2.693 0-.757.103-1.45.308-2.079a4.714 4.714 0 0 1 .902-1.633 3.983 3.983 0 0 1 1.47-1.067c.583-.25 1.253-.376 2.01-.376.496 0 .993.064 1.49.192.501.123.98.294 1.435.512l-.683 1.723c-.374-.178-.75-.333-1.128-.465a3.369 3.369 0 0 0-1.114-.198Zm8.784.588c.105 0 .225.007.362.02.141.009.255.023.342.041l-.157 1.955a1.322 1.322 0 0 0-.294-.047 2.89 2.89 0 0 0-1.108.082c-.25.068-.476.18-.677.335-.2.15-.36.351-.478.601-.114.246-.171.549-.171.909V155h-2.085v-7.643h1.579l.308 1.286h.102c.151-.26.338-.497.561-.711.228-.219.485-.392.772-.52.292-.132.606-.198.944-.198Zm5.243 0c.706 0 1.315.137 1.825.41.511.269.905.661 1.183 1.176.278.515.417 1.144.417 1.887v1.011h-4.929c.023.588.198 1.051.526 1.388.333.333.793.499 1.381.499.488 0 .934-.05 1.34-.15a6.822 6.822 0 0 0 1.251-.452v1.614a4.981 4.981 0 0 1-1.189.41c-.411.086-.91.13-1.497.13-.766 0-1.445-.142-2.038-.424a3.167 3.167 0 0 1-1.387-1.292c-.333-.579-.499-1.308-.499-2.188 0-.893.15-1.636.451-2.228.305-.597.729-1.044 1.271-1.34.543-.301 1.174-.451 1.894-.451Zm.014 1.483c-.406 0-.743.13-1.012.39-.264.26-.417.668-.458 1.224h2.926a2.08 2.08 0 0 0-.171-.828 1.289 1.289 0 0 0-.479-.574c-.209-.141-.478-.212-.806-.212Zm8.237-1.497c1.025 0 1.811.224 2.358.67.547.447.821 1.126.821 2.037V155h-1.456l-.404-1.039h-.054a3.923 3.923 0 0 1-.67.67 2.3 2.3 0 0 1-.787.383 4.095 4.095 0 0 1-1.08.123c-.451 0-.856-.087-1.216-.26a1.931 1.931 0 0 1-.841-.793c-.205-.36-.308-.816-.308-1.367 0-.811.285-1.408.855-1.791.569-.388 1.424-.602 2.563-.643l1.326-.041v-.335c0-.401-.105-.695-.314-.882-.21-.186-.501-.28-.875-.28-.369 0-.732.053-1.087.157a8.32 8.32 0 0 0-1.066.397l-.691-1.408a5.898 5.898 0 0 1 1.36-.506 6.606 6.606 0 0 1 1.566-.185Zm1.107 4.259-.806.027c-.675.019-1.144.139-1.409.363a1.107 1.107 0 0 0-.389.881c0 .319.093.547.28.684.187.132.431.198.732.198.446 0 .822-.132 1.127-.396.31-.265.465-.64.465-1.128v-.629Zm7.445 2.017c.227 0 .449-.023.663-.069.218-.045.435-.102.649-.171v1.552c-.223.1-.501.182-.834.246a5.253 5.253 0 0 1-1.08.103 3.28 3.28 0 0 1-1.23-.219 1.753 1.753 0 0 1-.855-.772c-.205-.37-.308-.882-.308-1.539v-3.684h-.998v-.882l1.149-.697.601-1.614h1.333v1.627h2.14v1.566h-2.14v3.684c0 .292.082.511.247.657.168.141.389.212.663.212Zm6.015-6.262c.707 0 1.315.137 1.825.41.511.269.905.661 1.183 1.176.278.515.417 1.144.417 1.887v1.011h-4.929c.023.588.199 1.051.527 1.388.332.333.793.499 1.381.499.487 0 .934-.05 1.339-.15a6.822 6.822 0 0 0 1.251-.452v1.614a4.966 4.966 0 0 1-1.189.41c-.41.086-.909.13-1.497.13-.766 0-1.445-.142-2.037-.424a3.164 3.164 0 0 1-1.388-1.292c-.333-.579-.499-1.308-.499-2.188 0-.893.15-1.636.451-2.228.306-.597.729-1.044 1.272-1.34.542-.301 1.173-.451 1.893-.451Zm.014 1.483c-.406 0-.743.13-1.012.39-.264.26-.417.668-.458 1.224h2.926a2.08 2.08 0 0 0-.171-.828 1.286 1.286 0 0 0-.478-.574c-.21-.141-.479-.212-.807-.212Zm11.874-1.497c1.025 0 1.811.224 2.358.67.547.447.821 1.126.821 2.037V155h-1.456l-.404-1.039h-.054a3.887 3.887 0 0 1-.67.67c-.228.173-.49.301-.786.383a4.109 4.109 0 0 1-1.081.123c-.451 0-.856-.087-1.216-.26a1.931 1.931 0 0 1-.841-.793c-.205-.36-.308-.816-.308-1.367 0-.811.285-1.408.855-1.791.569-.388 1.424-.602 2.563-.643l1.326-.041v-.335c0-.401-.104-.695-.314-.882-.21-.186-.501-.28-.875-.28-.369 0-.732.053-1.087.157a8.377 8.377 0 0 0-1.066.397l-.691-1.408a5.89 5.89 0 0 1 1.361-.506 6.592 6.592 0 0 1 1.565-.185Zm1.107 4.259-.806.027c-.675.019-1.144.139-1.408.363-.26.223-.39.517-.39.881 0 .319.093.547.28.684.187.132.431.198.732.198.446 0 .822-.132 1.128-.396.309-.265.464-.64.464-1.128v-.629Zm10.965 3.678c-.756 0-1.401-.137-1.934-.41-.534-.278-.939-.707-1.217-1.286-.278-.578-.417-1.319-.417-2.221 0-.935.157-1.696.472-2.283.319-.593.758-1.028 1.319-1.306.565-.278 1.219-.417 1.962-.417.528 0 .984.052 1.367.157.387.1.725.221 1.012.362l-.616 1.614a9.73 9.73 0 0 0-.916-.322 2.894 2.894 0 0 0-.847-.129c-.365 0-.668.086-.909.259-.242.169-.422.424-.54.766-.119.342-.178.77-.178 1.285 0 .506.064.925.191 1.258.128.333.312.581.554.745.241.159.535.239.882.239.433 0 .818-.057 1.155-.171.337-.118.665-.282.984-.492v1.784a3.423 3.423 0 0 1-1.004.431c-.347.091-.787.137-1.32.137Zm6.187-.137h-2.085v-10.637h2.085V155Zm9.208-7.643V155h-1.6l-.28-.978h-.11a2.1 2.1 0 0 1-.615.636 2.69 2.69 0 0 1-.813.363 3.654 3.654 0 0 1-.923.116c-.547 0-1.023-.096-1.429-.287a2.13 2.13 0 0 1-.95-.91c-.223-.41-.335-.943-.335-1.599v-4.984h2.085v4.464c0 .547.098.96.294 1.238.196.278.508.417.936.417.424 0 .757-.096.999-.288.241-.195.41-.48.505-.854.101-.378.151-.839.151-1.381v-3.596h2.085Zm7.519 5.373c0 .52-.123.96-.369 1.32-.241.355-.604.626-1.087.813-.483.183-1.084.274-1.804.274-.534 0-.992-.034-1.374-.103a5.59 5.59 0 0 1-1.149-.342v-1.722c.415.187.859.342 1.333.465a5.35 5.35 0 0 0 1.258.177c.405 0 .695-.059.868-.177a.56.56 0 0 0 .267-.479.568.568 0 0 0-.11-.342c-.068-.105-.218-.221-.451-.348a11.055 11.055 0 0 0-1.094-.513 7.29 7.29 0 0 1-1.182-.608 2.07 2.07 0 0 1-.684-.725c-.146-.283-.219-.64-.219-1.073 0-.707.274-1.238.821-1.593.551-.36 1.287-.54 2.208-.54.474 0 .925.048 1.353.143.433.096.878.249 1.333.458l-.629 1.504a10.72 10.72 0 0 0-1.073-.403 3.364 3.364 0 0 0-1.018-.157c-.306 0-.536.041-.691.123a.4.4 0 0 0-.232.376c0 .123.038.232.116.328.082.096.237.203.465.321.232.114.572.262 1.018.445.433.177.809.364 1.128.56.319.192.565.431.739.718.173.282.259.649.259 1.1Zm4.847.746c.228 0 .449-.023.663-.069.219-.045.435-.102.649-.171v1.552c-.223.1-.501.182-.834.246a5.253 5.253 0 0 1-1.08.103c-.455 0-.865-.073-1.23-.219a1.753 1.753 0 0 1-.855-.772c-.205-.37-.307-.882-.307-1.539v-3.684h-.998v-.882l1.148-.697.602-1.614h1.333v1.627h2.139v1.566h-2.139v3.684c0 .292.082.511.246.657.168.141.39.212.663.212Zm6.016-6.262c.706 0 1.314.137 1.825.41.51.269.904.661 1.182 1.176.278.515.417 1.144.417 1.887v1.011h-4.928c.022.588.198 1.051.526 1.388.333.333.793.499 1.381.499.488 0 .934-.05 1.34-.15a6.875 6.875 0 0 0 1.251-.452v1.614a4.989 4.989 0 0 1-1.19.41c-.41.086-.909.13-1.497.13-.765 0-1.444-.142-2.037-.424a3.17 3.17 0 0 1-1.388-1.292c-.332-.579-.499-1.308-.499-2.188 0-.893.151-1.636.452-2.228.305-.597.729-1.044 1.271-1.34.542-.301 1.174-.451 1.894-.451Zm.013 1.483c-.405 0-.743.13-1.011.39-.265.26-.417.668-.458 1.224h2.925a2.046 2.046 0 0 0-.171-.828 1.28 1.28 0 0 0-.478-.574c-.21-.141-.479-.212-.807-.212Zm9.372-1.483c.105 0 .226.007.363.02.141.009.255.023.341.041l-.157 1.955a1.301 1.301 0 0 0-.294-.047 2.888 2.888 0 0 0-1.107.082c-.251.068-.476.18-.677.335-.2.15-.36.351-.478.601-.114.246-.171.549-.171.909V155h-2.085v-7.643h1.579l.307 1.286h.103c.15-.26.337-.497.561-.711a2.67 2.67 0 0 1 .772-.52c.292-.132.606-.198.943-.198Z" fill="#000"/></svg>