<svg id="eSrz5swA07v1" xmlns="http://www.w3.org/2000/svg" xmlns:xlink="http://www.w3.org/1999/xlink" viewBox="0 0 201 201" shape-rendering="geometricPrecision" text-rendering="geometricPrecision"><style><![CDATA[#eSrz5swA07v2_to {animation: eSrz5swA07v2_to__to 10000ms linear 2 normal forwards}@keyframes eSrz5swA07v2_to__to { 0% {transform: translate(103.073749px,143.358282px)} 61% {transform: translate(103.073749px,143.358282px)} 71% {transform: translate(103.073749px,189.92099px)} 100% {transform: translate(103.073749px,189.92099px)}} #eSrz5swA07v3_to {animation: eSrz5swA07v3_to__to 10000ms linear 2 normal forwards}@keyframes eSrz5swA07v3_to__to { 0% {transform: translate(84.513977px,132.890274px)} 51% {transform: translate(84.513977px,132.890274px)} 56% {transform: translate(84.513977px,174.729167px)} 61% {transform: translate(54.284656px,174.729167px)} 100% {transform: translate(54.284656px,174.729167px)}} #eSrz5swA07v4_to {animation: eSrz5swA07v4_to__to 10000ms linear 2 normal forwards}@keyframes eSrz5swA07v4_to__to { 0% {transform: translate(63.539149px,102.573696px)} 56% {transform: translate(63.539149px,102.573696px)} 66% {transform: translate(14.487636px,102.573696px)} 100% {transform: translate(14.487636px,102.573696px)}} #eSrz5swA07v5_to {animation: eSrz5swA07v5_to__to 10000ms linear 2 normal forwards}@keyframes eSrz5swA07v5_to__to { 0% {transform: translate(84.513977px,67.515777px)} 56% {transform: translate(84.513977px,67.515777px)} 61% {transform: translate(84.513977px,37.515777px)} 66% {transform: translate(54.513977px,37.515777px)} 100% {transform: translate(54.513977px,37.515777px)}} #eSrz5swA07v6_to {animation: eSrz5swA07v6_to__to 10000ms linear 2 normal forwards}@keyframes eSrz5swA07v6_to__to { 0% {transform: translate(60.239573px,81.70132px)} 51% {transform: translate(60.239573px,81.70132px)} 56% {transform: translate(27.239573px,81.70132px)} 61% {transform: translate(27.239573px,55.70132px)} 100% {transform: translate(27.239573px,55.70132px)}} #eSrz5swA07v7_to {animation: eSrz5swA07v7_to__to 10000ms linear 2 normal forwards}@keyframes eSrz5swA07v7_to__to { 0% {transform: translate(141.468857px,102.573696px)} 46% {transform: translate(141.468857px,102.573696px)} 56% {transform: translate(190.660545px,102.573696px)} 100% {transform: translate(190.660545px,102.573696px)}} #eSrz5swA07v8_to {animation: eSrz5swA07v8_to__to 10000ms linear 2 normal forwards}@keyframes eSrz5swA07v8_to__to { 0% {transform: translate(141.426799px,84.27504px)} 61% {transform: translate(141.426799px,84.27504px)} 66% {transform: translate(168.177844px,84.275098px)} 71% {transform: translate(168.177844px,58.275098px)} 100% {transform: translate(168.177844px,58.275098px)}} #eSrz5swA07v9_to {animation: eSrz5swA07v9_to__to 10000ms linear 2 normal forwards}@keyframes eSrz5swA07v9_to__to { 0% {transform: translate(119.843749px,132.613884px)} 56% {transform: translate(119.843749px,132.613884px)} 61% {transform: translate(119.843749px,168.149735px)} 66% {transform: translate(150.802715px,168.149735px)} 100% {transform: translate(150.802715px,168.149735px)}} #eSrz5swA07v10_to {animation: eSrz5swA07v10_to__to 10000ms linear 2 normal forwards}@keyframes eSrz5swA07v10_to__to { 0% {transform: translate(118.160197px,67.482213px)} 56% {transform: translate(118.160197px,67.482213px)} 61% {transform: translate(118.160197px,29.702122px)} 66% {transform: translate(149.724292px,29.702122px)} 100% {transform: translate(149.724292px,29.702122px)}} #eSrz5swA07v29_ts {animation: eSrz5swA07v29_ts__ts 10000ms linear 2 normal forwards}@keyframes eSrz5swA07v29_ts__ts { 0% {transform: translate(100.510204px,189.129842px) scale(1,1)} 70% {transform: translate(100.510204px,189.129842px) scale(1,1)} 74% {transform: translate(100.510204px,189.129842px) scale(1.25,1.25)} 77% {transform: translate(100.510204px,189.129842px) scale(1,1)} 100% {transform: translate(100.510204px,189.129842px) scale(1,1)}} #eSrz5swA07v35_ts {animation: eSrz5swA07v35_ts__ts 10000ms linear 2 normal forwards}@keyframes eSrz5swA07v35_ts__ts { 0% {transform: translate(50.786669px,173.627982px) scale(1,1)} 60% {transform: translate(50.786669px,173.627982px) scale(1,1)} 64% {transform: translate(50.786669px,173.627982px) scale(1.2,1.2)} 67% {transform: translate(50.786669px,173.627982px) scale(1,1)} 100% {transform: translate(50.786669px,173.627982px) scale(1,1)}} #eSrz5swA07v44_ts {animation: eSrz5swA07v44_ts__ts 10000ms linear 2 normal forwards}@keyframes eSrz5swA07v44_ts__ts { 0% {transform: translate(189.884289px,99.99995px) scale(1,1)} 56% {transform: translate(189.884289px,99.99995px) scale(1,1)} 60% {transform: translate(189.884289px,99.99995px) scale(1.25,1.25)} 63% {transform: translate(189.884289px,99.99995px) scale(1,1)} 100% {transform: translate(189.884289px,99.99995px) scale(1,1)}} #eSrz5swA07v47_ts {animation: eSrz5swA07v47_ts__ts 10000ms linear 2 normal forwards}@keyframes eSrz5swA07v47_ts__ts { 0% {transform: translate(166.942954px,54.797269px) scale(1,1)} 70% {transform: translate(166.942954px,54.797269px) scale(1,1)} 74% {transform: translate(166.942954px,54.797269px) scale(1.25,1.25)} 77% {transform: translate(166.942954px,54.797269px) scale(1,1)} 100% {transform: translate(166.942954px,54.797269px) scale(1,1)}} #eSrz5swA07v50_ts {animation: eSrz5swA07v50_ts__ts 10000ms linear 2 normal forwards}@keyframes eSrz5swA07v50_ts__ts { 0% {transform: translate(10.116015px,99.99995px) scale(1,1)} 66% {transform: translate(10.116015px,99.99995px) scale(1,1)} 70% {transform: translate(10.116015px,99.99995px) scale(1.25,1.25)} 73% {transform: translate(10.116015px,99.99995px) scale(1,1)} 100% {transform: translate(10.116015px,99.99995px) scale(1,1)}} #eSrz5swA07v53_ts {animation: eSrz5swA07v53_ts__ts 10000ms linear 2 normal forwards}@keyframes eSrz5swA07v53_ts__ts { 0% {transform: translate(25.754666px,54.797269px) scale(1,1)} 60% {transform: translate(25.754666px,54.797269px) scale(1,1)} 64% {transform: translate(25.754666px,54.797269px) scale(1.25,1.25)} 67% {transform: translate(25.754666px,54.797269px) scale(1,1)} 100% {transform: translate(25.754666px,54.797269px) scale(1,1)}} #eSrz5swA07v56_ts {animation: eSrz5swA07v56_ts__ts 10000ms linear 2 normal forwards}@keyframes eSrz5swA07v56_ts__ts { 0% {transform: translate(50.725415px,32.173047px) scale(1,1)} 66% {transform: translate(50.725415px,32.173047px) scale(1,1)} 70% {transform: translate(50.725415px,32.173047px) scale(1.25,1.25)} 73% {transform: translate(50.725415px,32.173047px) scale(1,1)} 100% {transform: translate(50.725415px,32.173047px) scale(1,1)}} #eSrz5swA07v62_ts {animation: eSrz5swA07v62_ts__ts 10000ms linear 2 normal forwards}@keyframes eSrz5swA07v62_ts__ts { 0% {transform: translate(149.830709px,25.058196px) scale(1,1)} 66% {transform: translate(149.830709px,25.058196px) scale(1,1)} 70% {transform: translate(149.830709px,25.058196px) scale(1.25,1.25)} 73% {transform: translate(149.830709px,25.058196px) scale(1,1)} 100% {transform: translate(149.830709px,25.058196px) scale(1,1)}}]]></style><g id="eSrz5swA07v2_to" transform="translate(103.073749,143.358282)"><ellipse id="eSrz5swA07v2" rx="8.385" ry="8.385" transform="translate(-2.573749,-2.573749)" fill="rgb(201,233,236)" stroke="none" stroke-width="0"/></g><g id="eSrz5swA07v3_to" transform="translate(84.513977,132.890274)"><ellipse id="eSrz5swA07v3" rx="8.385" ry="8.385" transform="translate(-2.573749,-2.573749)" fill="rgb(201,233,236)" stroke="none" stroke-width="0"/></g><g id="eSrz5swA07v4_to" transform="translate(63.539149,102.573696)"><ellipse id="eSrz5swA07v4" rx="8.385" ry="8.385" transform="translate(-2.573749,-2.573749)" fill="rgb(201,233,236)" stroke="none" stroke-width="0"/></g><g id="eSrz5swA07v5_to" transform="translate(84.513977,67.515777)"><ellipse id="eSrz5swA07v5" rx="8.385" ry="8.385" transform="translate(-2.573749,-2.573749)" fill="rgb(201,233,236)" stroke="none" stroke-width="0"/></g><g id="eSrz5swA07v6_to" transform="translate(60.239573,81.70132)"><ellipse id="eSrz5swA07v6" rx="8.385029" ry="8.385029" transform="translate(0,0)" fill="rgb(201,233,236)" stroke="none" stroke-width="0"/></g><g id="eSrz5swA07v7_to" transform="translate(141.468857,102.573696)"><ellipse id="eSrz5swA07v7" rx="8.385" ry="8.385" transform="translate(-2.573749,-2.573749)" fill="rgb(201,233,236)" stroke="none" stroke-width="0"/></g><g id="eSrz5swA07v8_to" transform="translate(141.426799,84.27504)"><ellipse id="eSrz5swA07v8" rx="8.385" ry="8.385" transform="translate(-2.573749,-2.573749)" fill="rgb(201,233,236)" stroke="none" stroke-width="0"/></g><g id="eSrz5swA07v9_to" transform="translate(119.843749,132.613884)"><ellipse id="eSrz5swA07v9" rx="8.385" ry="8.385" transform="translate(-2.573749,-2.573749)" fill="rgb(201,233,236)" stroke="none" stroke-width="0"/></g><g id="eSrz5swA07v10_to" transform="translate(118.160197,67.482213)"><ellipse id="eSrz5swA07v10" rx="8.385" ry="8.385" transform="translate(-0.890197,-0.890197)" fill="rgb(201,233,236)" stroke="none" stroke-width="0"/></g><g id="eSrz5swA07v11" transform="matrix(0.98 0 0 0.98 2 1.999996)"><g id="eSrz5swA07v12" transform="matrix(1 0 0 1 -266 -1151)"><g id="eSrz5swA07v13" transform="matrix(1 0 0 1 266 1151)"><g id="eSrz5swA07v14" transform="matrix(1 0 0 1 13.2812 13.2812)"><path id="eSrz5swA07v15" d="M86.962891,36.545703C85.292578,36.545703,83.938672,35.191797,83.938672,33.521484L83.938672,3.321875C83.938672,1.651563,85.292578,0.297656,86.962891,0.297656C88.633203,0.297656,89.986719,1.651563,89.986719,3.321875L89.986719,33.521484C89.987109,35.191797,88.633203,36.545703,86.962891,36.545703Z" fill="rgb(201,233,236)" stroke="none" stroke-width="1"/><path id="eSrz5swA07v16" d="M68.217578,47.227344C66.547266,47.227344,65.193359,45.873438,65.193359,44.203125L65.193359,22.800391L43.932031,22.800391C42.261719,22.800391,40.907813,21.446484,40.907813,19.776172C40.907813,18.105859,42.261719,16.751953,43.932031,16.751953L68.217578,16.751953C69.887891,16.751953,71.241797,18.105859,71.241797,19.776172L71.241797,44.203125C71.241406,45.873438,69.8875,47.227344,68.217578,47.227344Z" fill="rgb(201,233,236)" stroke="none" stroke-width="1"/><path id="eSrz5swA07v17" d="M105.708594,47.509375C104.038281,47.509375,102.684375,46.155469,102.684375,44.485156L102.684375,12.517969C102.684375,10.847656,104.038281,9.49375,105.708594,9.49375L129.994141,9.49375C131.664453,9.49375,133.018359,10.847656,133.018359,12.517969C133.018359,14.188281,131.664453,15.542188,129.994141,15.542188L108.732422,15.542188L108.732422,44.485156C108.732812,46.155469,107.378906,47.509375,105.708594,47.509375Z" fill="rgb(201,233,236)" stroke="none" stroke-width="1"/><path id="eSrz5swA07v18" d="M86.962891,173.139844C85.292578,173.139844,83.938672,171.785938,83.938672,170.115625L83.938672,139.916016C83.938672,138.245703,85.292578,136.891797,86.962891,136.891797C88.633203,136.891797,89.986719,138.245703,89.986719,139.916016L89.986719,170.115625C89.987109,171.785938,88.633203,173.139844,86.962891,173.139844Z" fill="rgb(201,233,236)" stroke="none" stroke-width="1"/><path id="eSrz5swA07v19" d="M129.994141,156.685547L105.708594,156.685547C104.038281,156.685547,102.684375,155.331641,102.684375,153.661328L102.684375,128.952344C102.684375,127.282031,104.038281,125.928125,105.708594,125.928125C107.378906,125.928125,108.732813,127.282031,108.732813,128.952344L108.732813,150.637109L129.994531,150.637109C131.664844,150.637109,133.01875,151.991016,133.01875,153.661328C133.018359,155.331641,131.664453,156.685547,129.994141,156.685547L129.994141,156.685547Z" transform="matrix(1 0 0 1 0.000001 0)" fill="rgb(201,233,236)" stroke="none" stroke-width="1"/><path id="eSrz5swA07v20" d="M68.217578,163.94375L43.932031,163.94375C42.261719,163.94375,40.907813,162.589844,40.907813,160.919531C40.907813,159.249219,42.261719,157.895313,43.932031,157.895313L65.193359,157.895313L65.193359,129.234375C65.193359,127.564063,66.547266,126.210156,68.217578,126.210156C69.887891,126.210156,71.241797,127.564063,71.241797,129.234375L71.241797,160.919531C71.241406,162.589844,69.8875,163.94375,68.217578,163.94375L68.217578,163.94375Z" fill="rgb(201,233,236)" stroke="none" stroke-width="1"/><path id="eSrz5swA07v21" d="M170.115625,89.742969L132.303125,89.742969C130.632812,89.742969,129.278906,88.389063,129.278906,86.71875C129.278906,85.048438,130.632812,83.694531,132.303125,83.694531L170.115625,83.694531C171.785938,83.694531,173.139844,85.048438,173.139844,86.71875C173.139844,88.389063,171.785938,89.742969,170.115625,89.742969Z" fill="rgb(201,233,236)" stroke="none" stroke-width="1"/><path id="eSrz5swA07v22" d="M153.661328,70.997266L132.303125,70.997266C130.632812,70.997266,129.278906,69.643359,129.278906,67.973047C129.278906,66.302734,130.632812,64.948828,132.303125,64.948828L150.637109,64.948828L150.637109,47.316406C150.637109,45.646094,151.991016,44.292188,153.661328,44.292188C155.331641,44.292188,156.685547,45.646094,156.685547,47.316406L156.685547,67.973047C156.685547,69.643359,155.331641,70.997266,153.661328,70.997266Z" fill="rgb(201,233,236)" stroke="none" stroke-width="1"/><path id="eSrz5swA07v23" d="M160.919531,129.145313C159.249219,129.145313,157.895313,127.791406,157.895313,126.121094L157.895313,108.488672L132.303125,108.488672C130.632812,108.488672,129.278906,107.134766,129.278906,105.464453C129.278906,103.794141,130.632812,102.440234,132.303125,102.440234L160.919531,102.440234C162.589844,102.440234,163.94375,103.794141,163.94375,105.464453L163.94375,126.121094C163.94375,127.791406,162.589844,129.145313,160.919531,129.145313L160.919531,129.145313Z" fill="rgb(201,233,236)" stroke="none" stroke-width="1"/><path id="eSrz5swA07v24" d="M41.134766,89.742969L3.322266,89.742969C1.651953,89.742969,0.298047,88.389063,0.298047,86.71875C0.298047,85.048438,1.651953,83.694531,3.322266,83.694531L41.134766,83.694531C42.805078,83.694531,44.158984,85.048438,44.158984,86.71875C44.158984,88.389063,42.805078,89.742969,41.134766,89.742969Z" fill="rgb(201,233,236)" stroke="none" stroke-width="1"/><path id="eSrz5swA07v25" d="M19.776172,129.145313C18.105859,129.145313,16.751953,127.791406,16.751953,126.121094L16.751953,105.464453C16.751953,103.794141,18.105859,102.440234,19.776172,102.440234L41.073828,102.440234C42.744141,102.440234,44.098047,103.794141,44.098047,105.464453C44.098047,107.134766,42.744141,108.488672,41.073828,108.488672L22.800391,108.488672L22.800391,126.121094C22.800391,127.791406,21.446484,129.145313,19.776172,129.145313L19.776172,129.145313Z" fill="rgb(201,233,236)" stroke="none" stroke-width="1"/><path id="eSrz5swA07v26" d="M41.073828,70.997266L12.517969,70.997266C10.847656,70.997266,9.49375,69.643359,9.49375,67.973047L9.49375,47.316406C9.49375,45.646094,10.847656,44.292188,12.517969,44.292188C14.188281,44.292188,15.542188,45.646094,15.542188,47.316406L15.542188,64.948828L41.073438,64.948828C42.74375,64.948828,44.097656,66.302734,44.097656,67.973047C44.097656,69.643359,42.74375,70.997266,41.073828,70.997266Z" fill="rgb(201,233,236)" stroke="none" stroke-width="1"/></g><g id="eSrz5swA07v27" transform="matrix(1 0 0 1 50.7812 43.3594)"><path id="eSrz5swA07v28" d="M50.226953,109.142578L98.432031,77.795703L98.432031,29.355078C98.432031,28.657422,98.059766,28.0125,97.455469,27.663672L50.195313,0.378125C49.591016,0.029297,48.846484,0.029297,48.242188,0.378125L0.982031,27.663672C0.377734,28.0125,0.005469,28.657422,0.005469,29.355078L0.005469,77.795703L48.210547,109.142578C48.834375,109.502734,49.603125,109.502734,50.226953,109.142578Z" fill="rgb(8,193,209)" stroke="none" stroke-width="1"/></g><g id="eSrz5swA07v29_ts" transform="translate(100.510204,189.129842) scale(1,1)"><g id="eSrz5swA07v29" transform="translate(-10.406247,-9.211553)"><path id="eSrz5swA07v30" d="M10.400391,16.569922C14.707813,16.569922,19.843359,11.993359,19.843359,6.567188C18.384375,2.773438,14.708203,0.080078,10.400391,0.080078C6.092969,0.080078,2.416406,2.773438,0.957422,6.567188C0.957813,11.775391,6.092969,16.569922,10.400391,16.569922Z" fill="rgb(70,129,252)" stroke="none" stroke-width="1"/><path id="eSrz5swA07v31" d="M10.400391,13.054297C6.092969,13.054297,2.416406,10.360938,0.957422,6.567188C0.524219,7.694141,0.283984,8.916797,0.283984,10.196094C0.283984,15.783203,4.813281,20.312109,10.4,20.312109C15.987109,20.312109,20.516016,15.782813,20.516016,10.196094C20.516016,8.916406,20.276172,7.69375,19.842578,6.567188C18.384375,10.360938,14.708203,13.054297,10.400391,13.054297Z" fill="rgb(49,108,230)" stroke="none" stroke-width="1"/></g></g><g id="eSrz5swA07v32" transform="matrix(1 0 0 1 139.453 156.641)"><path id="eSrz5swA07v33" d="M10.309375,16.675781C14.616797,16.675781,19.752344,12.099219,19.752344,6.673047C18.293359,2.879297,14.617188,0.185938,10.309375,0.185938C6.001953,0.185938,2.325391,2.879297,0.866406,6.673047C0.866797,11.88125,6.001953,16.675781,10.309375,16.675781L10.309375,16.675781Z" fill="rgb(70,129,252)" stroke="none" stroke-width="1"/><path id="eSrz5swA07v34" d="M10.309375,13.160156C6.001953,13.160156,2.325391,10.466797,0.866406,6.673047C0.433203,7.8,0.192969,9.022656,0.192969,10.301953C0.192969,15.889063,4.722266,20.417969,10.308984,20.417969C15.896094,20.417969,20.425,15.888672,20.425,10.301953C20.425,9.022656,20.185156,7.799609,19.751563,6.673047C18.293359,10.466406,14.617188,13.160156,10.309375,13.160156L10.309375,13.160156Z" fill="rgb(49,108,230)" stroke="none" stroke-width="1"/></g><g id="eSrz5swA07v35_ts" transform="translate(50.786669,173.627982) scale(1,1)"><g id="eSrz5swA07v35" transform="translate(-10.552269,-9.565982)"><path id="eSrz5swA07v36" d="M10.491406,16.511719C14.798828,16.511719,19.934375,11.935156,19.934375,6.508984C18.475391,2.715234,14.799219,0.021875,10.491406,0.021875C6.183594,0.021875,2.507422,2.715234,1.048438,6.508984C1.048828,11.717188,6.183984,16.511719,10.491406,16.511719Z" fill="rgb(70,129,252)" stroke="none" stroke-width="1"/><path id="eSrz5swA07v37" d="M10.491406,12.996094C6.183984,12.996094,2.507422,10.302734,1.048438,6.508984C0.615234,7.635938,0.375,8.858594,0.375,10.137891C0.375,15.725,4.904297,20.253906,10.491016,20.253906C16.078125,20.253906,20.607031,15.724609,20.607031,10.137891C20.607031,8.858203,20.367188,7.635547,19.933594,6.508984C18.475391,10.302734,14.799219,12.996094,10.491406,12.996094Z" fill="rgb(49,108,230)" stroke="none" stroke-width="1"/></g></g><g id="eSrz5swA07v38" transform="matrix(1 0 0 1 22.6562 135.547)"><path id="eSrz5swA07v39" d="M10.401172,16.716016C14.708594,16.716016,19.844141,12.139453,19.844141,6.713281C18.385156,2.919531,14.708984,0.226172,10.401172,0.226172C6.09375,0.226172,2.417188,2.919531,0.958203,6.713281C0.958203,11.921484,6.09375,16.716016,10.401172,16.716016L10.401172,16.716016Z" fill="rgb(70,129,252)" stroke="none" stroke-width="1"/><path id="eSrz5swA07v40" d="M10.401172,13.200391C6.09375,13.200391,2.417188,10.507031,0.958203,6.713281C0.525,7.840234,0.285156,9.062891,0.285156,10.342188C0.285156,15.929297,4.814453,20.458203,10.401172,20.458203C15.988281,20.458203,20.517188,15.928906,20.517188,10.342188C20.517188,9.062891,20.277344,7.839844,19.84375,6.713281C18.385156,10.507031,14.708594,13.200391,10.401172,13.200391Z" fill="rgb(49,108,230)" stroke="none" stroke-width="1"/></g><g id="eSrz5swA07v41" transform="matrix(1 0 0 1 164.062 135.547)"><path id="eSrz5swA07v42" d="M10.138281,16.716016C14.445703,16.716016,19.58125,12.139453,19.58125,6.713281C18.122266,2.919531,14.445703,0.226172,10.138281,0.226172C5.830859,0.226172,2.154297,2.919531,0.695313,6.713281C0.695313,11.921484,5.830469,16.716016,10.138281,16.716016Z" fill="rgb(70,129,252)" stroke="none" stroke-width="1"/><path id="eSrz5swA07v43" d="M10.138281,13.200391C5.830859,13.200391,2.154297,10.507031,0.695313,6.713281C0.262109,7.840234,0.021875,9.062891,0.021875,10.342188C0.021875,15.929297,4.551172,20.458203,10.137891,20.458203C15.725,20.458203,20.253906,15.928906,20.253906,10.342188C20.253906,9.062891,20.014063,7.839844,19.580469,6.713281C18.121875,10.507031,14.445703,13.200391,10.138281,13.200391Z" fill="rgb(49,108,230)" stroke="none" stroke-width="1"/></g><g id="eSrz5swA07v44_ts" transform="translate(189.884289,99.99995) scale(1,1)"><g id="eSrz5swA07v44" transform="translate(-10.196289,-10.15615)"><path id="eSrz5swA07v45" d="M10.196484,16.530078C14.503906,16.530078,19.639453,11.953516,19.639453,6.527344C18.180469,2.733594,14.504297,0.040234,10.196484,0.040234C5.889063,0.040234,2.2125,2.733594,0.753516,6.527344C0.753516,11.735547,5.888672,16.530078,10.196484,16.530078Z" fill="rgb(70,129,252)" stroke="none" stroke-width="1"/><path id="eSrz5swA07v46" d="M10.196484,13.014453C5.889063,13.014453,2.2125,10.321094,0.753516,6.527344C0.320313,7.654297,0.080078,8.876953,0.080078,10.15625C0.080078,15.743359,4.609375,20.272266,10.196094,20.272266C15.783203,20.272266,20.3125,15.743359,20.3125,10.15625C20.3125,8.876953,20.072656,7.653906,19.639063,6.527344C18.180078,10.321094,14.503906,13.014453,10.196484,13.014453Z" fill="rgb(49,108,230)" stroke="none" stroke-width="1"/></g></g><g id="eSrz5swA07v47_ts" transform="translate(166.942954,54.797269) scale(1,1)"><g id="eSrz5swA07v47" transform="translate(-10.301954,-11.047269)"><path id="eSrz5swA07v48" d="M10.301953,16.734375C14.609375,16.734375,19.744922,12.157813,19.744922,6.731641C18.285938,2.937891,14.609766,0.244531,10.301953,0.244531C5.994531,0.244531,2.317969,2.937891,0.858984,6.731641C0.858984,11.939844,5.994531,16.734375,10.301953,16.734375Z" fill="rgb(70,129,252)" stroke="none" stroke-width="1"/><path id="eSrz5swA07v49" d="M10.301953,13.21875C5.994531,13.21875,2.317969,10.525391,0.858984,6.731641C0.425781,7.858594,0.185547,9.08125,0.185547,10.360547C0.185547,15.947656,4.714844,20.476563,10.301563,20.476563C15.888672,20.476563,20.417578,15.947266,20.417578,10.360547C20.417578,9.08125,20.177734,7.858203,19.744141,6.731641C18.285938,10.525391,14.609375,13.21875,10.301953,13.21875Z" fill="rgb(49,108,230)" stroke="none" stroke-width="1"/></g></g><g id="eSrz5swA07v50_ts" transform="translate(10.116015,99.99995) scale(1,1)"><g id="eSrz5swA07v50" transform="translate(-10.116015,-10.15615)"><path id="eSrz5swA07v51" d="M10.116016,16.530078C14.423438,16.530078,19.558984,11.953516,19.558984,6.527344C18.1,2.733594,14.423828,0.040234,10.116016,0.040234C5.808594,0.040234,2.132031,2.733594,0.673047,6.527344C0.673438,11.735547,5.808594,16.530078,10.116016,16.530078Z" fill="rgb(70,129,252)" stroke="none" stroke-width="1"/><path id="eSrz5swA07v52" d="M10.116016,13.014453C5.808594,13.014453,2.132031,10.321094,0.673047,6.527344C0.239844,7.653906,0,8.876953,0,10.15625C0,15.743359,4.529297,20.272266,10.116016,20.272266C15.702734,20.272266,20.232422,15.743359,20.232422,10.15625C20.232422,8.876953,19.992578,7.653906,19.558984,6.527344C18.1,10.321094,14.423828,13.014453,10.116016,13.014453Z" fill="rgb(49,108,230)" stroke="none" stroke-width="1"/></g></g><g id="eSrz5swA07v53_ts" transform="translate(25.754666,54.797269) scale(1,1)"><g id="eSrz5swA07v53" transform="translate(-10.129666,-11.047269)"><path id="eSrz5swA07v54" d="M10.174219,16.734375C14.481641,16.734375,19.617188,12.157813,19.617188,6.731641C18.158203,2.937891,14.482031,0.244531,10.174219,0.244531C5.866797,0.244531,2.190234,2.937891,0.73125,6.731641C0.731641,11.939844,5.866797,16.734375,10.174219,16.734375L10.174219,16.734375Z" fill="rgb(70,129,252)" stroke="none" stroke-width="1"/><path id="eSrz5swA07v55" d="M10.174219,13.21875C5.866797,13.21875,2.190234,10.525391,0.73125,6.731641C0.298047,7.858594,0.057813,9.08125,0.057813,10.360547C0.057813,15.947656,4.587109,20.476563,10.173828,20.476563C15.760938,20.476563,20.289844,15.947266,20.289844,10.360547C20.289844,9.08125,20.05,7.858203,19.616406,6.731641C18.158203,10.525391,14.482031,13.21875,10.174219,13.21875Z" fill="rgb(49,108,230)" stroke="none" stroke-width="1"/></g></g><g id="eSrz5swA07v56_ts" transform="translate(50.725415,32.173047) scale(1,1)"><g id="eSrz5swA07v56" transform="translate(-10.491015,-9.516847)"><path id="eSrz5swA07v57" d="M10.491406,16.775C14.798828,16.775,19.934375,12.198438,19.934375,6.772266C18.475391,2.978516,14.799219,0.285156,10.491406,0.285156C6.183594,0.285156,2.507422,2.978516,1.048438,6.772266C1.048828,11.980469,6.183984,16.775,10.491406,16.775Z" fill="rgb(70,129,252)" stroke="none" stroke-width="1"/><path id="eSrz5swA07v58" d="M10.491406,13.259375C6.183984,13.259375,2.507422,10.566016,1.048438,6.772266C0.615234,7.899219,0.375,9.121875,0.375,10.401172C0.375,15.988281,4.904297,20.517188,10.491016,20.517188C16.078125,20.517188,20.607031,15.987891,20.607031,10.401172C20.607031,9.121875,20.367188,7.898828,19.933594,6.772266C18.475391,10.566016,14.799219,13.259375,10.491406,13.259375L10.491406,13.259375Z" fill="rgb(49,108,230)" stroke="none" stroke-width="1"/></g></g><g id="eSrz5swA07v59" transform="matrix(1 0 0 1 89.8438 0)"><path id="eSrz5swA07v60" d="M10.400391,16.489844C14.707813,16.489844,19.843359,11.913281,19.843359,6.487109C18.384375,2.693359,14.708203,0,10.400391,0C6.092969,0,2.416406,2.693359,0.957422,6.487109C0.957813,11.695313,6.092969,16.489844,10.400391,16.489844Z" fill="rgb(70,129,252)" stroke="none" stroke-width="1"/><path id="eSrz5swA07v61" d="M10.400391,12.974219C6.092969,12.974219,2.416406,10.280859,0.957422,6.487109C0.524219,7.614063,0.283984,8.836719,0.283984,10.116016C0.283984,15.703125,4.813281,20.232031,10.4,20.232031C15.987109,20.232031,20.516016,15.702734,20.516016,10.116016C20.516016,8.836719,20.276172,7.613672,19.842578,6.487109C18.384375,10.280859,14.708203,12.974219,10.400391,12.974219Z" fill="rgb(49,108,230)" stroke="none" stroke-width="1"/></g><g id="eSrz5swA07v62_ts" transform="translate(149.830709,25.058196) scale(1,1)"><g id="eSrz5swA07v62" transform="translate(-10.377709,-9.433196)"><path id="eSrz5swA07v63" d="M10.309375,16.548047C14.616797,16.548047,19.752344,11.971484,19.752344,6.545313C18.293359,2.751563,14.616797,0.058203,10.309375,0.058203C6.001953,0.058203,2.325391,2.751563,0.866406,6.545313C0.866797,11.753516,6.001953,16.548047,10.309375,16.548047Z" fill="rgb(70,129,252)" stroke="none" stroke-width="1"/><path id="eSrz5swA07v64" d="M10.309375,13.032422C6.001953,13.032422,2.325391,10.339063,0.866406,6.545313C0.433203,7.672266,0.192969,8.894922,0.192969,10.174219C0.192969,15.761328,4.722266,20.290234,10.308984,20.290234C15.896094,20.290234,20.425,15.760938,20.425,10.174219C20.425,8.894922,20.185156,7.671875,19.751563,6.545313C18.293359,10.339063,14.617188,13.032422,10.309375,13.032422Z" fill="rgb(49,108,230)" stroke="none" stroke-width="1"/></g></g></g></g></g></svg>