<?xml version="1.0" encoding="UTF-8"?>
<svg width="116px" height="21px" viewBox="0 0 116 21" version="1.1" xmlns="http://www.w3.org/2000/svg" xmlns:xlink="http://www.w3.org/1999/xlink">
    <title>C60B0227-854D-4C1A-9DA0-1062F2152EC3</title>
    <g id="Page-1" stroke="none" stroke-width="1" fill="none" fill-rule="evenodd">
        <g id="EKS_A_Home_v2" transform="translate(-662.000000, -316.000000)">
            <g id="Powered-By_logo-horiz_RGB_REV" transform="translate(662.000000, 316.000000)">
                <path d="M110.24688,11.07792 C109.68288,11.07792 109.13184,11.01528 108.5928,10.89 C108.05376,10.76496 107.64024,10.62096 107.352,10.45728 C107.17656,10.3572 107.06664,10.25736 107.02344,10.15728 C106.97928,10.05744 106.9572,9.95688 106.9572,9.85584 L106.9572,9.3108 C106.9572,9.0852 107.03856,8.97312 107.20224,8.97312 C107.26416,8.97312 107.32992,8.98536 107.39904,9.0108 C107.46744,9.03576 107.55864,9.0732 107.67168,9.12336 C108.03504,9.28608 108.42936,9.41184 108.85584,9.49848 C109.28184,9.58632 109.70784,9.63048 110.13384,9.63048 C110.81112,9.63048 111.33432,9.51216 111.70392,9.2736 C112.07328,9.03576 112.25784,8.69736 112.25784,8.2584 C112.25784,7.95792 112.16112,7.70784 111.96648,7.50672 C111.77232,7.30632 111.41232,7.11864 110.88576,6.94272 L109.32528,6.45408 C108.53616,6.204 107.96328,5.84016 107.60568,5.36352 C107.2488,4.8876 107.07048,4.36752 107.07048,3.80352 C107.07048,3.35232 107.1672,2.95464 107.36136,2.61024 C107.55552,2.26584 107.81256,1.97136 108.13224,1.72632 C108.45144,1.482 108.82464,1.29768 109.2504,1.17216 C109.6764,1.04664 110.12808,0.98448 110.60448,0.98448 C110.84184,0.98448 111.08376,1.00008 111.32736,1.03152 C111.57192,1.06248 111.80376,1.10376 112.02312,1.15344 C112.24224,1.20432 112.44576,1.25952 112.6344,1.3224 C112.82208,1.38552 112.97232,1.44792 113.08488,1.5108 C113.23536,1.59864 113.3424,1.68648 113.40456,1.7736 C113.4672,1.86144 113.49864,1.98024 113.49864,2.13096 L113.49864,2.63784 C113.49864,2.86416 113.41704,2.97648 113.25432,2.97648 C113.16624,2.97648 113.02872,2.9328 112.84104,2.84568 C112.22712,2.56944 111.53736,2.4312 110.77344,2.4312 C110.15904,2.4312 109.68288,2.53224 109.34424,2.73288 C109.00608,2.9328 108.83712,3.25248 108.83712,3.69144 C108.83712,3.9912 108.94392,4.24488 109.15632,4.45224 C109.3692,4.6584 109.76448,4.85616 110.3412,5.0448 L111.86352,5.53296 C112.6404,5.78376 113.1948,6.1284 113.52696,6.5664 C113.85864,7.00584 114.02496,7.50672 114.02496,8.07048 C114.02496,8.53464 113.9316,8.95128 113.7432,9.32064 C113.55504,9.69072 113.29512,10.00656 112.96296,10.26984 C112.63056,10.53312 112.23288,10.73376 111.76968,10.8708 C111.30552,11.00928 110.79792,11.07792 110.24688,11.07792 L110.24688,11.07792 Z M96.44976,10.79616 C96.26208,10.79616 96.12384,10.76184 96.03648,10.69344 C95.9484,10.6248 95.87376,10.48296 95.81088,10.26984 L93.29232,1.96128 C93.22896,1.7484 93.19752,1.60392 93.19752,1.52952 C93.19752,1.35384 93.28536,1.26576 93.46128,1.26576 L94.51416,1.26576 C94.71408,1.26576 94.85496,1.30032 94.9368,1.36896 C95.01816,1.43808 95.0904,1.57992 95.15256,1.79232 L96.95688,8.89728 L98.6304,1.79232 C98.68032,1.57992 98.7492,1.43808 98.83704,1.36896 C98.92416,1.30032 99.06912,1.26576 99.26952,1.26576 L100.13448,1.26576 C100.33512,1.26576 100.47888,1.30032 100.566,1.36896 C100.6536,1.43808 100.72272,1.57992 100.7736,1.79232 L102.46488,8.99208 L104.32608,1.79232 C104.38848,1.57992 104.46024,1.43808 104.54232,1.36896 C104.62296,1.30032 104.7648,1.26576 104.96472,1.26576 L105.96096,1.26576 C106.13664,1.26576 106.22496,1.35384 106.22496,1.52952 C106.22496,1.57992 106.218,1.63584 106.20528,1.69872 C106.1928,1.76088 106.1676,1.84824 106.12992,1.96128 L103.53648,10.26984 C103.47384,10.48296 103.39824,10.6248 103.31088,10.69344 C103.22304,10.76184 103.08528,10.79616 102.8976,10.79616 L101.976,10.79616 C101.77608,10.79616 101.63112,10.75872 101.54448,10.68336 C101.45616,10.60848 101.3868,10.46424 101.3376,10.25112 L99.66408,3.3336 L98.01048,10.25112 C97.96008,10.46424 97.89048,10.60848 97.80384,10.68336 C97.71576,10.75872 97.57128,10.79616 97.37136,10.79616 L96.44976,10.79616 Z M87.82224,9.63048 C88.17288,9.63048 88.54224,9.56448 88.93152,9.43368 C89.31984,9.30192 89.65728,9.0732 89.946,8.74752 C90.12144,8.54664 90.2436,8.31792 90.31248,8.0604 C90.3816,7.80408 90.41544,7.49448 90.41544,7.13064 L90.41544,6.67992 C90.10272,6.6048 89.77368,6.54552 89.42976,6.5016 C89.08488,6.45768 88.74888,6.4356 88.42344,6.4356 C87.70896,6.4356 87.17688,6.5796 86.82624,6.86736 C86.47512,7.1556 86.2992,7.56912 86.2992,8.10816 C86.2992,8.60952 86.4312,8.98872 86.69448,9.24576 C86.95752,9.50232 87.33288,9.63048 87.82224,9.63048 L87.82224,9.63048 Z M92.1828,7.9956 C92.1828,8.39688 92.2236,8.7156 92.30496,8.9544 C92.38632,9.192 92.50272,9.44928 92.65344,9.7248 C92.70312,9.81216 92.72808,9.89376 92.72808,9.9696 C92.72808,10.08216 92.65896,10.18824 92.52144,10.28808 L91.8444,10.73976 C91.74432,10.80264 91.65072,10.8336 91.56264,10.8336 C91.4496,10.8336 91.34304,10.78392 91.24296,10.68336 C91.09272,10.53312 90.96456,10.36728 90.85776,10.18536 C90.75168,10.00368 90.64176,9.79368 90.5292,9.55608 C89.6892,10.54536 88.6368,11.04072 87.37104,11.04072 C86.46888,11.04072 85.75416,10.78392 85.22808,10.26984 C84.70176,9.756 84.43896,9.06672 84.43896,8.20248 C84.43896,7.2876 84.7644,6.55128 85.41624,5.99352 C86.06736,5.436 86.94504,5.15712 88.0476,5.15712 C88.41024,5.15712 88.79016,5.18544 89.18448,5.24208 C89.57928,5.298 89.98968,5.37648 90.41544,5.4768 L90.41544,4.6872 C90.41544,3.87264 90.24648,3.29952 89.90904,2.9676 C89.5704,2.6352 88.98744,2.46936 88.16064,2.46936 C87.78504,2.46936 87.39864,2.51592 87.00432,2.61024 C86.60952,2.70408 86.22456,2.82576 85.84824,2.97648 C85.67304,3.05208 85.54728,3.0984 85.4724,3.11736 C85.39752,3.13608 85.34064,3.14592 85.30296,3.14592 C85.15272,3.14592 85.07784,3.03264 85.07784,2.80704 L85.07784,2.2812 C85.07784,2.10504 85.10304,1.98024 85.15272,1.9056 C85.20312,1.82952 85.30296,1.75536 85.45368,1.67976 C85.82976,1.49208 86.28096,1.32912 86.8068,1.19064 C87.33288,1.0536 87.89064,0.98448 88.47984,0.98448 C89.75832,0.98448 90.69504,1.2756 91.29,1.85832 C91.88496,2.4408 92.1828,3.32136 92.1828,4.49928 L92.1828,7.9956 L92.1828,7.9956 Z" id="Fill-1" fill="#FFFFFE"></path>
                <path d="M112.27848,16.36776 C108.7416,18.97728 103.61496,20.36568 99.19944,20.36568 C93.01248,20.36568 87.44016,18.07848 83.22408,14.27136 C82.89264,13.97208 83.18832,13.56384 83.586,13.7952 C88.13496,16.44312 93.76128,18.036 99.57168,18.036 C103.49112,18.036 107.7996,17.22336 111.76464,15.54144 C112.36224,15.288 112.8636,15.93552 112.27848,16.36776" id="Fill-2" fill="#EC912D"></path>
                <path d="M113.7504,14.68728 C113.29752,14.10864 110.76072,14.41392 109.61976,14.54976 C109.27464,14.59056 109.22112,14.28912 109.53264,14.07096 C111.55704,12.64848 114.87408,13.05936 115.25952,13.53576 C115.64784,14.01552 115.15752,17.3412 113.26056,18.92832 C112.96848,19.17216 112.69128,19.04256 112.81992,18.72 C113.24688,17.65416 114.20304,15.26664 113.7504,14.68728" id="Fill-3" fill="#EC912D"></path>
                <path d="M3.66312,9.696 C4.28952,9.696 4.75464,9.48312 5.058,9.05736 C5.36136,8.6316 5.51328,7.98312 5.51328,7.11168 C5.51328,6.25032 5.364,5.61168 5.0652,5.19552 C4.76664,4.7796 4.3044,4.57152 3.67776,4.57152 C3.04152,4.57152 2.454,4.75728 1.91568,5.12952 L1.91568,9.1236 C2.46384,9.5052 3.04632,9.696 3.66312,9.696 Z M0.50592,13.92528 C0.29064,13.92528 0.18312,13.81704 0.18312,13.602 L0.18312,3.74928 C0.18312,3.534 0.29064,3.42624 0.50592,3.42624 L1.31376,3.42624 C1.5288,3.42624 1.65624,3.5244 1.69536,3.71976 L1.78368,4.17504 C2.12592,3.86184 2.50536,3.62208 2.92152,3.45552 C3.33744,3.2892 3.77088,3.20568 4.22112,3.20568 C5.15088,3.20568 5.89248,3.55368 6.44568,4.24848 C6.99864,4.94376 7.27536,5.87832 7.27536,7.05312 C7.27536,7.86552 7.14072,8.57544 6.87168,9.18216 C6.60216,9.78936 6.22776,10.254 5.74824,10.57704 C5.26848,10.90008 4.72032,11.0616 4.10376,11.0616 C3.6924,11.0616 3.29592,10.99056 2.91432,10.84872 C2.53248,10.70688 2.1996,10.50864 1.91568,10.254 L1.91568,13.602 C1.91568,13.81704 1.80792,13.92528 1.59288,13.92528 L0.50592,13.92528 L0.50592,13.92528 Z" id="Fill-4" fill="#FFFFFE"></path>
                <path d="M12.23856,9.75504 C13.47192,9.75504 14.08872,8.8884 14.08872,7.1556 C14.08872,5.43312 13.47192,4.57152 12.23856,4.57152 C11.00496,4.57152 10.38816,5.43312 10.38816,7.1556 C10.38816,8.8884 11.00496,9.75504 12.23856,9.75504 Z M12.23856,11.1204 C11.10288,11.1204 10.21704,10.77048 9.5808,10.07064 C8.94432,9.3708 8.62632,8.39928 8.62632,7.1556 C8.62632,5.91288 8.94432,4.94376 9.5808,4.24848 C10.21704,3.55368 11.10288,3.20568 12.23856,3.20568 C13.374,3.20568 14.25984,3.55368 14.89608,4.24848 C15.53256,4.94376 15.8508,5.91288 15.8508,7.1556 C15.8508,8.39928 15.53256,9.3708 14.89608,10.07064 C14.25984,10.77048 13.374,11.1204 12.23856,11.1204 L12.23856,11.1204 Z" id="Fill-5" fill="#FFFFFE"></path>
                <path d="M19.24272,10.90008 C19.01736,10.90008 18.87552,10.79736 18.81672,10.59168 L16.64376,3.9252 C16.59456,3.77856 16.57008,3.68088 16.57008,3.63168 C16.57008,3.49488 16.6632,3.42624 16.8492,3.42624 L18.03864,3.42624 C18.24432,3.42624 18.37128,3.51936 18.42024,3.70512 L19.81512,9.1236 L21.23952,3.71976 C21.2688,3.6024 21.31536,3.5244 21.3792,3.48504 C21.4428,3.44568 21.53328,3.42624 21.65088,3.42624 L22.62,3.42624 C22.74696,3.42624 22.84008,3.44808 22.89888,3.49224 C22.95768,3.53616 23.0016,3.61224 23.03112,3.71976 L24.45528,9.22632 L25.92384,3.70512 C25.97256,3.51936 26.1,3.42624 26.30544,3.42624 L27.37728,3.42624 C27.56328,3.42624 27.6564,3.49488 27.6564,3.63168 C27.6564,3.68088 27.63192,3.77856 27.5832,3.9252 L25.3656,10.59168 C25.2972,10.79736 25.15512,10.90008 24.94008,10.90008 L23.91216,10.90008 C23.7948,10.90008 23.70144,10.878 23.63304,10.83408 C23.56464,10.79016 23.51568,10.70928 23.48616,10.59168 L22.09152,5.29104 L20.6964,10.59168 C20.66688,10.70928 20.61792,10.79016 20.54952,10.83408 C20.48088,10.878 20.388,10.90008 20.27064,10.90008 L19.24272,10.90008" id="Fill-6" fill="#FFFFFE"></path>
                <path d="M33.3684,6.42168 L33.3684,6.30432 C33.3684,5.7072 33.23832,5.25216 32.97912,4.93848 C32.71968,4.62528 32.34048,4.46856 31.84128,4.46856 C31.31256,4.46856 30.88176,4.64496 30.54912,4.99728 C30.216,5.3496 30.0252,5.8248 29.97624,6.42168 L33.3684,6.42168 Z M32.13504,11.1204 C30.90144,11.1204 29.96664,10.78752 29.3304,10.12176 C28.69392,9.45624 28.37592,8.48712 28.37592,7.21464 C28.37592,5.95176 28.68648,4.96776 29.30832,4.26312 C29.92968,3.55824 30.79872,3.20568 31.91472,3.20568 C32.874,3.20568 33.61056,3.46776 34.12464,3.99144 C34.63848,4.51536 34.89528,5.25672 34.89528,6.21576 C34.89528,6.54888 34.87104,6.8964 34.82208,7.25856 C34.8024,7.38576 34.76544,7.47144 34.71192,7.5156 C34.65792,7.55952 34.58688,7.5816 34.49904,7.5816 L29.97624,7.5816 C30.00552,8.3256 30.21384,8.8716 30.60048,9.21888 C30.98688,9.5664 31.58184,9.74016 32.38464,9.74016 C32.97192,9.74016 33.58848,9.64728 34.2348,9.46104 C34.3128,9.4416 34.37184,9.42672 34.41096,9.41712 C34.44984,9.40728 34.4844,9.40248 34.51368,9.40248 C34.66056,9.40248 34.734,9.5004 34.734,9.696 L34.734,10.22472 C34.734,10.3716 34.71192,10.47672 34.66776,10.54032 C34.62408,10.6044 34.52328,10.66536 34.3668,10.72392 C33.71088,10.98816 32.96664,11.1204 32.13504,11.1204 L32.13504,11.1204 Z" id="Fill-7" fill="#FFFFFE"></path>
                <path d="M36.90672,10.90008 C36.69168,10.90008 36.58392,10.79256 36.58392,10.57704 L36.58392,3.74928 C36.58392,3.534 36.69168,3.42624 36.90672,3.42624 L37.68504,3.42624 C37.82232,3.42624 37.91736,3.44568 37.9716,3.48504 C38.02512,3.5244 38.06184,3.59736 38.08176,3.70512 L38.25792,4.54224 C38.64936,4.11144 39.01632,3.80784 39.35904,3.63168 C39.70176,3.45552 40.07376,3.3672 40.47504,3.3672 L40.53384,3.3672 C40.66104,3.3672 40.76616,3.37992 40.84944,3.40416 C40.93248,3.42864 40.99152,3.47016 41.0256,3.52872 C41.05992,3.58776 41.0772,3.69552 41.0772,3.852 L41.0772,4.64496 C41.0772,4.85064 40.98888,4.95312 40.81272,4.95312 C40.75416,4.95312 40.67328,4.94856 40.57056,4.93848 C40.4676,4.92888 40.35744,4.92384 40.24008,4.92384 C39.51552,4.92384 38.87472,5.11008 38.31648,5.48184 L38.31648,10.57704 C38.31648,10.79256 38.20872,10.90008 37.99368,10.90008 L36.90672,10.90008" id="Fill-8" fill="#FFFFFE"></path>
                <path d="M46.8624,6.42168 L46.8624,6.30432 C46.8624,5.7072 46.73256,5.25216 46.47312,4.93848 C46.21368,4.62528 45.83448,4.46856 45.33504,4.46856 C44.80656,4.46856 44.37552,4.64496 44.04312,4.99728 C43.71024,5.3496 43.5192,5.8248 43.47024,6.42168 L46.8624,6.42168 Z M45.6288,11.1204 C44.3952,11.1204 43.46064,10.78752 42.8244,10.12176 C42.18792,9.45624 41.86992,8.48712 41.86992,7.21464 C41.86992,5.95176 42.18048,4.96776 42.80232,4.26312 C43.42392,3.55824 44.29272,3.20568 45.40872,3.20568 C46.36776,3.20568 47.10456,3.46776 47.61864,3.99144 C48.13248,4.51536 48.38952,5.25672 48.38952,6.21576 C48.38952,6.54888 48.36504,6.8964 48.31584,7.25856 C48.29616,7.38576 48.25944,7.47144 48.20568,7.5156 C48.15216,7.55952 48.08112,7.5816 47.99304,7.5816 L43.47024,7.5816 C43.49976,8.3256 43.7076,8.8716 44.09448,9.21888 C44.48088,9.5664 45.0756,9.74016 45.87864,9.74016 C46.46568,9.74016 47.08248,9.64728 47.72856,9.46104 C47.8068,9.4416 47.8656,9.42672 47.90496,9.41712 C47.94384,9.40728 47.97816,9.40248 48.00744,9.40248 C48.15456,9.40248 48.228,9.5004 48.228,9.696 L48.228,10.22472 C48.228,10.3716 48.20568,10.47672 48.16176,10.54032 C48.11784,10.6044 48.01728,10.66536 47.8608,10.72392 C47.20512,10.98816 46.46088,11.1204 45.6288,11.1204 L45.6288,11.1204 Z" id="Fill-9" fill="#FFFFFE"></path>
                <path d="M53.3376,9.696 C53.91504,9.696 54.47784,9.51024 55.02624,9.138 L55.02624,5.1 C54.52704,4.74768 53.97384,4.57152 53.36688,4.57152 C52.7112,4.57152 52.22904,4.7796 51.92064,5.19552 C51.61224,5.61168 51.45792,6.25032 51.45792,7.11168 C51.45792,8.83488 52.08456,9.696 53.3376,9.696 Z M52.79448,11.0616 C51.85464,11.0616 51.10344,10.71168 50.5404,10.01184 C49.97736,9.31224 49.69608,8.36976 49.69608,7.18536 C49.69608,6.37296 49.83048,5.6652 50.1,5.06352 C50.36904,4.46136 50.74344,4.00152 51.22344,3.68304 C51.70272,3.36504 52.25568,3.20568 52.88232,3.20568 C53.66544,3.20568 54.38016,3.46056 55.02624,3.96936 L55.02624,0.35712 C55.02624,0.14208 55.134,0.03432 55.34928,0.03432 L56.43576,0.03432 C56.65128,0.03432 56.75904,0.14208 56.75904,0.35712 L56.75904,10.57704 C56.75904,10.79256 56.65128,10.90008 56.43576,10.90008 L55.58448,10.90008 C55.36872,10.90008 55.24152,10.8024 55.2024,10.60632 L55.09968,10.1808 C54.43416,10.76784 53.66544,11.0616 52.79448,11.0616 L52.79448,11.0616 Z" id="Fill-10" fill="#FFFFFE"></path>
                <path d="M66.2004,9.696 C66.8268,9.696 67.29192,9.48312 67.59528,9.05736 C67.89888,8.6316 68.05056,7.98312 68.05056,7.11168 C68.05056,6.25032 67.90128,5.61168 67.60272,5.19552 C67.30416,4.7796 66.84168,4.57152 66.21504,4.57152 C65.5788,4.57152 64.99128,4.75728 64.4532,5.12952 L64.4532,9.1236 C65.00112,9.5052 65.58384,9.696 66.2004,9.696 Z M66.64104,11.0616 C66.2004,11.0616 65.77944,10.98096 65.37816,10.81944 C64.97664,10.65792 64.62912,10.43016 64.3356,10.1364 L64.23288,10.60632 C64.19376,10.8024 64.06608,10.90008 63.85104,10.90008 L63.04344,10.90008 C62.82816,10.90008 62.7204,10.79256 62.7204,10.57704 L62.7204,0.35712 C62.7204,0.14208 62.82816,0.03432 63.04344,0.03432 L64.13016,0.03432 C64.3452,0.03432 64.4532,0.14208 64.4532,0.35712 L64.4532,4.08696 C65.148,3.49944 65.91648,3.20568 66.7584,3.20568 C67.6884,3.20568 68.42976,3.55368 68.9832,4.24848 C69.53592,4.94376 69.81264,5.87832 69.81264,7.05312 C69.81264,7.86552 69.678,8.57544 69.40896,9.18216 C69.13968,9.78936 68.76744,10.254 68.29296,10.57704 C67.818,10.90008 67.26744,11.0616 66.64104,11.0616 L66.64104,11.0616 Z" id="Fill-11" fill="#FFFFFE"></path>
                <path d="M72.11784,14.1012 C71.75568,14.1012 71.44752,14.06208 71.19288,13.98384 C71.06544,13.94448 70.9824,13.89312 70.94352,13.82952 C70.90416,13.76568 70.88472,13.6608 70.88472,13.51392 L70.88472,13.01472 C70.88472,12.81864 70.96296,12.72096 71.11968,12.72096 C71.1684,12.72096 71.22696,12.72576 71.2956,12.7356 C71.36424,12.74544 71.4768,12.75024 71.63352,12.75024 C72.05424,12.75024 72.36768,12.67416 72.57336,12.52176 C72.77856,12.36936 72.9792,12.02784 73.17504,11.49696 L73.36608,10.98096 L70.59072,3.86616 C70.55184,3.76848 70.53216,3.69024 70.53216,3.63144 C70.53216,3.49488 70.62048,3.42624 70.7964,3.42624 L71.9856,3.42624 C72.19152,3.42624 72.31848,3.51912 72.36768,3.70488 L74.18832,9.33624 L76.03848,3.70488 C76.08744,3.51912 76.21488,3.42624 76.42056,3.42624 L77.53632,3.42624 C77.71272,3.42624 77.80056,3.49488 77.80056,3.63144 C77.80056,3.69024 77.78088,3.76848 77.742,3.86616 L74.54088,12.08232 C74.26656,12.79944 73.94376,13.3152 73.57176,13.62984 C73.19952,13.944 72.71496,14.1012 72.11784,14.1012" id="Fill-12" fill="#FFFFFE"></path>
            </g>
        </g>
    </g>
</svg>