<svg id="eKwUqd01Z8I1" xmlns="http://www.w3.org/2000/svg" xmlns:xlink="http://www.w3.org/1999/xlink" viewBox="0 0 200 200" shape-rendering="geometricPrecision" text-rendering="geometricPrecision"><style><![CDATA[#eKwUqd01Z8I5_to {animation: eKwUqd01Z8I5_to__to 5000ms linear 2 normal forwards}@keyframes eKwUqd01Z8I5_to__to { 0% {transform: translate(99.999052px,69.06555px)} 26% {transform: translate(99.999052px,69.06555px)} 30% {transform: translate(99.999052px,61px)} 34% {transform: translate(99.999052px,69.07px)} 100% {transform: translate(99.999052px,69.07px)}} #eKwUqd01Z8I6_tr {animation: eKwUqd01Z8I6_tr__tr 5000ms linear 2 normal forwards}@keyframes eKwUqd01Z8I6_tr__tr { 0% {transform: translate(41.632578px,148.011665px) rotate(0deg)} 20% {transform: translate(41.632578px,148.011665px) rotate(8.796645deg)} 28% {transform: translate(41.632578px,148.011665px) rotate(-4.2deg)} 32% {transform: translate(41.632578px,148.011665px) rotate(0deg)} 100% {transform: translate(41.632578px,148.011665px) rotate(0deg)}} #eKwUqd01Z8I7_tr {animation: eKwUqd01Z8I7_tr__tr 5000ms linear 2 normal forwards}@keyframes eKwUqd01Z8I7_tr__tr { 0% {transform: translate(41.632578px,148.011669px) rotate(0deg)} 20% {transform: translate(41.632578px,148.011669px) rotate(8.796645deg)} 28% {transform: translate(41.632578px,148.011669px) rotate(-4.2deg)} 32% {transform: translate(41.632578px,148.011669px) rotate(0deg)} 100% {transform: translate(41.632578px,148.011669px) rotate(0deg)}} #eKwUqd01Z8I8_tr {animation: eKwUqd01Z8I8_tr__tr 5000ms linear 2 normal forwards}@keyframes eKwUqd01Z8I8_tr__tr { 0% {transform: translate(58.79996px,144.578042px) rotate(0deg)} 20% {transform: translate(58.79996px,144.578042px) rotate(8.796645deg)} 28% {transform: translate(58.79996px,144.578042px) rotate(-4.2deg)} 32% {transform: translate(58.79996px,144.578042px) rotate(0deg)} 100% {transform: translate(58.79996px,144.578042px) rotate(0deg)}} #eKwUqd01Z8I9_tr {animation: eKwUqd01Z8I9_tr__tr 5000ms linear 2 normal forwards}@keyframes eKwUqd01Z8I9_tr__tr { 0% {transform: translate(58.79996px,148.011669px) rotate(0deg)} 20% {transform: translate(58.79996px,148.011669px) rotate(8.796645deg)} 28% {transform: translate(58.79996px,148.011669px) rotate(-4.2deg)} 32% {transform: translate(58.79996px,148.011669px) rotate(0deg)} 100% {transform: translate(58.79996px,148.011669px) rotate(0deg)}}]]></style><g id="eKwUqd01Z8I2"><g id="eKwUqd01Z8I3" transform="matrix(0.93 0 0 0.93 -241.309113 -572.359163)"><g id="eKwUqd01Z8I4" transform="matrix(1 0 0 1 267 623)"><g id="eKwUqd01Z8I5_to" transform="translate(99.999052,69.06555)"><path id="eKwUqd01Z8I5" d="M158.370775,137.711239C181.125939,137.711239,199.572492,119.264686,199.572492,96.509523C199.572492,73.754359,181.125939,55.307806,158.370775,55.307806C157.958356,55.307806,157.581142,55.307806,157.168723,55.341336C162.719622,31.880365,148.637004,8.251743,125.360448,1.971567C102.083892,-4.310287,78.026086,9.027964,71.021661,32.096634C63.085099,24.451784,51.349584,22.285743,41.20507,26.594354C31.062232,30.902964,24.473579,40.853004,24.465196,51.87433C24.45346,56.000201,25.380566,60.074101,27.177776,63.787554C9.282792,69.252951,-1.916242,86.99202,0.841604,105.497251C3.601127,124.002481,19.487661,137.702857,38.199101,137.711239L158.370775,137.711239Z" transform="translate(-99.999052,-69.06555)" fill="rgb(49,108,230)" stroke="none" stroke-width="1"/></g><g id="eKwUqd01Z8I6_tr" transform="translate(41.632578,148.011665) rotate(0)"><polygon id="eKwUqd01Z8I6" style="isolation:isolate" points="24.465196,96.509523 58.79996,96.509523 58.79996,199.513815 24.465196,199.513815" transform="translate(-41.632578,-148.011665)" fill="rgb(8,193,209)" stroke="none" stroke-width="1"/></g><g id="eKwUqd01Z8I7_tr" transform="translate(41.632578,148.011669) rotate(0)"><path id="eKwUqd01Z8I7" style="isolation:isolate" d="M48.499531,182.346433C48.499531,186.13868,45.424826,189.213385,41.632578,189.213385C37.838653,189.213385,34.765625,186.13868,34.765625,182.346433C34.765625,178.554185,37.838653,175.47948,41.632578,175.47948C45.424826,175.47948,48.499531,178.554185,48.499531,182.346433Z" transform="translate(-41.632578,-148.011669)" fill="rgb(241,242,242)" stroke="none" stroke-width="1"/></g><g id="eKwUqd01Z8I8_tr" transform="translate(58.79996,144.578042) rotate(0)"><path id="eKwUqd01Z8I8" style="isolation:isolate" d="M164.652629,127.41081L161.804252,127.41081C164.666041,127.409133,167.397063,126.215464,169.345158,124.11816C171.293254,122.020856,172.279037,119.209361,172.069474,116.354279C171.481022,110.838586,166.766698,106.69092,161.219152,106.809952L127.469488,106.809952C125.573364,106.809952,124.036011,105.272599,124.036011,103.376476L124.036011,75.908664C124.036011,68.322492,117.886601,62.174759,110.302106,62.174759L103.435153,62.174759L103.435153,75.908664C103.435153,92.973779,89.598981,106.809952,72.533865,106.809952L58.79996,106.809952L58.79996,189.213385L154.937299,189.213385C160.62567,189.213385,165.237728,184.601328,165.237728,178.912956C165.237728,173.222908,160.62567,168.612527,154.937299,168.612527L161.804252,168.612527C164.535274,168.612527,167.15397,167.524477,169.081948,165.589794C169.169125,165.504292,169.22948,165.402025,169.313305,165.313171C171.083691,163.408664,172.079533,160.912352,172.104681,158.312098C172.049356,152.64552,167.469152,148.065317,161.804252,148.011669L165.237728,148.011669C167.96875,148.011669,170.587446,146.923618,172.515424,144.988935C172.639485,144.863197,172.731693,144.708959,172.859107,144.578192C174.756907,142.511065,175.71419,139.753219,175.502951,136.955137C174.914498,131.439445,170.200174,127.291779,164.652629,127.41081L164.652629,127.41081Z" transform="translate(-58.79996,-144.578042)" fill="rgb(241,242,242)" stroke="none" stroke-width="1"/></g><g id="eKwUqd01Z8I9_tr" transform="translate(58.79996,148.011669) rotate(0)"><g id="eKwUqd01Z8I9" style="isolation:isolate" transform="translate(85.83504,-24.406669)"><path id="eKwUqd01Z8I10" d="M0.001676,24.406519L20.602535,24.406519C23.333557,24.406519,25.952253,23.318468,27.880231,21.383785C28.004292,21.258047,28.0965,21.103809,28.223914,20.973042L3.435153,20.973042C1.539029,20.973042,0.001676,22.510394,0.001676,24.406519Z" fill="rgb(209,211,212)" stroke="none" stroke-width="1"/><path id="eKwUqd01Z8I11" d="M3.435153,41.5739C1.539029,41.5739,0.001676,43.111253,0.001676,45.007377L17.169058,45.007377C19.900081,45.007377,22.518777,43.919327,24.446755,41.984643C24.533932,41.899142,24.59764,41.793522,24.681464,41.704667C24.470225,41.639284,24.253957,41.595695,24.036011,41.5739L3.435153,41.5739Z" fill="rgb(209,211,212)" stroke="none" stroke-width="1"/><path id="eKwUqd01Z8I12" d="M0.001676,3.80566L17.169058,3.80566C19.900081,3.80566,22.518777,2.71761,24.446755,0.782927C24.570816,0.657189,24.663023,0.502951,24.790437,0.372184L3.435153,0.372184C1.539029,0.372184,0.001676,1.909536,0.001676,3.80566Z" fill="rgb(209,211,212)" stroke="none" stroke-width="1"/></g></g></g></g></g></svg>