<?xml version="1.0" encoding="UTF-8" standalone="no"?><svg xmlns="http://www.w3.org/2000/svg" xmlns:xlink="http://www.w3.org/1999/xlink" contentScriptType="application/ecmascript" contentStyleType="text/css" height="555px" preserveAspectRatio="none" style="width:776px;height:555px;background:#FFFFFF;" version="1.1" viewBox="0 0 776 555" width="776px" zoomAndPan="magnify"><defs><filter height="300%" id="fn2xviq5f02ro" width="300%" x="-1" y="-1"><feGaussianBlur result="blurOut" stdDeviation="2.0"/><feColorMatrix in="blurOut" result="blurOut2" type="matrix" values="0 0 0 0 0 0 0 0 0 0 0 0 0 0 0 0 0 0 .4 0"/><feOffset dx="4.0" dy="4.0" in="blurOut2" result="blurOut3"/><feBlend in="SourceGraphic" in2="blurOut3" mode="normal"/></filter></defs><g><ellipse cx="303.75" cy="20" fill="#000000" filter="url(#fn2xviq5f02ro)" rx="10" ry="10" style="stroke:none;stroke-width:1.0;"/><rect fill="#FFFFFF" filter="url(#fn2xviq5f02ro)" height="456.8313" style="stroke:#000000;stroke-width:2.0;" width="748" x="11" y="40"/><path d="M115,40 L115,49.29 L105,59.29 L11,59.29 " fill="none" style="stroke:#000000;stroke-width:2.0;"/><text fill="#000000" font-family="sans-serif" font-size="14" lengthAdjust="spacing" textLength="94" x="14" y="54.3027">CreateCluster</text><rect fill="#FFFFFF" filter="url(#fn2xviq5f02ro)" height="415.5413" style="stroke:#000000;stroke-width:2.0;" width="728" x="21" y="69.29"/><path d="M210,69.29 L210,78.5801 L200,88.5801 L21,88.5801 " fill="none" style="stroke:#000000;stroke-width:2.0;"/><text fill="#000000" font-family="sans-serif" font-size="14" lengthAdjust="spacing" textLength="179" x="24" y="83.5928">InstallAddonManagerTask</text><polygon fill="#FEFECE" filter="url(#fn2xviq5f02ro)" points="255.75,105.5801,351.75,105.5801,363.75,117.5801,351.75,129.5801,255.75,129.5801,243.75,117.5801,255.75,105.5801" style="stroke:#A80036;stroke-width:1.5;"/><text fill="#000000" font-family="sans-serif" font-size="11" lengthAdjust="spacing" textLength="96" x="255.75" y="121.6326">repository exists?</text><text fill="#000000" font-family="sans-serif" font-size="11" lengthAdjust="spacing" textLength="18" x="225.75" y="115.2329">yes</text><text fill="#000000" font-family="sans-serif" font-size="11" lengthAdjust="spacing" textLength="14" x="363.75" y="115.2329">no</text><rect fill="#FEFECE" filter="url(#fn2xviq5f02ro)" height="33.9629" rx="12.5" ry="12.5" style="stroke:#A80036;stroke-width:1.5;" width="112" x="61" y="139.5801"/><text fill="#000000" font-family="sans-serif" font-size="12" lengthAdjust="spacing" textLength="92" x="71" y="160.9824">clone repository</text><rect fill="#FEFECE" filter="url(#fn2xviq5f02ro)" height="33.9629" rx="12.5" ry="12.5" style="stroke:#A80036;stroke-width:1.5;" width="168" x="33" y="256.9426"/><text fill="#000000" font-family="sans-serif" font-size="12" lengthAdjust="spacing" textLength="148" x="43" y="278.345">initialize repository locally</text><polygon fill="#FEFECE" filter="url(#fn2xviq5f02ro)" points="67,208.543,167,208.543,179,220.543,167,232.543,67,232.543,55,220.543,67,208.543" style="stroke:#A80036;stroke-width:1.5;"/><text fill="#000000" font-family="sans-serif" font-size="11" lengthAdjust="spacing" textLength="18" x="121" y="242.9951">yes</text><text fill="#000000" font-family="sans-serif" font-size="11" lengthAdjust="spacing" textLength="100" x="67" y="224.5955">is repository bare?</text><text fill="#000000" font-family="sans-serif" font-size="11" lengthAdjust="spacing" textLength="14" x="179" y="218.1958">no</text><polygon fill="#FEFECE" filter="url(#fn2xviq5f02ro)" points="117,310.9055,129,322.9055,117,334.9055,105,322.9055,117,310.9055" style="stroke:#A80036;stroke-width:1.5;"/><polygon fill="#FEFECE" filter="url(#fn2xviq5f02ro)" points="377.5,139.5801,603.5,139.5801,615.5,151.5801,603.5,163.5801,377.5,163.5801,365.5,151.5801,377.5,139.5801" style="stroke:#A80036;stroke-width:1.5;"/><text fill="#000000" font-family="sans-serif" font-size="11" lengthAdjust="spacing" textLength="226" x="377.5" y="155.6326">git provider supports repository creation?</text><text fill="#000000" font-family="sans-serif" font-size="11" lengthAdjust="spacing" textLength="18" x="347.5" y="149.2329">yes</text><text fill="#000000" font-family="sans-serif" font-size="11" lengthAdjust="spacing" textLength="14" x="615.5" y="149.2329">no</text><rect fill="#FEFECE" filter="url(#fn2xviq5f02ro)" height="33.9629" rx="12.5" ry="12.5" style="stroke:#A80036;stroke-width:1.5;" width="205" x="253" y="173.5801"/><text fill="#000000" font-family="sans-serif" font-size="12" lengthAdjust="spacing" textLength="185" x="263" y="194.9824">create repository in Git provider</text><rect fill="#FEFECE" filter="url(#fn2xviq5f02ro)" height="33.9629" rx="12.5" ry="12.5" style="stroke:#A80036;stroke-width:1.5;" width="168" x="271.5" y="242.543"/><text fill="#000000" font-family="sans-serif" font-size="12" lengthAdjust="spacing" textLength="148" x="281.5" y="263.9453">initialize repository locally</text><rect fill="#FFC0CB" filter="url(#fn2xviq5f02ro)" height="33.9629" rx="12.5" ry="12.5" style="stroke:#A80036;stroke-width:1.5;" width="223" x="514" y="173.5801"/><text fill="#000000" font-family="sans-serif" font-size="12" lengthAdjust="spacing" textLength="203" x="524" y="194.9824">error: supply an existing repository</text><polygon fill="#FEFECE" filter="url(#fn2xviq5f02ro)" points="303.75,340.9055,315.75,352.9055,303.75,364.9055,291.75,352.9055,303.75,340.9055" style="stroke:#A80036;stroke-width:1.5;"/><rect fill="#FEFECE" filter="url(#fn2xviq5f02ro)" height="33.9629" rx="12.5" ry="12.5" style="stroke:#A80036;stroke-width:1.5;" width="182" x="212.75" y="384.9055"/><text fill="#000000" font-family="sans-serif" font-size="12" lengthAdjust="spacing" textLength="162" x="222.75" y="406.3079">commit cluster configuration</text><rect fill="#FEFECE" filter="url(#fn2xviq5f02ro)" height="33.9629" rx="12.5" ry="12.5" style="stroke:#A80036;stroke-width:1.5;" width="289" x="159.25" y="438.8684"/><text fill="#000000" font-family="sans-serif" font-size="12" lengthAdjust="spacing" textLength="269" x="169.25" y="460.2708">push commited cluster configuration to remote</text><ellipse cx="303.75" cy="527.8313" fill="#FFFFFF" filter="url(#fn2xviq5f02ro)" rx="11" ry="11" style="stroke:#000000;stroke-width:1.0;"/><ellipse cx="303.75" cy="527.8313" fill="#000000" rx="6" ry="6" style="stroke:#7F7F7F;stroke-width:1.0;"/><line style="stroke:#A80036;stroke-width:1.5;" x1="117" x2="117" y1="232.543" y2="256.9426"/><polygon fill="#A80036" points="113,246.9426,117,256.9426,121,246.9426,117,250.9426" style="stroke:#A80036;stroke-width:1.0;"/><line style="stroke:#A80036;stroke-width:1.5;" x1="179" x2="211" y1="220.543" y2="220.543"/><polygon fill="#A80036" points="207,263.9241,211,273.9241,215,263.9241,211,267.9241" style="stroke:#A80036;stroke-width:1.5;"/><line style="stroke:#A80036;stroke-width:1.5;" x1="211" x2="211" y1="220.543" y2="322.9055"/><line style="stroke:#A80036;stroke-width:1.5;" x1="211" x2="129" y1="322.9055" y2="322.9055"/><polygon fill="#A80036" points="139,318.9055,129,322.9055,139,326.9055,135,322.9055" style="stroke:#A80036;stroke-width:1.0;"/><line style="stroke:#A80036;stroke-width:1.5;" x1="117" x2="117" y1="290.9055" y2="310.9055"/><polygon fill="#A80036" points="113,300.9055,117,310.9055,121,300.9055,117,304.9055" style="stroke:#A80036;stroke-width:1.0;"/><line style="stroke:#A80036;stroke-width:1.5;" x1="117" x2="117" y1="173.543" y2="208.543"/><polygon fill="#A80036" points="113,198.543,117,208.543,121,198.543,117,202.543" style="stroke:#A80036;stroke-width:1.0;"/><line style="stroke:#A80036;stroke-width:1.5;" x1="355.5" x2="355.5" y1="207.543" y2="242.543"/><polygon fill="#A80036" points="351.5,232.543,355.5,242.543,359.5,232.543,355.5,236.543" style="stroke:#A80036;stroke-width:1.0;"/><line style="stroke:#A80036;stroke-width:1.5;" x1="365.5" x2="355.5" y1="151.5801" y2="151.5801"/><line style="stroke:#A80036;stroke-width:1.5;" x1="355.5" x2="355.5" y1="151.5801" y2="173.5801"/><polygon fill="#A80036" points="351.5,163.5801,355.5,173.5801,359.5,163.5801,355.5,167.5801" style="stroke:#A80036;stroke-width:1.0;"/><line style="stroke:#A80036;stroke-width:1.5;" x1="615.5" x2="625.5" y1="151.5801" y2="151.5801"/><line style="stroke:#A80036;stroke-width:1.5;" x1="625.5" x2="625.5" y1="151.5801" y2="173.5801"/><polygon fill="#A80036" points="621.5,163.5801,625.5,173.5801,629.5,163.5801,625.5,167.5801" style="stroke:#A80036;stroke-width:1.0;"/><line style="stroke:#A80036;stroke-width:1.5;" x1="355.5" x2="355.5" y1="276.5059" y2="352.9055"/><line style="stroke:#A80036;stroke-width:1.5;" x1="355.5" x2="315.75" y1="352.9055" y2="352.9055"/><polygon fill="#A80036" points="325.75,348.9055,315.75,352.9055,325.75,356.9055,321.75,352.9055" style="stroke:#A80036;stroke-width:1.0;"/><line style="stroke:#A80036;stroke-width:1.5;" x1="243.75" x2="117" y1="117.5801" y2="117.5801"/><line style="stroke:#A80036;stroke-width:1.5;" x1="117" x2="117" y1="117.5801" y2="139.5801"/><polygon fill="#A80036" points="113,129.5801,117,139.5801,121,129.5801,117,133.5801" style="stroke:#A80036;stroke-width:1.0;"/><line style="stroke:#A80036;stroke-width:1.5;" x1="363.75" x2="490.5" y1="117.5801" y2="117.5801"/><line style="stroke:#A80036;stroke-width:1.5;" x1="490.5" x2="490.5" y1="117.5801" y2="139.5801"/><polygon fill="#A80036" points="486.5,129.5801,490.5,139.5801,494.5,129.5801,490.5,133.5801" style="stroke:#A80036;stroke-width:1.0;"/><line style="stroke:#A80036;stroke-width:1.5;" x1="117" x2="117" y1="334.9055" y2="352.9055"/><line style="stroke:#A80036;stroke-width:1.5;" x1="117" x2="291.75" y1="352.9055" y2="352.9055"/><polygon fill="#A80036" points="281.75,348.9055,291.75,352.9055,281.75,356.9055,285.75,352.9055" style="stroke:#A80036;stroke-width:1.0;"/><line style="stroke:#A80036;stroke-width:1.5;" x1="303.75" x2="303.75" y1="364.9055" y2="384.9055"/><polygon fill="#A80036" points="299.75,374.9055,303.75,384.9055,307.75,374.9055,303.75,378.9055" style="stroke:#A80036;stroke-width:1.0;"/><line style="stroke:#A80036;stroke-width:1.5;" x1="303.75" x2="303.75" y1="418.8684" y2="438.8684"/><polygon fill="#A80036" points="299.75,428.8684,303.75,438.8684,307.75,428.8684,303.75,432.8684" style="stroke:#A80036;stroke-width:1.0;"/><line style="stroke:#A80036;stroke-width:1.5;" x1="303.75" x2="303.75" y1="30" y2="105.5801"/><polygon fill="#A80036" points="299.75,95.5801,303.75,105.5801,307.75,95.5801,303.75,99.5801" style="stroke:#A80036;stroke-width:1.0;"/><line style="stroke:#A80036;stroke-width:1.5;" x1="303.75" x2="303.75" y1="472.8313" y2="516.8313"/><polygon fill="#A80036" points="299.75,506.8313,303.75,516.8313,307.75,506.8313,303.75,510.8313" style="stroke:#A80036;stroke-width:1.0;"/><!--MD5=[c8f07d84defb9d59200ae585cfce8b0c]
@startuml
start
partition CreateCluster {
	partition InstallAddonManagerTask {
        if (repository exists?) then (yes)
        	:clone repository;
            if (is repository bare?) then (yes)
                :initialize repository locally;
            else (no)
            endif
        else (no)
            if (git provider supports repository creation?) then (yes)
                :create repository in Git provider;
                :initialize repository locally;
            else (no)
                #pink:error: supply an existing repository;
                detach
            endif
        endif
        :commit cluster configuration;
        :push commited cluster configuration to remote;
    }
}
stop
@enduml

PlantUML version 1.2022.1(Tue Feb 01 18:19:58 UTC 2022)
(GPLV2 source distribution)
Java Runtime: OpenJDK Runtime Environment
JVM: OpenJDK 64-Bit Server VM
Default Encoding: UTF-8
Language: en
Country: US
--></g></svg>